<svg width="60" height="60" viewBox="0 0 60 60" fill="none" xmlns="http://www.w3.org/2000/svg">
<circle cx="30" cy="30" r="30" fill="#ECF5F9"/>
<rect width="38.5588" height="38.5588" transform="translate(10.9999 10.4423)" fill="#ECF5F9"/>
<path d="M43.1323 29.7217C43.1323 36.8202 37.3778 42.5747 30.2793 42.5747C23.1808 42.5747 17.4264 36.8202 17.4264 29.7217C17.4264 22.6232 23.1808 16.8688 30.2793 16.8688C37.3778 16.8688 43.1323 22.6232 43.1323 29.7217Z" fill="url(#paint0_linear_33_487)"/>
<path d="M30.2793 24.2591C29.4807 24.2591 28.8333 24.9065 28.8333 25.7051C28.8333 26.2375 28.4018 26.669 27.8694 26.669C27.337 26.669 26.9054 26.2375 26.9054 25.7051C26.9054 23.8417 28.4159 22.3312 30.2793 22.3312C32.1426 22.3312 33.6532 23.8417 33.6532 25.7051C33.6532 26.6187 33.2888 27.4492 32.6994 28.0558C32.5809 28.1779 32.4677 28.2909 32.3598 28.3987C32.0824 28.6759 31.8394 28.9187 31.6262 29.1927C31.3446 29.5544 31.2433 29.8203 31.2433 30.0429V31.0069C31.2433 31.5393 30.8117 31.9709 30.2793 31.9709C29.7469 31.9709 29.3153 31.5393 29.3153 31.0069V30.0429C29.3153 29.2008 29.7073 28.5191 30.1047 28.0086C30.3987 27.6308 30.7683 27.262 31.0682 26.9627C31.1586 26.8724 31.2428 26.7884 31.3166 26.7125C31.5705 26.4511 31.7252 26.0971 31.7252 25.7051C31.7252 24.9065 31.0779 24.2591 30.2793 24.2591Z" fill="white"/>
<path d="M30.2793 36.1481C30.9891 36.1481 31.5646 35.5726 31.5646 34.8628C31.5646 34.1529 30.9891 33.5775 30.2793 33.5775C29.5694 33.5775 28.994 34.1529 28.994 34.8628C28.994 35.5726 29.5694 36.1481 30.2793 36.1481Z" fill="white"/>
<defs>
<linearGradient id="paint0_linear_33_487" x1="30.2793" y1="16.8688" x2="30.2793" y2="42.5747" gradientUnits="userSpaceOnUse">
<stop stop-color="#30C9CD"/>
<stop offset="1" stop-color="#330D69"/>
</linearGradient>
</defs>
</svg>
