<svg width="60" height="60" viewBox="0 0 60 60" fill="none" xmlns="http://www.w3.org/2000/svg">
<path d="M0 5C0 2.23858 2.23858 0 5 0H55C57.7614 0 60 2.23858 60 5V55C60 57.7614 57.7614 60 55 60H5C2.23858 60 0 57.7614 0 55V5Z" fill="url(#paint0_linear_46_15235)"/>
<path d="M49 36.4622V36.909C48.8553 39.2966 46.7556 40.5791 44.7124 41.2204C41.2775 42.2995 37.5785 42.4257 34.0078 42.4799C31.4166 42.519 28.8318 42.4052 26.2534 42.1385C24.2028 41.9262 22.0942 41.5187 20.1779 40.6712C20.1551 40.6608 20.1329 40.6623 20.1111 40.6756C18.6356 41.584 16.9308 42.4776 15.1562 42.4843C12.9416 42.4932 11.4119 40.7825 11.0965 38.7007C11.0475 38.3795 11.0153 38.1175 11 37.9147V37.1562C11.2175 34.4012 12.3523 31.8391 13.8344 29.545C16.2569 25.797 19.524 22.5232 23.3225 20.1705C25.135 19.0483 27.1248 18.145 29.2192 17.7094C30.9166 17.3568 32.8856 17.4006 34.3477 18.4419C38.0646 21.0893 34.7604 26.1399 32.7973 28.6091C32.7941 28.6133 32.7922 28.6183 32.7917 28.6235C32.7912 28.6287 32.7921 28.6339 32.7944 28.6386C32.7968 28.6433 32.8003 28.6473 32.8048 28.6501C32.8092 28.6529 32.8143 28.6544 32.8196 28.6544C36.6493 28.5987 40.7261 29.2504 44.2032 30.9173C44.3967 31.0099 44.5273 31.0969 44.5951 31.1786C44.8141 31.4428 44.7168 31.8488 44.42 32.0069C44.2181 32.1137 44.0481 32.0811 43.8351 31.9764C43.3492 31.7384 42.8567 31.5232 42.3574 31.3307C42.3549 31.3297 42.3521 31.3294 42.3495 31.33C42.3468 31.3305 42.3443 31.3318 42.3424 31.3336C42.3404 31.3355 42.3391 31.3379 42.3384 31.3406C42.3378 31.3432 42.338 31.346 42.3389 31.3485C42.8257 32.8428 43.0056 34.3648 42.8784 35.9145C42.827 36.5453 42.7241 37.0065 42.5697 37.2979C42.1904 38.0149 41.2835 38.4513 40.4671 38.2858C39.6418 38.118 39.0198 37.4723 38.8795 36.6359C38.8023 36.1817 38.9337 35.5879 38.9426 35.1025C38.9745 33.2367 38.3251 31.5044 37.1747 30.0519C37.1653 30.0401 37.1532 30.0331 37.1384 30.0312C36.125 29.8946 35.1072 29.8102 34.085 29.7781C34.0553 29.7771 34.0474 29.7895 34.0613 29.8152C35.1033 31.7731 35.5543 33.8527 35.4143 36.054C35.3846 36.5186 35.3084 36.8764 35.1857 37.1272C34.3737 38.7845 31.9898 38.478 31.497 36.7398C31.3656 36.2759 31.4673 35.789 31.4673 35.3044C31.4673 33.9442 31.1261 32.6726 30.4438 31.4896C30.4416 31.4858 30.4386 31.4827 30.4349 31.4803C30.4313 31.4779 30.4272 31.4764 30.4228 31.4759C30.4185 31.4754 30.4142 31.4759 30.4101 31.4774C30.406 31.4789 30.4023 31.4812 30.3993 31.4844L27.7957 34.2023C27.7868 34.2116 27.7801 34.2227 27.7759 34.2349C27.7716 34.247 27.77 34.2599 27.7712 34.2728C27.8237 34.8992 27.8274 35.5167 27.7823 36.1253C27.7536 36.5132 27.6928 36.8145 27.5998 37.0292C27.0253 38.3607 25.2723 38.6057 24.2955 37.5295C24.2753 37.5077 24.254 37.5065 24.2317 37.5258C23.2847 38.3605 22.3001 39.1482 21.2778 39.8889C21.2739 39.8917 21.2708 39.8956 21.2689 39.9001C21.267 39.9046 21.2664 39.9095 21.2671 39.9143C21.2678 39.9191 21.2697 39.9236 21.2728 39.9274C21.2759 39.9312 21.2799 39.934 21.2845 39.9356C23.2505 40.6511 25.3101 40.9725 27.3845 41.1424C29.4097 41.3087 31.4379 41.3851 33.469 41.3718C36.8029 41.3495 40.1991 41.2367 43.4536 40.4389C44.3967 40.2078 45.2898 39.8535 46.1329 39.376C48.5124 38.0282 48.2949 35.5456 46.4832 33.8148C46.2687 33.6107 45.9355 33.3665 45.8583 33.1016C45.7114 32.5947 46.3474 32.2176 46.7786 32.5746C47.9743 33.5655 48.8605 34.8806 49 36.4622ZM21.2979 25.3027C22.0014 25.6396 21.5368 26.6661 20.8355 26.3224C20.0963 25.9598 19.3281 25.6837 18.531 25.4942C18.5008 25.4867 18.4751 25.4947 18.4538 25.5179L17.1297 26.9637C17.1015 26.9944 17.1082 27.0124 17.1498 27.0179C19.3912 27.3133 21.2506 28.2986 22.728 29.974C23.0323 30.3199 23.2646 30.5255 23.71 30.4438C24.3245 30.3325 24.6355 29.5807 24.2555 29.0849C23.9304 28.6598 23.5083 28.222 22.9893 27.7712C22.874 27.6713 22.7988 27.5866 22.7637 27.5174C22.4854 26.9689 23.1481 26.4701 23.638 26.8598C23.9838 27.1349 24.3886 27.5285 24.8522 28.0406C25.4704 28.7242 25.7421 29.5421 25.3457 30.4275C24.8633 31.5066 23.4495 31.9178 22.4557 31.2498C22.3265 31.1627 22.1256 30.968 21.853 30.6657C20.3929 29.0443 18.5391 28.173 16.2918 28.0517C16.2661 28.0508 16.2455 28.0602 16.2302 28.0799C15.7032 28.7573 15.2099 29.4584 14.7503 30.1833C14.7484 30.1863 14.7472 30.1897 14.7468 30.1932C14.7464 30.1967 14.7468 30.2002 14.7479 30.2036C14.7491 30.2069 14.7509 30.21 14.7534 30.2125C14.7558 30.215 14.7588 30.217 14.7621 30.2182C16.5404 30.8753 18.0681 31.9052 19.3452 33.3079C19.9923 34.0174 20.3835 34.8168 19.9723 35.7564C19.4646 36.9164 18.0241 37.3165 17.0036 36.598C16.8952 36.5213 16.6842 36.3096 16.3705 35.9627C15.4388 34.9321 14.2995 34.2099 12.9527 33.7963C12.9275 33.7889 12.9099 33.7975 12.9 33.8223C12.1942 35.6221 11.6175 38.2635 12.7397 40.021C14.7043 43.0996 19.1262 40.1227 21.044 38.6888C24.202 36.3271 26.8977 33.466 29.6207 30.6331C31.1816 29.0092 32.5227 27.2695 33.6761 25.3316C34.2884 24.3037 34.7812 23.1993 34.8984 21.9836C35.0402 20.526 34.203 19.3741 32.8574 18.9035C30.8298 18.1948 28.2811 18.9429 26.41 19.7971C26.4074 19.7982 26.4052 19.8001 26.4037 19.8024C26.4022 19.8048 26.4014 19.8076 26.4014 19.8104C26.4014 19.8133 26.4022 19.8162 26.4037 19.8187C26.4052 19.8212 26.4074 19.8232 26.41 19.8246C27.9107 20.5881 29.1821 21.6217 30.2241 22.9255C30.5062 23.2782 30.6878 23.5897 30.7689 23.8599C31.0932 24.9353 30.4104 26.1206 29.2949 26.3432C28.3382 26.534 27.6643 26.1183 27.0906 25.3784C25.8311 23.7537 23.8844 22.7904 21.8471 22.564C21.8213 22.561 21.7981 22.5675 21.7773 22.5833C20.9678 23.2008 20.1917 23.8581 19.4491 24.5553C19.4462 24.5581 19.4442 24.5615 19.4431 24.5653C19.4419 24.5691 19.4418 24.5731 19.4427 24.5768C19.4437 24.5806 19.4455 24.584 19.4482 24.5868C19.4509 24.5895 19.4543 24.5915 19.458 24.5924C20.0903 24.7809 20.7036 25.0177 21.2979 25.3027ZM29.476 23.7782C28.3783 22.3154 26.7975 21.1182 25.109 20.4621C25.0838 20.4527 25.0593 20.4545 25.0355 20.4673C24.3794 20.8221 23.7416 21.2073 23.1221 21.6229C23.1192 21.6249 23.1168 21.6278 23.1154 21.6311C23.114 21.6344 23.1136 21.638 23.1143 21.6415C23.1149 21.6451 23.1165 21.6484 23.119 21.651C23.1214 21.6536 23.1246 21.6555 23.1281 21.6563C25.1171 22.1323 26.7453 23.1592 28.0124 24.7371C28.1896 24.9573 28.3214 25.0949 28.408 25.1498C29.0166 25.5342 29.8479 25.0028 29.7291 24.2844C29.7049 24.1399 29.6205 23.9712 29.476 23.7782ZM31.2098 30.6034C32.1078 32.038 32.5858 33.6248 32.5821 35.3185C32.5813 35.7133 32.4626 36.2418 32.6192 36.5921C32.988 37.4196 34.1882 37.2037 34.2705 36.2885C34.4813 33.9437 33.9789 31.777 32.7632 29.7885C32.7577 29.7796 32.7501 29.7724 32.7409 29.7674C32.7318 29.7625 32.7216 29.76 32.7112 29.7603L31.9096 29.7818C31.8959 29.7823 31.8823 29.7856 31.8698 29.7916C31.8572 29.7976 31.8461 29.8061 31.8369 29.8167L31.2142 30.5462C31.2075 30.554 31.2035 30.5637 31.2027 30.5739C31.2019 30.5842 31.2044 30.5945 31.2098 30.6034ZM39.9631 36.3635C39.995 37.3929 41.5514 37.525 41.7021 36.4184C41.9633 34.5021 41.7194 32.6568 40.9703 30.8824C40.9604 30.8592 40.9433 30.8439 40.9191 30.8364C40.2006 30.6217 39.4735 30.4423 38.7378 30.2983C38.7347 30.2977 38.7315 30.2981 38.7285 30.2992C38.7256 30.3004 38.7231 30.3024 38.7213 30.305C38.7195 30.3076 38.7184 30.3107 38.7183 30.3139C38.7182 30.317 38.7191 30.3201 38.7207 30.3228C39.7308 31.9557 40.2437 33.9262 40.0047 35.8432C39.974 36.0867 39.9602 36.2601 39.9631 36.3635ZM18.7804 34.3551C17.5565 32.9019 15.9637 31.8094 14.1662 31.1823C14.1595 31.1801 14.1523 31.1803 14.1459 31.1829C14.1395 31.1855 14.1343 31.1903 14.1313 31.1964L13.3512 32.7171C13.3492 32.721 13.348 32.7252 13.3478 32.7296C13.3475 32.7339 13.3482 32.7382 13.3499 32.7423C13.3515 32.7463 13.354 32.75 13.3572 32.7529C13.3604 32.7559 13.3642 32.7581 13.3683 32.7594C14.7899 33.2048 16.014 33.9697 17.0407 35.0543C17.2581 35.2844 17.5038 35.6206 17.7502 35.7497C18.1257 35.9479 18.672 35.8069 18.8835 35.4521C19.1101 35.0716 19.0757 34.7059 18.7804 34.3551ZM25.1283 36.7947C25.6463 37.4085 26.5845 37.0426 26.6542 36.2707C26.6829 35.9575 26.6987 35.6374 26.7017 35.3103C26.7018 35.3063 26.7007 35.3023 26.6985 35.2988C26.6963 35.2954 26.6931 35.2927 26.6894 35.291C26.6857 35.2894 26.6816 35.2888 26.6776 35.2895C26.6736 35.2902 26.6698 35.292 26.6668 35.2948L25.132 36.7339C25.1237 36.7416 25.1188 36.7522 25.1181 36.7635C25.1174 36.7749 25.121 36.786 25.1283 36.7947Z" fill="white"/>
<defs>
<linearGradient id="paint0_linear_46_15235" x1="30" y1="0" x2="30" y2="60" gradientUnits="userSpaceOnUse">
<stop stop-color="#30C9CD"/>
<stop offset="1" stop-color="#330D69"/>
</linearGradient>
</defs>
</svg>
