<svg width="61" height="60" viewBox="0 0 61 60" fill="none" xmlns="http://www.w3.org/2000/svg">
<path d="M0.5 5C0.5 2.23858 2.73858 0 5.5 0H55.5C58.2614 0 60.5 2.23858 60.5 5V55C60.5 57.7614 58.2614 60 55.5 60H5.5C2.73858 60 0.5 57.7614 0.5 55V5Z" fill="url(#paint0_linear_3_15)"/>
<path d="M19.0941 18.8598C19.1865 18.7618 19.2195 18.5882 19.2836 18.476C19.8727 17.4538 20.4631 16.4331 21.0546 15.414C21.5651 14.5351 21.9027 14.0067 22.0675 13.8288C23.0256 12.7943 24.625 12.5868 25.8726 13.3082C34.0285 18.0171 42.1838 22.7259 50.3385 27.4348C50.744 27.6687 50.6545 28.0214 50.4479 28.3797C49.1679 30.6009 47.8857 32.8208 46.6013 35.0394C46.358 35.46 46.1043 35.7099 45.6262 35.4204C45.2993 35.2211 44.9686 35.0268 44.6342 34.8376C44.604 34.8206 44.5785 34.8259 44.5578 34.8536C43.2281 36.5793 41.0082 37.1093 39.009 36.2785C38.9744 36.2641 38.9423 36.2681 38.9128 36.2908C38.7713 36.3973 38.6299 36.535 38.4837 36.6208C37.3841 37.2715 36.2723 37.2693 35.1482 36.6142C33.6702 35.7536 32.2031 34.9033 30.7471 34.0633C30.7305 34.054 30.711 34.0516 30.6928 34.0565C30.6746 34.0615 30.6592 34.0734 30.65 34.0898C30.0068 35.2082 29.3231 36.5341 28.5348 37.4036C27.5043 38.5402 26.2294 39.2538 24.7098 39.5442C24.2811 39.626 23.6549 39.6665 22.8313 39.6659C21.4231 39.664 20.0154 39.664 18.6084 39.6659C18.5751 39.6659 18.5581 39.6825 18.5575 39.7159C18.5474 40.5809 18.5462 41.4435 18.5537 42.3035C18.5584 42.7958 18.2586 42.9222 17.805 42.9241C16.8839 42.9266 15.9686 42.9278 15.0589 42.9278C15.0466 42.9278 15.0349 42.9327 15.0262 42.9414C15.0175 42.95 15.0127 42.9618 15.0127 42.974C15.0164 43.7454 15.0966 44.778 14.892 45.4221C14.66 46.1558 14.0508 46.7594 13.3124 46.9913C12.7692 47.162 11.9959 47.113 11.3678 47.1073C10.8586 47.1026 10.3777 47.1337 10.3777 46.5245C10.377 40.3684 10.377 34.2127 10.3777 28.0572C10.3777 27.713 10.4984 27.365 10.8765 27.3612C11.4122 27.3562 11.9469 27.3521 12.4806 27.349C13.2602 27.3452 13.9033 27.6322 14.4101 28.21C15.0174 28.9031 15.0259 29.5972 15.0145 30.4695C15.0145 30.4739 15.0154 30.4783 15.0171 30.4825C15.0188 30.4866 15.0213 30.4903 15.0245 30.4935C15.0276 30.4966 15.0314 30.4991 15.0355 30.5008C15.0396 30.5025 15.044 30.5034 15.0485 30.5034C16.0242 30.5028 17.0028 30.5025 17.9841 30.5025C18.3557 30.5025 18.5424 30.7036 18.5443 31.106C18.5493 32.3288 18.5525 33.55 18.5537 34.7697C18.5537 34.7764 18.5564 34.7829 18.5612 34.7877C18.566 34.7925 18.5724 34.7951 18.5792 34.7951C20.0183 34.7964 21.4592 34.7964 22.902 34.7951C23.9639 34.7942 24.6287 34.6876 25.1644 33.7946C25.5956 33.0741 26.0219 32.3549 26.4431 31.6369C26.4466 31.6313 26.4489 31.625 26.4499 31.6184C26.4509 31.6118 26.4505 31.6051 26.4489 31.5986C26.4472 31.5921 26.4443 31.5859 26.4402 31.5805C26.4361 31.5751 26.431 31.5706 26.4252 31.5672C23.6332 29.9583 20.8422 28.348 18.052 26.736C16.9025 26.0721 16.3046 24.7085 16.6017 23.4213C16.6777 23.0918 16.9217 22.5703 17.3335 21.8568C17.8905 20.8911 18.4484 19.9264 19.0073 18.9626C19.0193 18.9425 19.0482 18.9082 19.0941 18.8598ZM20.3238 19.5237C20.337 19.5369 20.3474 19.5457 20.3549 19.5501C28.8246 24.4407 37.292 29.3281 45.7573 34.2123C45.7625 34.2154 45.7682 34.2173 45.7742 34.2181C45.7801 34.2189 45.7862 34.2185 45.792 34.2169C45.7978 34.2153 45.8032 34.2126 45.8079 34.2089C45.8127 34.2052 45.8166 34.2006 45.8195 34.1954L49.3059 28.16C49.321 28.1342 49.3157 28.1141 49.2899 28.0996C41.3722 23.5278 33.4552 18.9576 25.5387 14.3889C25.2143 14.2016 24.9673 14.0853 24.7975 14.04C24.1676 13.8731 23.4528 14.0447 22.9756 14.4804C22.8203 14.6225 22.6172 14.9101 22.3664 15.3433C21.6013 16.6679 20.8362 17.9932 20.0711 19.3191C20.0497 19.3555 20.0582 19.3829 20.0965 19.4011L20.2672 19.4841C20.2886 19.4942 20.3075 19.5074 20.3238 19.5237ZM40.0218 32.1584L19.6278 20.3838C19.6098 20.3733 19.5899 20.3664 19.5693 20.3636C19.5486 20.3609 19.5276 20.3622 19.5075 20.3675C19.4873 20.3729 19.4684 20.3821 19.4518 20.3948C19.4353 20.4074 19.4214 20.4232 19.4109 20.4413L17.9285 23.0092C17.7918 23.246 17.7043 23.5082 17.671 23.7808C17.6378 24.0533 17.6594 24.3309 17.7348 24.5976C17.8101 24.8644 17.9376 25.1151 18.11 25.3354C18.2824 25.5557 18.4963 25.7413 18.7395 25.8816L35.7046 35.6769C35.9478 35.8173 36.2155 35.9098 36.4926 35.9489C36.7696 35.988 37.0505 35.973 37.3192 35.9048C37.5878 35.8365 37.8391 35.7164 38.0585 35.5513C38.2779 35.3861 38.4611 35.1792 38.5978 34.9423L40.0803 32.3744C40.1011 32.338 40.1066 32.2948 40.0957 32.2543C40.0847 32.2138 40.0581 32.1794 40.0218 32.1584ZM13.8037 29.2671C13.3888 28.3043 12.3703 28.4363 11.5357 28.4504C11.4942 28.4511 11.4735 28.4721 11.4735 28.5136V45.9587C11.4735 45.9655 11.4748 45.9722 11.4775 45.9784C11.4802 45.9847 11.4841 45.9903 11.489 45.9951C11.4939 45.9998 11.4997 46.0035 11.5061 46.006C11.5125 46.0085 11.5194 46.0098 11.5263 46.0096C12.4231 45.9851 13.4567 46.1737 13.8178 45.143C13.8839 44.9531 13.9169 44.5819 13.9169 44.0293C13.9156 39.3965 13.915 34.7637 13.915 30.1309C13.915 29.7279 13.8779 29.44 13.8037 29.2671ZM17.4532 31.6454C17.4532 31.6354 17.4492 31.6258 17.4422 31.6187C17.4351 31.6117 17.4255 31.6077 17.4155 31.6077H15.0504C15.0404 31.6077 15.0308 31.6117 15.0237 31.6187C15.0166 31.6258 15.0127 31.6354 15.0127 31.6454V41.7849C15.0127 41.7949 15.0166 41.8045 15.0237 41.8115C15.0308 41.8186 15.0404 41.8226 15.0504 41.8226H17.4155C17.4255 41.8226 17.4351 41.8186 17.4422 41.8115C17.4492 41.8045 17.4532 41.7949 17.4532 41.7849V31.6454ZM26.1338 34.3359C25.6368 35.1856 24.6334 35.8928 23.631 35.8919C21.9581 35.8913 20.2817 35.8919 18.6018 35.8938C18.5691 35.8938 18.5528 35.9098 18.5528 35.9419V38.5135C18.5528 38.5506 18.5713 38.5691 18.6084 38.5691C19.8979 38.5679 21.1876 38.5688 22.4777 38.572C23.3635 38.5739 23.9903 38.5449 24.3581 38.4852C25.8311 38.2469 27.03 37.5472 27.9548 36.386C28.5404 35.6514 29.1524 34.4679 29.7145 33.5211C29.7177 33.5158 29.7199 33.5099 29.7209 33.5037C29.7218 33.4976 29.7215 33.4913 29.72 33.4852C29.7185 33.4792 29.7159 33.4735 29.7122 33.4685C29.7085 33.4635 29.7038 33.4592 29.6985 33.456L27.4465 32.1575C27.4435 32.1556 27.44 32.1543 27.4364 32.1538C27.4328 32.1533 27.4291 32.1536 27.4256 32.1545C27.422 32.1555 27.4186 32.1572 27.4155 32.1594C27.4125 32.1617 27.4099 32.1646 27.4078 32.1679C26.9822 32.8896 26.5575 33.6123 26.1338 34.3359ZM39.687 35.3572C41.0978 35.8645 42.6472 35.4411 43.6138 34.2887C43.6169 34.2851 43.6192 34.2807 43.6205 34.2761C43.6218 34.2714 43.6221 34.2665 43.6213 34.2618C43.6204 34.257 43.6186 34.2525 43.6158 34.2485C43.6131 34.2445 43.6095 34.2412 43.6053 34.2387L41.127 32.8091C41.118 32.8039 41.1073 32.8025 41.0973 32.8052C41.0872 32.8078 41.0786 32.8143 41.0733 32.8233L39.6568 35.2742C39.6342 35.3138 39.6443 35.3415 39.687 35.3572Z" fill="white"/>
<path d="M24.6665 25.6669L20.1711 23.061C19.9124 22.911 19.5812 22.9992 19.4313 23.2578L19.4228 23.2725C19.2729 23.5311 19.361 23.8623 19.6196 24.0123L24.115 26.6181C24.3737 26.7681 24.7049 26.6799 24.8548 26.4213L24.8633 26.4066C25.0132 26.148 24.9251 25.8168 24.6665 25.6669Z" fill="white"/>
<path d="M46.6175 29.4132C46.6175 29.9739 46.3948 30.5117 45.9983 30.9082C45.6018 31.3047 45.064 31.5274 44.5032 31.5274C44.2256 31.5274 43.9507 31.4727 43.6941 31.3665C43.4376 31.2602 43.2046 31.1045 43.0082 30.9082C42.8119 30.7118 42.6562 30.4788 42.5499 30.2223C42.4437 29.9657 42.389 29.6908 42.389 29.4132C42.389 29.1355 42.4437 28.8606 42.5499 28.6041C42.6562 28.3475 42.8119 28.1145 43.0082 27.9181C43.2046 27.7218 43.4376 27.5661 43.6941 27.4598C43.9507 27.3536 44.2256 27.2989 44.5032 27.2989C45.064 27.2989 45.6018 27.5216 45.9983 27.9181C46.3948 28.3146 46.6175 28.8524 46.6175 29.4132ZM45.5198 29.415C45.5198 29.2818 45.4936 29.1498 45.4426 29.0267C45.3916 28.9036 45.3169 28.7918 45.2226 28.6975C45.1284 28.6033 45.0166 28.5286 44.8934 28.4776C44.7703 28.4266 44.6384 28.4003 44.5051 28.4003C44.3719 28.4003 44.2399 28.4266 44.1168 28.4776C43.9937 28.5286 43.8819 28.6033 43.7876 28.6975C43.6934 28.7918 43.6187 28.9036 43.5677 29.0267C43.5167 29.1498 43.4904 29.2818 43.4904 29.415C43.4904 29.6842 43.5973 29.9423 43.7876 30.1325C43.9779 30.3228 44.236 30.4297 44.5051 30.4297C44.7742 30.4297 45.0323 30.3228 45.2226 30.1325C45.4129 29.9423 45.5198 29.6842 45.5198 29.415Z" fill="white"/>
<defs>
<linearGradient id="paint0_linear_3_15" x1="30.5" y1="0" x2="30.5" y2="60" gradientUnits="userSpaceOnUse">
<stop stop-color="#30C9CD"/>
<stop offset="1" stop-color="#330D69"/>
</linearGradient>
</defs>
</svg>
