<svg width="60" height="60" viewBox="0 0 60 60" fill="none" xmlns="http://www.w3.org/2000/svg">
<path d="M0 5C0 2.23858 2.23858 0 5 0H55C57.7614 0 60 2.23858 60 5V55C60 57.7614 57.7614 60 55 60H5C2.23858 60 0 57.7614 0 55V5Z" fill="url(#paint0_linear_3_22)"/>
<path d="M27.4397 16.603C26.8841 16.3323 26.4321 16.4424 26.0838 16.9332C26.0256 17.0161 25.9586 17.2682 25.9578 17.375C25.9525 18.7421 25.9527 20.1185 25.9586 21.5042C25.9588 21.5195 25.9649 21.5341 25.9757 21.5449C25.9864 21.5556 26.0009 21.5616 26.016 21.5616C28.5747 21.5632 31.1368 21.5632 33.7025 21.5616C34.3302 21.5616 34.4195 22.5594 33.5868 22.5594C31.0558 22.5578 28.525 22.5594 25.9945 22.5642C25.9679 22.5642 25.9546 22.5775 25.9546 22.6041C25.953 23.2943 25.9506 23.985 25.9474 24.6763C25.9458 25.1495 25.9062 25.497 25.8286 25.7187C25.2224 27.4511 22.7092 27.4479 22.1133 25.698C22.0362 25.472 21.998 25.1125 21.9985 24.6196C21.9985 23.9454 21.9985 23.2751 21.9985 22.6089C21.9985 22.596 21.9934 22.5836 21.9842 22.5745C21.9751 22.5654 21.9627 22.5602 21.9498 22.5602C20.9656 22.5618 19.9838 22.561 19.0043 22.5578C18.5832 22.5562 18.2708 22.5174 18.0671 22.4414C17.3086 22.1582 16.8827 21.3886 16.9186 20.5918C16.9212 20.5439 16.8984 20.5202 16.85 20.5208C16.4193 20.5282 15.9819 20.5341 15.538 20.5383C15.1354 20.5426 14.9339 20.3432 14.9334 19.9401C14.9328 18.5363 14.9318 17.1326 14.9302 15.7288C14.9294 15.3236 15.0083 15.0341 15.4614 15.0277C15.933 15.0213 16.3996 15.0205 16.8612 15.0253C16.9058 15.0258 16.9266 15.0038 16.9234 14.9591C16.866 14.128 17.3565 13.3264 18.1644 13.0696C18.3452 13.0122 18.6308 12.9835 19.0211 12.9835C26.0942 12.9819 33.1673 12.9819 40.2404 12.9835C40.7216 12.9835 41.0643 13.0207 41.2685 13.0951C41.8611 13.3113 42.3285 13.8704 42.4258 14.5021C42.4385 14.584 42.4457 14.8469 42.4473 15.2909C42.4494 15.9343 42.4492 16.5782 42.4465 17.2227C42.446 17.2503 42.4596 17.2647 42.4872 17.2658C42.7297 17.2748 42.9719 17.2785 43.2138 17.2769C44.0409 17.2714 44.7611 17.7738 44.994 18.5667C45.0424 18.7294 45.0666 18.983 45.0666 19.3276C45.0677 20.3815 45.0688 21.4351 45.0698 22.4884C45.0698 22.9553 45.0318 23.2991 44.9558 23.5197C44.8026 23.9643 44.5221 24.2913 44.1143 24.5008C43.917 24.6018 43.5204 24.7044 42.9243 24.8087C39.1724 25.4622 35.4205 26.1183 31.6686 26.7771C31.1573 26.8665 30.7808 27.0427 30.7769 27.617C30.7726 28.187 30.7705 28.7512 30.7705 29.3095C30.7705 29.315 30.7716 29.3205 30.7737 29.3256C30.7758 29.3306 30.779 29.3352 30.7829 29.3391C30.7869 29.343 30.7915 29.346 30.7966 29.348C30.8018 29.3501 30.8072 29.3511 30.8128 29.351C31.2147 29.3483 31.6173 29.3478 32.0203 29.3494C32.4494 29.351 32.6815 29.4706 32.6839 29.9189C32.6876 30.5086 32.6884 31.0868 32.6863 31.6536C32.6858 31.6845 32.7009 31.702 32.7318 31.7063C33.2422 31.7749 33.2957 32.0046 33.2957 32.4879C33.2962 34.3538 33.2954 36.2196 33.2933 38.0855C33.2925 38.7228 32.2971 38.7371 32.2971 38.0655C32.296 36.3012 32.2958 34.5311 32.2963 32.7551C32.2963 32.7469 32.293 32.739 32.2872 32.7331C32.2813 32.7273 32.2734 32.724 32.2652 32.724H28.278C28.2687 32.724 28.2598 32.7277 28.2532 32.7343C28.2466 32.7409 28.2429 32.7498 28.2429 32.7591C28.2429 36.2563 28.2429 39.7514 28.2429 43.2443C28.2429 43.9616 28.2828 44.4399 28.3625 44.6792C28.9599 46.4674 31.596 46.4539 32.183 44.6457C32.2623 44.4022 32.3008 43.9731 32.2987 43.3584C32.2944 42.3173 32.2947 41.2767 32.2995 40.2366C32.3005 40.0122 32.3378 39.849 32.4111 39.7469C32.6823 39.3696 33.31 39.6288 33.3092 40.1241C33.3087 42.2862 33.3015 43.6405 33.2877 44.1871C33.2542 45.5295 32.1527 46.7035 30.8662 46.958C28.9727 47.3328 27.2499 45.8972 27.2483 43.9678C27.2446 40.0728 27.2448 36.1779 27.2491 32.2829C27.2496 31.9496 27.4363 31.756 27.809 31.7023C27.8388 31.698 27.8539 31.6808 27.8545 31.6505C27.8566 31.0762 27.8593 30.4894 27.8624 29.8902C27.8648 29.4196 28.1623 29.3462 28.5795 29.3462C28.9629 29.3462 29.3425 29.3481 29.7185 29.3518C29.7253 29.3519 29.7321 29.3506 29.7385 29.3481C29.7449 29.3455 29.7507 29.3417 29.7556 29.3369C29.7605 29.332 29.7644 29.3263 29.7671 29.32C29.7697 29.3136 29.7711 29.3068 29.7711 29.2999C29.7706 28.8155 29.7714 28.3367 29.7735 27.8635C29.7767 27.0651 29.9745 26.4437 30.6676 26.0537C30.8718 25.9389 31.244 25.8346 31.7842 25.741C33.5746 25.4305 35.3644 25.1181 37.1537 24.8039C37.3515 24.7688 37.5955 24.7568 37.7901 24.7169C38.1959 24.6329 38.6024 24.5524 39.0097 24.4753C39.1107 24.4561 39.43 24.4083 39.9676 24.3317C40.1813 24.3009 40.394 24.2623 40.6057 24.216C41.4998 24.0206 42.4106 23.881 43.3127 23.7239C43.8274 23.6346 44.0837 23.3238 44.0816 22.7915C44.0763 21.6605 44.0726 20.5293 44.0704 19.3977C44.0688 18.8275 44.0034 18.4438 43.426 18.2891C43.2835 18.2513 42.9705 18.2503 42.4872 18.2859C42.4622 18.2875 42.4497 18.3008 42.4497 18.3258C42.4492 18.9989 42.4487 19.6705 42.4481 20.3405C42.4476 20.7967 42.421 21.1121 42.3684 21.2865C42.1371 22.0514 41.424 22.5634 40.6216 22.5626C38.9732 22.5621 37.3249 22.5618 35.6765 22.5618C35.0879 22.5618 35.0265 21.5545 35.7762 21.5568C37.3315 21.5616 38.8868 21.5632 40.4422 21.5616C40.7203 21.5611 40.9263 21.5241 41.0603 21.4508C41.3203 21.3093 41.4503 21.0751 41.4503 20.7481C41.4519 18.9636 41.4525 17.1794 41.4519 15.3954C41.4511 14.7813 41.5149 14.3035 40.9797 14.0666C40.8495 14.0086 40.6466 13.9797 40.3712 13.9797C37.544 13.9786 34.7175 13.9789 31.8919 13.9805C31.8637 13.9805 31.8494 13.9946 31.8488 14.0227C31.8451 15.2702 31.8448 16.5158 31.848 17.7595C31.8496 18.4853 31.8127 18.9644 31.7372 19.1968C31.478 19.992 30.6309 20.575 29.7751 20.524C28.928 20.4737 28.2142 19.913 27.9781 19.0907C27.8497 18.644 27.9023 18.0339 27.8959 17.5226C27.8919 17.253 27.8473 16.9946 27.6734 16.8183C27.5968 16.7401 27.5251 16.6452 27.4397 16.603ZM24.948 17.328C24.948 16.3453 25.8445 15.535 26.7665 15.4672C27.758 15.3946 28.617 16.0295 28.8443 17.0081C28.9352 17.4006 28.8921 17.9302 28.8969 18.3768C28.9001 18.6331 28.9275 18.82 28.9791 18.9375C29.3659 19.8157 30.6253 19.6474 30.8223 18.782C30.8388 18.7107 30.8476 18.418 30.8486 17.9038C30.8524 16.6016 30.8545 15.3018 30.855 14.0044C30.855 13.9978 30.8524 13.9915 30.8478 13.9869C30.8432 13.9823 30.8369 13.9797 30.8303 13.9797H23.0154C23.0099 13.9797 23.0047 13.9818 23.0008 13.9857C22.9969 13.9896 22.9947 13.9949 22.9947 14.0004C22.9963 14.8746 22.9963 15.7503 22.9947 16.6277C22.9942 16.8085 22.9737 16.9398 22.9333 17.0217C22.7777 17.3344 22.2609 17.3511 22.0862 17.064C22.0293 16.9699 22.0004 16.8165 21.9993 16.6038C21.9966 15.7418 21.9972 14.8823 22.0009 14.0251C22.0009 14.0131 21.9961 14.0015 21.9876 13.993C21.979 13.9845 21.9675 13.9797 21.9554 13.9797C20.9068 13.9791 19.8575 13.9797 18.8073 13.9813C18.4425 13.9818 18.186 14.1137 18.0376 14.3769C17.9616 14.5125 17.9233 14.7318 17.9228 15.0349C17.9212 16.7572 17.9217 18.4797 17.9244 20.2025C17.9252 20.7904 17.8606 21.1963 18.3399 21.4571C18.467 21.5268 18.6512 21.5616 18.8926 21.5616C19.8912 21.5622 20.9063 21.5627 21.9379 21.5632C21.9783 21.5632 21.9985 21.543 21.9985 21.5026C21.9974 20.6534 21.9977 19.7947 21.9993 18.9264C21.9998 18.7429 22.0192 18.6108 22.0575 18.53C22.2123 18.2077 22.749 18.2014 22.9157 18.4957C22.9694 18.5898 22.996 18.7469 22.9955 18.967C22.9944 20.9142 22.9947 22.8617 22.9963 24.8095C22.9968 25.0828 23.0184 25.2771 23.0609 25.3925C23.3568 26.1957 24.538 26.2348 24.8643 25.4451C24.9196 25.3117 24.9472 25.0945 24.9472 24.7935C24.9488 22.305 24.9491 19.8165 24.948 17.328ZM16.9194 16.0566C16.9194 16.0462 16.9153 16.0363 16.9079 16.029C16.9006 16.0216 16.8907 16.0175 16.8803 16.0175H15.971C15.9607 16.0175 15.9507 16.0216 15.9434 16.029C15.9361 16.0363 15.932 16.0462 15.932 16.0566V19.4847C15.932 19.495 15.9361 19.505 15.9434 19.5123C15.9507 19.5197 15.9607 19.5238 15.971 19.5238H16.8803C16.8907 19.5238 16.9006 19.5197 16.9079 19.5123C16.9153 19.505 16.9194 19.495 16.9194 19.4847V16.0566ZM31.6877 30.3815C31.6877 30.3724 31.6841 30.3637 31.6777 30.3572C31.6712 30.3508 31.6625 30.3472 31.6534 30.3472H28.8905C28.8815 30.3472 28.8727 30.3508 28.8663 30.3572C28.8599 30.3637 28.8562 30.3724 28.8562 30.3815V31.6895C28.8562 31.694 28.8571 31.6985 28.8589 31.7027C28.8606 31.7068 28.8631 31.7106 28.8663 31.7138C28.8695 31.717 28.8733 31.7195 28.8774 31.7212C28.8816 31.7229 28.886 31.7238 28.8905 31.7238H31.6534C31.6579 31.7238 31.6624 31.7229 31.6666 31.7212C31.6707 31.7195 31.6745 31.717 31.6777 31.7138C31.6809 31.7106 31.6834 31.7068 31.6851 31.7027C31.6868 31.6985 31.6877 31.694 31.6877 31.6895V30.3815Z" fill="white"/>
<defs>
<linearGradient id="paint0_linear_3_22" x1="30" y1="0" x2="30" y2="60" gradientUnits="userSpaceOnUse">
<stop stop-color="#30C9CD"/>
<stop offset="1" stop-color="#330D69"/>
</linearGradient>
</defs>
</svg>
