<svg width="48" height="48" viewBox="0 0 48 48" fill="none" xmlns="http://www.w3.org/2000/svg">
<g filter="url(#filter0_d_3_3)">
<path d="M30 20C30 14.4772 25.5228 10 20 10C14.4772 10 10 14.4772 10 20C10 25.5228 14.4772 30 20 30C25.5228 30 30 25.5228 30 20Z" fill="url(#paint0_linear_3_3)"/>
<path d="M19.0533 22.3867C18.92 22.3867 18.7933 22.3334 18.7 22.2401L16.8133 20.3534C16.62 20.1601 16.62 19.8401 16.8133 19.6467C17.0067 19.4534 17.3267 19.4534 17.52 19.6467L19.0533 21.1801L22.48 17.7534C22.6733 17.5601 22.9933 17.5601 23.1867 17.7534C23.38 17.9467 23.38 18.2667 23.1867 18.4601L19.4067 22.2401C19.3133 22.3334 19.1867 22.3867 19.0533 22.3867Z" fill="white"/>
</g>
<defs>
<filter id="filter0_d_3_3" x="0" y="0" width="48" height="48" filterUnits="userSpaceOnUse" color-interpolation-filters="sRGB">
<feFlood flood-opacity="0" result="BackgroundImageFix"/>
<feColorMatrix in="SourceAlpha" type="matrix" values="0 0 0 0 0 0 0 0 0 0 0 0 0 0 0 0 0 0 127 0" result="hardAlpha"/>
<feOffset dx="4" dy="4"/>
<feGaussianBlur stdDeviation="7"/>
<feComposite in2="hardAlpha" operator="out"/>
<feColorMatrix type="matrix" values="0 0 0 0 0 0 0 0 0 0 0 0 0 0 0 0 0 0 0.05 0"/>
<feBlend mode="normal" in2="BackgroundImageFix" result="effect1_dropShadow_3_3"/>
<feBlend mode="normal" in="SourceGraphic" in2="effect1_dropShadow_3_3" result="shape"/>
</filter>
<linearGradient id="paint0_linear_3_3" x1="20" y1="10" x2="20" y2="30" gradientUnits="userSpaceOnUse">
<stop stop-color="#30C9CD"/>
<stop offset="1" stop-color="#330D69"/>
</linearGradient>
</defs>
</svg>
