<svg width="60" height="60" viewBox="0 0 60 60" fill="none" xmlns="http://www.w3.org/2000/svg">
<path d="M0 5C0 2.23858 2.23858 0 5 0H55C57.7614 0 60 2.23858 60 5V55C60 57.7614 57.7614 60 55 60H5C2.23858 60 0 57.7614 0 55V5Z" fill="url(#paint0_linear_3_7)"/>
<path d="M36.8486 17.7339L36.5864 19.7108C36.5858 19.7156 36.5862 19.7204 36.5876 19.7251C36.589 19.7297 36.5913 19.734 36.5944 19.7376C36.5976 19.7412 36.6014 19.7441 36.6057 19.7461C36.6101 19.748 36.6148 19.749 36.6195 19.7489H41.6694C41.7839 19.7489 41.8938 19.7944 41.9748 19.8754C42.0558 19.9564 42.1013 20.0663 42.1013 20.1808C42.103 22.6611 42.103 25.1408 42.1013 27.6199C42.0996 29.4568 40.8668 31.0069 39.0324 31.2962C38.8316 31.3279 38.2672 31.344 37.339 31.3446C36.5771 31.3446 35.8152 31.3455 35.0533 31.3471C35.0221 31.3471 35.0046 31.3627 35.0006 31.3938C34.8349 32.6195 34.6774 33.8424 34.5281 35.0625C34.4941 35.343 34.3355 35.4907 34.0521 35.5054C33.9921 35.5082 33.9316 35.513 33.8705 35.5198C33.8394 35.5226 33.8239 35.5399 33.8239 35.5715L33.823 37.2625C33.823 37.2651 33.8235 37.2677 33.8246 37.2702C33.8256 37.2726 33.8271 37.2748 33.829 37.2766C33.8309 37.2784 33.8332 37.2798 33.8356 37.2808C33.8381 37.2817 33.8407 37.2821 33.8434 37.282C35.3774 37.2639 36.5137 37.9107 37.2524 39.2224C37.5267 39.7088 37.6611 40.2886 37.6554 40.9617C37.6469 41.9928 37.6424 43.0469 37.6418 44.1239C37.6418 44.1572 37.6583 44.1767 37.6911 44.1824C38.4394 44.302 38.9731 44.8993 39.1436 45.5755C39.2395 45.9556 39.2038 46.4689 39.2072 46.9017C39.2106 47.4268 38.8645 47.3963 38.4334 47.3963C31.8671 47.3969 25.3038 47.3969 18.7436 47.3963C18.636 47.3963 18.5327 47.3539 18.4563 47.2782C18.3798 47.2026 18.3364 47.0999 18.3355 46.9924C18.3304 46.5012 18.2846 45.9115 18.4229 45.4712C18.6441 44.7681 19.143 44.334 19.9196 44.1688C19.9473 44.1632 19.9612 44.1459 19.9612 44.1171C19.9645 43.1883 19.966 42.2581 19.9654 41.3265C19.9648 40.6947 20.0039 40.2281 20.0825 39.9266C20.5152 38.267 21.9507 37.265 23.6578 37.2879C23.6923 37.2885 23.7096 37.2718 23.7096 37.2379L23.7087 35.5546C23.7087 35.5269 23.6949 35.5124 23.6671 35.5113C23.3354 35.4943 23.0639 35.5164 22.9994 35.1074C22.2058 30.0338 21.4137 24.9618 20.6229 19.8915C20.6088 19.801 20.5734 19.7195 20.5169 19.6471L18.9617 17.6643C18.9548 17.6553 18.946 17.648 18.9359 17.6428C18.9257 17.6377 18.9145 17.6349 18.9031 17.6346C18.5621 17.6202 17.9665 17.7203 17.9054 17.2435C17.8604 16.8914 18.014 16.2856 18.1955 15.9657C18.6039 15.2474 19.2151 14.8393 20.029 14.7414C20.3217 14.7066 20.7409 14.7295 21.0938 14.7219C21.1238 14.7213 21.1411 14.7064 21.1456 14.6769C21.3288 13.4671 22.3275 12.6135 23.5518 12.611C26.2515 12.6053 28.9515 12.6028 31.6518 12.6033C32.1847 12.6039 32.5778 12.6446 32.8312 12.7255C33.7382 13.0157 34.2863 13.7275 34.4687 14.6812C34.4743 14.7106 34.4919 14.725 34.5213 14.7245C34.9472 14.7211 35.4367 14.699 35.8126 14.7771C36.9504 15.0104 37.6766 15.953 37.7157 17.1205C37.7343 17.6516 37.367 17.6295 36.9707 17.627C36.8989 17.627 36.8582 17.6626 36.8486 17.7339ZM33.6109 14.6914C33.4344 13.9812 32.8337 13.4526 32.0786 13.4526C29.3557 13.4521 26.6322 13.4515 23.9081 13.4509C23.4771 13.4509 23.1601 13.4908 22.957 13.5706C22.4819 13.7584 22.1646 14.1252 22.005 14.671C22.0032 14.6772 22.0028 14.6838 22.004 14.6901C22.0051 14.6965 22.0077 14.7025 22.0116 14.7077C22.0154 14.7129 22.0205 14.7171 22.0263 14.7201C22.0321 14.723 22.0384 14.7245 22.0449 14.7245H33.5854C33.5895 14.7245 33.5935 14.7235 33.5971 14.7218C33.6007 14.72 33.6039 14.7174 33.6063 14.7142C33.6088 14.711 33.6105 14.7073 33.6113 14.7033C33.6121 14.6994 33.6119 14.6953 33.6109 14.6914ZM36.8282 16.7242C36.6789 16.1032 36.0731 15.5729 35.4087 15.5729C30.567 15.5723 25.7252 15.5723 20.8834 15.5729C20.2799 15.5729 19.8729 15.617 19.6625 15.7053C19.2564 15.8755 18.9622 16.2027 18.7801 16.6869C18.7569 16.748 18.7779 16.7785 18.8429 16.7785H36.7858C36.8231 16.7785 36.8372 16.7604 36.8282 16.7242ZM34.0521 31.8808C34.059 31.8809 34.0656 31.8784 34.0708 31.8739C34.0759 31.8693 34.0793 31.863 34.0801 31.8562L36.0094 17.6584C36.0099 17.6544 36.0096 17.6504 36.0084 17.6466C36.0072 17.6428 36.0052 17.6393 36.0025 17.6363C35.9999 17.6334 35.9966 17.631 35.993 17.6294C35.9894 17.6278 35.9854 17.6269 35.9814 17.627H20.0638C20.0586 17.627 20.0535 17.6285 20.0491 17.6313C20.0447 17.634 20.0412 17.638 20.0389 17.6426C20.0366 17.6473 20.0357 17.6525 20.0362 17.6577C20.0367 17.6629 20.0386 17.6678 20.0418 17.6719L21.3984 19.3892C21.4013 19.3932 21.403 19.3979 21.4035 19.4028L23.349 31.8596C23.35 31.8661 23.3533 31.8721 23.3582 31.8764C23.3632 31.8808 23.3695 31.8832 23.3761 31.8834L34.0521 31.8808ZM36.454 20.6356L35.1347 30.419C35.1279 30.471 35.1508 30.497 35.2034 30.497C36.316 30.4976 37.3743 30.4953 38.3783 30.4902C40.0871 30.4817 41.2469 29.2676 41.2503 27.5987C41.2554 25.283 41.2554 22.9659 41.2503 20.6474C41.2503 20.6135 41.2336 20.5965 41.2002 20.5965L36.4973 20.5974C36.4718 20.5974 36.4574 20.6101 36.454 20.6356ZM33.6762 34.662C33.6843 34.6621 33.6921 34.6592 33.6982 34.6539C33.7043 34.6486 33.7083 34.6412 33.7093 34.6332L33.9605 32.7708C33.9611 32.7661 33.9607 32.7614 33.9593 32.7569C33.9579 32.7523 33.9555 32.7482 33.9524 32.7446C33.9493 32.7411 33.9454 32.7383 33.9411 32.7364C33.9368 32.7344 33.9321 32.7335 33.9274 32.7335H23.5238C23.519 32.7334 23.5142 32.7344 23.5098 32.7364C23.5054 32.7384 23.5015 32.7413 23.4984 32.7449C23.4952 32.7486 23.4929 32.7528 23.4916 32.7575C23.4902 32.7621 23.4899 32.7669 23.4907 32.7717L23.78 34.6255C23.7812 34.6333 23.7851 34.6403 23.791 34.6454C23.7969 34.6506 23.8044 34.6534 23.8122 34.6535L33.6762 34.662ZM32.9754 35.5495C32.9754 35.5396 32.9715 35.5301 32.9645 35.5231C32.9575 35.5161 32.948 35.5122 32.9381 35.5122H24.5962C24.5863 35.5122 24.5768 35.5161 24.5698 35.5231C24.5628 35.5301 24.5589 35.5396 24.5589 35.5495V37.2498C24.5589 37.2597 24.5628 37.2692 24.5698 37.2762C24.5768 37.2832 24.5863 37.2871 24.5962 37.2871H32.9381C32.948 37.2871 32.9575 37.2832 32.9645 37.2762C32.9715 37.2692 32.9754 37.2597 32.9754 37.2498V35.5495ZM36.6619 40.0208C36.3471 39.0315 35.329 38.1372 34.2421 38.1372C30.6928 38.1361 27.1435 38.1338 23.5942 38.1305C22.4923 38.1293 21.6778 38.6027 21.1507 39.5507C20.9272 39.9529 20.815 40.3242 20.8138 40.6647C20.811 41.8186 20.8107 42.97 20.813 44.1188C20.813 44.1357 20.8212 44.1442 20.8376 44.1442H36.7459C36.7764 44.1442 36.7917 44.1287 36.7917 44.0975C36.7991 43.1416 36.7999 42.1891 36.7943 41.24C36.7914 40.6953 36.7473 40.2889 36.6619 40.0208ZM19.234 46.5487H38.3019C38.3193 46.5487 38.3359 46.5418 38.3481 46.5296C38.3604 46.5173 38.3673 46.5007 38.3673 46.4834V46.06C38.3673 45.7756 38.2495 45.5028 38.0397 45.3017C37.83 45.1006 37.5456 44.9876 37.249 44.9876H20.287C19.9904 44.9876 19.7059 45.1006 19.4962 45.3017C19.2865 45.5028 19.1687 45.7756 19.1687 46.06V46.4834C19.1687 46.5007 19.1756 46.5173 19.1878 46.5296C19.2001 46.5418 19.2167 46.5487 19.234 46.5487Z" fill="white"/>
<path d="M22.5446 20.7972C22.6012 21.1212 22.8438 21.3496 23.0866 21.3072C23.3294 21.2648 23.4804 20.9678 23.4239 20.6437C23.3673 20.3197 23.1246 20.0914 22.8818 20.1337C22.639 20.1761 22.488 20.4732 22.5446 20.7972Z" fill="white"/>
<path d="M23.1831 21.9082L23.163 21.9114C22.9371 21.9472 22.783 22.1593 22.8188 22.3851L23.659 27.6896C23.6947 27.9155 23.9068 28.0696 24.1327 28.0338L24.1528 28.0306C24.3786 27.9948 24.5327 27.7828 24.4969 27.5569L23.6568 22.2524C23.621 22.0265 23.4089 21.8724 23.1831 21.9082Z" fill="white"/>
<path d="M30.6203 41.5505C30.6203 42.0397 30.426 42.5089 30.0801 42.8548C29.7341 43.2007 29.265 43.3951 28.7758 43.3951C28.2866 43.3951 27.8174 43.2007 27.4715 42.8548C27.1256 42.5089 26.9313 42.0397 26.9313 41.5505C26.9313 41.0613 27.1256 40.5922 27.4715 40.2463C27.8174 39.9004 28.2866 39.706 28.7758 39.706C29.265 39.706 29.7341 39.9004 30.0801 40.2463C30.426 40.5922 30.6203 41.0613 30.6203 41.5505ZM29.7744 41.5505C29.7744 41.2859 29.6693 41.0321 29.4822 40.845C29.2951 40.6579 29.0413 40.5528 28.7766 40.5528C28.512 40.5528 28.2582 40.6579 28.0711 40.845C27.884 41.0321 27.7789 41.2859 27.7789 41.5505C27.7789 41.8152 27.884 42.0689 28.0711 42.2561C28.2582 42.4432 28.512 42.5483 28.7766 42.5483C29.0413 42.5483 29.2951 42.4432 29.4822 42.2561C29.6693 42.0689 29.7744 41.8152 29.7744 41.5505Z" fill="white"/>
<defs>
<linearGradient id="paint0_linear_3_7" x1="30" y1="0" x2="30" y2="60" gradientUnits="userSpaceOnUse">
<stop stop-color="#30C9CD"/>
<stop offset="1" stop-color="#330D69"/>
</linearGradient>
</defs>
</svg>
