<svg width="150" height="128" viewBox="0 0 150 128" fill="none" xmlns="http://www.w3.org/2000/svg">
<path d="M72.0093 69.6935C69.7765 62.5263 79.9587 61.7682 84.1986 61.9435C91.1401 62.2283 98.1518 63.9352 104.64 66.3652C105.385 66.6442 106.526 67.2205 108.062 68.094C114.655 72.1629 119.121 78.629 121.753 85.8313C123.019 89.2027 123.901 92.6647 124.397 96.2172C124.399 96.2298 124.398 96.2426 124.395 96.2548C124.391 96.267 124.385 96.2783 124.377 96.2879C124.368 96.2975 124.358 96.3052 124.346 96.3104C124.335 96.3156 124.322 96.3182 124.31 96.318C109.996 96.3166 95.6758 96.3202 81.3501 96.329C72.8595 96.3356 64.2483 98.4478 58.8822 105.514C55.7795 109.601 54.6095 114.301 53.527 119.202C53.1516 120.904 52.82 122.087 52.5323 122.75C51.7829 124.483 50.4638 126.503 48.6408 127.233C48.1617 127.426 47.4948 127.523 46.6403 127.526C31.8786 127.575 17.1213 127.66 2.35959 127.761C1.63651 127.767 1.04929 127.64 0.597916 127.382C0.0238375 127.056 -0.136849 126.544 0.115863 125.846C4.73186 113.13 9.42966 100.445 14.2093 87.7901C19.8829 72.7691 25.7507 57.8249 31.8129 42.9573C34.8695 35.4614 38.0072 27.9502 41.6467 20.715C46.9514 10.1713 56.5442 2.32261 68.3851 0.484243C69.5099 0.308952 70.9641 0.219113 72.7477 0.214731C98.4775 0.143154 124.214 0.0715774 149.957 2.11997e-07C149.964 -2.27833e-05 149.971 0.00182528 149.977 0.00537976C149.984 0.00893424 149.989 0.0140861 149.993 0.020375C149.997 0.0266638 149.999 0.0338935 150 0.0414251C150 0.0489566 149.999 0.0565539 149.996 0.0635417C145.176 10.8878 138.055 20.9955 127.022 26.1249C118.558 30.0624 109.16 30.4152 100.03 31.0506C98.9442 31.1251 97.4287 31.3851 95.483 31.8307C89.6217 33.1716 83.4448 36.6884 81.486 42.7929C81.448 42.9098 81.4882 42.9514 81.6065 42.9178C85.7141 41.7828 89.8554 40.6902 94.0302 39.6399C94.8453 39.4354 95.7079 39.2469 96.618 39.0746C98.7499 38.6736 104.502 37.0828 102.707 41.9143C101.607 44.8811 98.1693 44.7343 95.5377 44.6707C88.7072 44.5042 81.8782 44.529 75.0506 44.7452C73.4357 44.7956 71.2775 44.995 69.6122 45.3828C63.5625 46.7896 56.6144 50.2253 60.5825 57.9205C63.122 62.8506 67.673 67.0532 72.0904 70.3092C72.1766 70.372 72.2043 70.3523 72.1736 70.2501L72.0093 69.6935Z" fill="url(#paint0_linear_6_646)"/>
<defs>
<linearGradient id="paint0_linear_6_646" x1="53.125" y1="-38.75" x2="40" y2="127.5" gradientUnits="userSpaceOnUse">
<stop stop-color="#30C9CD"/>
<stop offset="0.95692" stop-color="#330D69"/>
</linearGradient>
</defs>
</svg>
