<svg width="150" height="202" viewBox="0 0 150 202" fill="none" xmlns="http://www.w3.org/2000/svg">
<g clip-path="url(#clip0_1_55)">
<path d="M72.0093 69.6935C69.7765 62.5263 79.9587 61.7682 84.1986 61.9435C91.1401 62.2283 98.1518 63.9352 104.64 66.3652C105.385 66.6442 106.526 67.2205 108.062 68.094C114.655 72.1629 119.121 78.629 121.753 85.8313C123.019 89.2027 123.901 92.6647 124.397 96.2172C124.399 96.2298 124.398 96.2426 124.395 96.2548C124.391 96.267 124.385 96.2783 124.377 96.2879C124.368 96.2975 124.358 96.3052 124.346 96.3104C124.335 96.3156 124.322 96.3182 124.31 96.318C109.996 96.3166 95.6758 96.3202 81.3501 96.329C72.8595 96.3356 64.2483 98.4478 58.8822 105.514C55.7795 109.601 54.6095 114.301 53.527 119.202C53.1516 120.904 52.82 122.087 52.5323 122.75C51.7829 124.483 50.4638 126.503 48.6408 127.233C48.1617 127.426 47.4948 127.523 46.6403 127.526C31.8786 127.575 17.1213 127.66 2.35959 127.761C1.63651 127.767 1.04929 127.64 0.597916 127.382C0.0238375 127.056 -0.136849 126.544 0.115863 125.846C4.73186 113.13 9.42966 100.445 14.2093 87.7901C19.8829 72.7691 25.7507 57.8249 31.8129 42.9573C34.8695 35.4614 38.0072 27.9502 41.6467 20.715C46.9514 10.1713 56.5442 2.32261 68.3851 0.484243C69.5099 0.308952 70.9641 0.219113 72.7477 0.214731C98.4775 0.143154 124.214 0.0715774 149.957 2.11997e-07C149.964 -2.27833e-05 149.971 0.00182528 149.977 0.00537976C149.984 0.00893424 149.989 0.0140861 149.993 0.020375C149.997 0.0266638 149.999 0.0338935 150 0.0414251C150 0.0489566 149.999 0.0565539 149.996 0.0635417C145.176 10.8878 138.055 20.9955 127.022 26.1249C118.558 30.0624 109.16 30.4152 100.03 31.0506C98.9442 31.1251 97.4287 31.3851 95.483 31.8307C89.6217 33.1716 83.4448 36.6884 81.486 42.7929C81.448 42.9098 81.4882 42.9514 81.6065 42.9178C85.7141 41.7828 89.8554 40.6902 94.0302 39.6399C94.8453 39.4354 95.7079 39.2469 96.618 39.0746C98.7499 38.6736 104.502 37.0828 102.707 41.9143C101.607 44.8811 98.1693 44.7343 95.5377 44.6707C88.7072 44.5042 81.8782 44.529 75.0506 44.7452C73.4357 44.7956 71.2775 44.995 69.6122 45.3828C63.5625 46.7896 56.6144 50.2253 60.5825 57.9205C63.122 62.8506 67.673 67.0532 72.0904 70.3092C72.1766 70.372 72.2043 70.3523 72.1736 70.2501L72.0093 69.6935Z" fill="url(#paint0_linear_1_55)"/>
</g>
<g clip-path="url(#clip1_1_55)">
<path d="M13.9832 190.296C13.1318 189.706 11.2691 187.994 11.749 186.841C11.9941 186.247 13.3073 185.602 13.867 185.582C15.6386 185.52 17.4901 185.488 19.4215 185.484C19.7982 185.484 20.039 185.308 20.1439 184.955L20.1801 184.83C20.1983 184.769 20.2002 184.704 20.1858 184.642C20.1714 184.58 20.1411 184.522 20.0975 184.474C20.054 184.426 19.9988 184.39 19.937 184.368C19.8752 184.347 19.8088 184.341 19.744 184.351C19.0577 184.454 16.2483 185.128 16.1632 185.096C16.1369 185.085 16.1132 185.069 16.094 185.049C16.0747 185.029 16.0604 185.005 16.052 184.979C16.0436 184.952 16.0414 184.925 16.0454 184.898C16.0495 184.871 16.0597 184.845 16.0754 184.822C16.4796 184.239 16.9835 183.785 17.5872 183.461C18.694 182.864 20.4457 182.834 21.7925 182.721C22.5113 182.663 23.1125 182.574 23.5958 182.453C24.4075 182.249 24.982 182.042 25.3191 181.831C27.1354 180.701 28.4502 179.175 29.2637 177.253C29.2757 177.225 29.2803 177.195 29.2772 177.165C29.2741 177.135 29.2634 177.106 29.246 177.081C29.2286 177.056 29.2052 177.035 29.1776 177.021C29.1501 177.007 29.1195 177 29.0883 177C24.0782 177.027 19.0913 177.064 14.1277 177.113C11.4626 177.138 9.20782 178.775 8.10879 181.074C7.43802 182.477 6.80424 183.895 6.20743 185.329C4.04033 190.522 1.9773 195.728 0.0183113 200.946C0.00128058 200.993 -0.00397731 201.042 0.00298622 201.091C0.00994974 201.14 0.028927 201.186 0.0583068 201.226C0.0876866 201.267 0.126601 201.299 0.17174 201.322C0.216878 201.344 0.266905 201.355 0.317574 201.355L9.16654 201.295C9.41818 201.293 9.66256 201.213 9.86304 201.065C10.0635 200.917 10.2093 200.71 10.2785 200.475C10.8383 198.567 10.9647 197 12.9771 195.954C13.0045 195.941 13.0337 195.935 13.0647 195.937C13.0939 195.937 13.1232 195.936 13.1524 195.934C13.1954 195.933 13.2384 195.921 13.2814 195.899C13.9246 195.562 14.5714 195.391 15.2215 195.388C18.2416 195.368 21.2472 195.363 24.2382 195.373C24.2578 195.373 24.2772 195.368 24.2949 195.36C24.3127 195.352 24.3285 195.341 24.3412 195.327C24.3539 195.312 24.3633 195.296 24.3686 195.278C24.374 195.26 24.3752 195.241 24.3723 195.222C23.9492 192.432 22.7702 190.276 19.8369 189.403C18.8205 189.102 13.7458 187.971 14.1018 190.223C14.1208 190.338 14.0812 190.363 13.9832 190.296Z" fill="url(#paint1_linear_1_55)"/>
<path d="M38.8363 177.063C38.8213 177.063 38.8065 177.066 38.7935 177.073C38.7804 177.08 38.7693 177.09 38.7614 177.103L27.2113 195.451C27.203 195.463 27.1985 195.478 27.198 195.494C27.1976 195.509 27.2015 195.524 27.2092 195.537C27.2168 195.551 27.228 195.562 27.2415 195.569C27.255 195.577 27.2705 195.581 27.2861 195.581L32.193 195.583C32.2087 195.584 32.2241 195.58 32.2377 195.572C32.2514 195.565 32.2626 195.554 32.2704 195.541L40.4848 181.683C40.4941 181.668 40.5081 181.656 40.5247 181.649C40.5415 181.642 40.5601 181.64 40.578 181.643C40.5959 181.647 40.6122 181.656 40.6247 181.669C40.6371 181.682 40.645 181.698 40.6473 181.716L41.509 188.661C41.5104 188.673 41.5093 188.685 41.5057 188.696C41.5021 188.708 41.4961 188.718 41.4881 188.727C41.4801 188.736 41.4703 188.743 41.4592 188.748C41.4482 188.753 41.4361 188.756 41.4239 188.756L37.5308 188.774C37.5152 188.774 37.4997 188.777 37.4861 188.785C37.4726 188.792 37.4612 188.803 37.4534 188.816L35.3843 192.296C35.3767 192.309 35.3727 192.324 35.3726 192.339C35.3726 192.354 35.3765 192.368 35.384 192.381C35.3916 192.394 35.4026 192.405 35.4157 192.413C35.4289 192.42 35.4439 192.424 35.4592 192.424H41.9605C41.9817 192.424 42.0023 192.431 42.0183 192.445C42.0345 192.458 42.0451 192.477 42.0482 192.497L42.4636 195.511C42.4666 195.531 42.4772 195.55 42.4934 195.563C42.5096 195.576 42.53 195.584 42.5512 195.583L47.1873 195.581C47.2 195.581 47.2125 195.579 47.2242 195.573C47.2357 195.568 47.246 195.561 47.2544 195.552C47.2627 195.542 47.2688 195.531 47.2724 195.52C47.276 195.508 47.2768 195.495 47.275 195.483L44.4113 177.138C44.4083 177.118 44.3981 177.1 44.3825 177.086C44.3669 177.073 44.3469 177.066 44.3262 177.065L38.8363 177.063Z" fill="url(#paint2_linear_1_55)"/>
<path d="M57.4196 180.916C57.4358 180.916 57.4518 180.92 57.4664 180.927C57.481 180.933 57.4938 180.943 57.5039 180.956C57.5141 180.968 57.5213 180.982 57.525 180.997C57.5287 181.013 57.5288 181.029 57.5253 181.044L54.2308 195.455C54.2273 195.471 54.2275 195.487 54.2312 195.502C54.2349 195.517 54.242 195.532 54.2522 195.544C54.2624 195.556 54.2752 195.566 54.2898 195.573C54.3044 195.58 54.3205 195.583 54.3366 195.583L58.8514 195.581C58.8761 195.581 58.9001 195.573 58.9193 195.558C58.9385 195.543 58.9519 195.522 58.9572 195.498L62.2671 180.999C62.2725 180.976 62.2858 180.955 62.3051 180.94C62.3243 180.924 62.3482 180.916 62.3729 180.916H67.7468C67.7715 180.916 67.7954 180.908 67.8147 180.893C67.8339 180.878 67.8473 180.857 67.8525 180.834L68.6988 177.191C68.7023 177.175 68.7021 177.159 68.6985 177.144C68.6948 177.129 68.6876 177.114 68.6774 177.102C68.6672 177.09 68.6544 177.08 68.6398 177.073C68.6252 177.066 68.6091 177.063 68.593 177.063L52.9744 177.065C52.9497 177.065 52.9258 177.073 52.9065 177.088C52.8873 177.104 52.8739 177.124 52.8687 177.148L52.0354 180.788C52.0319 180.804 52.032 180.82 52.0357 180.835C52.0394 180.85 52.0466 180.865 52.0568 180.877C52.0669 180.889 52.0797 180.899 52.0943 180.906C52.109 180.913 52.1249 180.916 52.1412 180.916H57.4196Z" fill="url(#paint3_linear_1_55)"/>
<path d="M75.153 183.411L76.5591 177.346C76.5986 177.175 76.5289 177.086 76.3501 177.078C73.7341 176.942 71.8198 177.888 71.1722 180.513C70.6821 182.497 70.3837 183.803 70.277 184.431C69.934 186.442 71.0355 187.137 73.0118 187.515C74.2931 187.763 75.5701 188.029 76.8428 188.315C77.0622 188.363 77.302 188.312 77.5213 188.385C78.0425 188.563 78.5662 188.656 79.0615 188.774C79.2594 188.819 79.3358 188.938 79.2912 189.13L77.8438 195.463C77.8427 195.469 77.8425 195.475 77.8436 195.48C77.8447 195.486 77.8469 195.491 77.85 195.496C77.8531 195.5 77.8572 195.504 77.8619 195.507C77.8665 195.51 77.8719 195.512 77.8773 195.513C79.7787 195.837 81.8478 195.202 82.7662 193.497C82.9658 193.125 83.099 192.819 83.1661 192.58C83.326 192.011 83.6287 190.694 84.0742 188.626C84.2342 187.879 84.2892 187.357 84.2393 187.061C83.971 185.527 82.9107 185.339 81.6259 184.988C81.2441 184.884 80.9121 184.809 80.6301 184.762C79.6928 184.602 78.7605 184.416 77.8335 184.206C77.0802 184.035 76.2848 183.904 75.4472 183.812C75.3996 183.807 75.3537 183.792 75.3126 183.768C75.2713 183.745 75.2357 183.713 75.208 183.675C75.1803 183.637 75.161 183.594 75.1515 183.549C75.1421 183.503 75.1426 183.456 75.153 183.411Z" fill="url(#paint4_linear_1_55)"/>
<path d="M81.2098 181.047L80.9029 182.403C80.8982 182.425 80.8987 182.448 80.9042 182.469C80.9098 182.491 80.9201 182.511 80.9348 182.528C80.9494 182.546 80.9677 182.56 80.9885 182.569C81.0094 182.579 81.032 182.584 81.055 182.584L85.2783 182.571C85.3626 182.571 85.4176 182.532 85.4434 182.453C86.2638 179.876 86.7307 177.07 82.9435 177.068C81.239 177.068 79.5467 177.065 77.8663 177.06C77.8342 177.06 77.8031 177.071 77.7782 177.09C77.7533 177.11 77.7362 177.137 77.7296 177.168L76.8834 180.796C76.8811 180.805 76.8809 180.814 76.8829 180.823C76.8849 180.832 76.889 180.84 76.895 180.847C76.9009 180.855 76.9085 180.86 76.9173 180.865C76.926 180.869 76.9356 180.871 76.9453 180.871L81.0732 180.879C81.0941 180.878 81.1148 180.883 81.1339 180.892C81.1528 180.901 81.1695 180.914 81.1826 180.93C81.1958 180.946 81.2051 180.965 81.2098 180.985C81.2145 181.005 81.2145 181.026 81.2098 181.047Z" fill="url(#paint5_linear_1_55)"/>
<path d="M94.7035 177.233C94.7085 177.212 94.7085 177.19 94.7035 177.168C94.6985 177.147 94.6885 177.127 94.6744 177.11C94.6602 177.092 94.6423 177.079 94.6218 177.069C94.6014 177.06 94.579 177.055 94.5565 177.055L90.1165 177.078C90.0829 177.078 90.0503 177.089 90.0241 177.11C89.9979 177.13 89.9795 177.159 89.972 177.191L85.8158 195.403C85.8108 195.424 85.8107 195.446 85.8156 195.467C85.8206 195.489 85.8303 195.508 85.8442 195.525C85.858 195.543 85.8756 195.556 85.8958 195.566C85.9159 195.576 85.9379 195.581 85.9603 195.581H90.3822C90.4162 195.581 90.4494 195.57 90.4761 195.55C90.5029 195.529 90.5216 195.5 90.5292 195.468L94.7035 177.233Z" fill="url(#paint6_linear_1_55)"/>
<path d="M101.464 195.583C101.493 195.584 101.522 195.574 101.545 195.556C101.568 195.538 101.584 195.513 101.591 195.486L105.762 177.221C105.766 177.202 105.766 177.184 105.762 177.165C105.758 177.147 105.75 177.13 105.738 177.116C105.726 177.101 105.711 177.089 105.693 177.081C105.677 177.072 105.657 177.068 105.639 177.068L101.167 177.065C101.138 177.065 101.11 177.075 101.087 177.092C101.064 177.11 101.048 177.135 101.041 177.163L99.4466 184.146C99.4402 184.173 99.4242 184.198 99.4011 184.216C99.3782 184.234 99.3496 184.243 99.3203 184.243L94.3127 184.246C94.2838 184.246 94.2558 184.256 94.2334 184.274C94.2109 184.292 94.1953 184.316 94.1889 184.344L93.3891 187.962C93.3849 187.98 93.385 187.999 93.3893 188.017C93.3937 188.036 93.4022 188.053 93.4144 188.068C93.4265 188.082 93.442 188.094 93.4595 188.102C93.477 188.11 93.4961 188.115 93.5155 188.114L98.3915 188.104C98.4109 188.104 98.4301 188.109 98.4476 188.117C98.4651 188.125 98.4805 188.137 98.4926 188.151C98.5048 188.166 98.5134 188.183 98.5177 188.202C98.5222 188.22 98.5222 188.239 98.518 188.257L96.8694 195.425C96.8651 195.444 96.8652 195.463 96.8694 195.481C96.8736 195.499 96.882 195.516 96.8938 195.531C96.9057 195.545 96.9208 195.557 96.9379 195.565C96.9551 195.574 96.9741 195.578 96.9932 195.578L101.464 195.583Z" fill="url(#paint7_linear_1_55)"/>
<path d="M111.37 191.725C111.351 191.725 111.331 191.721 111.314 191.713C111.296 191.705 111.281 191.693 111.269 191.678C111.257 191.663 111.248 191.646 111.244 191.628C111.24 191.609 111.24 191.59 111.244 191.572L114.523 177.211C114.527 177.192 114.527 177.174 114.523 177.155C114.519 177.137 114.51 177.12 114.498 177.105C114.486 177.091 114.472 177.079 114.454 177.071C114.437 177.062 114.418 177.058 114.398 177.058L109.922 177.068C109.894 177.068 109.865 177.077 109.842 177.095C109.818 177.113 109.803 177.138 109.797 177.165L105.622 195.428C105.618 195.446 105.618 195.465 105.622 195.483C105.626 195.501 105.635 195.518 105.647 195.533C105.658 195.548 105.674 195.56 105.691 195.568C105.708 195.576 105.727 195.581 105.746 195.581H119.094C119.124 195.581 119.152 195.571 119.175 195.554C119.198 195.536 119.214 195.511 119.22 195.483L120.041 191.878C120.046 191.859 120.046 191.84 120.04 191.822C120.036 191.804 120.028 191.786 120.016 191.772C120.003 191.757 119.988 191.745 119.97 191.737C119.953 191.729 119.934 191.725 119.915 191.725H111.37Z" fill="url(#paint8_linear_1_55)"/>
<path d="M127.632 188.28C127.637 188.297 127.648 188.313 127.661 188.325C127.675 188.338 127.693 188.346 127.712 188.349C127.73 188.352 127.749 188.35 127.766 188.343C127.784 188.336 127.799 188.325 127.81 188.31L130.975 184.04C130.985 184.028 130.99 184.015 130.993 184.001C130.996 183.986 130.995 183.972 130.991 183.957L129.13 177.143C129.125 177.122 129.112 177.103 129.094 177.09C129.077 177.077 129.055 177.07 129.033 177.07L124.418 177.055C124.401 177.055 124.386 177.058 124.371 177.065C124.358 177.072 124.346 177.082 124.335 177.094C124.326 177.106 124.32 177.12 124.317 177.135C124.314 177.15 124.315 177.166 124.319 177.181L127.632 188.28Z" fill="url(#paint9_linear_1_55)"/>
<path d="M132.501 190.491C132.628 189.925 132.615 189.516 132.994 189.019C135.958 185.137 138.952 181.208 141.977 177.233C141.99 177.217 141.997 177.198 141.999 177.178C142.001 177.157 141.997 177.137 141.988 177.119C141.978 177.101 141.964 177.086 141.945 177.076C141.928 177.065 141.907 177.06 141.887 177.06L137.434 177.068C137.317 177.068 137.224 177.114 137.156 177.208C134.193 181.278 131.22 185.358 128.236 189.448C127.965 189.819 127.775 190.225 127.669 190.667C127.282 192.271 126.917 193.869 126.572 195.46C126.569 195.475 126.569 195.49 126.573 195.505C126.577 195.519 126.584 195.532 126.593 195.544C126.602 195.555 126.614 195.565 126.628 195.571C126.641 195.577 126.656 195.581 126.67 195.581L131.17 195.583C131.237 195.583 131.279 195.551 131.296 195.486C131.727 193.821 132.128 192.156 132.501 190.491Z" fill="url(#paint10_linear_1_55)"/>
<path d="M76.6913 195.508L77.5194 191.905C77.5237 191.889 77.5239 191.871 77.5201 191.854C77.5163 191.837 77.5084 191.821 77.4973 191.807C77.4862 191.794 77.4719 191.783 77.4557 191.775C77.4394 191.767 77.4215 191.763 77.4034 191.762H73.2575C73.2326 191.763 73.2079 191.757 73.1854 191.747C73.1627 191.736 73.1429 191.721 73.127 191.702C73.1112 191.683 73.0999 191.661 73.0939 191.637C73.0879 191.613 73.0874 191.588 73.0923 191.564L73.3684 190.215C73.3726 190.194 73.3719 190.172 73.3663 190.151C73.3607 190.13 73.3504 190.11 73.3361 190.094C73.3218 190.077 73.3039 190.063 73.2836 190.054C73.2634 190.045 73.2412 190.04 73.2188 190.04L68.882 190.03C68.8029 190.03 68.7548 190.068 68.7376 190.145C68.3738 191.88 67.3367 194.52 69.6559 195.355C70.0498 195.497 70.7886 195.572 71.8721 195.578C73.4527 195.587 75.0307 195.586 76.6061 195.576C76.6262 195.576 76.6455 195.569 76.661 195.557C76.6765 195.544 76.6872 195.527 76.6913 195.508Z" fill="url(#paint11_linear_1_55)"/>
<path d="M14.1018 190.223C13.7458 187.972 18.8205 189.102 19.8369 189.403C22.7702 190.276 23.9492 192.432 24.3723 195.222C24.3752 195.241 24.374 195.26 24.3686 195.278C24.3633 195.296 24.3539 195.312 24.3412 195.327C24.3285 195.341 24.3127 195.352 24.2949 195.36C24.2772 195.368 24.2578 195.373 24.2382 195.373C21.2472 195.363 18.2416 195.368 15.2215 195.388C14.5714 195.391 13.9246 195.562 13.2814 195.899C13.2384 195.921 13.1954 195.933 13.1524 195.934C13.1232 195.936 13.0939 195.937 13.0647 195.937C13.0337 195.935 13.0045 195.941 12.9771 195.954C10.9647 197 10.8383 198.567 10.2785 200.475C10.2093 200.71 10.0635 200.917 9.86304 201.065C9.66256 201.213 9.41818 201.293 9.16654 201.295L0.317574 201.355C0.266905 201.355 0.216878 201.344 0.17174 201.322C0.126601 201.299 0.0876866 201.267 0.0583068 201.226C0.028927 201.186 0.00994974 201.14 0.00298622 201.091C-0.00397731 201.042 0.00128058 200.993 0.0183113 200.946C1.9773 195.728 4.04033 190.522 6.20743 185.329C6.80424 183.895 7.43802 182.477 8.10879 181.074C9.20782 178.775 11.4626 177.138 14.1277 177.113C19.0913 177.064 24.0782 177.027 29.0883 177C29.1195 177 29.1501 177.007 29.1776 177.021C29.2052 177.035 29.2286 177.056 29.246 177.081C29.2634 177.106 29.2741 177.135 29.2772 177.165C29.2803 177.195 29.2757 177.225 29.2637 177.253C28.4502 179.175 27.1354 180.701 25.3191 181.831C24.982 182.042 24.4075 182.249 23.5958 182.453C23.1125 182.574 22.5113 182.663 21.7925 182.721C20.4457 182.834 18.694 182.864 17.5872 183.461C16.9835 183.785 16.4796 184.239 16.0754 184.822C16.0597 184.845 16.0495 184.871 16.0454 184.898C16.0414 184.925 16.0436 184.952 16.052 184.979C16.0604 185.005 16.0747 185.029 16.094 185.049C16.1132 185.069 16.1369 185.085 16.1632 185.096C16.2483 185.128 19.0577 184.454 19.744 184.351C19.8088 184.341 19.8752 184.347 19.937 184.368C19.9988 184.39 20.054 184.426 20.0975 184.474C20.1411 184.522 20.1714 184.58 20.1858 184.642C20.2002 184.704 20.1983 184.769 20.1801 184.83L20.1439 184.955C20.039 185.308 19.7982 185.484 19.4215 185.484C17.4901 185.488 15.6386 185.52 13.867 185.582C13.3073 185.602 11.9941 186.247 11.749 186.841C11.2691 187.994 13.1318 189.707 13.9832 190.296C14.0812 190.363 14.1208 190.338 14.1018 190.223Z" fill="url(#paint12_linear_1_55)"/>
<path d="M38.8363 177.063L44.3262 177.065C44.3469 177.066 44.3669 177.073 44.3825 177.086C44.3981 177.1 44.4083 177.118 44.4113 177.138L47.275 195.483C47.2768 195.495 47.276 195.508 47.2724 195.52C47.2688 195.531 47.2627 195.542 47.2544 195.552C47.246 195.561 47.2357 195.568 47.2242 195.573C47.2125 195.579 47.2 195.581 47.1873 195.581L42.5512 195.583C42.53 195.584 42.5096 195.576 42.4934 195.563C42.4772 195.55 42.4666 195.531 42.4636 195.511L42.0482 192.497C42.0451 192.477 42.0345 192.458 42.0183 192.445C42.0023 192.431 41.9817 192.424 41.9605 192.424H35.4592C35.4439 192.424 35.4289 192.42 35.4157 192.413C35.4026 192.405 35.3916 192.394 35.384 192.381C35.3765 192.368 35.3726 192.354 35.3726 192.339C35.3727 192.324 35.3767 192.309 35.3843 192.296L37.4534 188.816C37.4612 188.803 37.4726 188.792 37.4861 188.785C37.4997 188.777 37.5152 188.774 37.5308 188.774L41.4239 188.756C41.4361 188.756 41.4482 188.753 41.4592 188.748C41.4703 188.743 41.4801 188.736 41.4881 188.727C41.4961 188.718 41.5021 188.708 41.5057 188.696C41.5093 188.685 41.5104 188.673 41.509 188.661L40.6473 181.716C40.645 181.698 40.6371 181.682 40.6247 181.669C40.6122 181.656 40.5959 181.647 40.578 181.643C40.5601 181.64 40.5415 181.642 40.5247 181.649C40.5081 181.656 40.4941 181.668 40.4848 181.683L32.2704 195.541C32.2626 195.554 32.2514 195.565 32.2377 195.572C32.2241 195.58 32.2087 195.584 32.193 195.583L27.2861 195.581C27.2705 195.581 27.255 195.577 27.2415 195.569C27.228 195.562 27.2168 195.551 27.2092 195.537C27.2015 195.524 27.1976 195.509 27.198 195.494C27.1985 195.478 27.203 195.463 27.2113 195.451L38.7614 177.103C38.7693 177.09 38.7804 177.08 38.7935 177.073C38.8065 177.066 38.8213 177.063 38.8363 177.063Z" fill="url(#paint13_linear_1_55)"/>
<path d="M57.4196 180.916H52.1412C52.1249 180.916 52.109 180.913 52.0943 180.906C52.0797 180.899 52.0669 180.889 52.0568 180.877C52.0466 180.865 52.0394 180.85 52.0357 180.835C52.032 180.82 52.0319 180.804 52.0354 180.788L52.8687 177.148C52.8739 177.124 52.8873 177.104 52.9065 177.088C52.9258 177.073 52.9497 177.065 52.9744 177.065L68.593 177.063C68.6091 177.063 68.6252 177.066 68.6398 177.073C68.6544 177.08 68.6672 177.09 68.6774 177.102C68.6876 177.114 68.6948 177.129 68.6985 177.144C68.7021 177.159 68.7023 177.175 68.6988 177.191L67.8525 180.834C67.8473 180.857 67.8339 180.878 67.8147 180.893C67.7954 180.908 67.7715 180.916 67.7468 180.916H62.3729C62.3482 180.916 62.3243 180.924 62.3051 180.94C62.2858 180.955 62.2725 180.976 62.2671 180.999L58.9572 195.498C58.9519 195.522 58.9385 195.543 58.9193 195.558C58.9001 195.573 58.8761 195.581 58.8514 195.581L54.3366 195.583C54.3205 195.583 54.3044 195.58 54.2898 195.573C54.2752 195.566 54.2624 195.556 54.2522 195.544C54.242 195.532 54.2349 195.517 54.2312 195.502C54.2275 195.487 54.2273 195.471 54.2308 195.455L57.5253 181.044C57.5288 181.029 57.5287 181.013 57.525 180.997C57.5213 180.982 57.5141 180.968 57.5039 180.956C57.4938 180.943 57.481 180.933 57.4664 180.927C57.4518 180.92 57.4358 180.916 57.4196 180.916Z" fill="url(#paint14_linear_1_55)"/>
<path d="M76.5591 177.346L75.153 183.411C75.1426 183.456 75.1421 183.503 75.1515 183.549C75.161 183.594 75.1803 183.637 75.208 183.675C75.2357 183.713 75.2713 183.745 75.3126 183.768C75.3537 183.792 75.3996 183.807 75.4472 183.812C76.2848 183.904 77.0802 184.035 77.8335 184.206C78.7605 184.416 79.6928 184.602 80.6301 184.762C80.9121 184.809 81.2441 184.884 81.6259 184.988C82.9107 185.339 83.971 185.527 84.2393 187.061C84.2892 187.357 84.2342 187.879 84.0742 188.626C83.6287 190.694 83.326 192.011 83.1661 192.58C83.099 192.819 82.9658 193.125 82.7662 193.497C81.8478 195.202 79.7787 195.837 77.8773 195.513C77.8719 195.512 77.8665 195.51 77.8619 195.507C77.8572 195.504 77.8531 195.5 77.85 195.496C77.8469 195.491 77.8447 195.486 77.8436 195.48C77.8425 195.475 77.8427 195.469 77.8438 195.463L79.2912 189.13C79.3358 188.938 79.2594 188.819 79.0615 188.774C78.5662 188.656 78.0425 188.563 77.5213 188.385C77.302 188.312 77.0622 188.363 76.8428 188.315C75.5701 188.029 74.2931 187.763 73.0118 187.515C71.0355 187.137 69.934 186.442 70.277 184.431C70.3837 183.803 70.6821 182.497 71.1722 180.513C71.8198 177.888 73.7341 176.942 76.3501 177.078C76.5289 177.086 76.5986 177.175 76.5591 177.346Z" fill="url(#paint15_linear_1_55)"/>
<path d="M81.2098 181.047C81.2145 181.026 81.2145 181.005 81.2098 180.985C81.2051 180.965 81.1958 180.946 81.1826 180.93C81.1695 180.914 81.1528 180.901 81.1339 180.892C81.1148 180.883 81.0941 180.878 81.0732 180.879L76.9453 180.871C76.9356 180.871 76.926 180.869 76.9173 180.865C76.9085 180.86 76.9009 180.855 76.895 180.847C76.889 180.84 76.8849 180.832 76.8829 180.823C76.8809 180.814 76.8811 180.805 76.8834 180.796L77.7296 177.168C77.7362 177.137 77.7533 177.11 77.7782 177.09C77.8031 177.071 77.8342 177.06 77.8663 177.06C79.5467 177.065 81.239 177.068 82.9435 177.068C86.7307 177.07 86.2638 179.876 85.4434 182.453C85.4176 182.532 85.3626 182.571 85.2783 182.571L81.055 182.584C81.032 182.584 81.0094 182.579 80.9885 182.569C80.9677 182.56 80.9494 182.546 80.9348 182.528C80.9201 182.511 80.9098 182.491 80.9042 182.469C80.8987 182.448 80.8982 182.425 80.9029 182.403L81.2098 181.047Z" fill="url(#paint16_linear_1_55)"/>
<path d="M94.7035 177.233L90.5292 195.468C90.5216 195.5 90.5029 195.529 90.4761 195.55C90.4494 195.57 90.4162 195.581 90.3822 195.581H85.9603C85.9379 195.581 85.9159 195.576 85.8958 195.566C85.8756 195.556 85.858 195.543 85.8442 195.525C85.8303 195.508 85.8206 195.489 85.8156 195.467C85.8107 195.446 85.8108 195.424 85.8158 195.403L89.972 177.191C89.9795 177.159 89.9979 177.13 90.0241 177.11C90.0503 177.089 90.0829 177.078 90.1165 177.078L94.5565 177.055C94.579 177.055 94.6014 177.06 94.6218 177.069C94.6423 177.079 94.6602 177.092 94.6744 177.11C94.6885 177.127 94.6985 177.147 94.7035 177.168C94.7085 177.19 94.7085 177.212 94.7035 177.233Z" fill="url(#paint17_linear_1_55)"/>
<path d="M101.464 195.583L96.9932 195.578C96.9741 195.578 96.9551 195.574 96.9379 195.565C96.9208 195.557 96.9057 195.545 96.8938 195.531C96.882 195.516 96.8736 195.499 96.8694 195.481C96.8652 195.463 96.8651 195.444 96.8694 195.425L98.518 188.257C98.5222 188.239 98.5222 188.22 98.5177 188.202C98.5134 188.183 98.5048 188.166 98.4926 188.151C98.4805 188.137 98.4651 188.125 98.4476 188.117C98.4301 188.109 98.4109 188.104 98.3915 188.104L93.5155 188.114C93.4961 188.115 93.477 188.11 93.4595 188.102C93.442 188.094 93.4265 188.082 93.4144 188.068C93.4022 188.053 93.3937 188.036 93.3893 188.017C93.385 187.999 93.3849 187.98 93.3891 187.962L94.1889 184.344C94.1953 184.316 94.2109 184.292 94.2334 184.274C94.2558 184.256 94.2838 184.246 94.3127 184.246L99.3203 184.243C99.3496 184.243 99.3782 184.234 99.4011 184.216C99.4242 184.198 99.4402 184.173 99.4466 184.146L101.041 177.163C101.048 177.135 101.064 177.11 101.087 177.092C101.11 177.075 101.138 177.065 101.167 177.065L105.639 177.068C105.657 177.068 105.677 177.072 105.693 177.081C105.711 177.089 105.726 177.101 105.738 177.116C105.75 177.13 105.758 177.147 105.762 177.165C105.766 177.184 105.766 177.202 105.762 177.221L101.591 195.486C101.584 195.513 101.568 195.538 101.545 195.556C101.522 195.574 101.493 195.584 101.464 195.583Z" fill="url(#paint18_linear_1_55)"/>
<path d="M111.37 191.725H119.915C119.934 191.725 119.953 191.729 119.97 191.737C119.988 191.745 120.003 191.757 120.016 191.772C120.028 191.786 120.036 191.804 120.04 191.822C120.046 191.84 120.046 191.859 120.041 191.878L119.22 195.483C119.214 195.511 119.198 195.536 119.175 195.554C119.152 195.571 119.124 195.581 119.094 195.581H105.746C105.727 195.581 105.708 195.576 105.691 195.568C105.674 195.56 105.658 195.548 105.647 195.533C105.635 195.518 105.626 195.501 105.622 195.483C105.618 195.465 105.618 195.446 105.622 195.428L109.797 177.165C109.803 177.138 109.818 177.113 109.842 177.095C109.865 177.077 109.894 177.068 109.922 177.068L114.398 177.058C114.418 177.058 114.437 177.062 114.454 177.071C114.472 177.079 114.486 177.091 114.498 177.105C114.51 177.12 114.519 177.137 114.523 177.155C114.527 177.174 114.527 177.192 114.523 177.211L111.244 191.572C111.24 191.59 111.24 191.609 111.244 191.628C111.248 191.646 111.257 191.663 111.269 191.678C111.281 191.693 111.296 191.705 111.314 191.713C111.331 191.721 111.351 191.725 111.37 191.725Z" fill="url(#paint19_linear_1_55)"/>
<path d="M127.632 188.28L124.319 177.181C124.315 177.166 124.314 177.15 124.317 177.135C124.32 177.12 124.326 177.106 124.335 177.094C124.346 177.082 124.358 177.072 124.371 177.065C124.386 177.058 124.401 177.055 124.418 177.055L129.033 177.07C129.055 177.07 129.077 177.077 129.094 177.09C129.112 177.103 129.125 177.122 129.13 177.143L130.991 183.957C130.995 183.972 130.996 183.986 130.993 184.001C130.99 184.015 130.985 184.028 130.975 184.04L127.81 188.31C127.799 188.325 127.784 188.336 127.766 188.343C127.749 188.35 127.73 188.352 127.712 188.349C127.693 188.346 127.675 188.338 127.661 188.325C127.648 188.313 127.637 188.297 127.632 188.28Z" fill="url(#paint20_linear_1_55)"/>
<path d="M132.501 190.491C132.128 192.156 131.727 193.821 131.296 195.486C131.279 195.551 131.237 195.583 131.17 195.583L126.67 195.581C126.656 195.581 126.641 195.577 126.628 195.571C126.614 195.565 126.602 195.555 126.593 195.544C126.584 195.532 126.577 195.519 126.573 195.505C126.569 195.49 126.569 195.475 126.572 195.46C126.917 193.869 127.282 192.271 127.669 190.667C127.775 190.225 127.965 189.819 128.236 189.448C131.22 185.358 134.193 181.278 137.156 177.208C137.224 177.114 137.317 177.068 137.434 177.068L141.887 177.06C141.907 177.06 141.928 177.065 141.945 177.076C141.964 177.086 141.978 177.101 141.988 177.119C141.997 177.137 142.001 177.157 141.999 177.178C141.997 177.198 141.99 177.217 141.977 177.233C138.952 181.208 135.958 185.137 132.994 189.019C132.615 189.516 132.628 189.925 132.501 190.491Z" fill="url(#paint21_linear_1_55)"/>
<path d="M77.5194 191.905L76.6913 195.508C76.6872 195.527 76.6765 195.544 76.661 195.557C76.6455 195.569 76.6262 195.576 76.6061 195.576C75.0307 195.586 73.4527 195.587 71.8721 195.578C70.7886 195.572 70.0498 195.497 69.6559 195.355C67.3367 194.52 68.3738 191.88 68.7376 190.145C68.7548 190.068 68.8029 190.03 68.882 190.03L73.2188 190.04C73.2412 190.04 73.2634 190.045 73.2836 190.054C73.3039 190.063 73.3218 190.077 73.3361 190.094C73.3504 190.11 73.3607 190.13 73.3663 190.151C73.3719 190.172 73.3726 190.194 73.3684 190.215L73.0923 191.564C73.0874 191.588 73.0879 191.613 73.0939 191.637C73.0999 191.661 73.1112 191.683 73.127 191.702C73.1429 191.721 73.1627 191.736 73.1854 191.747C73.2079 191.757 73.2326 191.763 73.2575 191.762H77.4034C77.4215 191.763 77.4394 191.767 77.4557 191.775C77.4719 191.783 77.4862 191.794 77.4973 191.807C77.5084 191.821 77.5163 191.837 77.5201 191.854C77.5239 191.871 77.5237 191.889 77.5194 191.905Z" fill="url(#paint22_linear_1_55)"/>
</g>
<defs>
<linearGradient id="paint0_linear_1_55" x1="53.125" y1="-38.75" x2="40" y2="127.5" gradientUnits="userSpaceOnUse">
<stop stop-color="#30C9CD"/>
<stop offset="0.95692" stop-color="#330D69"/>
</linearGradient>
<linearGradient id="paint1_linear_1_55" x1="14.6391" y1="177" x2="14.6391" y2="201.355" gradientUnits="userSpaceOnUse">
<stop stop-color="#30C9CD"/>
<stop offset="1" stop-color="#330D69"/>
</linearGradient>
<linearGradient id="paint2_linear_1_55" x1="37.237" y1="177.063" x2="37.237" y2="195.583" gradientUnits="userSpaceOnUse">
<stop stop-color="#30C9CD"/>
<stop offset="1" stop-color="#330D69"/>
</linearGradient>
<linearGradient id="paint3_linear_1_55" x1="60.3671" y1="177.063" x2="60.3671" y2="195.583" gradientUnits="userSpaceOnUse">
<stop stop-color="#30C9CD"/>
<stop offset="1" stop-color="#330D69"/>
</linearGradient>
<linearGradient id="paint4_linear_1_55" x1="77.2361" y1="177.065" x2="77.2361" y2="195.594" gradientUnits="userSpaceOnUse">
<stop stop-color="#30C9CD"/>
<stop offset="1" stop-color="#330D69"/>
</linearGradient>
<linearGradient id="paint5_linear_1_55" x1="81.4466" y1="177.06" x2="81.4466" y2="182.584" gradientUnits="userSpaceOnUse">
<stop stop-color="#30C9CD"/>
<stop offset="1" stop-color="#330D69"/>
</linearGradient>
<linearGradient id="paint6_linear_1_55" x1="90.2596" y1="177.055" x2="90.2596" y2="195.581" gradientUnits="userSpaceOnUse">
<stop stop-color="#30C9CD"/>
<stop offset="1" stop-color="#330D69"/>
</linearGradient>
<linearGradient id="paint7_linear_1_55" x1="99.5756" y1="177.065" x2="99.5756" y2="195.583" gradientUnits="userSpaceOnUse">
<stop stop-color="#30C9CD"/>
<stop offset="1" stop-color="#330D69"/>
</linearGradient>
<linearGradient id="paint8_linear_1_55" x1="112.831" y1="177.058" x2="112.831" y2="195.581" gradientUnits="userSpaceOnUse">
<stop stop-color="#30C9CD"/>
<stop offset="1" stop-color="#330D69"/>
</linearGradient>
<linearGradient id="paint9_linear_1_55" x1="127.655" y1="177.055" x2="127.655" y2="188.35" gradientUnits="userSpaceOnUse">
<stop stop-color="#30C9CD"/>
<stop offset="1" stop-color="#330D69"/>
</linearGradient>
<linearGradient id="paint10_linear_1_55" x1="134.285" y1="177.06" x2="134.285" y2="195.583" gradientUnits="userSpaceOnUse">
<stop stop-color="#30C9CD"/>
<stop offset="1" stop-color="#330D69"/>
</linearGradient>
<linearGradient id="paint11_linear_1_55" x1="72.8565" y1="190.03" x2="72.8565" y2="195.584" gradientUnits="userSpaceOnUse">
<stop stop-color="#30C9CD"/>
<stop offset="1" stop-color="#330D69"/>
</linearGradient>
<linearGradient id="paint12_linear_1_55" x1="14.6391" y1="177" x2="14.6391" y2="201.355" gradientUnits="userSpaceOnUse">
<stop stop-color="#30C9CD"/>
<stop offset="1" stop-color="#330D69"/>
</linearGradient>
<linearGradient id="paint13_linear_1_55" x1="37.237" y1="177.063" x2="37.237" y2="195.583" gradientUnits="userSpaceOnUse">
<stop stop-color="#30C9CD"/>
<stop offset="1" stop-color="#330D69"/>
</linearGradient>
<linearGradient id="paint14_linear_1_55" x1="60.3671" y1="177.063" x2="60.3671" y2="195.583" gradientUnits="userSpaceOnUse">
<stop stop-color="#30C9CD"/>
<stop offset="1" stop-color="#330D69"/>
</linearGradient>
<linearGradient id="paint15_linear_1_55" x1="77.2361" y1="177.065" x2="77.2361" y2="195.594" gradientUnits="userSpaceOnUse">
<stop stop-color="#30C9CD"/>
<stop offset="1" stop-color="#330D69"/>
</linearGradient>
<linearGradient id="paint16_linear_1_55" x1="81.4466" y1="177.06" x2="81.4466" y2="182.584" gradientUnits="userSpaceOnUse">
<stop stop-color="#30C9CD"/>
<stop offset="1" stop-color="#330D69"/>
</linearGradient>
<linearGradient id="paint17_linear_1_55" x1="90.2596" y1="177.055" x2="90.2596" y2="195.581" gradientUnits="userSpaceOnUse">
<stop stop-color="#30C9CD"/>
<stop offset="1" stop-color="#330D69"/>
</linearGradient>
<linearGradient id="paint18_linear_1_55" x1="99.5756" y1="177.065" x2="99.5756" y2="195.583" gradientUnits="userSpaceOnUse">
<stop stop-color="#30C9CD"/>
<stop offset="1" stop-color="#330D69"/>
</linearGradient>
<linearGradient id="paint19_linear_1_55" x1="112.831" y1="177.058" x2="112.831" y2="195.581" gradientUnits="userSpaceOnUse">
<stop stop-color="#30C9CD"/>
<stop offset="1" stop-color="#330D69"/>
</linearGradient>
<linearGradient id="paint20_linear_1_55" x1="127.655" y1="177.055" x2="127.655" y2="188.35" gradientUnits="userSpaceOnUse">
<stop stop-color="#30C9CD"/>
<stop offset="1" stop-color="#330D69"/>
</linearGradient>
<linearGradient id="paint21_linear_1_55" x1="134.285" y1="177.06" x2="134.285" y2="195.583" gradientUnits="userSpaceOnUse">
<stop stop-color="#30C9CD"/>
<stop offset="1" stop-color="#330D69"/>
</linearGradient>
<linearGradient id="paint22_linear_1_55" x1="72.8565" y1="190.03" x2="72.8565" y2="195.584" gradientUnits="userSpaceOnUse">
<stop stop-color="#30C9CD"/>
<stop offset="1" stop-color="#330D69"/>
</linearGradient>
<clipPath id="clip0_1_55">
<rect width="150" height="128" fill="white"/>
</clipPath>
<clipPath id="clip1_1_55">
<rect width="142" height="25" fill="white" transform="translate(0 177)"/>
</clipPath>
</defs>
</svg>
