<svg width="24" height="24" viewBox="0 0 24 24" fill="none" xmlns="http://www.w3.org/2000/svg">
<path d="M16.8866 2.19995C15.8916 2.20013 14.9145 2.47082 14.0557 2.98424C13.1969 3.49766 12.4874 4.23529 12 5.1214C11.5125 4.23508 10.8027 3.49731 9.9437 2.98388C9.08465 2.47045 8.10728 2.19988 7.11198 2.19995C5.58764 2.28404 4.15372 2.96516 3.1085 4.10161C2.06329 5.23807 1.48725 6.74237 1.50021 8.30158C1.50021 16.2528 12 21.8 12 21.8C12 21.8 22.4998 16.2556 22.4998 8.30158C22.5127 6.74214 21.9365 5.23764 20.891 4.10114C19.8455 2.96465 18.4112 2.28369 16.8866 2.19995Z" fill="#3198B3" stroke="#3198B3" stroke-width="1.5"/>
</svg>
