<svg width="24" height="25" viewBox="0 0 24 25" fill="none" xmlns="http://www.w3.org/2000/svg">
<path d="M13.1788 21.0346C12.6927 21.3465 12.2867 21.5873 12.0001 21.7513C11.7135 21.5872 11.3075 21.3463 10.8213 21.0343C9.82049 20.3922 8.49021 19.4559 7.16454 18.2774C4.46887 15.8808 2.00022 12.6691 2.00022 9.03189H2.00026L2.00019 9.0234C1.98878 7.67916 2.49542 6.38249 3.41436 5.40308C4.32708 4.43029 5.5767 3.84488 6.90619 3.76606C7.76181 3.77073 8.60136 4.00094 9.34028 4.43385C10.0869 4.8713 10.704 5.49999 11.1279 6.25545L12 7.80958L12.8721 6.25545C13.2959 5.50016 13.9128 4.87159 14.6592 4.43416C15.3979 4.00126 16.2372 3.77095 17.0926 3.76607C18.4223 3.84459 19.6722 4.42987 20.5852 5.40269C21.5044 6.38213 22.0112 7.67898 21.9998 9.02342L21.9998 9.02342V9.03189C21.9998 12.6706 19.5311 15.8824 16.8355 18.2784C15.5099 19.4568 14.1796 20.3928 13.1788 21.0346Z" stroke="black" stroke-opacity="0.7" stroke-width="2"/>
</svg>
