<svg width="60" height="60" viewBox="0 0 60 60" fill="none" xmlns="http://www.w3.org/2000/svg">
<path d="M0 5C0 2.23858 2.23858 0 5 0H55C57.7614 0 60 2.23858 60 5V55C60 57.7614 57.7614 60 55 60H5C2.23858 60 0 57.7614 0 55V5Z" fill="url(#paint0_linear_25_557)"/>
<path d="M41.2167 45.6691C41.1807 45.6417 41.1587 45.6051 41.1507 45.5593C41.1449 45.5266 41.1277 45.4969 41.1023 45.4756C41.0769 45.4543 41.0448 45.4426 41.0117 45.4427L39.7757 45.4436C39.7443 45.4436 39.7285 45.4278 39.7285 45.3964V44.3439C39.7285 44.3147 39.7431 44.3002 39.7723 44.3002C41.3849 44.2996 42.9972 44.2993 44.6092 44.2993C44.9557 44.2993 45.2119 44.2596 45.3777 44.1801C45.9027 43.9288 46.0202 43.4879 46.0202 42.8995C46.0207 33.5551 46.0207 24.2107 46.0202 14.8663C46.0193 14.2487 45.9241 13.8019 45.3811 13.5351C45.225 13.4579 44.996 13.419 44.6941 13.4184C42.2895 13.4133 39.8849 13.4136 37.4804 13.4193C37.4518 13.4193 37.4375 13.4339 37.4375 13.463V25.3833C37.4375 25.4124 37.4229 25.427 37.3937 25.427L36.3396 25.4279C36.311 25.4279 36.2967 25.4136 36.2967 25.385V13.463C36.2967 13.4339 36.2821 13.4193 36.2529 13.4193C33.8615 13.4141 31.4729 13.4136 29.0872 13.4176C28.7567 13.4182 28.5103 13.4582 28.3479 13.5377C27.6968 13.8567 27.7183 14.4349 27.7166 15.0919C27.7166 15.1188 27.7028 15.1322 27.6754 15.1322L26.6281 15.1331C26.5966 15.1331 26.5797 15.1174 26.5775 15.0859C26.5506 14.6896 26.5612 14.3634 26.6092 14.1072C26.8125 13.0333 27.8032 12.2682 28.8994 12.2682C34.1534 12.2682 39.4072 12.2685 44.6606 12.269C45.7851 12.2699 46.6729 12.77 47.0349 13.8147C47.123 14.0686 47.167 14.5115 47.167 15.1434C47.167 24.4757 47.167 33.8084 47.167 43.1413C47.167 44.4357 46.1711 45.3689 44.9231 45.4487C44.8934 45.4504 44.8785 45.4661 44.8785 45.4959C44.8722 46.0254 44.8728 46.5558 44.8802 47.087C44.8871 47.5922 44.5783 47.7295 44.1117 47.7312C43.5867 47.7323 43.0621 47.732 42.5377 47.7303C42.2855 47.7295 42.1363 47.5356 42.0222 47.3057C41.7603 46.7791 41.4952 46.2538 41.227 45.73C41.2219 45.7197 41.2193 45.7083 41.2193 45.6957C41.2193 45.6883 41.2193 45.6809 41.2193 45.6734C41.2193 45.6717 41.2185 45.6703 41.2167 45.6691ZM43.7351 45.4719C43.7351 45.4634 43.7318 45.4554 43.7258 45.4494C43.7199 45.4435 43.7118 45.4401 43.7034 45.4401L42.4133 45.4478C42.4079 45.448 42.4027 45.4495 42.398 45.4522C42.3934 45.4549 42.3895 45.4588 42.3867 45.4634C42.384 45.468 42.3825 45.4733 42.3823 45.4787C42.3822 45.484 42.3834 45.4894 42.3859 45.4942L42.946 46.5741C42.9487 46.5793 42.9527 46.5836 42.9577 46.5866C42.9627 46.5897 42.9684 46.5912 42.9743 46.5912L43.7025 46.5904C43.7109 46.5904 43.719 46.587 43.725 46.5811C43.7309 46.5751 43.7343 46.567 43.7343 46.5586L43.7351 45.4719Z" fill="white"/>
<path d="M21.9945 16.2259L21.9936 15.1777C21.9936 15.148 22.0085 15.1331 22.0382 15.1331H23.0881C23.119 15.1331 23.1345 15.1483 23.1345 15.1786V16.2285C23.1345 16.2571 23.149 16.2714 23.1782 16.2714C24.6718 16.2748 26.1643 16.2748 27.6557 16.2714C28.0354 16.2702 28.2424 16.4658 28.2767 16.8581C28.4677 19.0488 28.6541 21.24 28.8359 23.4319C28.8754 23.9071 28.7759 24.2836 28.2329 24.2836C26.5512 24.2825 24.8691 24.2825 23.1868 24.2836C23.1519 24.2836 23.1345 24.3011 23.1345 24.336V25.3833C23.1345 25.4124 23.1199 25.427 23.0907 25.427L22.0365 25.4279C22.0079 25.4279 21.9936 25.4136 21.9936 25.385V24.3342C21.9936 24.2994 21.9765 24.2819 21.9422 24.2819C20.2701 24.2831 18.5906 24.2836 16.9037 24.2836C16.3333 24.2828 16.2518 23.8959 16.293 23.4036C16.4714 21.2912 16.6478 19.1789 16.8222 17.0665C16.8634 16.5716 16.9672 16.2654 17.5127 16.2705C18.6107 16.2808 20.0909 16.2799 21.9533 16.2679C21.9808 16.2674 21.9945 16.2533 21.9945 16.2259ZM17.9751 17.4182C17.9662 17.4182 17.9576 17.4215 17.9511 17.4276C17.9445 17.4336 17.9405 17.4419 17.9399 17.4508L17.469 23.0982C17.4686 23.1031 17.4693 23.1079 17.4709 23.1125C17.4725 23.117 17.475 23.1212 17.4783 23.1248C17.4816 23.1283 17.4856 23.1311 17.4901 23.1331C17.4945 23.135 17.4993 23.136 17.5042 23.136H27.6248C27.6296 23.136 27.6344 23.135 27.6389 23.1331C27.6433 23.1311 27.6473 23.1283 27.6506 23.1248C27.6539 23.1212 27.6565 23.117 27.6581 23.1125C27.6597 23.1079 27.6603 23.1031 27.66 23.0982L27.1899 17.4516C27.1893 17.4428 27.1853 17.4345 27.1788 17.4284C27.1722 17.4224 27.1636 17.419 27.1547 17.419L17.9751 17.4182Z" fill="white"/>
<path d="M18.0556 27.8322C17.7108 28.0055 17.4235 28.3803 17.4226 28.7954C17.4203 29.751 17.4172 30.708 17.4132 31.6664C17.4126 31.6995 17.3957 31.7161 17.3626 31.7161H16.3135C16.2832 31.7161 16.2681 31.7009 16.2681 31.6706C16.2686 30.7248 16.2752 29.781 16.2878 28.8392C16.3058 27.5157 17.3428 26.5533 18.6492 26.555C24.7461 26.563 30.8433 26.5676 36.9408 26.5687C37.8758 26.5687 38.7327 27.2592 39.0251 28.1153C39.1075 28.3566 39.1498 28.7145 39.1521 29.1892C39.1561 30.0166 39.1558 30.8435 39.1512 31.6698C39.1512 31.7007 39.1361 31.7161 39.1058 31.7161H38.0576C38.0279 31.7161 38.013 31.7012 38.013 31.6715C38.0124 30.8366 38.0121 30.0023 38.0121 29.1686C38.0121 28.5424 37.9118 28.0869 37.3508 27.8262C37.1924 27.753 36.9562 27.7164 36.6423 27.7164C30.6775 27.7158 24.7129 27.7158 18.7487 27.7164C18.4416 27.7164 18.2106 27.755 18.0556 27.8322Z" fill="white"/>
<path d="M25.3926 29.9997H24.3153C24.2973 29.9997 24.2827 30.0143 24.2827 30.0323V31.1148C24.2827 31.1328 24.2973 31.1474 24.3153 31.1474H25.3926C25.4107 31.1474 25.4252 31.1328 25.4252 31.1148V30.0323C25.4252 30.0143 25.4107 29.9997 25.3926 29.9997Z" fill="white"/>
<path d="M31.1145 30.0007L30.0371 29.9988C30.0177 29.9987 30.0019 30.0145 30.0019 30.0339L30 31.1112C30 31.1306 30.0157 31.1464 30.0351 31.1465L31.1125 31.1483C31.1319 31.1484 31.1477 31.1326 31.1477 31.1132L31.1496 30.0359C31.1496 30.0165 31.1339 30.0007 31.1145 30.0007Z" fill="white"/>
<path d="M28.255 32.8646L27.1708 32.8627C27.1547 32.8627 27.1416 32.8757 27.1416 32.8918L27.1397 33.976C27.1396 33.9921 27.1527 34.0052 27.1688 34.0052L28.253 34.0071C28.2691 34.0072 28.2822 33.9941 28.2822 33.978L28.2841 32.8938C28.2841 32.8777 28.2711 32.8646 28.255 32.8646Z" fill="white"/>
<path d="M33.9807 32.8636H32.8896C32.8759 32.8636 32.8647 32.8748 32.8647 32.8885V33.9813C32.8647 33.995 32.8759 34.0062 32.8896 34.0062H33.9807C33.9944 34.0062 34.0056 33.995 34.0056 33.9813V32.8885C34.0056 32.8748 33.9944 32.8636 33.9807 32.8636Z" fill="white"/>
<path d="M34.5278 38.8284C34.5627 38.8296 34.5801 38.8127 34.5801 38.7778C34.5801 37.8652 34.4987 36.7921 34.6968 35.973C35.1265 34.1948 36.7648 32.8061 38.6493 32.8567C42.1438 32.952 43.8911 37.1266 41.4482 39.6545C40.85 40.2732 40.1004 40.662 39.1992 40.821C39.1677 40.8267 39.152 40.8453 39.152 40.8768C39.1548 41.5006 39.1545 42.1282 39.1511 42.7595C39.1483 43.2999 39.1034 43.6919 39.0164 43.9355C38.7017 44.8173 37.8636 45.416 36.9175 45.4383C36.8866 45.4389 36.8712 45.4543 36.8712 45.4846C36.8649 45.9558 36.8661 46.4256 36.8746 46.8939C36.8806 47.2747 36.7897 47.7311 36.3188 47.7311C35.7184 47.7316 35.118 47.7314 34.5175 47.7302C34.2739 47.7302 34.1195 47.5226 34.008 47.2996C33.7021 46.6878 33.3973 46.0776 33.0937 45.4692C33.0898 45.4614 33.0838 45.4549 33.0764 45.4504C33.069 45.4458 33.0604 45.4434 33.0516 45.4434H22.4C22.3634 45.4434 22.3368 45.46 22.3203 45.4932C22.0017 46.1359 21.6758 46.787 21.3424 47.4463C21.2309 47.6667 21.0062 47.7294 20.754 47.7302C20.2725 47.7319 19.7913 47.7319 19.3104 47.7302C18.7786 47.7276 18.5607 47.5655 18.5624 47.0226C18.5642 46.5113 18.5633 45.9998 18.5599 45.488C18.5593 45.4589 18.5444 45.4434 18.5153 45.4417C17.4662 45.3911 16.5733 44.7126 16.3314 43.6807C16.2908 43.5098 16.2708 43.2341 16.2714 42.8539C16.2714 42.1945 16.2705 41.5352 16.2688 40.8759C16.2688 40.8467 16.2545 40.8296 16.2259 40.8244C13.0711 40.2472 11.7107 36.5528 13.9151 34.1425C16.0329 31.8266 19.8842 32.8113 20.706 35.8272C20.9281 36.6437 20.8578 37.7571 20.8466 38.6706C20.8449 38.7993 20.9061 38.8462 21.0302 38.8113C21.4122 38.7049 21.7847 38.6169 22.1479 38.5471C25.3696 37.9289 28.6065 37.8437 31.8585 38.2915C32.5853 38.3915 33.3047 38.5285 34.0166 38.7023C34.1693 38.7401 34.3443 38.8241 34.5278 38.8284ZM19.566 35.979C18.9622 33.9916 16.3486 33.3551 14.8561 34.8073C13.1603 36.4576 14.0687 39.2367 16.3451 39.6819C16.7929 39.7702 17.4096 39.621 17.4105 40.3321C17.4116 41.2058 17.4139 42.0802 17.4173 42.9551C17.4199 43.5229 17.5554 43.9372 18.0572 44.1791C18.2231 44.2592 18.481 44.2992 18.8309 44.2992C24.7671 44.2998 30.7031 44.2998 36.6388 44.2992C37.2186 44.2992 37.6458 44.168 37.8928 43.6533C37.9728 43.4858 38.0126 43.2241 38.012 42.8685C38.0109 42.009 38.0123 41.1492 38.0163 40.2892C38.0169 40.0639 38.1158 39.8983 38.3131 39.7925C38.4606 39.7136 38.6399 39.7248 38.8097 39.7145C39.7781 39.651 40.6325 39.0575 41.0785 38.252C41.8333 36.8891 41.3787 35.2456 40.0749 34.4282C38.4563 33.4143 36.3471 34.3098 35.8428 36.1154C35.7593 36.4139 35.7184 36.9128 35.7201 37.6121C35.7218 38.1285 35.7224 38.644 35.7218 39.1587C35.7219 39.1633 35.7232 39.1677 35.7256 39.1715C35.728 39.1753 35.7315 39.1783 35.7355 39.1801L37.1062 39.7582C37.1129 39.7611 37.1189 39.7653 37.1239 39.7706C37.1288 39.7759 37.1326 39.7822 37.1349 39.789C37.1373 39.7958 37.1381 39.803 37.1375 39.8101C37.1368 39.8172 37.1347 39.8241 37.1311 39.8303L36.6147 40.7412C36.5993 40.7681 36.5776 40.7752 36.5495 40.7627C35.2984 40.2131 33.9992 39.8203 32.6519 39.5841C29.2009 38.9785 25.7564 39.012 22.3185 39.6845C21.1286 39.9166 19.9749 40.2775 18.8575 40.767C18.8381 40.7755 18.8232 40.7704 18.8129 40.7515L18.2931 39.8183C18.2903 39.8133 18.2886 39.8078 18.288 39.8022C18.2875 39.7965 18.2881 39.7908 18.2899 39.7855C18.2917 39.7801 18.2946 39.7752 18.2984 39.7711C18.3022 39.767 18.3068 39.7638 18.312 39.7617L19.6629 39.1964C19.6887 39.1855 19.7015 39.1664 19.7015 39.1389C19.7033 38.562 19.7035 37.9847 19.7024 37.4071C19.7007 36.749 19.6552 36.2729 19.566 35.979ZM21.0499 45.5061C21.0533 45.4995 21.0549 45.4923 21.0547 45.4849C21.0545 45.4776 21.0524 45.4705 21.0486 45.4642C21.0448 45.4579 21.0395 45.4527 21.0331 45.4491C21.0267 45.4454 21.0195 45.4435 21.0122 45.4434H19.7453C19.7339 45.4434 19.723 45.448 19.715 45.456C19.7069 45.464 19.7024 45.4749 19.7024 45.4863V46.5482C19.7024 46.5596 19.7069 46.5705 19.715 46.5785C19.723 46.5866 19.7339 46.5911 19.7453 46.5911L20.4641 46.5903C20.4719 46.5902 20.4795 46.588 20.4862 46.5839C20.4928 46.5798 20.4982 46.574 20.5018 46.5671L21.0499 45.5061ZM35.721 45.4726C35.721 45.4646 35.7178 45.457 35.7122 45.4514C35.7065 45.4457 35.6989 45.4426 35.6909 45.4426L34.4095 45.4443C34.4043 45.4443 34.3993 45.4456 34.3948 45.4482C34.3903 45.4507 34.3866 45.4543 34.3839 45.4587C34.3812 45.4631 34.3797 45.4681 34.3796 45.4732C34.3794 45.4784 34.3805 45.4835 34.3829 45.488L34.9232 46.5748C34.9258 46.5798 34.9298 46.584 34.9346 46.5869C34.9395 46.5898 34.945 46.5912 34.9507 46.5911L35.6909 46.5903C35.6989 46.5903 35.7065 46.5871 35.7122 46.5815C35.7178 46.5758 35.721 46.5682 35.721 46.5602V45.4726Z" fill="white"/>
<path d="M22.5357 32.8629H21.4498C21.4328 32.8629 21.4189 32.8767 21.4189 32.8938V33.9746C21.4189 33.9916 21.4328 34.0054 21.4498 34.0054H22.5357C22.5528 34.0054 22.5666 33.9916 22.5666 33.9746V32.8938C22.5666 32.8767 22.5528 32.8629 22.5357 32.8629Z" fill="white"/>
<path d="M18.5565 36.8651C18.5565 37.3192 18.3761 37.7546 18.055 38.0757C17.7339 38.3968 17.2985 38.5772 16.8444 38.5772C16.6196 38.5772 16.3969 38.5329 16.1892 38.4468C15.9815 38.3608 15.7928 38.2347 15.6338 38.0757C15.4748 37.9167 15.3487 37.728 15.2626 37.5203C15.1766 37.3126 15.1323 37.0899 15.1323 36.8651C15.1323 36.6403 15.1766 36.4176 15.2626 36.2099C15.3487 36.0022 15.4748 35.8135 15.6338 35.6545C15.7928 35.4955 15.9815 35.3694 16.1892 35.2833C16.3969 35.1973 16.6196 35.153 16.8444 35.153C17.2985 35.153 17.7339 35.3334 18.055 35.6545C18.3761 35.9755 18.5565 36.411 18.5565 36.8651ZM17.4225 36.8677C17.4225 36.7152 17.362 36.5691 17.2542 36.4613C17.1464 36.3535 17.0003 36.293 16.8478 36.293C16.6954 36.293 16.5492 36.3535 16.4415 36.4613C16.3337 36.5691 16.2731 36.7152 16.2731 36.8677C16.2731 37.0201 16.3337 37.1663 16.4415 37.274C16.5492 37.3818 16.6954 37.4424 16.8478 37.4424C17.0003 37.4424 17.1464 37.3818 17.2542 37.274C17.362 37.1663 17.4225 37.0201 17.4225 36.8677Z" fill="white"/>
<path d="M40.2952 36.8643C40.2952 37.3184 40.1149 37.7538 39.7938 38.0749C39.4727 38.396 39.0372 38.5764 38.5832 38.5764C38.1291 38.5764 37.6936 38.396 37.3725 38.0749C37.0515 37.7538 36.8711 37.3184 36.8711 36.8643C36.8711 36.4102 37.0515 35.9748 37.3725 35.6537C37.6936 35.3326 38.1291 35.1522 38.5832 35.1522C39.0372 35.1522 39.4727 35.3326 39.7938 35.6537C40.1149 35.9748 40.2952 36.4102 40.2952 36.8643ZM39.1536 36.8652C39.1536 36.7134 39.0933 36.5679 38.986 36.4606C38.8787 36.3533 38.7332 36.293 38.5815 36.293C38.4297 36.293 38.2842 36.3533 38.1769 36.4606C38.0696 36.5679 38.0093 36.7134 38.0093 36.8652C38.0093 37.0169 38.0696 37.1624 38.1769 37.2697C38.2842 37.377 38.4297 37.4373 38.5815 37.4373C38.7332 37.4373 38.8787 37.377 38.986 37.2697C39.0933 37.1624 39.1536 37.0169 39.1536 36.8652Z" fill="white"/>
<path d="M25.3995 35.7217H24.3084C24.2942 35.7217 24.2827 35.7333 24.2827 35.7475V36.8385C24.2827 36.8527 24.2942 36.8643 24.3084 36.8643H25.3995C25.4137 36.8643 25.4252 36.8527 25.4252 36.8385V35.7475C25.4252 35.7333 25.4137 35.7217 25.3995 35.7217Z" fill="white"/>
<path d="M31.1147 35.7217H30.0339C30.0155 35.7217 30.0005 35.7367 30.0005 35.7552V36.8308C30.0005 36.8493 30.0155 36.8643 30.0339 36.8643H31.1147C31.1332 36.8643 31.1482 36.8493 31.1482 36.8308V35.7552C31.1482 35.7367 31.1332 35.7217 31.1147 35.7217Z" fill="white"/>
<defs>
<linearGradient id="paint0_linear_25_557" x1="30" y1="0" x2="30" y2="60" gradientUnits="userSpaceOnUse">
<stop stop-color="#30C9CD"/>
<stop offset="1" stop-color="#330D69"/>
</linearGradient>
</defs>
</svg>
