<svg width="142" height="142" viewBox="0 0 142 142" fill="none" xmlns="http://www.w3.org/2000/svg">
<g filter="url(#filter0_bd_22_276)">
<circle cx="67" cy="67" r="57" fill="url(#paint0_linear_22_276)" fill-opacity="0.75" shape-rendering="crispEdges"/>
</g>
<path d="M70.9776 45.1004C70.9786 44.5454 70.759 44.0127 70.3672 43.6195C69.9754 43.2263 69.4435 43.0049 68.8884 43.004L68.7152 43.0037C68.4403 43.0032 68.1681 43.0568 67.914 43.1616C67.6599 43.2663 67.4289 43.42 67.2342 43.614C67.0396 43.808 66.885 44.0385 66.7794 44.2922C66.6738 44.5459 66.6192 44.818 66.6187 45.0928L66.6069 51.8239C66.606 52.3789 66.8255 52.9116 67.2173 53.3048C67.6091 53.6979 68.1411 53.9194 68.6961 53.9203L68.8693 53.9206C69.1442 53.9211 69.4164 53.8675 69.6705 53.7627C69.9246 53.658 70.1556 53.5042 70.3503 53.3103C70.545 53.1163 70.6995 52.8858 70.8051 52.6321C70.9108 52.3783 70.9654 52.1063 70.9658 51.8315L70.9776 45.1004Z" fill="white"/>
<path d="M49.5991 62.4626C49.9773 62.0455 50.1743 61.4953 50.1468 60.9329C50.1193 60.3706 49.8695 59.8422 49.4525 59.464L44.5106 54.983C44.0935 54.6048 43.5433 54.4078 42.9809 54.4353C42.4186 54.4628 41.8902 54.7125 41.512 55.1296L41.4265 55.2239C41.0483 55.641 40.8513 56.1913 40.8788 56.7536C40.9063 57.316 41.156 57.8444 41.5731 58.2226L46.515 62.7035C46.9321 63.0817 47.4823 63.2788 48.0447 63.2513C48.607 63.2237 49.1354 62.974 49.5136 62.5569L49.5991 62.4626Z" fill="white"/>
<path d="M96.0738 55.136C95.6967 54.7186 95.1691 54.4682 94.6073 54.4397C94.0455 54.4112 93.4953 54.6071 93.0779 54.9843L88.1283 59.4567C87.9216 59.6434 87.7537 59.869 87.6342 60.1206C87.5147 60.3723 87.446 60.645 87.4319 60.9232C87.4178 61.2014 87.4587 61.4796 87.5521 61.742C87.6455 62.0044 87.7898 62.2459 87.9765 62.4525L88.0618 62.547C88.439 62.9644 88.9665 63.2148 89.5283 63.2433C90.0902 63.2718 90.6403 63.0759 91.0577 62.6987L96.0074 58.2264C96.2141 58.0396 96.3819 57.814 96.5014 57.5624C96.6209 57.3107 96.6896 57.038 96.7037 56.7598C96.7178 56.4816 96.677 56.2034 96.5835 55.941C96.4901 55.6786 96.3459 55.4371 96.1591 55.2305L96.0738 55.136Z" fill="white"/>
<path d="M42.2448 81.8946C43.0037 82.1185 43.6553 82.0319 44.1998 81.6347C44.4661 81.4391 44.7919 80.9925 45.1772 80.2949C50.8848 69.9474 62.7207 62.3484 74.8288 65.767C82.2951 67.8757 88.6991 73.7283 92.4747 80.4257C92.7847 80.976 93.0215 81.3278 93.1853 81.481C94.0037 82.2499 95.4832 82.1686 96.2114 81.3714C96.9432 80.5689 97.0263 79.6515 96.4607 78.6192C90.442 67.6371 78.4559 58.9652 65.3845 60.7682C54.9114 62.2123 45.9744 69.5196 41.064 78.6881C40.4171 79.8936 40.8661 81.488 42.2448 81.8946Z" fill="white"/>
<path d="M68.8879 43.004L68.7147 43.0037C67.5588 43.0016 66.6202 43.937 66.6182 45.0928L66.6064 51.8239C66.6044 52.9797 67.5398 53.9183 68.6956 53.9203L68.8688 53.9206C70.0247 53.9227 70.9633 52.9873 70.9653 51.8315L70.9771 45.1004C70.9791 43.9446 70.0437 43.006 68.8879 43.004Z" fill="white"/>
<path d="M49.452 59.464L44.5101 54.983C43.6416 54.1954 42.2991 54.2611 41.5115 55.1296L41.426 55.2239C40.6385 56.0925 40.7041 57.435 41.5727 58.2225L46.5145 62.7035C47.3831 63.4911 48.7256 63.4254 49.5132 62.5569L49.5987 62.4626C50.3862 61.5941 50.3205 60.2515 49.452 59.464Z" fill="white"/>
<path d="M93.0777 54.9843L88.128 59.4567C87.2588 60.242 87.1909 61.5833 87.9763 62.4525L88.0616 62.547C88.847 63.4162 90.1883 63.4841 91.0575 62.6987L96.0071 58.2264C96.8763 57.441 96.9443 56.0997 96.1589 55.2305L96.0736 55.1361C95.2882 54.2669 93.9469 54.1989 93.0777 54.9843Z" fill="white"/>
<path d="M42.2448 81.8946C40.8661 81.488 40.4171 79.8936 41.064 78.6881C45.9744 69.5196 54.9114 62.2123 65.3845 60.7682C78.4559 58.9652 90.442 67.6371 96.4607 78.6192C97.0263 79.6515 96.9432 80.5689 96.2114 81.3714C95.4832 82.1686 94.0037 82.2499 93.1853 81.481C93.0215 81.3278 92.7847 80.976 92.4747 80.4257C88.6991 73.7283 82.2951 67.8757 74.8288 65.767C62.7207 62.3484 50.8848 69.9474 45.1772 80.2949C44.7919 80.9925 44.4661 81.4391 44.1998 81.6347C43.6553 82.0319 43.0037 82.1185 42.2448 81.8946Z" fill="white"/>
<path d="M79.5512 79.8371C79.5512 82.6916 78.4173 85.4292 76.3988 87.4476C74.3804 89.466 71.6428 90.6 68.7883 90.6C65.9338 90.6 63.1962 89.466 61.1778 87.4476C59.1593 85.4292 58.0254 82.6916 58.0254 79.8371C58.0254 76.9826 59.1593 74.245 61.1778 72.2265C63.1962 70.2081 65.9338 69.0741 68.7883 69.0741C71.6428 69.0741 74.3804 70.2081 76.3988 72.2265C78.4173 74.245 79.5512 76.9826 79.5512 79.8371ZM75.1694 79.8371C75.1694 78.1447 74.4971 76.5217 73.3004 75.325C72.1037 74.1283 70.4807 73.456 68.7883 73.456C67.096 73.456 65.4729 74.1283 64.2762 75.325C63.0796 76.5217 62.4073 78.1447 62.4073 79.8371C62.4073 81.5294 63.0796 83.1525 64.2762 84.3491C65.4729 85.5458 67.096 86.2181 68.7883 86.2181C70.4807 86.2181 72.1037 85.5458 73.3004 84.3491C74.4971 83.1525 75.1694 81.5294 75.1694 79.8371Z" fill="white"/>
<defs>
<filter id="filter0_bd_22_276" x="-40" y="-40" width="214" height="214" filterUnits="userSpaceOnUse" color-interpolation-filters="sRGB">
<feFlood flood-opacity="0" result="BackgroundImageFix"/>
<feGaussianBlur in="BackgroundImageFix" stdDeviation="25"/>
<feComposite in2="SourceAlpha" operator="in" result="effect1_backgroundBlur_22_276"/>
<feColorMatrix in="SourceAlpha" type="matrix" values="0 0 0 0 0 0 0 0 0 0 0 0 0 0 0 0 0 0 127 0" result="hardAlpha"/>
<feOffset dx="4" dy="4"/>
<feGaussianBlur stdDeviation="7"/>
<feComposite in2="hardAlpha" operator="out"/>
<feColorMatrix type="matrix" values="0 0 0 0 0 0 0 0 0 0 0 0 0 0 0 0 0 0 0.25 0"/>
<feBlend mode="normal" in2="effect1_backgroundBlur_22_276" result="effect2_dropShadow_22_276"/>
<feBlend mode="normal" in="SourceGraphic" in2="effect2_dropShadow_22_276" result="shape"/>
</filter>
<linearGradient id="paint0_linear_22_276" x1="67" y1="10" x2="67" y2="124" gradientUnits="userSpaceOnUse">
<stop stop-color="#30C9CD"/>
<stop offset="1" stop-color="#330D69"/>
</linearGradient>
</defs>
</svg>
