<svg width="132" height="76" viewBox="0 0 132 76" fill="none" xmlns="http://www.w3.org/2000/svg">
<g filter="url(#filter0_di_43_140)">
<rect x="10" y="10" width="112" height="56" rx="28" fill="url(#paint0_linear_43_140)" fill-opacity="0.85" shape-rendering="crispEdges"/>
<path d="M49.375 31.25L42.625 38L49.375 44.75" stroke="white" stroke-width="2" stroke-linecap="round" stroke-linejoin="round"/>
<path d="M75.2433 41.096C75.6433 41.096 75.9793 41.24 76.2513 41.528C76.5393 41.8 76.6833 42.144 76.6833 42.56C76.6833 42.96 76.5393 43.304 76.2513 43.592C75.9793 43.864 75.6433 44 75.2433 44H74.5233C73.7713 44 73.0913 43.768 72.4833 43.304L72.4593 44.096C72.3473 45.648 71.8033 46.896 70.8273 47.84C69.8673 48.784 68.5793 49.408 66.9633 49.712L65.9073 46.976C67.1233 46.736 68.0433 46.352 68.6673 45.824C69.3073 45.312 69.6273 44.512 69.6273 43.424V32.408H72.5073V39.08C72.5073 39.624 72.7073 40.096 73.1073 40.496C73.5073 40.896 73.9793 41.096 74.5233 41.096H75.2433ZM77.4753 30.68V29.192H78.2673C78.0913 28.792 78.0193 28.448 78.0513 28.16C78.1313 27.568 78.3793 27.072 78.7953 26.672C79.2273 26.256 79.7473 26.048 80.3553 26.048C80.8833 26.048 81.3473 26.192 81.7473 26.48C82.1473 26.752 82.4353 27.128 82.6113 27.608L81.4353 28.448C81.3073 28.144 81.1633 27.92 81.0033 27.776C80.8433 27.632 80.6273 27.56 80.3553 27.56C80.1313 27.56 79.9393 27.632 79.7793 27.776C79.6353 27.92 79.5633 28.104 79.5633 28.328C79.5633 28.536 79.6273 28.736 79.7553 28.928C79.8833 29.104 80.0833 29.192 80.3553 29.192H82.5633V30.68H77.4753ZM75.1713 44C74.7713 44 74.4273 43.856 74.1393 43.568C73.8353 43.28 73.6833 42.936 73.6833 42.536C73.6833 42.12 73.8273 41.776 74.1153 41.504C74.4033 41.232 74.7553 41.096 75.1713 41.096H77.4513C77.7713 41.096 78.0353 40.992 78.2433 40.784C78.4513 40.576 78.5553 40.32 78.5553 40.016V32.408H81.4593V40.016C81.4593 40.736 81.2753 41.4 80.9073 42.008C80.5553 42.616 80.0673 43.104 79.4433 43.472C78.8353 43.824 78.1633 44 77.4273 44H75.1713ZM84.9228 27.2H87.8268V44H84.9228V27.2ZM94.9072 26.888C95.3712 26.888 95.7712 27.056 96.1072 27.392C96.4432 27.712 96.6112 28.104 96.6112 28.568C96.6112 29.032 96.4432 29.432 96.1072 29.768C95.7712 30.104 95.3712 30.272 94.9072 30.272C94.4432 30.272 94.0432 30.104 93.7072 29.768C93.3712 29.432 93.2032 29.032 93.2032 28.568C93.2032 28.104 93.3712 27.712 93.7072 27.392C94.0432 27.056 94.4432 26.888 94.9072 26.888ZM96.4192 43.424C96.4192 45.312 95.9072 46.792 94.8832 47.864C93.8752 48.952 92.4592 49.552 90.6352 49.664L89.5792 46.928C90.9872 46.8 91.9952 46.48 92.6032 45.968C93.2272 45.472 93.5392 44.624 93.5392 43.424V32.408H96.4192V43.424Z" fill="white"/>
</g>
<defs>
<filter id="filter0_di_43_140" x="0" y="0" width="132" height="76" filterUnits="userSpaceOnUse" color-interpolation-filters="sRGB">
<feFlood flood-opacity="0" result="BackgroundImageFix"/>
<feColorMatrix in="SourceAlpha" type="matrix" values="0 0 0 0 0 0 0 0 0 0 0 0 0 0 0 0 0 0 127 0" result="hardAlpha"/>
<feOffset/>
<feGaussianBlur stdDeviation="5"/>
<feComposite in2="hardAlpha" operator="out"/>
<feColorMatrix type="matrix" values="0 0 0 0 0 0 0 0 0 0 0 0 0 0 0 0 0 0 0.35 0"/>
<feBlend mode="normal" in2="BackgroundImageFix" result="effect1_dropShadow_43_140"/>
<feBlend mode="normal" in="SourceGraphic" in2="effect1_dropShadow_43_140" result="shape"/>
<feColorMatrix in="SourceAlpha" type="matrix" values="0 0 0 0 0 0 0 0 0 0 0 0 0 0 0 0 0 0 127 0" result="hardAlpha"/>
<feOffset dx="4" dy="4"/>
<feGaussianBlur stdDeviation="6.5"/>
<feComposite in2="hardAlpha" operator="arithmetic" k2="-1" k3="1"/>
<feColorMatrix type="matrix" values="0 0 0 0 0.188235 0 0 0 0 0.788235 0 0 0 0 0.803922 0 0 0 0.2 0"/>
<feBlend mode="normal" in2="shape" result="effect2_innerShadow_43_140"/>
</filter>
<linearGradient id="paint0_linear_43_140" x1="66" y1="10" x2="66" y2="66" gradientUnits="userSpaceOnUse">
<stop stop-color="#30C9CD"/>
<stop offset="1" stop-color="#330D69"/>
</linearGradient>
</defs>
</svg>
