<svg width="60" height="60" viewBox="0 0 60 60" fill="none" xmlns="http://www.w3.org/2000/svg">
<path d="M0 5C0 2.23858 2.23858 0 5 0H55C57.7614 0 60 2.23858 60 5V55C60 57.7614 57.7614 60 55 60H5C2.23858 60 0 57.7614 0 55V5Z" fill="url(#paint0_linear_25_582)"/>
<path d="M26.791 20.2345C25.3596 19.1993 25.3546 17.18 26.559 15.9815C27.4094 15.1344 28.2606 14.2882 29.1126 13.4429C29.6369 12.9219 30.0348 12.5883 30.3061 12.442C31.5231 11.7845 33.0893 12.1983 33.8657 13.3918C34.5985 14.5183 34.431 15.9119 33.4888 16.86C32.6434 17.711 31.7961 18.56 30.9468 19.407C30.3896 19.9631 29.9784 20.3129 29.7132 20.4564C28.7826 20.9581 27.6394 20.8484 26.791 20.2345ZM29.6101 15.0861L31.3748 16.8508C31.3976 16.8736 31.4285 16.8864 31.4607 16.8864C31.4929 16.8864 31.5238 16.8736 31.5465 16.8508L32.5005 15.8969C32.7658 15.6312 32.9194 15.2757 32.9274 14.9083C32.9354 14.541 32.7972 14.1919 32.5432 13.9379L32.5231 13.9178C32.2691 13.6638 31.92 13.5256 31.5526 13.5336C31.1853 13.5416 30.8297 13.6951 30.5641 13.9605L29.6101 14.9144C29.5874 14.9372 29.5746 14.9681 29.5746 15.0003C29.5746 15.0325 29.5874 15.0634 29.6101 15.0861ZM30.4108 17.8442L28.6101 16.0434C28.5929 16.0263 28.5695 16.0167 28.5452 16.0167C28.5209 16.0167 28.4976 16.0263 28.4803 16.0434L27.4878 17.0359C27.2268 17.2971 27.0774 17.6485 27.0726 18.0129C27.0677 18.3773 27.2077 18.7248 27.4618 18.979L27.4752 18.9924C27.7295 19.2465 28.077 19.3866 28.4414 19.3817C28.8057 19.3768 29.1571 19.2275 29.4183 18.9665L30.4108 17.974C30.428 17.9567 30.4376 17.9334 30.4376 17.9091C30.4376 17.8847 30.428 17.8614 30.4108 17.8442Z" fill="white" stroke="url(#paint1_linear_25_582)" stroke-width="0.1"/>
<path d="M13.6279 46.4738C13.6486 46.4744 13.6589 46.4643 13.6589 46.4437L13.6597 28.2464C13.6597 28.2207 13.6491 28.2006 13.6279 28.1861C12.921 27.6897 12.4606 27.0429 12.2468 26.2455C12.1669 25.9485 12.1267 25.4929 12.1262 24.8787C12.1256 22.7335 12.1262 20.5882 12.1279 18.443C12.1279 17.9176 12.1686 17.5348 12.2501 17.2947C12.5525 16.4069 13.3909 15.8994 14.3264 15.8986C17.0998 15.8958 19.8729 15.8949 22.6457 15.896C22.926 15.896 23.1312 15.9315 23.2613 16.0024C23.8668 16.3299 23.6131 17.2939 22.9321 17.2939C20.1381 17.295 17.3441 17.2953 14.55 17.2947C13.9453 17.2947 13.519 17.412 13.5199 18.0921C13.5215 19.426 13.5224 20.7717 13.5224 22.129C13.5224 22.1631 13.5394 22.1801 13.5735 22.1801H46.4469C46.4558 22.1801 46.4643 22.1766 46.4706 22.1703C46.4769 22.164 46.4804 22.1555 46.4804 22.1466C46.4821 20.8038 46.4821 19.4592 46.4804 18.113C46.4788 17.4137 46.0684 17.2947 45.4419 17.2947C43.6473 17.2953 41.8533 17.2953 40.0598 17.2947C39.7458 17.2947 39.4853 17.1926 39.3337 16.9095C39.1503 16.5661 39.3228 16.0929 39.6913 15.953C39.7874 15.9167 39.9518 15.8983 40.1846 15.8977C42.0412 15.8944 43.898 15.8991 45.7551 15.912C46.4402 15.9164 46.9897 16.1705 47.4034 16.6741C47.7912 17.1457 47.8724 17.6281 47.8733 18.2872C47.8749 20.4754 47.8749 22.6634 47.8733 24.851C47.8727 25.5015 47.8317 25.9753 47.7501 26.2723C47.5731 26.9139 47.2258 27.4644 46.7082 27.924C46.6262 27.996 46.4779 28.094 46.369 28.1886C46.35 28.2048 46.3406 28.2252 46.3406 28.2498V46.4227C46.3406 46.4359 46.3457 46.4486 46.355 46.458C46.3642 46.4674 46.3768 46.4728 46.39 46.473C46.7309 46.4797 47.1823 46.4294 47.4595 46.5492C47.8716 46.7259 47.9947 47.241 47.725 47.5919C47.5441 47.8273 47.3138 47.8692 47.0022 47.8692C35.5938 47.8697 24.1854 47.8697 12.777 47.8692C12.3314 47.8692 12.0315 47.3499 12.1756 46.9294C12.3741 46.3532 13.1564 46.4705 13.6279 46.4738ZM17.7771 23.5671L13.5793 23.5738C13.5702 23.5738 13.5612 23.5756 13.5528 23.5791C13.5445 23.5826 13.5368 23.5877 13.5305 23.5942C13.5241 23.6007 13.519 23.6083 13.5156 23.6168C13.5122 23.6252 13.5105 23.6342 13.5106 23.6433L13.514 25.3519C13.5151 25.8862 13.7284 26.3982 14.1071 26.7753C14.4858 27.1524 14.9988 27.3637 15.5333 27.3628H15.8365C16.1013 27.3624 16.3634 27.3098 16.6079 27.2081C16.8524 27.1063 17.0744 26.9575 17.2613 26.7699C17.4482 26.5824 17.5963 26.3599 17.6972 26.1152C17.798 25.8704 17.8497 25.6082 17.8491 25.3435L17.8458 23.6349C17.8455 23.6169 17.8382 23.5996 17.8253 23.5869C17.8125 23.5742 17.7951 23.5671 17.7771 23.5671ZM23.4866 23.5545L19.3424 23.5696C19.3155 23.5698 19.2897 23.5807 19.2707 23.5998C19.2517 23.619 19.2411 23.6448 19.2411 23.6718L19.2461 25.315C19.247 25.5852 19.2997 25.8526 19.4011 26.1019C19.5025 26.3511 19.6506 26.5774 19.837 26.7678C20.0235 26.9582 20.2445 27.109 20.4876 27.2115C20.7307 27.314 20.991 27.3663 21.2537 27.3653L21.6021 27.3637C22.1325 27.3617 22.6403 27.1432 23.0139 26.7562C23.3876 26.3692 23.5965 25.8454 23.5946 25.3L23.5888 23.6567C23.5888 23.6296 23.578 23.6036 23.5588 23.5844C23.5397 23.5653 23.5137 23.5545 23.4866 23.5545ZM29.1919 23.5503L25.0796 23.5721C25.0641 23.5722 25.0487 23.5754 25.0345 23.5814C25.0202 23.5875 25.0072 23.5962 24.9963 23.6073C24.9854 23.6183 24.9768 23.6314 24.971 23.6458C24.9652 23.6601 24.9622 23.6755 24.9623 23.691L24.9707 25.3159C24.9737 25.8625 25.1878 26.3856 25.566 26.7701C25.9442 27.1546 26.4556 27.369 26.9875 27.3662L27.3242 27.3645C27.5876 27.3631 27.8482 27.3084 28.0911 27.2035C28.3339 27.0986 28.5542 26.9456 28.7395 26.7532C28.9248 26.5608 29.0713 26.3327 29.1708 26.0821C29.2703 25.8315 29.3207 25.5631 29.3192 25.2924L29.3108 23.6676C29.3107 23.6521 29.3076 23.6367 29.3015 23.6225C29.2955 23.6082 29.2867 23.5952 29.2757 23.5843C29.2646 23.5734 29.2515 23.5648 29.2372 23.559C29.2228 23.5532 29.2074 23.5502 29.1919 23.5503ZM34.9182 23.5646L30.8008 23.5495C30.7855 23.5494 30.7702 23.5523 30.756 23.5581C30.7418 23.5639 30.7289 23.5725 30.718 23.5833C30.7071 23.5941 30.6984 23.607 30.6925 23.6212C30.6866 23.6353 30.6836 23.6506 30.6836 23.6659L30.6785 25.2966C30.6767 25.8429 30.8858 26.3676 31.2597 26.7552C31.6337 27.1429 32.1419 27.3617 32.6727 27.3637L33.0195 27.3653C33.2824 27.3663 33.5429 27.3139 33.7862 27.2112C34.0295 27.1086 34.2508 26.9575 34.4373 26.7668C34.6239 26.5761 34.7722 26.3495 34.8737 26.0998C34.9751 25.8501 35.0278 25.5823 35.0287 25.3117L35.0338 23.681C35.0338 23.6503 35.0216 23.6208 35 23.599C34.9783 23.5771 34.9489 23.5648 34.9182 23.5646ZM40.6503 23.5487L36.5346 23.5637C36.5039 23.564 36.4745 23.5763 36.4529 23.5981C36.4312 23.6199 36.4191 23.6494 36.4191 23.6801L36.4241 25.315C36.425 25.5851 36.4776 25.8524 36.579 26.1015C36.6803 26.3507 36.8284 26.5769 37.0147 26.7672C37.2011 26.9575 37.4221 27.1082 37.665 27.2107C37.908 27.3132 38.1682 27.3655 38.4308 27.3645L38.7809 27.3628C39.311 27.3609 39.8186 27.1425 40.1921 26.7556C40.5656 26.3688 40.7744 25.8452 40.7726 25.3L40.7676 23.6651C40.7676 23.6497 40.7645 23.6345 40.7586 23.6203C40.7527 23.6061 40.7441 23.5933 40.7332 23.5825C40.7223 23.5716 40.7093 23.5631 40.6951 23.5573C40.6809 23.5515 40.6657 23.5485 40.6503 23.5487ZM46.4344 23.5771L42.1998 23.5704C42.1868 23.5704 42.1744 23.5755 42.1651 23.5846C42.1559 23.5937 42.1506 23.606 42.1503 23.619L42.147 25.3485C42.1464 25.6126 42.1979 25.8741 42.2985 26.1183C42.3991 26.3624 42.5469 26.5843 42.7333 26.7714C42.9197 26.9585 43.1412 27.107 43.3851 27.2084C43.629 27.3099 43.8904 27.3624 44.1546 27.3628H44.4661C44.9993 27.3637 45.511 27.1529 45.8888 26.7767C46.2665 26.4006 46.4793 25.8899 46.4804 25.3569L46.4838 23.6274C46.4839 23.6208 46.4827 23.6143 46.4803 23.6082C46.4778 23.6021 46.4742 23.5966 46.4696 23.5919C46.465 23.5872 46.4595 23.5835 46.4535 23.581C46.4474 23.5784 46.4409 23.5771 46.4344 23.5771ZM25.5545 28.4499C25.0977 28.2634 24.6854 27.936 24.3174 27.4675C24.3132 27.4621 24.3078 27.4577 24.3016 27.4547C24.2955 27.4517 24.2887 27.4502 24.2818 27.4502C24.275 27.4502 24.2682 27.4517 24.262 27.4547C24.2559 27.4577 24.2505 27.4621 24.2462 27.4675C22.8551 29.2247 20.0259 29.2021 18.5979 27.4918C18.5917 27.4843 18.5839 27.4782 18.575 27.474C18.5662 27.4698 18.5565 27.4677 18.5468 27.4677C18.537 27.4677 18.5274 27.4698 18.5185 27.474C18.5097 27.4782 18.5019 27.4843 18.4957 27.4918C17.5786 28.5948 16.499 28.8218 15.0986 28.7339C15.0718 28.7322 15.0584 28.7448 15.0584 28.7716V46.4219C15.0584 46.4571 15.076 46.4747 15.1112 46.4747L17.4044 46.4755C17.4113 46.4755 17.4179 46.4728 17.4227 46.4681C17.4276 46.4634 17.4303 46.457 17.4303 46.4504C17.4298 41.8104 17.4295 37.1704 17.4295 32.5304C17.4295 31.9056 17.4864 31.3939 18.221 31.3939C21.7465 31.3928 25.2717 31.3931 28.7966 31.3947C29.5294 31.3947 29.7187 31.6736 29.7187 32.4031C29.7193 37.0749 29.7196 41.7532 29.7196 46.4378C29.7196 46.4478 29.7235 46.4574 29.7306 46.4645C29.7377 46.4715 29.7473 46.4755 29.7573 46.4755H44.9134C44.917 46.4755 44.9206 46.4748 44.924 46.4733C44.9273 46.4719 44.9304 46.4698 44.9329 46.4672C44.9355 46.4645 44.9375 46.4614 44.9389 46.4579C44.9403 46.4545 44.941 46.4508 44.941 46.447V42.885C44.941 42.857 44.9271 42.8431 44.8992 42.8431C41.0571 42.8425 37.2147 42.8425 33.3721 42.8431C32.6912 42.8431 32.5169 42.5215 32.5169 41.864C32.5164 38.7093 32.5164 35.5542 32.5169 32.3989C32.5169 31.8169 32.6476 31.3931 33.2975 31.3939C37.1625 31.395 41.028 31.3947 44.8941 31.3931C44.9254 31.3931 44.941 31.3774 44.941 31.3462V28.7716C44.941 28.742 44.9262 28.7283 44.8966 28.7305C43.5206 28.8453 42.3849 28.5722 41.4887 27.4725C41.4703 27.4502 41.4507 27.4491 41.4301 27.4692C41.3552 27.5395 41.2835 27.6116 41.2148 27.6853C39.7801 29.2188 37.1192 29.1334 35.775 27.4859C35.7687 27.4784 35.7609 27.4724 35.752 27.4683C35.7431 27.4642 35.7335 27.4621 35.7237 27.4622C35.7139 27.4623 35.7043 27.4646 35.6955 27.4688C35.6867 27.473 35.6789 27.4792 35.6728 27.4868C34.3026 29.1962 31.4449 29.2238 30.047 27.4859C30.023 27.4563 29.9985 27.4558 29.9733 27.4843C28.8041 28.7783 27.1651 29.1091 25.5545 28.4499ZM28.3259 32.8127C28.3259 32.8069 28.3236 32.8014 28.3195 32.7973C28.3154 32.7932 28.3099 32.7909 28.3041 32.7909H18.85C18.8442 32.7909 18.8386 32.7932 18.8346 32.7973C18.8305 32.8014 18.8282 32.8069 18.8282 32.8127V46.4529C18.8282 46.4587 18.8305 46.4642 18.8346 46.4683C18.8386 46.4724 18.8442 46.4747 18.85 46.4747H28.3041C28.3099 46.4747 28.3154 46.4724 28.3195 46.4683C28.3236 46.4642 28.3259 46.4587 28.3259 46.4529V32.8127ZM44.941 32.8177C44.941 32.8106 44.9382 32.8038 44.9332 32.7988C44.9282 32.7937 44.9213 32.7909 44.9142 32.7909H33.9357C33.9286 32.7909 33.9218 32.7937 33.9168 32.7988C33.9118 32.8038 33.9089 32.8106 33.9089 32.8177V41.4209C33.9089 41.428 33.9118 41.4349 33.9168 41.4399C33.9218 41.4449 33.9286 41.4477 33.9357 41.4477H44.9142C44.9213 41.4477 44.9282 41.4449 44.9332 41.4399C44.9382 41.4349 44.941 41.428 44.941 41.4209V32.8177Z" fill="white" stroke="url(#paint2_linear_25_582)" stroke-width="0.1"/>
<path d="M40.1698 36.4124C40.674 36.4157 41.1776 36.4165 41.6807 36.4149C41.971 36.4138 42.1824 36.4486 42.3147 36.5196C42.9094 36.8395 42.6799 37.8094 42.0006 37.811C41.3892 37.8133 40.7781 37.8147 40.1672 37.8152C40.1377 37.8152 40.1226 37.83 40.122 37.8596C40.1198 38.3192 40.1198 38.7765 40.122 39.2315C40.1231 39.5632 40.1028 39.7885 40.0609 39.9074C39.813 40.6126 38.725 40.4275 38.7242 39.6804C38.7236 39.0718 38.7222 38.4707 38.72 37.8772C38.72 37.8603 38.7132 37.8441 38.7011 37.8322C38.689 37.8203 38.6726 37.8136 38.6555 37.8136C38.0843 37.8147 37.5125 37.8158 36.9402 37.8169C35.9561 37.8194 35.9084 36.4408 36.8992 36.4283C37.4933 36.421 38.0879 36.4149 38.6831 36.4098C38.6949 36.4098 38.7062 36.4052 38.7145 36.3968C38.7228 36.3885 38.7275 36.3772 38.7275 36.3655C38.7281 35.8713 38.7261 35.3794 38.7216 34.8897C38.7194 34.6005 38.7468 34.3922 38.8037 34.2649C39.1078 33.5857 40.122 33.8478 40.1195 34.5907C40.1178 35.1826 40.1192 35.7741 40.1237 36.3655C40.1237 36.3962 40.139 36.4118 40.1698 36.4124Z" fill="white" stroke="url(#paint3_linear_25_582)" stroke-width="0.1"/>
<path d="M21.4957 34.7122H21.4656C21.0895 34.7122 20.7847 35.0171 20.7847 35.3931V41.2224C20.7847 41.5985 21.0895 41.9033 21.4656 41.9033H21.4957C21.8718 41.9033 22.1767 41.5985 22.1767 41.2224V35.3931C22.1767 35.0171 21.8718 34.7122 21.4957 34.7122Z" fill="white" stroke="url(#paint4_linear_25_582)" stroke-width="0.1"/>
<path d="M26.0903 40.3213C26.4705 40.3213 26.7788 40.013 26.7788 39.6328C26.7788 39.2526 26.4705 38.9443 26.0903 38.9443C25.7101 38.9443 25.4019 39.2526 25.4019 39.6328C25.4019 40.013 25.7101 40.3213 26.0903 40.3213Z" fill="white" stroke="url(#paint5_linear_25_582)" stroke-width="0.1"/>
<path d="M21.4816 44.5559C21.8613 44.5559 22.1692 44.248 22.1692 43.8683C22.1692 43.4885 21.8613 43.1807 21.4816 43.1807C21.1018 43.1807 20.7939 43.4885 20.7939 43.8683C20.7939 44.248 21.1018 44.5559 21.4816 44.5559Z" fill="white" stroke="url(#paint6_linear_25_582)" stroke-width="0.1"/>
<defs>
<linearGradient id="paint0_linear_25_582" x1="30" y1="0" x2="30" y2="60" gradientUnits="userSpaceOnUse">
<stop stop-color="#30C9CD"/>
<stop offset="1" stop-color="#330D69"/>
</linearGradient>
<linearGradient id="paint1_linear_25_582" x1="30.0032" y1="12.1304" x2="30.0032" y2="20.773" gradientUnits="userSpaceOnUse">
<stop stop-color="#30C9CD"/>
<stop offset="1" stop-color="#330D69"/>
</linearGradient>
<linearGradient id="paint2_linear_25_582" x1="30.0002" y1="15.8956" x2="30.0002" y2="47.8696" gradientUnits="userSpaceOnUse">
<stop stop-color="#30C9CD"/>
<stop offset="1" stop-color="#330D69"/>
</linearGradient>
<linearGradient id="paint3_linear_25_582" x1="39.4177" y1="33.8722" x2="39.4177" y2="40.3494" gradientUnits="userSpaceOnUse">
<stop stop-color="#30C9CD"/>
<stop offset="1" stop-color="#330D69"/>
</linearGradient>
<linearGradient id="paint4_linear_25_582" x1="21.4807" y1="34.7122" x2="21.4807" y2="41.9033" gradientUnits="userSpaceOnUse">
<stop stop-color="#30C9CD"/>
<stop offset="1" stop-color="#330D69"/>
</linearGradient>
<linearGradient id="paint5_linear_25_582" x1="26.0903" y1="38.9443" x2="26.0903" y2="40.3213" gradientUnits="userSpaceOnUse">
<stop stop-color="#30C9CD"/>
<stop offset="1" stop-color="#330D69"/>
</linearGradient>
<linearGradient id="paint6_linear_25_582" x1="21.4816" y1="43.1807" x2="21.4816" y2="44.5559" gradientUnits="userSpaceOnUse">
<stop stop-color="#30C9CD"/>
<stop offset="1" stop-color="#330D69"/>
</linearGradient>
</defs>
</svg>
