<svg width="25" height="25" viewBox="0 0 25 25" fill="none" xmlns="http://www.w3.org/2000/svg">
<path d="M3.64026 15.6081L5.70026 14.0581C6.10974 13.7478 6.61203 13.5848 7.1257 13.5957C7.63937 13.6066 8.1343 13.7907 8.53026 14.1181L10.9403 16.1181C11.2871 16.4067 11.718 16.5754 12.1686 16.5988C12.6193 16.6222 13.0654 16.4992 13.4403 16.2481L13.8003 16.0081C14.1993 15.7445 14.667 15.6039 15.1453 15.6039C15.6235 15.6039 16.0912 15.7445 16.4903 16.0081L20.6403 18.6081" stroke="white" stroke-width="1.5" stroke-linecap="round" stroke-linejoin="round"/>
<path d="M16.6403 3.60815H8.64026C5.87883 3.60815 3.64026 5.84673 3.64026 8.60815V16.6082C3.64026 19.3696 5.87883 21.6082 8.64026 21.6082H16.6403C19.4017 21.6082 21.6403 19.3696 21.6403 16.6082V8.60815C21.6403 5.84673 19.4017 3.60815 16.6403 3.60815Z" stroke="white" stroke-width="1.5" stroke-linecap="round" stroke-linejoin="round"/>
<path d="M15.1403 11.6082C15.9687 11.6082 16.6403 10.9366 16.6403 10.1082C16.6403 9.27973 15.9687 8.60815 15.1403 8.60815C14.3118 8.60815 13.6403 9.27973 13.6403 10.1082C13.6403 10.9366 14.3118 11.6082 15.1403 11.6082Z" stroke="white" stroke-width="1.5" stroke-linecap="round" stroke-linejoin="round"/>
</svg>
