<svg width="87" height="87" viewBox="0 0 87 87" fill="none" xmlns="http://www.w3.org/2000/svg">
<g filter="url(#filter0_d_3_20)">
<path d="M69 39.5C69 23.2076 55.7924 10 39.5 10C23.2076 10 10 23.2076 10 39.5C10 55.7924 23.2076 69 39.5 69C55.7924 69 69 55.7924 69 39.5Z" fill="white" fill-opacity="0.8"/>
<path d="M67.525 39.5C67.525 24.0222 54.9778 11.475 39.5 11.475C24.0222 11.475 11.475 24.0222 11.475 39.5C11.475 54.9778 24.0222 67.525 39.5 67.525C54.9778 67.525 67.525 54.9778 67.525 39.5Z" stroke="url(#paint0_linear_3_20)"/>
<path d="M39.5 45.4C42.7585 45.4 45.4 42.7585 45.4 39.5C45.4 36.2415 42.7585 33.6 39.5 33.6C36.2415 33.6 33.6 36.2415 33.6 39.5C33.6 42.7585 36.2415 45.4 39.5 45.4Z" fill="#0043CE"/>
</g>
<defs>
<filter id="filter0_d_3_20" x="0" y="0" width="87" height="87" filterUnits="userSpaceOnUse" color-interpolation-filters="sRGB">
<feFlood flood-opacity="0" result="BackgroundImageFix"/>
<feColorMatrix in="SourceAlpha" type="matrix" values="0 0 0 0 0 0 0 0 0 0 0 0 0 0 0 0 0 0 127 0" result="hardAlpha"/>
<feOffset dx="4" dy="4"/>
<feGaussianBlur stdDeviation="7"/>
<feComposite in2="hardAlpha" operator="out"/>
<feColorMatrix type="matrix" values="0 0 0 0 0 0 0 0 0 0 0 0 0 0 0 0 0 0 0.05 0"/>
<feBlend mode="normal" in2="BackgroundImageFix" result="effect1_dropShadow_3_20"/>
<feBlend mode="normal" in="SourceGraphic" in2="effect1_dropShadow_3_20" result="shape"/>
</filter>
<linearGradient id="paint0_linear_3_20" x1="39.5" y1="10" x2="39.5" y2="69" gradientUnits="userSpaceOnUse">
<stop stop-color="#30C9CD"/>
<stop offset="1" stop-color="#330D69"/>
</linearGradient>
</defs>
</svg>
