<svg width="81" height="69" viewBox="0 0 81 69" fill="none" xmlns="http://www.w3.org/2000/svg">
<path d="M38.885 37.6345C37.6793 33.7642 43.1777 33.3548 45.4672 33.4495C49.2157 33.6033 53.0019 34.525 56.5054 35.8372C56.9077 35.9879 57.5238 36.299 58.3536 36.7708C61.9139 38.968 64.3253 42.4596 65.7464 46.3489C66.4303 48.1694 66.9063 50.0389 67.1745 51.9573C67.1755 51.9641 67.1751 51.971 67.1732 51.9776C67.1712 51.9842 67.1679 51.9903 67.1634 51.9955C67.1589 52.0007 67.1533 52.0048 67.1471 52.0076C67.1408 52.0104 67.134 52.0118 67.1272 52.0117C59.3976 52.011 51.6649 52.0129 43.9291 52.0177C39.3441 52.0212 34.6941 53.1618 31.7964 56.9777C30.1209 59.1844 29.4891 61.7224 28.9046 64.3692C28.7019 65.2882 28.5228 65.9267 28.3674 66.2849C27.9628 67.2208 27.2505 68.3117 26.266 68.7057C26.0073 68.8098 25.6472 68.8627 25.1858 68.8643C17.2144 68.8903 9.24549 68.9364 1.27418 68.9909C0.883717 68.994 0.566617 68.9258 0.322874 68.7862C0.0128722 68.6103 -0.0738983 68.3338 0.0625658 67.9567C2.5552 61.0902 5.09202 54.2401 7.673 47.4067C10.7367 39.2953 13.9054 31.2254 17.1789 23.1969C18.8295 19.1491 20.5239 15.0931 22.4892 11.1861C25.3538 5.49248 30.5339 1.25421 36.928 0.261491C37.5354 0.166834 38.3206 0.118321 39.2838 0.115955C53.1779 0.077303 67.0755 0.0386518 80.9767 1.14479e-07C80.9806 -1.2303e-05 80.9844 0.000985653 80.9878 0.00290507C80.9913 0.00482449 80.9941 0.0076065 80.9963 0.0110025C80.9984 0.0143985 80.9996 0.0183025 80.9999 0.0223695C81.0002 0.0264366 80.9996 0.0305391 80.998 0.0343125C78.3949 5.87939 74.5495 11.3376 68.592 14.1075C64.0212 16.2337 58.9464 16.4242 54.016 16.7673C53.4299 16.8076 52.6115 16.948 51.5608 17.1886C48.3957 17.9127 45.0602 19.8117 44.0024 23.1082C43.9819 23.1713 44.0036 23.1938 44.0675 23.1756C46.2856 22.5627 48.5219 21.9727 50.7763 21.4055C51.2165 21.2951 51.6823 21.1933 52.1737 21.1003C53.325 20.8837 56.4309 20.0247 55.4618 22.6337C54.8679 24.2358 53.0114 24.1565 51.5904 24.1222C47.9019 24.0323 44.2142 24.0457 40.5273 24.1624C39.6553 24.1896 38.4898 24.2973 37.5906 24.5067C34.3237 25.2664 30.5718 27.1216 32.7146 31.2771C34.0859 33.9393 36.5434 36.2087 38.9288 37.967C38.9753 38.0009 38.9903 37.9903 38.9738 37.935L38.885 37.6345Z" fill="url(#paint0_linear_22_1105)"/>
<path d="M67.3141 36.6784C67.281 36.7187 67.2703 36.7762 67.2822 36.8512C67.2877 36.8914 67.2711 36.9167 67.2325 36.9269C67.1441 36.9514 67.0806 36.9241 67.042 36.8453C67.0144 36.7893 66.9864 36.7893 66.958 36.8453L66.9308 36.8997C66.9032 36.9541 66.8728 36.9557 66.8397 36.9044L66.8101 36.8583C66.7825 36.8149 66.7537 36.8141 66.7237 36.8559C66.6661 36.9364 66.5845 36.9569 66.4788 36.9174C66.4654 36.9127 66.4583 36.9028 66.4575 36.8879L66.4551 36.8429C66.4548 36.8366 66.4527 36.8305 66.4492 36.8253C66.4458 36.82 66.4409 36.8158 66.4353 36.813C66.4296 36.8102 66.4233 36.809 66.417 36.8095C66.4107 36.81 66.4047 36.8121 66.3995 36.8157C66.2969 36.8898 66.2824 36.9616 66.3557 37.031C66.358 37.0333 66.3597 37.0361 66.3607 37.0392C66.3617 37.0423 66.3619 37.0455 66.3613 37.0486C66.3607 37.0517 66.3593 37.0546 66.3573 37.0569C66.3553 37.0592 66.3527 37.0609 66.3498 37.0618C66.3317 37.0689 66.3179 37.0642 66.3084 37.0476C66.2918 37.0176 66.2709 37.0302 66.2457 37.0855C66.2102 37.1628 66.1483 37.188 66.0599 37.1612C66.0299 37.1517 66.0126 37.1624 66.0079 37.1931C66.0047 37.2121 65.998 37.2286 65.9877 37.2428C65.972 37.2673 65.9511 37.2771 65.925 37.2724C65.9132 37.27 65.9025 37.2649 65.8931 37.257C65.8781 37.2428 65.8734 37.2259 65.8789 37.2061C65.8907 37.1643 65.914 37.1438 65.9487 37.1446C65.9992 37.1462 66.0051 37.1308 65.9664 37.0985C65.9325 37.0701 65.8915 37.0559 65.8434 37.0559C65.8016 37.0559 65.7787 37.0768 65.7748 37.1186C65.7629 37.2361 65.7042 37.3213 65.5985 37.3742C65.563 37.3923 65.5342 37.4179 65.5121 37.4511L65.4411 37.5564C65.4316 37.5706 65.4194 37.5741 65.4044 37.567C65.391 37.5607 65.3855 37.5512 65.3878 37.5386C65.3889 37.5341 65.3888 37.5294 65.3876 37.525C65.3864 37.5205 65.3841 37.5164 65.3809 37.513C65.3778 37.5097 65.3739 37.5071 65.3695 37.5056C65.3651 37.5041 65.3605 37.5036 65.3559 37.5043C65.3078 37.5098 65.2794 37.5335 65.2707 37.5753C65.2636 37.6053 65.2447 37.6175 65.2139 37.612C65.1295 37.597 65.0664 37.6218 65.0246 37.6865C64.9962 37.7283 64.9694 37.7275 64.9441 37.6842C64.9094 37.6226 64.8566 37.5974 64.7856 37.6084C64.7525 37.614 64.7264 37.6305 64.7075 37.6581C64.6617 37.7228 64.6038 37.7457 64.5336 37.7268C64.5044 37.7197 64.4839 37.7023 64.472 37.6747C64.4429 37.6092 64.3904 37.5891 64.3147 37.6144C64.3013 37.6188 64.2869 37.6189 64.2735 37.6147C64.2601 37.6104 64.2484 37.602 64.2401 37.5907C64.2204 37.5615 64.1952 37.5394 64.1644 37.5244C64.1329 37.5094 64.1112 37.5185 64.0993 37.5516C64.0851 37.5911 64.0619 37.6112 64.0295 37.612C63.8789 37.6136 63.7274 37.614 63.5752 37.6132C63.5507 37.6124 63.5341 37.6006 63.5255 37.5777L63.5148 37.5469C63.51 37.5329 63.5001 37.5212 63.487 37.514C63.4739 37.5068 63.4586 37.5046 63.4438 37.5079C63.361 37.526 63.3089 37.5035 63.2876 37.4404C63.2758 37.4041 63.251 37.3852 63.2131 37.3836C62.8573 37.3679 62.6314 37.3663 62.5351 37.3789C62.4389 37.3923 62.3714 37.3738 62.3328 37.3233C62.3115 37.2957 62.2843 37.2771 62.2511 37.2677C62.0666 37.2156 61.8832 37.2113 61.701 37.2547C61.6757 37.2602 61.6556 37.2527 61.6406 37.2322C61.6288 37.2156 61.6095 37.1998 61.5826 37.1848C61.5574 37.1707 61.5306 37.1636 61.5022 37.1636L61.3531 37.1647C61.3073 37.1647 61.2845 37.1423 61.2845 37.0973C61.2845 37.0563 61.2703 37.0223 61.2419 36.9955C61.2135 36.9687 61.1799 36.9577 61.1413 36.9624C61.0474 36.9734 60.9709 36.9454 60.9118 36.8784C60.8755 36.8358 60.8463 36.8102 60.8242 36.8015C60.7926 36.7881 60.7631 36.7826 60.7354 36.7849C60.6976 36.7889 60.6826 36.8094 60.6905 36.8464C60.7047 36.9072 60.7335 36.949 60.7769 36.9719C60.8352 37.0026 60.8325 37.0263 60.7686 37.0429C60.6566 37.0713 60.5647 37.0535 60.4929 36.9896C60.4787 36.9772 60.4605 36.9703 60.4416 36.97C60.4228 36.9698 60.4044 36.9763 60.39 36.9884C60.3079 37.0578 60.2361 37.0515 60.1746 36.9695C60.1533 36.9403 60.1245 36.9281 60.0882 36.9328C60.0299 36.9399 59.9817 36.9182 59.9439 36.8677C59.9194 36.8362 59.8875 36.8236 59.848 36.8299C59.7818 36.8401 59.721 36.822 59.6658 36.7755C59.649 36.7615 59.6292 36.7518 59.6081 36.7471C59.5869 36.7424 59.5649 36.7428 59.5439 36.7482C59.4643 36.7695 59.3886 36.7699 59.3168 36.7494C59.2876 36.7415 59.2631 36.7266 59.2434 36.7045C59.2111 36.669 59.1637 36.6603 59.1014 36.6784C59.0533 36.6926 59.021 36.6741 59.0044 36.6228C58.991 36.5842 58.9642 36.5676 58.9239 36.5731C58.8427 36.585 58.7638 36.5794 58.6873 36.5566C58.6526 36.5463 58.6195 36.5495 58.5879 36.566C58.5406 36.5913 58.4948 36.5936 58.4507 36.5731C58.4231 36.5597 58.3947 36.5581 58.3655 36.5684C58.345 36.5755 58.3229 36.5794 58.2992 36.5802C58.2582 36.581 58.2531 36.5948 58.2838 36.6216C58.302 36.6374 58.3264 36.6402 58.3572 36.6299C58.3927 36.6181 58.4081 36.6307 58.4033 36.6678C58.4002 36.6985 58.3836 36.7329 58.3536 36.7707C57.5238 36.299 56.9077 35.9878 56.5055 35.8372C53.002 34.525 49.2157 33.6033 45.4673 33.4494C43.1777 33.3548 37.6793 33.7642 38.885 37.6345C38.7904 37.6471 38.6819 37.5844 38.5596 37.4463C38.241 37.0851 38.0012 36.6516 37.8403 36.146C37.1256 33.9002 39.66 32.5904 41.384 32.0876C44.045 31.3126 46.9285 31.1303 49.6677 31.2226C52.6667 31.3244 55.6346 31.6829 58.5714 32.2982C61.714 32.9549 64.8246 34.6563 67.3141 36.6784Z" fill="url(#paint1_linear_22_1105)"/>
<path d="M67.3141 36.6784C70.5952 39.3844 73.3095 42.6738 75.5375 46.3512C75.5405 46.3562 75.5424 46.3617 75.5431 46.3675C75.5439 46.3733 75.5434 46.3792 75.5417 46.3848C75.5401 46.3905 75.5373 46.3958 75.5335 46.4004C75.5297 46.405 75.525 46.4088 75.5197 46.4115L75.483 46.4305C75.4762 46.4341 75.4685 46.4362 75.4608 46.4367C75.453 46.4371 75.4452 46.4357 75.438 46.4328C75.4308 46.4299 75.4243 46.4254 75.419 46.4197C75.4137 46.414 75.4097 46.4071 75.4073 46.3997C75.3702 46.283 75.2862 46.2278 75.1553 46.2341C75.1465 46.2344 75.1379 46.2319 75.1305 46.2271C75.1232 46.2223 75.1175 46.2154 75.1143 46.2072C75.111 46.199 75.1104 46.1901 75.1124 46.1815C75.1145 46.173 75.1191 46.1653 75.1257 46.1595L75.1612 46.1299C75.1841 46.1102 75.1853 46.0897 75.1647 46.0684C75.1348 46.0369 75.0957 46.0266 75.0476 46.0377C75.0208 46.044 75.0042 46.0605 74.9979 46.0873C74.994 46.1039 74.9849 46.1177 74.9707 46.1288C74.9431 46.1493 74.9151 46.1489 74.8867 46.1276C74.8741 46.1181 74.8658 46.1059 74.8618 46.0909C74.854 46.0649 74.837 46.0479 74.811 46.04C74.7305 46.0156 74.6713 46.0333 74.6335 46.0933C74.6174 46.1186 74.5932 46.1378 74.5649 46.1477C74.4781 46.1785 74.4174 46.1552 74.3826 46.0779C74.3781 46.0686 74.3709 46.061 74.362 46.0559C74.353 46.0508 74.3427 46.0486 74.3325 46.0495C74.3222 46.0504 74.3125 46.0544 74.3045 46.0609C74.2966 46.0675 74.2908 46.0763 74.288 46.0862C74.2785 46.1209 74.2541 46.1445 74.2146 46.1572C74.2076 46.1594 74.2001 46.16 74.1928 46.1589C74.1855 46.1578 74.1786 46.1549 74.1727 46.1506C74.1668 46.1464 74.162 46.1407 74.1588 46.1342C74.1556 46.1278 74.154 46.1206 74.1543 46.1134C74.1551 46.081 74.1432 46.057 74.1188 46.0412C74.0841 46.0183 74.0632 46.0274 74.0561 46.0684C74.0506 46.1008 74.0344 46.126 74.0076 46.1441C73.9737 46.1678 73.9496 46.1603 73.9354 46.1217C73.9054 46.038 73.8419 46.0112 73.7449 46.0412C73.7047 46.053 73.6889 46.0795 73.6976 46.1205C73.7086 46.1717 73.6964 46.2175 73.6609 46.2577C73.612 46.3137 73.5796 46.3055 73.5639 46.2329C73.5568 46.2013 73.5556 46.1686 73.5603 46.1347C73.5625 46.1137 73.5573 46.0927 73.5456 46.0754C73.5339 46.058 73.5165 46.0455 73.4964 46.04C73.472 46.0337 73.4467 46.0329 73.4207 46.0377C73.3844 46.0448 73.3572 46.0641 73.3391 46.0956C73.3304 46.1114 73.3193 46.1248 73.3059 46.1359C73.2791 46.1572 73.2554 46.1544 73.2349 46.1276C73.1624 46.0298 73.0582 46.0029 72.9226 46.0471C72.8949 46.0558 72.8752 46.0735 72.8634 46.1004C72.8516 46.124 72.8334 46.1414 72.809 46.1524C72.8024 46.1552 72.7953 46.1565 72.7882 46.1562C72.7811 46.1559 72.7741 46.1541 72.7678 46.1508C72.7615 46.1475 72.7559 46.1429 72.7516 46.1373C72.7473 46.1316 72.7442 46.1251 72.7427 46.1181C72.738 46.0944 72.7281 46.0724 72.7131 46.0519C72.7068 46.044 72.698 46.0384 72.6882 46.036C72.6784 46.0335 72.668 46.0344 72.6588 46.0384C72.6495 46.0425 72.6418 46.0494 72.6369 46.0583C72.6319 46.0671 72.63 46.0773 72.6315 46.0873C72.6402 46.1394 72.6346 46.1895 72.6149 46.2376C72.6116 46.2457 72.6063 46.2528 72.5996 46.2583C72.5929 46.2638 72.585 46.2676 72.5764 46.2694C72.5679 46.2712 72.5591 46.2708 72.5508 46.2683C72.5424 46.2659 72.5348 46.2614 72.5286 46.2554C72.4907 46.2159 72.48 46.1674 72.4966 46.1098C72.499 46.1014 72.4994 46.0925 72.4977 46.0839C72.4961 46.0753 72.4925 46.0672 72.4873 46.0603C72.482 46.0533 72.4752 46.0476 72.4674 46.0437C72.4595 46.0398 72.4509 46.0377 72.4422 46.0377H72.1487C72.0998 46.0377 72.0631 46.0582 72.0387 46.0992C72.0024 46.1599 71.9448 46.1729 71.8659 46.1382C71.8352 46.1248 71.8068 46.1075 71.7808 46.0862C71.6561 45.986 71.5315 45.9998 71.4069 46.1276C71.3808 46.1544 71.3528 46.1564 71.3229 46.1335C71.3047 46.1201 71.2933 46.1015 71.2885 46.0779C71.2799 46.0424 71.2601 46.0341 71.2294 46.053C71.2128 46.0641 71.2081 46.0799 71.2152 46.1004C71.2173 46.1063 71.218 46.1126 71.2172 46.1188C71.2164 46.125 71.2142 46.1309 71.2107 46.1361C71.2072 46.1412 71.2026 46.1453 71.1972 46.1482C71.1918 46.151 71.1858 46.1525 71.1797 46.1524H71.1146C71.1004 46.1524 71.0917 46.1449 71.0886 46.1299C71.0744 46.0605 71.0231 46.0298 70.9348 46.0377C70.8922 46.0408 70.863 46.0597 70.8472 46.0944C70.833 46.1244 70.8097 46.1437 70.7774 46.1524C70.6725 46.1792 70.5798 46.165 70.4993 46.1098C70.4678 46.0877 70.4343 46.0692 70.3988 46.0542C70.2852 46.0053 70.198 46.0199 70.1373 46.098C70.1073 46.1366 70.0679 46.156 70.0189 46.156H69.7255C69.7191 46.156 69.7128 46.1547 69.7069 46.1523C69.7011 46.1498 69.6957 46.1463 69.6912 46.1418C69.6762 46.1284 69.6656 46.115 69.6593 46.1015C69.6372 46.0558 69.6056 46.0479 69.5646 46.0779C69.4305 46.1733 69.2787 46.1923 69.1091 46.1347C69.0822 46.126 69.0676 46.1075 69.0653 46.0791C69.0629 46.053 69.0341 46.04 68.9789 46.04C68.9687 46.04 68.958 46.04 68.947 46.04C68.8515 46.0455 68.7557 46.0424 68.6594 46.0306C68.6487 46.0292 68.6378 46.0321 68.629 46.0387C68.6202 46.0453 68.6142 46.0551 68.6121 46.0661C68.6097 46.0795 68.605 46.0925 68.5979 46.1051C68.5813 46.1366 68.5549 46.1524 68.5186 46.1524H68.0939C68.0576 46.1524 68.0292 46.1378 68.0087 46.1086L67.985 46.0767C67.9755 46.0633 67.9436 46.0495 67.8892 46.0353C67.8237 46.0187 67.7827 46.0444 67.7661 46.1122C67.7638 46.1213 67.7591 46.1296 67.7525 46.1362C67.7458 46.1428 67.7375 46.1476 67.7284 46.1499C67.7193 46.1522 67.7098 46.152 67.7008 46.1493C67.6918 46.1466 67.6837 46.1416 67.6774 46.1347C67.6608 46.1157 67.6442 46.0964 67.6277 46.0767C67.578 46.0152 67.5508 46.012 67.546 46.0672C67.5445 46.0877 67.5366 46.1055 67.5224 46.1205C67.4963 46.1489 67.4675 46.1516 67.436 46.1288C67.4171 46.1146 67.4072 46.0952 67.4064 46.0708C67.4067 46.0644 67.4058 46.058 67.4036 46.052C67.4015 46.046 67.3982 46.0405 67.3939 46.0358C67.3896 46.0311 67.3844 46.0272 67.3787 46.0245C67.3729 46.0218 67.3666 46.0202 67.3603 46.0199C67.3539 46.0196 67.3475 46.0205 67.3415 46.0227C67.3355 46.0248 67.33 46.0282 67.3253 46.0324C67.3205 46.0367 67.3167 46.0419 67.314 46.0477C67.3113 46.0534 67.3097 46.0597 67.3094 46.0661C67.307 46.085 67.2995 46.1031 67.2869 46.1205C67.264 46.1528 67.2333 46.1635 67.1946 46.1524C67.1189 46.1311 67.0684 46.1524 67.0432 46.2163C67.0397 46.2251 67.0335 46.2326 67.0256 46.2376C67.0176 46.2427 67.0083 46.2452 66.9989 46.2447C66.9894 46.2441 66.9804 46.2407 66.9731 46.2347C66.9657 46.2288 66.9605 46.2207 66.958 46.2116C66.9446 46.1635 66.9122 46.1422 66.861 46.1477C66.8231 46.1524 66.7959 46.1378 66.7793 46.1039C66.7588 46.0613 66.7237 46.0432 66.674 46.0495C66.6409 46.0542 66.6148 46.07 66.5959 46.0968C66.5549 46.156 66.4957 46.1741 66.4184 46.1512C66.3995 46.1457 66.3794 46.1315 66.3581 46.1086C66.347 46.0976 66.3356 46.0873 66.3238 46.0779C66.3041 46.0613 66.2871 46.0637 66.2729 46.085L66.2362 46.1382C66.2181 46.165 66.1932 46.1832 66.1617 46.1927C66.097 46.2116 66.0465 46.1934 66.0102 46.1382C65.9913 46.109 65.9668 46.0854 65.9369 46.0672C65.8919 46.0412 65.8442 46.029 65.7937 46.0306C65.7377 46.0329 65.7262 46.057 65.7594 46.1027C65.8201 46.1856 65.8158 46.2676 65.7464 46.3488C64.3253 42.4596 61.9139 38.968 58.3536 36.7707C58.3836 36.7329 58.4002 36.6985 58.4033 36.6678C58.4081 36.6307 58.3927 36.6181 58.3572 36.6299C58.3264 36.6402 58.302 36.6374 58.2838 36.6216C58.2531 36.5948 58.2582 36.581 58.2992 36.5802C58.3229 36.5794 58.345 36.5755 58.3655 36.5684C58.3947 36.5581 58.4231 36.5597 58.4507 36.5731C58.4948 36.5936 58.5406 36.5913 58.5879 36.566C58.6195 36.5495 58.6526 36.5463 58.6873 36.5566C58.7638 36.5794 58.8427 36.585 58.9239 36.5731C58.9642 36.5676 58.991 36.5842 59.0044 36.6228C59.021 36.6741 59.0533 36.6926 59.1014 36.6784C59.1637 36.6603 59.2111 36.669 59.2434 36.7045C59.2631 36.7266 59.2876 36.7415 59.3168 36.7494C59.3886 36.7699 59.4643 36.7695 59.5439 36.7482C59.5649 36.7428 59.5869 36.7424 59.6081 36.7471C59.6292 36.7518 59.649 36.7615 59.6658 36.7755C59.721 36.822 59.7818 36.8401 59.848 36.8299C59.8875 36.8236 59.9194 36.8362 59.9439 36.8677C59.9817 36.9182 60.0299 36.9399 60.0882 36.9328C60.1245 36.9281 60.1533 36.9403 60.1746 36.9695C60.2361 37.0515 60.3079 37.0578 60.39 36.9884C60.4044 36.9763 60.4228 36.9698 60.4416 36.97C60.4605 36.9703 60.4787 36.9772 60.4929 36.9896C60.5647 37.0535 60.6566 37.0713 60.7686 37.0429C60.8325 37.0263 60.8352 37.0026 60.7769 36.9719C60.7335 36.949 60.7047 36.9072 60.6905 36.8464C60.6826 36.8094 60.6976 36.7889 60.7354 36.7849C60.7631 36.7826 60.7926 36.7881 60.8242 36.8015C60.8463 36.8102 60.8755 36.8358 60.9118 36.8784C60.9709 36.9454 61.0474 36.9734 61.1413 36.9624C61.1799 36.9577 61.2135 36.9687 61.2419 36.9955C61.2703 37.0223 61.2845 37.0563 61.2845 37.0973C61.2845 37.1423 61.3073 37.1647 61.3531 37.1647L61.5022 37.1636C61.5306 37.1636 61.5574 37.1707 61.5826 37.1848C61.6095 37.1998 61.6288 37.2156 61.6406 37.2322C61.6556 37.2527 61.6757 37.2602 61.701 37.2547C61.8832 37.2113 62.0666 37.2156 62.2511 37.2677C62.2843 37.2771 62.3115 37.2957 62.3328 37.3233C62.3714 37.3738 62.4389 37.3923 62.5351 37.3789C62.6314 37.3663 62.8573 37.3679 63.2131 37.3836C63.251 37.3852 63.2758 37.4041 63.2876 37.4404C63.3089 37.5035 63.361 37.526 63.4438 37.5079C63.4586 37.5046 63.4739 37.5068 63.487 37.514C63.5001 37.5212 63.51 37.5329 63.5148 37.5469L63.5255 37.5777C63.5341 37.6006 63.5507 37.6124 63.5752 37.6132C63.7274 37.614 63.8789 37.6136 64.0295 37.612C64.0619 37.6112 64.0851 37.5911 64.0993 37.5516C64.1112 37.5185 64.1329 37.5094 64.1644 37.5244C64.1952 37.5394 64.2204 37.5615 64.2401 37.5907C64.2484 37.602 64.2601 37.6104 64.2735 37.6147C64.2869 37.6189 64.3013 37.6188 64.3147 37.6144C64.3904 37.5891 64.4429 37.6092 64.472 37.6747C64.4839 37.7023 64.5044 37.7197 64.5336 37.7268C64.6038 37.7457 64.6617 37.7228 64.7075 37.6581C64.7264 37.6305 64.7525 37.614 64.7856 37.6084C64.8566 37.5974 64.9094 37.6226 64.9441 37.6842C64.9694 37.7275 64.9962 37.7283 65.0246 37.6865C65.0664 37.6218 65.1295 37.597 65.2139 37.612C65.2447 37.6175 65.2636 37.6053 65.2707 37.5753C65.2794 37.5335 65.3078 37.5098 65.3559 37.5043C65.3605 37.5036 65.3651 37.5041 65.3695 37.5056C65.3739 37.5071 65.3778 37.5097 65.3809 37.513C65.3841 37.5164 65.3864 37.5205 65.3876 37.525C65.3888 37.5294 65.3889 37.5341 65.3878 37.5386C65.3855 37.5512 65.391 37.5607 65.4044 37.567C65.4194 37.5741 65.4316 37.5706 65.4411 37.5564L65.5121 37.4511C65.5342 37.4179 65.563 37.3923 65.5985 37.3742C65.7042 37.3213 65.7629 37.2361 65.7748 37.1186C65.7787 37.0768 65.8016 37.0559 65.8434 37.0559C65.8915 37.0559 65.9325 37.0701 65.9664 37.0985C66.0051 37.1308 65.9992 37.1462 65.9487 37.1446C65.914 37.1438 65.8907 37.1643 65.8789 37.2061C65.8734 37.2259 65.8781 37.2428 65.8931 37.257C65.9025 37.2649 65.9132 37.27 65.925 37.2724C65.9511 37.2771 65.972 37.2673 65.9877 37.2428C65.998 37.2286 66.0047 37.2121 66.0079 37.1931C66.0126 37.1624 66.0299 37.1517 66.0599 37.1612C66.1483 37.188 66.2102 37.1628 66.2457 37.0855C66.2709 37.0302 66.2918 37.0176 66.3084 37.0476C66.3179 37.0642 66.3317 37.0689 66.3498 37.0618C66.3527 37.0609 66.3553 37.0592 66.3573 37.0569C66.3593 37.0546 66.3607 37.0517 66.3613 37.0486C66.3619 37.0455 66.3617 37.0423 66.3607 37.0392C66.3597 37.0361 66.358 37.0333 66.3557 37.031C66.2824 36.9616 66.2969 36.8898 66.3995 36.8157C66.4047 36.8121 66.4107 36.81 66.417 36.8095C66.4233 36.809 66.4296 36.8102 66.4353 36.813C66.4409 36.8158 66.4458 36.82 66.4492 36.8253C66.4527 36.8305 66.4548 36.8366 66.4551 36.8429L66.4575 36.8879C66.4583 36.9028 66.4654 36.9127 66.4788 36.9174C66.5845 36.9569 66.6661 36.9364 66.7237 36.8559C66.7537 36.8141 66.7825 36.8149 66.8101 36.8583L66.8397 36.9044C66.8728 36.9557 66.9032 36.9541 66.9308 36.8997L66.958 36.8453C66.9864 36.7893 67.0144 36.7893 67.042 36.8453C67.0806 36.9241 67.1441 36.9514 67.2325 36.9269C67.2711 36.9167 67.2877 36.8914 67.2822 36.8512C67.2703 36.7762 67.281 36.7187 67.3141 36.6784Z" fill="url(#paint2_linear_22_1105)"/>
<defs>
<linearGradient id="paint0_linear_22_1105" x1="28.6875" y1="-20.925" x2="21.6" y2="68.85" gradientUnits="userSpaceOnUse">
<stop stop-color="#30C9CD"/>
<stop offset="0.95692" stop-color="#330D69"/>
</linearGradient>
<linearGradient id="paint1_linear_22_1105" x1="56.6299" y1="31.2007" x2="56.6299" y2="46.4367" gradientUnits="userSpaceOnUse">
<stop stop-color="#B6B6B6"/>
<stop offset="1" stop-opacity="0"/>
</linearGradient>
<linearGradient id="paint2_linear_22_1105" x1="56.6299" y1="31.2007" x2="56.6299" y2="46.4367" gradientUnits="userSpaceOnUse">
<stop stop-color="#B6B6B6"/>
<stop offset="1" stop-opacity="0"/>
</linearGradient>
</defs>
</svg>
