<svg width="138" height="25" viewBox="0 0 138 25" fill="none" xmlns="http://www.w3.org/2000/svg">
<path d="M13.5893 13.2957C12.7619 12.7065 10.9517 10.9941 11.418 9.84077C11.6562 9.24656 12.9324 8.60222 13.4764 8.58216C15.1981 8.52032 16.9974 8.48772 18.8744 8.48438C19.2405 8.48438 19.4745 8.30804 19.5765 7.95536L19.6116 7.83C19.6293 7.76872 19.6312 7.70396 19.6172 7.64173C19.6032 7.57951 19.5737 7.52182 19.5314 7.47405C19.4891 7.42628 19.4355 7.38996 19.3754 7.36847C19.3153 7.34698 19.2508 7.34101 19.1878 7.35112C18.5209 7.45392 15.7906 8.12836 15.7079 8.09577C15.6823 8.08534 15.6593 8.0694 15.6406 8.04912C15.6219 8.02885 15.608 8.00473 15.5998 7.97855C15.5917 7.95236 15.5895 7.92475 15.5934 7.89775C15.5974 7.87075 15.6073 7.84504 15.6226 7.82248C16.0154 7.23913 16.5051 6.78533 17.0918 6.46107C18.1674 5.86435 19.8698 5.83426 21.1786 5.72144C21.8772 5.66294 22.4614 5.57351 22.9311 5.45317C23.72 5.24925 24.2783 5.04199 24.6059 4.83139C26.371 3.70147 27.6488 2.17542 28.4394 0.253236C28.451 0.225311 28.4555 0.194951 28.4525 0.164862C28.4495 0.134774 28.4391 0.105902 28.4222 0.0808196C28.4053 0.0557368 28.3825 0.0352239 28.3557 0.0211236C28.329 0.00702333 28.2992 -0.000236191 28.2689 5.86043e-06C23.3999 0.0267493 18.5535 0.0643604 13.7297 0.112833C11.1397 0.137905 8.94844 1.7751 7.88037 4.07421C7.2285 5.47657 6.61257 6.89482 6.03257 8.32893C3.92652 13.5222 1.9216 18.728 0.0177955 23.9463C0.00124451 23.9927 -0.00386527 24.0423 0.0029021 24.0911C0.00966947 24.1399 0.0281122 24.1863 0.0566644 24.2264C0.0852166 24.2666 0.123035 24.2992 0.166902 24.3216C0.210769 24.3439 0.259387 24.3554 0.308628 24.355L8.90833 24.2948C9.15288 24.2934 9.39038 24.2127 9.58521 24.0649C9.78004 23.9171 9.92169 23.7101 9.98893 23.4749C10.533 21.5669 10.6558 20 12.6115 18.9545C12.6382 18.9411 12.6666 18.9352 12.6967 18.9369C12.7251 18.9369 12.7535 18.9361 12.7819 18.9344C12.8237 18.9327 12.8655 18.921 12.9073 18.8993C13.5324 18.5617 14.1609 18.3912 14.7927 18.3878C17.7278 18.3678 20.6487 18.3628 23.5554 18.3728C23.5745 18.3726 23.5933 18.3684 23.6105 18.3604C23.6278 18.3525 23.6432 18.341 23.6555 18.3267C23.6679 18.3124 23.677 18.2957 23.6822 18.2777C23.6874 18.2597 23.6886 18.2408 23.6858 18.2223C23.2746 15.4318 22.1288 13.2756 19.2781 12.4031C18.2903 12.1023 13.3586 10.9715 13.7046 13.223C13.723 13.3383 13.6845 13.3626 13.5893 13.2957Z" fill="url(#paint0_linear_33_567)"/>
<path d="M37.7423 0.062684C37.7277 0.0626176 37.7134 0.0662677 37.7007 0.0732888C37.688 0.0803099 37.6772 0.0904774 37.6695 0.102808L26.4448 18.4505C26.4367 18.4634 26.4323 18.4783 26.4319 18.4935C26.4315 18.5088 26.4353 18.5238 26.4427 18.5371C26.4501 18.5505 26.461 18.5615 26.4741 18.5692C26.4873 18.5769 26.5023 18.5809 26.5175 18.5809L31.2862 18.5834C31.3014 18.5836 31.3164 18.5798 31.3296 18.5723C31.3429 18.5648 31.3538 18.5539 31.3614 18.5408L39.3444 4.68345C39.3534 4.66815 39.367 4.65606 39.3832 4.64887C39.3995 4.64167 39.4176 4.63974 39.435 4.64333C39.4524 4.64692 39.4682 4.65586 39.4803 4.6689C39.4924 4.68194 39.5001 4.69842 39.5023 4.71605L40.3397 11.661C40.3411 11.6728 40.34 11.6848 40.3365 11.6961C40.333 11.7075 40.3272 11.718 40.3194 11.7269C40.3116 11.7359 40.3021 11.7432 40.2913 11.7482C40.2806 11.7533 40.2689 11.756 40.257 11.7563L36.4736 11.7738C36.4584 11.7736 36.4434 11.7774 36.4302 11.7849C36.417 11.7924 36.406 11.8033 36.3984 11.8164L34.3876 15.2964C34.3802 15.3093 34.3763 15.3239 34.3762 15.3388C34.3762 15.3536 34.38 15.3683 34.3873 15.3812C34.3947 15.3941 34.4053 15.4049 34.4181 15.4125C34.4309 15.42 34.4455 15.4241 34.4603 15.4243H40.7785C40.7991 15.4241 40.8191 15.4313 40.8347 15.4447C40.8504 15.4581 40.8607 15.4766 40.8637 15.497L41.2674 18.5107C41.2704 18.531 41.2807 18.5496 41.2964 18.563C41.3121 18.5764 41.332 18.5836 41.3526 18.5834L45.8581 18.5809C45.8704 18.581 45.8826 18.5785 45.8939 18.5734C45.9051 18.5684 45.9151 18.5609 45.9233 18.5516C45.9314 18.5424 45.9373 18.5314 45.9408 18.5196C45.9443 18.5077 45.9451 18.4953 45.9433 18.4831L43.1603 0.137897C43.1574 0.117949 43.1474 0.0997001 43.1323 0.0863879C43.1171 0.0730757 43.0977 0.065568 43.0776 0.0651936L37.7423 0.062684Z" fill="url(#paint1_linear_33_567)"/>
<path d="M55.8021 3.91625C55.8179 3.91626 55.8334 3.9198 55.8476 3.92661C55.8618 3.93341 55.8743 3.94331 55.8841 3.95558C55.894 3.96784 55.901 3.98217 55.9046 3.99749C55.9082 4.01281 55.9083 4.02874 55.9049 4.04412L52.7032 18.4555C52.6998 18.4709 52.7 18.4868 52.7036 18.5021C52.7072 18.5175 52.7141 18.5318 52.724 18.5441C52.7339 18.5563 52.7463 18.5662 52.7605 18.573C52.7747 18.5798 52.7903 18.5834 52.806 18.5834L57.1936 18.5809C57.2176 18.5808 57.2409 18.5726 57.2596 18.5576C57.2783 18.5426 57.2913 18.5216 57.2964 18.4981L60.5131 3.99899C60.5183 3.97555 60.5313 3.95457 60.55 3.93952C60.5687 3.92448 60.5919 3.91626 60.6159 3.91625H65.8384C65.8624 3.91623 65.8857 3.90804 65.9044 3.89299C65.9231 3.87794 65.9361 3.85696 65.9412 3.83352L66.7636 0.190553C66.767 0.175179 66.7668 0.159248 66.7633 0.143925C66.7597 0.128602 66.7527 0.114278 66.7428 0.102011C66.7329 0.0897442 66.7205 0.0798484 66.7063 0.0730431C66.6921 0.0662377 66.6765 0.0626922 66.6608 0.0626831L51.4822 0.0651928C51.4582 0.0652067 51.4349 0.0734216 51.4162 0.0884682C51.3975 0.103515 51.3845 0.124495 51.3794 0.147935L50.5696 3.78838C50.5662 3.80375 50.5663 3.8197 50.5699 3.83502C50.5735 3.85034 50.5805 3.86467 50.5904 3.87694C50.6002 3.8892 50.6127 3.8991 50.6269 3.9059C50.6411 3.91271 50.6566 3.91624 50.6724 3.91625H55.8021Z" fill="url(#paint2_linear_33_567)"/>
<path d="M73.036 6.4109L74.4025 0.345975C74.4409 0.175486 74.3732 0.0860604 74.1994 0.077703C71.6571 -0.0576858 69.7967 0.887532 69.1674 3.51257C68.6911 5.4966 68.4011 6.80286 68.2974 7.43133C67.964 9.4421 69.0345 10.1366 70.9551 10.5152C72.2003 10.7626 73.4414 11.0292 74.6782 11.315C74.8914 11.3626 75.1245 11.3125 75.3376 11.3852C75.8441 11.5632 76.3531 11.656 76.8344 11.7738C77.0267 11.8189 77.101 11.9376 77.0576 12.1298L75.651 18.463C75.6499 18.4687 75.6498 18.4745 75.6508 18.4801C75.6519 18.4857 75.654 18.491 75.657 18.4957C75.6601 18.5004 75.664 18.5044 75.6686 18.5074C75.6731 18.5104 75.6783 18.5123 75.6836 18.5132C77.5314 18.8366 79.5422 18.2023 80.4348 16.4974C80.6287 16.1246 80.7582 15.8188 80.8234 15.5797C80.9788 15.0114 81.273 13.6935 81.7059 11.6259C81.8614 10.8787 81.9149 10.3572 81.8664 10.0614C81.6056 8.52697 80.5752 8.33893 79.3266 7.98792C78.9555 7.88429 78.6329 7.80908 78.3588 7.76228C77.4479 7.60182 76.5419 7.41628 75.641 7.20567C74.9089 7.03518 74.1359 6.90399 73.3219 6.81206C73.2757 6.80684 73.2311 6.79196 73.1911 6.76838C73.151 6.74481 73.1164 6.71308 73.0895 6.67523C73.0625 6.63739 73.0438 6.5943 73.0346 6.54876C73.0254 6.50321 73.0259 6.45624 73.036 6.4109Z" fill="url(#paint3_linear_33_567)"/>
<path d="M78.9222 4.04664L78.6239 5.40302C78.6194 5.42492 78.6199 5.44756 78.6252 5.46925C78.6306 5.49095 78.6407 5.51117 78.6549 5.52846C78.6691 5.54575 78.6869 5.55967 78.7071 5.5692C78.7274 5.57872 78.7494 5.58363 78.7718 5.58355L82.8761 5.57102C82.958 5.57102 83.0115 5.53173 83.0365 5.45317C83.8338 2.87577 84.2876 0.0702172 80.6071 0.06771C78.9506 0.06771 77.3059 0.0651955 75.6729 0.0601811C75.6417 0.0601047 75.6115 0.0707927 75.5873 0.0904346C75.5631 0.110076 75.5464 0.137482 75.54 0.168004L74.7177 3.79592C74.7154 3.80472 74.7152 3.81391 74.7172 3.82282C74.7191 3.83173 74.7231 3.84013 74.7289 3.84736C74.7347 3.8546 74.7421 3.86049 74.7506 3.86461C74.7591 3.86873 74.7684 3.87095 74.7778 3.87113L78.7894 3.87866C78.8098 3.87844 78.8299 3.88292 78.8484 3.89177C78.8668 3.90062 78.883 3.91361 78.8958 3.92977C78.9086 3.94592 78.9176 3.96484 78.9222 3.98507C78.9268 4.00531 78.9268 4.02635 78.9222 4.04664Z" fill="url(#paint4_linear_33_567)"/>
<path d="M92.0358 0.233182C92.0407 0.211773 92.0407 0.189528 92.0358 0.168115C92.0309 0.146702 92.0212 0.126682 92.0075 0.109551C91.9937 0.092421 91.9763 0.0786311 91.9564 0.0692133C91.9366 0.0597955 91.9148 0.0550004 91.8929 0.0551807L87.578 0.0777369C87.5453 0.0780326 87.5137 0.0893274 87.4882 0.109796C87.4627 0.130265 87.4449 0.158718 87.4376 0.190564L83.3985 18.4029C83.3936 18.4241 83.3935 18.4461 83.3983 18.4673C83.4031 18.4886 83.4125 18.5084 83.426 18.5255C83.4395 18.5426 83.4566 18.5564 83.4762 18.566C83.4957 18.5756 83.5171 18.5807 83.5389 18.5809H87.8362C87.8693 18.5811 87.9015 18.5701 87.9275 18.5496C87.9535 18.5291 87.9717 18.5003 87.9791 18.4681L92.0358 0.233182Z" fill="url(#paint5_linear_33_567)"/>
<path d="M98.606 18.5834C98.6345 18.5835 98.6623 18.5739 98.6846 18.5561C98.707 18.5383 98.7226 18.5134 98.7288 18.4856L102.783 0.220632C102.787 0.202446 102.787 0.183573 102.783 0.165389C102.779 0.147205 102.771 0.130169 102.759 0.115518C102.748 0.100866 102.733 0.0889769 102.716 0.0807038C102.7 0.0724307 102.681 0.0679849 102.663 0.0676965L98.3177 0.0651868C98.2891 0.0650584 98.2614 0.0746757 98.239 0.0924563C98.2167 0.110237 98.2011 0.135119 98.1948 0.162971L96.6453 7.14552C96.6391 7.17337 96.6235 7.19825 96.6011 7.21603C96.5788 7.23381 96.551 7.24343 96.5225 7.2433L91.656 7.24581C91.6279 7.24625 91.6007 7.25613 91.5789 7.27386C91.5571 7.2916 91.5419 7.31616 91.5357 7.3436L90.7584 10.9615C90.7543 10.9799 90.7544 10.999 90.7586 11.0173C90.7629 11.0357 90.7712 11.0529 90.783 11.0676C90.7948 11.0823 90.8098 11.0941 90.8268 11.1022C90.8438 11.1103 90.8624 11.1145 90.8813 11.1144L95.6199 11.1044C95.6388 11.1043 95.6574 11.1085 95.6744 11.1166C95.6914 11.1247 95.7064 11.1365 95.7182 11.1512C95.73 11.1659 95.7384 11.1831 95.7426 11.2015C95.7469 11.2198 95.7469 11.2389 95.7428 11.2573L94.1407 18.4254C94.1365 18.4436 94.1366 18.4625 94.1407 18.4807C94.1448 18.4988 94.1529 18.5159 94.1644 18.5305C94.176 18.5452 94.1906 18.5571 94.2073 18.5654C94.224 18.5736 94.2424 18.5781 94.261 18.5784L98.606 18.5834Z" fill="url(#paint6_linear_33_567)"/>
<path d="M108.233 14.7248C108.214 14.7249 108.195 14.7207 108.178 14.7126C108.161 14.7045 108.146 14.6926 108.135 14.6779C108.123 14.6632 108.114 14.6461 108.11 14.6277C108.106 14.6093 108.106 14.5902 108.11 14.5718L111.297 0.210614C111.301 0.192428 111.301 0.173555 111.297 0.155371C111.293 0.137187 111.284 0.12015 111.273 0.105499C111.261 0.0908481 111.247 0.0789433 111.23 0.0706702C111.213 0.0623972 111.195 0.0579667 111.176 0.0576782L106.826 0.0677015C106.798 0.0675731 106.77 0.0771904 106.748 0.094971C106.725 0.112752 106.71 0.137634 106.704 0.165486L102.647 18.4279C102.643 18.4461 102.643 18.465 102.647 18.4832C102.651 18.5014 102.659 18.5184 102.671 18.533C102.682 18.5477 102.697 18.5596 102.714 18.5679C102.73 18.5761 102.749 18.5806 102.767 18.5809H115.739C115.768 18.581 115.796 18.5714 115.818 18.5536C115.84 18.5358 115.856 18.5109 115.862 18.4831L116.66 14.8777C116.664 14.8593 116.664 14.8402 116.659 14.8219C116.655 14.8035 116.647 14.7863 116.635 14.7716C116.623 14.7569 116.608 14.7451 116.591 14.737C116.574 14.7289 116.556 14.7247 116.537 14.7248H108.233Z" fill="url(#paint7_linear_33_567)"/>
<path d="M124.037 11.2799C124.042 11.2975 124.052 11.3133 124.065 11.3254C124.079 11.3376 124.096 11.3458 124.114 11.3489C124.132 11.352 124.15 11.3501 124.167 11.3432C124.184 11.3363 124.199 11.3248 124.21 11.31L127.286 7.04025C127.295 7.02844 127.3 7.01489 127.303 7.00058C127.306 6.98627 127.305 6.97155 127.301 6.9575L125.493 0.142933C125.488 0.12196 125.475 0.103439 125.458 0.090276C125.441 0.0771127 125.42 0.0700605 125.398 0.0702294L120.913 0.0551868C120.897 0.0549571 120.882 0.0583208 120.868 0.0650265C120.855 0.0717321 120.843 0.0815812 120.833 0.0937803C120.824 0.105979 120.818 0.120196 120.815 0.135266C120.812 0.150336 120.813 0.165847 120.817 0.180547L124.037 11.2799Z" fill="url(#paint8_linear_33_567)"/>
<path d="M128.769 13.4912C128.892 12.9246 128.879 12.5159 129.248 12.0195C132.128 8.13667 135.038 4.20788 137.978 0.233134C137.99 0.217017 137.997 0.197786 137.999 0.177631C138.001 0.157475 137.997 0.137207 137.988 0.119159C137.979 0.10111 137.965 0.0860145 137.947 0.0755767C137.93 0.0651389 137.91 0.0597805 137.89 0.0601363L133.563 0.0676652C133.449 0.0676652 133.359 0.114466 133.292 0.208068C130.413 4.27809 127.524 8.35814 124.624 12.4482C124.36 12.8193 124.176 13.2254 124.073 13.6667C123.697 15.2713 123.342 16.8692 123.007 18.4605C123.004 18.4751 123.004 18.4901 123.008 18.5046C123.011 18.519 123.018 18.5325 123.027 18.544C123.036 18.5555 123.047 18.5648 123.061 18.5712C123.074 18.5775 123.088 18.5808 123.102 18.5808L127.475 18.5833C127.54 18.5833 127.581 18.5507 127.598 18.4856C128.016 16.8208 128.406 15.156 128.769 13.4912Z" fill="url(#paint9_linear_33_567)"/>
<path d="M74.531 18.5081L75.3358 14.9053C75.3399 14.8885 75.3401 14.871 75.3364 14.854C75.3327 14.8371 75.3251 14.8212 75.3143 14.8075C75.3035 14.7937 75.2896 14.7826 75.2738 14.7748C75.258 14.767 75.2406 14.7627 75.223 14.7624H71.1939C71.1697 14.7626 71.1457 14.7573 71.1238 14.7469C71.1018 14.7365 71.0825 14.7212 71.0671 14.7023C71.0517 14.6833 71.0407 14.661 71.0349 14.6372C71.0291 14.6133 71.0286 14.5884 71.0334 14.5643L71.3017 13.2154C71.3058 13.194 71.3051 13.172 71.2996 13.151C71.2942 13.1299 71.2842 13.1102 71.2703 13.0935C71.2564 13.0767 71.239 13.0632 71.2193 13.054C71.1996 13.0447 71.1781 13.0399 71.1563 13.0399L66.9417 13.0299C66.8648 13.0299 66.818 13.0683 66.8013 13.1452C66.4478 14.8802 65.4399 17.5203 67.6938 18.3552C68.0766 18.4973 68.7945 18.5717 69.8475 18.5783C71.3836 18.5867 72.9172 18.5859 74.4482 18.5758C74.4677 18.5757 74.4865 18.5689 74.5015 18.5566C74.5166 18.5443 74.527 18.5272 74.531 18.5081Z" fill="url(#paint10_linear_33_567)"/>
<path d="M13.7046 13.223C13.3586 10.9716 18.2903 12.1023 19.2781 12.4032C22.1288 13.2757 23.2746 15.4319 23.6858 18.2224C23.6886 18.2409 23.6874 18.2598 23.6822 18.2778C23.677 18.2958 23.6679 18.3125 23.6555 18.3268C23.6432 18.341 23.6278 18.3525 23.6105 18.3605C23.5933 18.3684 23.5745 18.3727 23.5554 18.3728C20.6487 18.3628 17.7278 18.3678 14.7927 18.3879C14.1609 18.3912 13.5324 18.5617 12.9073 18.8993C12.8655 18.9211 12.8237 18.9328 12.7819 18.9345C12.7535 18.9361 12.7251 18.937 12.6967 18.937C12.6666 18.9353 12.6382 18.9411 12.6115 18.9545C10.6558 20 10.533 21.567 9.98893 23.475C9.92169 23.7101 9.78004 23.9171 9.58521 24.0649C9.39038 24.2128 9.15288 24.2934 8.90833 24.2948L0.308628 24.355C0.259387 24.3555 0.210769 24.344 0.166902 24.3216C0.123035 24.2993 0.0852166 24.2666 0.0566644 24.2265C0.0281122 24.1864 0.00966947 24.14 0.0029021 24.0912C-0.00386527 24.0424 0.00124451 23.9927 0.0177955 23.9463C1.9216 18.728 3.92652 13.5222 6.03257 8.329C6.61257 6.89488 7.2285 5.47663 7.88037 4.07427C8.94844 1.77516 11.1397 0.137966 13.7297 0.112894C18.5535 0.0644214 23.3999 0.0268104 28.2689 6.68956e-05C28.2992 -0.000175156 28.329 0.00708437 28.3557 0.0211847C28.3825 0.035285 28.4053 0.0557978 28.4222 0.0808807C28.4391 0.105963 28.4495 0.134835 28.4525 0.164923C28.4555 0.195012 28.451 0.225372 28.4394 0.253297C27.6488 2.17548 26.371 3.70154 24.6059 4.83145C24.2783 5.04205 23.72 5.24931 22.9311 5.45323C22.4614 5.57357 21.8772 5.663 21.1786 5.7215C19.8698 5.83432 18.1674 5.86441 17.0918 6.46113C16.5051 6.78539 16.0154 7.23919 15.6226 7.82254C15.6073 7.8451 15.5974 7.87081 15.5934 7.89781C15.5895 7.92481 15.5917 7.95242 15.5998 7.97861C15.608 8.0048 15.6219 8.02891 15.6406 8.04919C15.6593 8.06946 15.6823 8.0854 15.7079 8.09583C15.7906 8.12842 18.5209 7.45398 19.1878 7.35118C19.2508 7.34107 19.3153 7.34704 19.3754 7.36853C19.4355 7.39003 19.4891 7.42634 19.5314 7.47411C19.5737 7.52188 19.6032 7.57957 19.6172 7.6418C19.6312 7.70402 19.6293 7.76878 19.6116 7.83007L19.5765 7.95543C19.4745 8.30811 19.2405 8.48444 18.8744 8.48444C16.9974 8.48778 15.1981 8.52038 13.4764 8.58223C12.9324 8.60228 11.6562 9.24662 11.418 9.84083C10.9517 10.9941 12.7619 12.7066 13.5893 13.2958C13.6845 13.3626 13.723 13.3384 13.7046 13.223Z" fill="url(#paint11_linear_33_567)"/>
<path d="M37.7423 0.062684L43.0776 0.0651936C43.0977 0.065568 43.1171 0.0730757 43.1323 0.0863879C43.1474 0.0997001 43.1574 0.117949 43.1603 0.137897L45.9433 18.4831C45.9451 18.4953 45.9443 18.5077 45.9408 18.5196C45.9373 18.5314 45.9314 18.5424 45.9233 18.5516C45.9151 18.5609 45.9051 18.5684 45.8939 18.5734C45.8826 18.5785 45.8704 18.581 45.8581 18.5809L41.3526 18.5834C41.332 18.5836 41.3121 18.5764 41.2964 18.563C41.2807 18.5496 41.2704 18.531 41.2674 18.5107L40.8637 15.497C40.8607 15.4766 40.8504 15.4581 40.8347 15.4447C40.8191 15.4313 40.7991 15.4241 40.7785 15.4243H34.4603C34.4455 15.4241 34.4309 15.42 34.4181 15.4125C34.4053 15.4049 34.3947 15.3941 34.3873 15.3812C34.38 15.3683 34.3762 15.3536 34.3762 15.3388C34.3763 15.3239 34.3802 15.3093 34.3876 15.2964L36.3984 11.8164C36.406 11.8033 36.417 11.7924 36.4302 11.7849C36.4434 11.7774 36.4584 11.7736 36.4736 11.7738L40.257 11.7563C40.2689 11.756 40.2806 11.7533 40.2913 11.7482C40.3021 11.7432 40.3116 11.7359 40.3194 11.7269C40.3272 11.718 40.333 11.7075 40.3365 11.6961C40.34 11.6848 40.3411 11.6728 40.3397 11.661L39.5023 4.71605C39.5001 4.69842 39.4924 4.68194 39.4803 4.6689C39.4682 4.65586 39.4524 4.64692 39.435 4.64333C39.4176 4.63974 39.3995 4.64167 39.3832 4.64887C39.367 4.65606 39.3534 4.66815 39.3444 4.68345L31.3614 18.5408C31.3538 18.5539 31.3429 18.5648 31.3296 18.5723C31.3164 18.5798 31.3014 18.5836 31.2862 18.5834L26.5175 18.5809C26.5023 18.5809 26.4873 18.5769 26.4741 18.5692C26.461 18.5615 26.4501 18.5505 26.4427 18.5371C26.4353 18.5238 26.4315 18.5088 26.4319 18.4935C26.4323 18.4783 26.4367 18.4634 26.4448 18.4505L37.6695 0.102808C37.6772 0.0904774 37.688 0.0803099 37.7007 0.0732888C37.7134 0.0662677 37.7277 0.0626176 37.7423 0.062684Z" fill="url(#paint12_linear_33_567)"/>
<path d="M55.8021 3.91625H50.6724C50.6566 3.91624 50.6411 3.91271 50.6269 3.9059C50.6127 3.8991 50.6002 3.8892 50.5904 3.87694C50.5805 3.86467 50.5735 3.85034 50.5699 3.83502C50.5663 3.8197 50.5662 3.80375 50.5696 3.78838L51.3794 0.147935C51.3845 0.124495 51.3975 0.103515 51.4162 0.0884682C51.4349 0.0734216 51.4582 0.0652067 51.4822 0.0651928L66.6608 0.0626831C66.6765 0.0626922 66.6921 0.0662377 66.7063 0.0730431C66.7205 0.0798484 66.7329 0.0897442 66.7428 0.102011C66.7527 0.114278 66.7597 0.128602 66.7633 0.143925C66.7668 0.159248 66.767 0.175179 66.7636 0.190553L65.9412 3.83352C65.9361 3.85696 65.9231 3.87794 65.9044 3.89299C65.8857 3.90804 65.8624 3.91623 65.8384 3.91625H60.6159C60.5919 3.91626 60.5687 3.92448 60.55 3.93952C60.5313 3.95457 60.5183 3.97555 60.5131 3.99899L57.2964 18.4981C57.2913 18.5216 57.2783 18.5426 57.2596 18.5576C57.2409 18.5726 57.2176 18.5808 57.1936 18.5809L52.806 18.5834C52.7903 18.5834 52.7747 18.5798 52.7605 18.573C52.7463 18.5662 52.7339 18.5563 52.724 18.5441C52.7141 18.5318 52.7072 18.5175 52.7036 18.5021C52.7 18.4868 52.6998 18.4709 52.7032 18.4555L55.9049 4.04412C55.9083 4.02874 55.9082 4.01281 55.9046 3.99749C55.901 3.98217 55.894 3.96784 55.8841 3.95558C55.8743 3.94331 55.8618 3.93341 55.8476 3.92661C55.8334 3.9198 55.8179 3.91626 55.8021 3.91625Z" fill="url(#paint13_linear_33_567)"/>
<path d="M74.4025 0.345975L73.036 6.4109C73.0259 6.45624 73.0254 6.50321 73.0346 6.54876C73.0438 6.5943 73.0625 6.63739 73.0895 6.67523C73.1164 6.71308 73.151 6.74481 73.1911 6.76838C73.2311 6.79196 73.2757 6.80684 73.3219 6.81206C74.1359 6.90399 74.9089 7.03518 75.641 7.20567C76.5419 7.41628 77.4479 7.60182 78.3588 7.76228C78.6329 7.80908 78.9555 7.88429 79.3266 7.98792C80.5752 8.33893 81.6056 8.52697 81.8664 10.0614C81.9149 10.3572 81.8614 10.8787 81.7059 11.6259C81.273 13.6935 80.9788 15.0114 80.8234 15.5797C80.7582 15.8188 80.6287 16.1246 80.4348 16.4974C79.5422 18.2023 77.5314 18.8366 75.6836 18.5132C75.6783 18.5123 75.6731 18.5104 75.6686 18.5074C75.664 18.5044 75.6601 18.5004 75.657 18.4957C75.654 18.491 75.6519 18.4857 75.6508 18.4801C75.6498 18.4745 75.6499 18.4687 75.651 18.463L77.0576 12.1298C77.101 11.9376 77.0267 11.8189 76.8344 11.7738C76.3531 11.656 75.8441 11.5632 75.3376 11.3852C75.1245 11.3125 74.8914 11.3626 74.6782 11.315C73.4414 11.0292 72.2003 10.7626 70.9551 10.5152C69.0345 10.1366 67.964 9.4421 68.2974 7.43133C68.4011 6.80286 68.6911 5.4966 69.1674 3.51257C69.7967 0.887532 71.6571 -0.0576858 74.1994 0.077703C74.3732 0.0860604 74.4409 0.175486 74.4025 0.345975Z" fill="url(#paint14_linear_33_567)"/>
<path d="M78.9222 4.04664C78.9268 4.02635 78.9268 4.00531 78.9222 3.98507C78.9176 3.96484 78.9086 3.94592 78.8958 3.92977C78.883 3.91361 78.8668 3.90062 78.8484 3.89177C78.8299 3.88292 78.8098 3.87844 78.7894 3.87866L74.7778 3.87113C74.7684 3.87095 74.7591 3.86873 74.7506 3.86461C74.7421 3.86049 74.7347 3.8546 74.7289 3.84736C74.7231 3.84013 74.7191 3.83173 74.7172 3.82282C74.7152 3.81391 74.7154 3.80472 74.7177 3.79592L75.54 0.168004C75.5464 0.137482 75.5631 0.110076 75.5873 0.0904346C75.6115 0.0707927 75.6417 0.0601047 75.6729 0.0601811C77.3059 0.0651955 78.9506 0.06771 80.6071 0.06771C84.2876 0.0702172 83.8338 2.87577 83.0365 5.45317C83.0115 5.53173 82.958 5.57102 82.8761 5.57102L78.7718 5.58355C78.7494 5.58363 78.7274 5.57872 78.7071 5.5692C78.6869 5.55967 78.6691 5.54575 78.6549 5.52846C78.6407 5.51117 78.6306 5.49095 78.6252 5.46925C78.6199 5.44756 78.6194 5.42492 78.6239 5.40302L78.9222 4.04664Z" fill="url(#paint15_linear_33_567)"/>
<path d="M92.0358 0.233182L87.9791 18.4681C87.9717 18.5003 87.9535 18.5291 87.9275 18.5496C87.9015 18.5701 87.8693 18.5811 87.8362 18.5809H83.5389C83.5171 18.5807 83.4957 18.5756 83.4762 18.566C83.4566 18.5564 83.4395 18.5426 83.426 18.5255C83.4125 18.5084 83.4031 18.4886 83.3983 18.4673C83.3935 18.4461 83.3936 18.4241 83.3985 18.4029L87.4376 0.190564C87.4449 0.158718 87.4627 0.130265 87.4882 0.109796C87.5137 0.0893274 87.5453 0.0780326 87.578 0.0777369L91.8929 0.0551807C91.9148 0.0550004 91.9366 0.0597955 91.9564 0.0692133C91.9763 0.0786311 91.9937 0.092421 92.0075 0.109551C92.0212 0.126682 92.0309 0.146702 92.0358 0.168115C92.0407 0.189528 92.0407 0.211773 92.0358 0.233182Z" fill="url(#paint16_linear_33_567)"/>
<path d="M98.606 18.5834L94.261 18.5784C94.2424 18.5781 94.224 18.5736 94.2073 18.5654C94.1906 18.5571 94.176 18.5452 94.1644 18.5305C94.1529 18.5159 94.1448 18.4988 94.1407 18.4807C94.1366 18.4625 94.1365 18.4436 94.1407 18.4254L95.7428 11.2573C95.7469 11.2389 95.7469 11.2198 95.7426 11.2015C95.7384 11.1831 95.73 11.1659 95.7182 11.1512C95.7064 11.1365 95.6914 11.1247 95.6744 11.1166C95.6574 11.1085 95.6388 11.1043 95.6199 11.1044L90.8813 11.1144C90.8624 11.1145 90.8438 11.1103 90.8268 11.1022C90.8098 11.0941 90.7948 11.0823 90.783 11.0676C90.7712 11.0529 90.7629 11.0357 90.7586 11.0173C90.7544 10.999 90.7543 10.9799 90.7584 10.9615L91.5357 7.3436C91.5419 7.31616 91.5571 7.2916 91.5789 7.27386C91.6007 7.25613 91.6279 7.24625 91.656 7.24581L96.5225 7.2433C96.551 7.24343 96.5788 7.23381 96.6011 7.21603C96.6235 7.19825 96.6391 7.17337 96.6453 7.14552L98.1948 0.162971C98.2011 0.135119 98.2167 0.110237 98.239 0.0924563C98.2614 0.0746757 98.2891 0.0650584 98.3177 0.0651868L102.663 0.0676965C102.681 0.0679849 102.7 0.0724307 102.716 0.0807038C102.733 0.0889769 102.748 0.100866 102.759 0.115518C102.771 0.130169 102.779 0.147205 102.783 0.165389C102.787 0.183573 102.787 0.202446 102.783 0.220632L98.7288 18.4856C98.7226 18.5134 98.707 18.5383 98.6846 18.5561C98.6623 18.5739 98.6345 18.5835 98.606 18.5834Z" fill="url(#paint17_linear_33_567)"/>
<path d="M108.233 14.7248H116.537C116.556 14.7247 116.574 14.7289 116.591 14.737C116.608 14.7451 116.623 14.7569 116.635 14.7716C116.647 14.7863 116.655 14.8035 116.659 14.8219C116.664 14.8402 116.664 14.8593 116.66 14.8777L115.862 18.4831C115.856 18.5109 115.84 18.5358 115.818 18.5536C115.796 18.5714 115.768 18.581 115.739 18.5809H102.767C102.749 18.5806 102.73 18.5761 102.714 18.5679C102.697 18.5596 102.682 18.5477 102.671 18.533C102.659 18.5184 102.651 18.5014 102.647 18.4832C102.643 18.465 102.643 18.4461 102.647 18.4279L106.704 0.165486C106.71 0.137634 106.725 0.112752 106.748 0.094971C106.77 0.0771904 106.798 0.0675731 106.826 0.0677015L111.176 0.0576782C111.195 0.0579667 111.213 0.0623972 111.23 0.0706702C111.247 0.0789433 111.261 0.0908481 111.273 0.105499C111.284 0.12015 111.293 0.137187 111.297 0.155371C111.301 0.173555 111.301 0.192428 111.297 0.210614L108.11 14.5718C108.106 14.5902 108.106 14.6093 108.11 14.6277C108.114 14.6461 108.123 14.6632 108.135 14.6779C108.146 14.6926 108.161 14.7045 108.178 14.7126C108.195 14.7207 108.214 14.7249 108.233 14.7248Z" fill="url(#paint18_linear_33_567)"/>
<path d="M124.037 11.2799L120.817 0.180547C120.813 0.165847 120.812 0.150336 120.815 0.135266C120.818 0.120196 120.824 0.105979 120.833 0.0937803C120.843 0.0815812 120.855 0.0717321 120.868 0.0650265C120.882 0.0583208 120.897 0.0549571 120.913 0.0551868L125.398 0.0702294C125.42 0.0700605 125.441 0.0771127 125.458 0.090276C125.475 0.103439 125.488 0.12196 125.493 0.142933L127.301 6.9575C127.305 6.97155 127.306 6.98627 127.303 7.00058C127.3 7.01489 127.295 7.02844 127.286 7.04025L124.21 11.31C124.199 11.3248 124.184 11.3363 124.167 11.3432C124.15 11.3501 124.132 11.352 124.114 11.3489C124.096 11.3458 124.079 11.3376 124.065 11.3254C124.052 11.3133 124.042 11.2975 124.037 11.2799Z" fill="url(#paint19_linear_33_567)"/>
<path d="M128.769 13.4912C128.406 15.156 128.016 16.8208 127.598 18.4856C127.581 18.5507 127.54 18.5833 127.475 18.5833L123.102 18.5808C123.088 18.5808 123.074 18.5775 123.061 18.5712C123.047 18.5648 123.036 18.5555 123.027 18.544C123.018 18.5325 123.011 18.519 123.008 18.5046C123.004 18.4901 123.004 18.4751 123.007 18.4605C123.342 16.8692 123.697 15.2713 124.073 13.6667C124.176 13.2254 124.36 12.8193 124.624 12.4482C127.524 8.35814 130.413 4.27809 133.292 0.208068C133.359 0.114466 133.449 0.0676652 133.563 0.0676652L137.89 0.0601363C137.91 0.0597805 137.93 0.0651389 137.947 0.0755767C137.965 0.0860145 137.979 0.10111 137.988 0.119159C137.997 0.137207 138.001 0.157475 137.999 0.177631C137.997 0.197786 137.99 0.217017 137.978 0.233134C135.038 4.20788 132.128 8.13667 129.248 12.0195C128.879 12.5159 128.892 12.9246 128.769 13.4912Z" fill="url(#paint20_linear_33_567)"/>
<path d="M75.3358 14.9053L74.531 18.5081C74.527 18.5272 74.5166 18.5443 74.5015 18.5566C74.4865 18.5689 74.4677 18.5757 74.4482 18.5758C72.9172 18.5859 71.3836 18.5867 69.8475 18.5783C68.7945 18.5717 68.0766 18.4973 67.6938 18.3552C65.4399 17.5203 66.4478 14.8802 66.8013 13.1452C66.818 13.0683 66.8648 13.0299 66.9417 13.0299L71.1563 13.0399C71.1781 13.0399 71.1996 13.0447 71.2193 13.054C71.239 13.0632 71.2564 13.0767 71.2703 13.0935C71.2842 13.1102 71.2942 13.1299 71.2996 13.151C71.3051 13.172 71.3058 13.194 71.3017 13.2154L71.0334 14.5643C71.0286 14.5884 71.0291 14.6133 71.0349 14.6372C71.0407 14.661 71.0517 14.6833 71.0671 14.7023C71.0825 14.7212 71.1018 14.7365 71.1238 14.7469C71.1457 14.7573 71.1697 14.7626 71.1939 14.7624H75.223C75.2406 14.7627 75.258 14.767 75.2738 14.7748C75.2896 14.7826 75.3035 14.7937 75.3143 14.8075C75.3251 14.8212 75.3327 14.8371 75.3364 14.854C75.3401 14.871 75.3399 14.8885 75.3358 14.9053Z" fill="url(#paint21_linear_33_567)"/>
<defs>
<linearGradient id="paint0_linear_33_567" x1="14.2267" y1="0" x2="14.2267" y2="24.355" gradientUnits="userSpaceOnUse">
<stop stop-color="#30C9CD"/>
<stop offset="1" stop-color="#330D69"/>
</linearGradient>
<linearGradient id="paint1_linear_33_567" x1="36.1881" y1="0.0626831" x2="36.1881" y2="18.5834" gradientUnits="userSpaceOnUse">
<stop stop-color="#30C9CD"/>
<stop offset="1" stop-color="#330D69"/>
</linearGradient>
<linearGradient id="paint2_linear_33_567" x1="58.6666" y1="0.0626831" x2="58.6666" y2="18.5834" gradientUnits="userSpaceOnUse">
<stop stop-color="#30C9CD"/>
<stop offset="1" stop-color="#330D69"/>
</linearGradient>
<linearGradient id="paint3_linear_33_567" x1="75.0604" y1="0.0651245" x2="75.0604" y2="18.5945" gradientUnits="userSpaceOnUse">
<stop stop-color="#30C9CD"/>
<stop offset="1" stop-color="#330D69"/>
</linearGradient>
<linearGradient id="paint4_linear_33_567" x1="79.1523" y1="0.0601807" x2="79.1523" y2="5.58355" gradientUnits="userSpaceOnUse">
<stop stop-color="#30C9CD"/>
<stop offset="1" stop-color="#330D69"/>
</linearGradient>
<linearGradient id="paint5_linear_33_567" x1="87.7171" y1="0.0551758" x2="87.7171" y2="18.5809" gradientUnits="userSpaceOnUse">
<stop stop-color="#30C9CD"/>
<stop offset="1" stop-color="#330D69"/>
</linearGradient>
<linearGradient id="paint6_linear_33_567" x1="96.7707" y1="0.0651855" x2="96.7707" y2="18.5834" gradientUnits="userSpaceOnUse">
<stop stop-color="#30C9CD"/>
<stop offset="1" stop-color="#330D69"/>
</linearGradient>
<linearGradient id="paint7_linear_33_567" x1="109.653" y1="0.0576782" x2="109.653" y2="18.5809" gradientUnits="userSpaceOnUse">
<stop stop-color="#30C9CD"/>
<stop offset="1" stop-color="#330D69"/>
</linearGradient>
<linearGradient id="paint8_linear_33_567" x1="124.059" y1="0.0551758" x2="124.059" y2="11.3503" gradientUnits="userSpaceOnUse">
<stop stop-color="#30C9CD"/>
<stop offset="1" stop-color="#330D69"/>
</linearGradient>
<linearGradient id="paint9_linear_33_567" x1="130.502" y1="0.0601196" x2="130.502" y2="18.5833" gradientUnits="userSpaceOnUse">
<stop stop-color="#30C9CD"/>
<stop offset="1" stop-color="#330D69"/>
</linearGradient>
<linearGradient id="paint10_linear_33_567" x1="70.8042" y1="13.0299" x2="70.8042" y2="18.584" gradientUnits="userSpaceOnUse">
<stop stop-color="#30C9CD"/>
<stop offset="1" stop-color="#330D69"/>
</linearGradient>
<linearGradient id="paint11_linear_33_567" x1="14.2267" y1="6.10352e-05" x2="14.2267" y2="24.355" gradientUnits="userSpaceOnUse">
<stop stop-color="#30C9CD"/>
<stop offset="1" stop-color="#330D69"/>
</linearGradient>
<linearGradient id="paint12_linear_33_567" x1="36.1881" y1="0.0626831" x2="36.1881" y2="18.5834" gradientUnits="userSpaceOnUse">
<stop stop-color="#30C9CD"/>
<stop offset="1" stop-color="#330D69"/>
</linearGradient>
<linearGradient id="paint13_linear_33_567" x1="58.6666" y1="0.0626831" x2="58.6666" y2="18.5834" gradientUnits="userSpaceOnUse">
<stop stop-color="#30C9CD"/>
<stop offset="1" stop-color="#330D69"/>
</linearGradient>
<linearGradient id="paint14_linear_33_567" x1="75.0604" y1="0.0651245" x2="75.0604" y2="18.5945" gradientUnits="userSpaceOnUse">
<stop stop-color="#30C9CD"/>
<stop offset="1" stop-color="#330D69"/>
</linearGradient>
<linearGradient id="paint15_linear_33_567" x1="79.1523" y1="0.0601807" x2="79.1523" y2="5.58355" gradientUnits="userSpaceOnUse">
<stop stop-color="#30C9CD"/>
<stop offset="1" stop-color="#330D69"/>
</linearGradient>
<linearGradient id="paint16_linear_33_567" x1="87.7171" y1="0.0551758" x2="87.7171" y2="18.5809" gradientUnits="userSpaceOnUse">
<stop stop-color="#30C9CD"/>
<stop offset="1" stop-color="#330D69"/>
</linearGradient>
<linearGradient id="paint17_linear_33_567" x1="96.7707" y1="0.0651855" x2="96.7707" y2="18.5834" gradientUnits="userSpaceOnUse">
<stop stop-color="#30C9CD"/>
<stop offset="1" stop-color="#330D69"/>
</linearGradient>
<linearGradient id="paint18_linear_33_567" x1="109.653" y1="0.0576782" x2="109.653" y2="18.5809" gradientUnits="userSpaceOnUse">
<stop stop-color="#30C9CD"/>
<stop offset="1" stop-color="#330D69"/>
</linearGradient>
<linearGradient id="paint19_linear_33_567" x1="124.059" y1="0.0551758" x2="124.059" y2="11.3503" gradientUnits="userSpaceOnUse">
<stop stop-color="#30C9CD"/>
<stop offset="1" stop-color="#330D69"/>
</linearGradient>
<linearGradient id="paint20_linear_33_567" x1="130.502" y1="0.0601196" x2="130.502" y2="18.5833" gradientUnits="userSpaceOnUse">
<stop stop-color="#30C9CD"/>
<stop offset="1" stop-color="#330D69"/>
</linearGradient>
<linearGradient id="paint21_linear_33_567" x1="70.8042" y1="13.0299" x2="70.8042" y2="18.584" gradientUnits="userSpaceOnUse">
<stop stop-color="#30C9CD"/>
<stop offset="1" stop-color="#330D69"/>
</linearGradient>
</defs>
</svg>
