<svg width="24" height="25" viewBox="0 0 24 25" fill="none" xmlns="http://www.w3.org/2000/svg">
<g clip-path="url(#clip0_46_15331)">
<path d="M19.4628 2.83156C20.2464 3.44596 20.7864 4.43836 21.0072 5.47756C21.0339 5.48602 21.06 5.49645 21.0852 5.50876L23.5392 6.64396C23.6764 6.70694 23.7926 6.80787 23.8743 6.93481C23.956 7.06176 23.9996 7.20942 24 7.36036V22.2008C23.9991 22.324 23.9697 22.4454 23.914 22.5554C23.8584 22.6654 23.778 22.761 23.6791 22.8347C23.5803 22.9084 23.4658 22.9582 23.3445 22.9802C23.2232 23.0023 23.0984 22.9959 22.98 22.9616L16.1772 21.0416L8.0892 23.2712C7.94327 23.3112 7.78903 23.3096 7.644 23.2664L0.5688 21.1604C0.405265 21.1123 0.261588 21.0128 0.159114 20.8766C0.0566412 20.7404 0.000839592 20.5748 0 20.4044L0 5.29756C0 4.76956 0.5136 4.39036 1.026 4.53916L7.8684 6.53236L11.346 5.46796C11.3939 5.45383 11.4428 5.44379 11.4924 5.43796C11.6268 4.65076 12.0024 3.89476 12.6324 3.15796C13.38 2.28196 14.6916 1.76836 15.9696 1.70716C17.2956 1.64356 18.3084 1.92676 19.4616 2.83036L19.4628 2.83156ZM1.5996 6.35716V19.8152L7.4436 21.554V8.05756L1.5996 6.35716ZM11.4504 7.09396L9.0432 7.82956V21.3644L15.1212 19.6916V15.7376C15.1212 15.3008 15.48 14.9468 15.9216 14.9468C16.3632 14.9468 16.7208 15.3008 16.7208 15.7388V19.5512L22.4004 21.1532V7.86316L21.0564 7.23916C21.0336 7.37116 21.0048 7.50076 20.9688 7.62676C20.7079 8.54687 20.2701 9.4073 19.68 10.16L16.7076 13.8716C16.6293 13.9691 16.5294 14.0471 16.4157 14.0993C16.302 14.1515 16.1777 14.1764 16.0527 14.1721C15.9277 14.1678 15.8054 14.1343 15.6955 14.0745C15.5857 14.0146 15.4914 13.9299 15.42 13.8272L12.642 9.80356C12.1836 9.16276 11.862 8.59156 11.6808 8.08036C11.5671 7.76129 11.4898 7.43039 11.4504 7.09396ZM16.0464 3.28876C15.1752 3.33076 14.28 3.68116 13.854 4.17916C13.3416 4.77916 13.0896 5.34076 13.0392 5.90956C12.9792 6.59476 13.02 7.07836 13.1904 7.55716C13.3164 7.91116 13.5672 8.35996 13.9548 8.90116L16.128 12.0476L18.42 9.18556C18.8824 8.59462 19.2252 7.91923 19.4292 7.19716C19.7172 6.18916 19.2828 4.70836 18.4692 4.07236C17.6352 3.41836 17.0052 3.24196 16.0476 3.28876H16.0464ZM16.212 4.12516C17.5368 4.12516 18.612 5.18716 18.612 6.49756C18.6103 6.81094 18.5468 7.12091 18.4253 7.40977C18.3037 7.69862 18.1264 7.96069 17.9035 8.181C17.6806 8.40132 17.4165 8.57556 17.1263 8.69377C16.8361 8.81198 16.5254 8.87185 16.212 8.86996C14.8872 8.86996 13.812 7.80796 13.812 6.49756C13.812 5.18716 14.8872 4.12516 16.212 4.12516ZM16.212 5.70676C16.1075 5.70612 16.0039 5.72608 15.9072 5.76548C15.8104 5.80488 15.7223 5.86295 15.648 5.93638C15.5737 6.00982 15.5146 6.09717 15.474 6.19346C15.4334 6.28974 15.4122 6.39308 15.4116 6.49756C15.4116 6.93436 15.7704 7.28836 16.212 7.28836C16.3165 7.28883 16.42 7.26872 16.5167 7.22917C16.6134 7.18963 16.7014 7.13142 16.7756 7.05788C16.8498 6.98433 16.9088 6.89689 16.9493 6.80055C16.9897 6.7042 17.0107 6.60084 17.0112 6.49636C17.0096 6.28577 16.9246 6.0844 16.7748 5.93639C16.625 5.78837 16.4226 5.7058 16.212 5.70676Z" fill="white"/>
</g>
<defs>
<clipPath id="clip0_46_15331">
<rect width="24" height="24" fill="white" transform="translate(0 0.5)"/>
</clipPath>
</defs>
</svg>
