<svg width="10" height="12" viewBox="0 0 10 12" fill="none" xmlns="http://www.w3.org/2000/svg">
<path d="M5.375 0.381104C6.60163 0.381104 7.77801 0.868379 8.64537 1.73573C9.51272 2.60309 10 3.77948 10 5.0061C10 6.96046 8.62673 9.09033 5.91577 11.4185C5.76503 11.548 5.57284 11.6191 5.37411 11.6189C5.17539 11.6188 4.98332 11.5473 4.83281 11.4175L4.6535 11.2619C2.06255 8.99451 0.75 6.91682 0.75 5.0061C0.75 3.77948 1.23728 2.60309 2.10463 1.73573C2.97199 0.868379 4.14837 0.381104 5.375 0.381104ZM5.375 3.22726C4.90322 3.22726 4.45076 3.41467 4.11717 3.74827C3.78357 4.08187 3.59615 4.53432 3.59615 5.0061C3.59615 5.47788 3.78357 5.93034 4.11717 6.26394C4.45076 6.59754 4.90322 6.78495 5.375 6.78495C5.84678 6.78495 6.29924 6.59754 6.63283 6.26394C6.96643 5.93034 7.15385 5.47788 7.15385 5.0061C7.15385 4.53432 6.96643 4.08187 6.63283 3.74827C6.29924 3.41467 5.84678 3.22726 5.375 3.22726Z" fill="white" fill-opacity="0.85"/>
</svg>
