<svg width="25" height="25" viewBox="0 0 25 25" fill="none" xmlns="http://www.w3.org/2000/svg">
<path d="M11.3749 12.5C11.3749 12.7984 11.4934 13.0845 11.7044 13.2955C11.9154 13.5065 12.2015 13.625 12.4999 13.625C12.7983 13.625 13.0844 13.5065 13.2954 13.2955C13.5064 13.0845 13.6249 12.7984 13.6249 12.5C13.6249 12.2016 13.5064 11.9155 13.2954 11.7045C13.0844 11.4935 12.7983 11.375 12.4999 11.375C12.2015 11.375 11.9154 11.4935 11.7044 11.7045C11.4934 11.9155 11.3749 12.2016 11.3749 12.5ZM16.0624 12.5C16.0624 12.7984 16.1809 13.0845 16.3919 13.2955C16.6029 13.5065 16.889 13.625 17.1874 13.625C17.4858 13.625 17.7719 13.5065 17.9829 13.2955C18.1939 13.0845 18.3124 12.7984 18.3124 12.5C18.3124 12.2016 18.1939 11.9155 17.9829 11.7045C17.7719 11.4935 17.4858 11.375 17.1874 11.375C16.889 11.375 16.6029 11.4935 16.3919 11.7045C16.1809 11.9155 16.0624 12.2016 16.0624 12.5ZM6.68739 12.5C6.68739 12.7984 6.80592 13.0845 7.01689 13.2955C7.22787 13.5065 7.51402 13.625 7.81239 13.625C8.11076 13.625 8.39691 13.5065 8.60788 13.2955C8.81886 13.0845 8.93739 12.7984 8.93739 12.5C8.93739 12.2016 8.81886 11.9155 8.60788 11.7045C8.39691 11.4935 8.11076 11.375 7.81239 11.375C7.51402 11.375 7.22787 11.4935 7.01689 11.7045C6.80592 11.9155 6.68739 12.2016 6.68739 12.5ZM22.1843 8.43125C21.6546 7.17266 20.8952 6.04297 19.9272 5.07266C18.966 4.10796 17.825 3.34114 16.5686 2.81563C15.2796 2.27422 13.9108 2 12.4999 2H12.453C11.0327 2.00703 9.65692 2.28828 8.36317 2.84141C7.1176 3.37232 5.98723 4.14049 5.03505 5.10312C4.07645 6.07109 3.32411 7.19609 2.8038 8.45C2.26473 9.74844 1.99286 11.1289 1.99989 12.5492C2.00784 14.1769 2.39292 15.7806 3.12489 17.2344V20.7969C3.12489 21.0828 3.23848 21.357 3.44066 21.5592C3.64285 21.7614 3.91708 21.875 4.20301 21.875H7.76786C9.22167 22.607 10.8253 22.992 12.453 23H12.5022C13.9061 23 15.2679 22.7281 16.5499 22.1961C17.7999 21.6768 18.9367 20.919 19.8968 19.9648C20.8647 19.0063 21.6265 17.8859 22.1585 16.6367C22.7116 15.343 22.9929 13.9672 22.9999 12.5469C23.0069 11.1195 22.7304 9.73438 22.1843 8.43125ZM18.6429 18.6969C16.9999 20.3234 14.8202 21.2188 12.4999 21.2188H12.46C11.0468 21.2117 9.64286 20.8602 8.40301 20.1992L8.20614 20.0938H4.90614V16.7938L4.80067 16.5969C4.13973 15.357 3.78817 13.9531 3.78114 12.5398C3.77176 10.2031 4.66473 8.00937 6.30301 6.35703C7.93895 4.70469 10.1257 3.79062 12.4624 3.78125H12.5022C13.6741 3.78125 14.8108 4.00859 15.8819 4.45859C16.9272 4.89687 17.8647 5.52734 18.671 6.33359C19.4749 7.1375 20.1077 8.07734 20.546 9.12266C21.0007 10.2055 21.228 11.3539 21.2233 12.5398C21.2093 14.8742 20.2929 17.0609 18.6429 18.6969Z" fill="white"/>
</svg>
