<svg width="60" height="60" viewBox="0 0 60 60" fill="none" xmlns="http://www.w3.org/2000/svg">
<circle cx="30" cy="30" r="30" fill="#ECF5F9"/>
<path fill-rule="evenodd" clip-rule="evenodd" d="M30.0909 14C29.6739 13.9999 29.2618 14.0895 28.8825 14.2627C28.5032 14.4358 28.1655 14.6885 27.8924 15.0035C27.6193 15.3186 27.4171 15.6887 27.2995 16.0887C27.1819 16.4888 27.1517 16.9094 27.2109 17.3222C25.1027 17.9446 23.2525 19.2323 21.9364 20.993C20.6204 22.7536 19.9092 24.8928 19.9091 27.0909V38.7273H18.4545C18.0688 38.7273 17.6988 38.8805 17.426 39.1533C17.1532 39.4261 17 39.796 17 40.1818C17 40.5676 17.1532 40.9376 17.426 41.2103C17.6988 41.4831 18.0688 41.6364 18.4545 41.6364H41.7273C42.113 41.6364 42.483 41.4831 42.7558 41.2103C43.0286 40.9376 43.1818 40.5676 43.1818 40.1818C43.1818 39.796 43.0286 39.4261 42.7558 39.1533C42.483 38.8805 42.113 38.7273 41.7273 38.7273H40.2727V27.0909C40.2726 24.8928 39.5614 22.7536 38.2454 20.993C36.9294 19.2323 35.0791 17.9446 32.9709 17.3222C33.0301 16.9094 32.9999 16.4888 32.8823 16.0887C32.7647 15.6887 32.5625 15.3186 32.2894 15.0035C32.0163 14.6885 31.6786 14.4358 31.2993 14.2627C30.92 14.0895 30.5079 13.9999 30.0909 14ZM33 44.5455C33 44.9312 32.8468 45.3012 32.574 45.574C32.3012 45.8468 31.9312 46 31.5455 46H28.6364C28.2506 46 27.8806 45.8468 27.6078 45.574C27.3351 45.3012 27.1818 44.9312 27.1818 44.5455C27.1818 44.1597 27.3351 43.7897 27.6078 43.5169C27.8806 43.2442 28.2506 43.0909 28.6364 43.0909H31.5455C31.9312 43.0909 32.3012 43.2442 32.574 43.5169C32.8468 43.7897 33 44.1597 33 44.5455Z" fill="url(#paint0_linear_33_496)"/>
<defs>
<linearGradient id="paint0_linear_33_496" x1="30.0909" y1="14" x2="30.0909" y2="46" gradientUnits="userSpaceOnUse">
<stop stop-color="#30C9CD"/>
<stop offset="1" stop-color="#330D69"/>
</linearGradient>
</defs>
</svg>
