<svg width="20" height="23" viewBox="0 0 20 23" fill="none" xmlns="http://www.w3.org/2000/svg">
<path d="M18.1428 10.0813C18.1425 8.73468 17.8131 7.40847 17.183 6.21998C16.5527 5.03092 15.6408 4.01604 14.5274 3.26586C13.4139 2.51564 12.1334 2.05347 10.7994 1.92092C9.46535 1.78837 8.11967 1.98961 6.88171 2.50651C5.64379 3.0234 4.55228 3.83974 3.70338 4.88248C2.85452 5.92516 2.27432 7.16215 2.01346 8.48368C1.7526 9.80519 1.81899 11.1712 2.20683 12.4608C2.59469 13.7505 3.29224 14.9246 4.23846 15.8789L4.23842 15.8789L4.24654 15.8869L9.24653 20.8158L9.94148 21.5009L10.6433 20.8229L15.7576 15.8825L15.7649 15.8754L15.7721 15.8682C16.5275 15.1083 17.1256 14.2054 17.5324 13.2119C17.9389 12.219 18.1463 11.155 18.1428 10.0813ZM18.1428 10.0813C18.1428 10.0819 18.1428 10.0826 18.1428 10.0832L17.1428 10.0831L18.1428 10.0797C18.1428 10.0802 18.1428 10.0808 18.1428 10.0813ZM19 10.0831L19 10.0859C19.0033 11.2792 18.7717 12.4611 18.319 13.5631C17.8668 14.6639 17.2029 15.6628 16.3661 16.5025L11.3514 21.4478C11.3509 21.4483 11.3503 21.4489 11.3497 21.4495C10.9862 21.8035 10.5021 22 9.99998 22C9.49782 22 9.01375 21.8035 8.65018 21.4494C8.64963 21.4489 8.64907 21.4483 8.64852 21.4478L3.64566 16.5144C2.59817 15.4605 1.82377 14.1618 1.39176 12.7329C0.9593 11.3026 0.883509 9.78648 1.17121 8.31932C1.45891 6.85218 2.10106 5.47998 3.04002 4.32417C3.97894 3.16841 5.18552 2.26486 6.55232 1.69284C7.91906 1.12084 9.40428 0.897797 10.8765 1.04318C12.3487 1.18856 13.7631 1.69795 14.9944 2.52684C16.2257 3.35577 17.236 4.47877 17.9351 5.79692C18.6341 7.11512 19.0001 8.58737 19 10.0831ZM13.2857 10.0731C13.2857 10.7317 13.0919 11.3749 12.7298 11.9213C12.3678 12.4676 11.8541 12.8921 11.2547 13.1424C10.6553 13.3927 9.99626 13.4581 9.36052 13.3306C8.72473 13.2031 8.13959 12.8882 7.67953 12.4243C7.21939 11.9604 6.90512 11.3683 6.77771 10.7225C6.6503 10.0767 6.71576 9.40734 6.96549 8.79948C7.21518 8.19169 7.63747 7.67354 8.1777 7.3096C8.71782 6.94572 9.35197 6.75202 9.99998 6.75202C10.8687 6.75202 11.7036 7.0999 12.3204 7.72182C12.9375 8.34402 13.2857 9.18963 13.2857 10.0731Z" stroke="url(#paint0_linear_33_524)" stroke-width="2"/>
<defs>
<linearGradient id="paint0_linear_33_524" x1="10" y1="0" x2="10" y2="23" gradientUnits="userSpaceOnUse">
<stop stop-color="#30C9CD"/>
<stop offset="1" stop-color="#330D69"/>
</linearGradient>
</defs>
</svg>
