<svg width="20" height="24" viewBox="0 0 20 24" fill="none" xmlns="http://www.w3.org/2000/svg">
<path d="M18.1428 10.2629C18.1425 8.9162 17.8131 7.58999 17.183 6.4015C16.5527 5.21244 15.6408 4.19756 14.5274 3.44738C13.4139 2.69716 12.1334 2.23499 10.7994 2.10244C9.46535 1.96988 8.11967 2.17113 6.88171 2.68803C5.64379 3.20491 4.55228 4.02126 3.70338 5.06399C2.85452 6.10668 2.27432 7.34366 2.01346 8.6652C1.7526 9.98671 1.81899 11.3527 2.20683 12.6423C2.59469 13.932 3.29224 15.1061 4.23846 16.0604L4.23842 16.0605L4.24654 16.0685L9.24653 20.9973L9.94148 21.6824L10.6433 21.0044L15.7576 16.064L15.7649 16.057L15.7721 16.0498C16.5275 15.2898 17.1256 14.3869 17.5324 13.3935C17.9389 12.4005 18.1463 11.3366 18.1428 10.2629ZM18.1428 10.2629C18.1428 10.2635 18.1428 10.2641 18.1428 10.2647L17.1428 10.2647L18.1428 10.2612C18.1428 10.2618 18.1428 10.2623 18.1428 10.2629ZM19 10.2646L19 10.2674C19.0033 11.4607 18.7717 12.6426 18.319 13.7446C17.8668 14.8454 17.2029 15.8443 16.3661 16.684L11.3514 21.6293C11.3509 21.6298 11.3504 21.6303 11.3499 21.6308C10.9863 21.985 10.5022 22.1815 9.99998 22.1815C9.49775 22.1815 9.01361 21.9849 8.65003 21.6308C8.64952 21.6303 8.64902 21.6298 8.64852 21.6293L3.64567 16.6959C2.59817 15.642 1.82377 14.3434 1.39176 12.9145C0.9593 11.4841 0.883509 9.968 1.17121 8.50084C1.45891 7.0337 2.10106 5.66149 3.04002 4.50569C3.97894 3.34993 5.18552 2.44638 6.55232 1.87436C7.91906 1.30236 9.40428 1.07932 10.8765 1.22469C12.3487 1.37008 13.7631 1.87947 14.9944 2.70836C16.2257 3.53728 17.236 4.66029 17.9351 5.97844C18.6341 7.29664 19.0001 8.76889 19 10.2646ZM13.2857 10.2546C13.2857 10.9132 13.0919 11.5564 12.7298 12.1028C12.3678 12.6491 11.8541 13.0736 11.2547 13.324C10.6553 13.5743 9.99626 13.6396 9.36052 13.5121C8.72473 13.3846 8.13959 13.0697 7.67953 12.6058C7.21939 12.1419 6.90512 11.5498 6.77771 10.904C6.6503 10.2582 6.71576 9.58885 6.96549 8.981C7.21518 8.37321 7.63747 7.85506 8.1777 7.49111C8.71782 7.12724 9.35197 6.93353 9.99998 6.93353C10.8687 6.93353 11.7036 7.28142 12.3204 7.90334C12.9375 8.52553 13.2857 9.37115 13.2857 10.2546Z" stroke="#3198B3" stroke-width="2"/>
</svg>
