<svg width="24" height="24" viewBox="0 0 24 24" fill="none" xmlns="http://www.w3.org/2000/svg">
<path d="M12 12C14.7614 12 17 9.76142 17 7C17 4.23858 14.7614 2 12 2C9.23858 2 7 4.23858 7 7C7 9.76142 9.23858 12 12 12Z" fill="#3198B3" stroke="#3198B3" stroke-linecap="round" stroke-linejoin="round"/>
<mask id="path-2-inside-1_299_345" fill="white">
<path d="M21 24C21 19.0243 16.9662 15 12 15C7.03376 15 3 19.0243 3 24"/>
</mask>
<path d="M21 24C21 19.0243 16.9662 15 12 15C7.03376 15 3 19.0243 3 24" fill="#3198B3"/>
<path d="M20 24C20 24.5523 20.4477 25 21 25C21.5523 25 22 24.5523 22 24H20ZM2 24C2 24.5523 2.44772 25 3 25C3.55228 25 4 24.5523 4 24H2ZM22 24C22 18.4713 17.5178 14 12 14V16C16.4146 16 20 19.5773 20 24H22ZM12 14C6.48216 14 2 18.4713 2 24H4C4 19.5773 7.58536 16 12 16V14Z" fill="#3198B3" mask="url(#path-2-inside-1_299_345)"/>
</svg>
