<svg width="24" height="19" viewBox="0 0 24 19" fill="none" xmlns="http://www.w3.org/2000/svg">
<path d="M0 2C0 0.895429 0.895431 0 2 0H22C23.1046 0 24 0.895431 24 2V16.1132C24 17.2178 23.1046 18.1132 22 18.1132H2C0.89543 18.1132 0 17.2178 0 16.1132V2Z" fill="#165D31"/>
<path fill-rule="evenodd" clip-rule="evenodd" d="M5.30434 5.13325C5.30303 5.13325 5.30194 5.13423 5.30185 5.13554C5.27373 5.56044 5.23233 6.30085 5.59383 6.37854C5.94164 6.41268 5.85508 5.91594 5.89017 5.64655C5.90364 5.54309 6.02566 5.41461 6.02981 5.51887V6.18042C6.02981 6.30176 6.07576 6.37455 6.13484 6.42257C6.21709 6.48943 6.34155 6.468 6.43554 6.51701C6.50488 6.55315 6.50994 6.6448 6.51379 6.7229L6.52661 6.98331C6.54916 7.44139 6.8295 7.56586 6.83848 7.10731C6.84478 6.85369 6.81344 6.62658 6.79917 6.46748C6.78641 6.32513 6.8611 6.13598 6.98615 6.20519C7.09866 6.28302 7.14789 6.38207 7.32368 6.3467C7.5909 6.26887 7.75263 6.13797 7.75615 5.93278C7.75112 5.74062 7.71301 5.55086 7.64359 5.37192C7.637 5.35492 7.63694 5.34178 7.63444 5.32372C7.62638 5.26554 7.67595 5.26088 7.71445 5.21654C7.71877 5.21157 7.72251 5.20562 7.72553 5.19874C7.7309 5.18647 7.72952 5.17253 7.7254 5.15978C7.69639 5.07008 7.65808 4.98298 7.60656 4.91656C7.54999 4.84363 7.46928 4.77192 7.37704 4.77517C7.31131 4.77749 7.24927 4.82499 7.22172 4.9316C7.196 5.116 7.27612 5.32998 7.40025 5.51673C7.4234 5.55157 7.44516 5.58756 7.45879 5.6271C7.46372 5.64141 7.46853 5.65656 7.47297 5.67234C7.50956 5.80243 7.40383 5.94857 7.29776 5.86484C7.28092 5.85154 7.26235 5.83435 7.24543 5.82115C7.22435 5.8047 7.19296 5.77974 7.16196 5.75337C7.0848 5.68769 7.06976 5.59251 7.0797 5.49167C7.09147 5.3724 7.08676 5.30405 7.07578 5.25333C7.05854 5.17371 7.03944 5.09316 7.0028 5.02039C7.0021 5.01899 7.00139 5.01761 7.00067 5.01623C6.94362 4.9064 6.80534 4.75571 6.74003 4.86085C6.6451 5.02358 6.69081 5.37382 6.75761 5.53302C6.76752 5.5622 6.77842 5.58924 6.78923 5.61382C6.83173 5.71043 6.78521 5.85543 6.72905 5.76606C6.72045 5.75237 6.70985 5.72679 6.706 5.71109C6.65856 5.51748 6.63572 5.31856 6.63807 5.1191C6.62381 4.98708 6.60723 4.73398 6.54329 4.59404C6.51744 4.53747 6.4709 4.47159 6.40871 4.47101C6.30938 4.47008 6.2928 4.6039 6.29206 4.70323C6.29161 4.76368 6.29302 4.82412 6.29631 4.88448C6.30149 4.97959 6.32101 5.07313 6.34144 5.16616C6.3871 5.37405 6.40883 5.57019 6.43766 5.78774C6.4454 6.05005 6.33187 6.01111 6.27513 5.90047C6.23184 5.81607 6.25586 5.71655 6.26643 5.62229C6.28684 5.44023 6.2759 5.25562 6.23373 5.07665C6.22645 5.05759 6.21901 5.04157 6.21102 5.02827C6.15617 4.93702 6.01394 4.98912 5.94854 5.07314C5.89433 5.14279 5.83807 5.24874 5.80364 5.38507C5.78726 5.44991 5.77499 5.51583 5.76079 5.58119C5.74796 5.64022 5.7328 5.71801 5.72392 5.79127C5.69931 5.95401 5.59383 6.07429 5.51648 5.77005C5.45336 5.54776 5.41122 5.00875 5.30635 5.13226C5.30587 5.13283 5.30509 5.13325 5.30434 5.13325Z" fill="white"/>
<path fill-rule="evenodd" clip-rule="evenodd" d="M6.47672 6.87028C6.47748 6.87028 6.47772 6.87131 6.47703 6.87164L5.66637 7.26419C5.52535 7.33248 5.40875 7.2312 5.51092 7.11242C5.69486 6.89855 6.00544 6.69221 6.24428 6.68986C6.47254 6.69339 6.41669 6.7781 6.47611 6.86995C6.47625 6.87015 6.47648 6.87028 6.47672 6.87028Z" fill="white"/>
<path fill-rule="evenodd" clip-rule="evenodd" d="M6.44878 7.73818C6.39049 7.33286 6.1377 7.43134 6.17378 7.83923C6.25531 8.761 7.63242 8.72075 7.87387 7.39059C7.88612 7.3231 7.89047 7.23207 7.9538 7.20572C8.0147 7.18038 8.00915 7.29695 8.0043 7.36274C7.8984 8.79907 6.47086 8.88674 6.22332 8.41627C6.16377 8.25072 6.13401 8.07582 6.13543 7.89976C6.10027 7.59906 5.94205 7.7158 5.91744 8.01297C5.89282 8.17925 5.89986 8.22524 5.89986 8.38443C5.97721 9.59434 7.89341 9.07429 8.20633 8.07665C8.24846 7.93596 8.26728 7.80469 8.27339 7.68719C8.29271 7.31594 8.54305 7.35945 8.78295 7.07547C8.83995 6.99354 8.953 7.10154 9.05207 7.11372C9.18711 7.13033 9.33619 7.06695 9.37715 6.93042C9.39474 6.82619 9.41016 6.72087 9.42159 6.61445C9.43517 6.48799 9.24372 6.34578 9.21893 6.47052L9.19432 6.63326C9.18377 6.68632 9.08181 6.68632 9.07478 6.6191C9.0395 6.45528 8.91836 6.40315 8.81156 6.5375C8.73313 6.63618 8.66167 6.79559 8.54375 6.75106C8.52664 6.74459 8.51259 6.73369 8.50374 6.7177C8.49428 6.7006 8.4965 6.66601 8.49679 6.64646C8.49953 6.4614 8.22181 6.34212 8.19763 6.15862L8.0999 5.417C8.08923 5.33602 8.144 5.29709 8.22327 5.27741C8.26624 5.26675 8.27958 5.2071 8.26617 5.1649C8.21217 4.99487 8.12835 4.75324 8.05547 4.61229C8.01253 4.52924 7.93135 4.47365 7.84067 4.49646C7.74925 4.52476 7.66487 4.60259 7.693 4.75826C7.79848 5.42335 7.8688 5.92925 7.97779 6.59788C8.01453 6.75312 7.78982 6.70547 7.68084 6.58896C7.62287 6.527 7.55212 6.4775 7.42579 6.48113C7.24999 6.48113 7.05309 6.67571 7.02848 6.85967C7.01901 6.90415 7.01143 6.94958 7.00658 6.99483C6.98527 7.19394 7.09272 7.42283 7.29292 7.41803C7.30913 7.41764 7.3253 7.41632 7.34135 7.41431C7.40052 7.40688 7.47869 7.37366 7.52714 7.33888C7.62447 7.26901 7.68056 7.3342 7.63735 7.44595C7.58553 7.57998 7.45549 7.76685 7.15857 7.92453C6.85268 8.06604 6.60657 8.09434 6.47647 7.84316C6.46357 7.81775 6.45496 7.78117 6.44878 7.73818Z" fill="white"/>
<path fill-rule="evenodd" clip-rule="evenodd" d="M8.79979 5.66038C8.80031 5.66038 8.80073 5.66032 8.80121 5.66014C8.89248 5.62549 9.25133 5.22606 9.40675 5.04975C9.44679 5.00433 9.44117 4.93513 9.39477 4.89622C9.34614 4.85817 9.42872 4.80705 9.46044 4.75407C9.48573 4.71184 9.49068 4.6625 9.48319 4.61505C9.46689 4.51174 9.37061 4.43581 9.26602 4.43702C9.26373 4.43705 9.26144 4.4371 9.25915 4.43717C9.15854 4.44037 9.06406 4.50705 9.03553 4.60359C9.0345 4.60708 9.03354 4.61057 9.03265 4.61407C8.9982 4.74972 9.27574 4.87911 9.16975 4.97052C9.01097 5.13996 8.66619 5.39387 8.48793 5.54187C8.40468 5.61098 8.44141 5.6744 8.5496 5.67599C8.65623 5.67757 8.77745 5.67298 8.79509 5.66224C8.79652 5.66137 8.79812 5.66038 8.79979 5.66038ZM5.39009 7.9599C5.17913 8.29953 5.16155 8.80542 5.27758 8.95755C5.34086 9.0283 5.44283 9.06014 5.51666 9.03538C5.62058 8.99135 5.67983 8.81678 5.68614 8.69642C5.68915 8.63914 5.66923 8.55879 5.61251 8.55022C5.56042 8.54236 5.54417 8.61288 5.51187 8.6545C5.44874 8.73585 5.42004 8.62923 5.41118 8.54009C5.4011 8.36035 5.41054 8.18004 5.43931 8.00236C5.46392 7.85377 5.43931 7.89622 5.39009 7.9599ZM14.4425 7.44721C14.4308 7.41105 14.4218 7.4012 14.4056 7.36683C14.2039 6.93927 13.9375 6.52775 13.853 6.36792C13.579 5.93209 13.2881 5.50723 12.9811 5.09434C12.7878 4.86219 13.2193 5.12801 13.0204 4.82606C12.9539 4.72515 12.8644 4.64111 12.7722 4.56295L12.5978 4.41509C12.5275 4.36556 12.3587 4.27358 12.3306 4.42217C12.3165 4.5566 12.3236 4.62736 12.3447 4.73703C12.3623 4.80778 12.4677 4.9316 12.5205 5.00236C13.12 5.80141 13.6589 6.64443 14.1326 7.52423C14.2913 7.81893 14.5452 7.76577 14.4425 7.44721Z" fill="white"/>
<path fill-rule="evenodd" clip-rule="evenodd" d="M13.8958 8.70211C13.6663 8.84824 13.5421 9.13797 13.8142 9.13797C14.1166 9.10259 14.3838 8.93278 14.6299 8.47995C14.7299 8.32931 14.7937 8.15733 14.8163 7.97759C14.846 7.11878 14.7776 6.25937 14.6123 5.41627C14.6079 5.3863 14.6072 5.35378 14.6084 5.32464C14.6108 5.2678 14.6361 5.23501 14.6908 5.21904C14.7265 5.20858 14.7543 5.16225 14.75 5.12519C14.7345 4.98941 14.5846 4.65687 14.4963 4.51769C14.4611 4.43986 14.4436 4.39033 14.3803 4.52476C14.3039 4.6731 14.2675 4.839 14.2748 5.0059C14.4189 6.01415 14.4647 6.89505 14.5561 7.9033C14.5666 8.00236 14.5526 8.14387 14.4858 8.20047C14.3125 8.39461 14.1138 8.56326 13.8958 8.70211ZM17.7821 8.81074C17.6766 8.8593 17.5658 8.91201 17.4945 9.00375C17.4254 9.09261 17.4613 9.16728 17.5868 9.16981C17.8892 9.13443 18.2478 9.10967 18.494 8.73467C18.5809 8.55804 18.6311 8.36545 18.6416 8.16863C18.6859 7.32304 18.6304 6.47515 18.4764 5.64269C18.4693 5.57193 18.4377 5.40566 18.4482 5.38443C18.4933 5.27866 18.6059 5.27251 18.5475 5.17349C18.4876 5.07194 18.3944 4.94083 18.3196 4.83346C18.2638 4.75339 18.2028 4.5866 18.1495 4.66839C18.1412 4.68111 18.1319 4.69788 18.1213 4.71934C18.0504 4.86904 18.0283 5.03739 18.058 5.20047C18.2145 6.26154 18.3314 7.0643 18.3612 7.99324C18.3632 8.05578 18.3611 8.11213 18.3507 8.17384C18.3318 8.28597 18.2689 8.3916 18.1997 8.48184C18.1351 8.56611 18.0687 8.64785 18.0052 8.69575C17.9508 8.73488 17.862 8.774 17.7821 8.81074Z" fill="white"/>
<path fill-rule="evenodd" clip-rule="evenodd" d="M17.7909 7.91392C17.7909 7.65566 17.7944 7.43632 17.7874 7.24175C17.7851 7.07696 17.7492 6.9144 17.6819 6.76415C17.6186 6.6191 17.6573 6.50236 17.6256 6.3467C17.5975 6.19104 17.6045 5.95755 17.5623 5.77712C17.5483 5.70637 17.5131 5.47642 17.5237 5.45165C17.555 5.36335 17.6549 5.34829 17.6315 5.25757C17.5805 5.06058 17.4374 4.71396 17.3549 4.59198C17.3411 4.56556 17.3225 4.55166 17.3002 4.55014C17.1718 4.54139 17.0929 4.71317 17.0942 4.84185C17.095 4.91971 17.112 5.00971 17.1299 5.09788C17.3444 6.24057 17.5096 7.27712 17.4744 8.36321C17.4604 8.45519 17.7909 8.08727 17.7909 7.91392ZM16.1841 6.49528C16.1841 6.49721 16.1826 6.49875 16.1806 6.49859C16.0534 6.48826 15.8056 6.26562 15.7016 6.11257C15.6846 6.08769 15.6714 6.06036 15.6655 6.03086C15.6607 6.00689 15.659 5.98234 15.6605 5.95781C15.6607 5.9552 15.6609 5.95259 15.6611 5.94998C15.6675 5.87763 15.7209 5.81398 15.7919 5.79824C15.818 5.79245 15.8443 5.79244 15.8685 5.80239C15.8775 5.80608 15.8791 5.80519 15.8846 5.8132C15.9111 5.85168 15.9795 5.9393 16.0216 5.91902C16.0314 5.9143 16.0379 5.90649 16.0415 5.89693C16.0431 5.89264 16.0437 5.88802 16.0438 5.88345C16.0442 5.86279 16.0405 5.84525 16.036 5.82781C16.0227 5.77599 16.0223 5.71903 16.0521 5.67461C16.1147 5.5813 16.2459 5.57969 16.3036 5.66392C16.3529 5.7276 16.3739 5.85849 16.3775 5.94694C16.3775 5.94903 16.3773 5.95092 16.377 5.95263C16.3633 6.03469 16.2156 5.97016 16.2087 6.05307C16.2017 6.16981 16.1876 6.35731 16.1841 6.49528ZM13.6596 8.19693C13.6948 7.85024 13.6456 7.23113 13.642 7.02594C13.6232 6.49824 13.5798 5.97172 13.512 5.44811C13.4698 5.15094 13.6315 5.47995 13.6104 5.3066C13.5577 5.01297 13.3959 4.81132 13.2025 4.54599C13.2013 4.54415 13.2001 4.54234 13.1989 4.54056C13.1164 4.41763 13.001 4.63486 12.9984 4.78289C12.996 4.91677 13.0431 5.03265 13.0619 5.15802C13.199 5.76651 13.2799 6.32547 13.3186 6.8809C13.346 7.27156 13.357 7.66313 13.3516 8.05456C13.3473 8.36206 13.5884 8.4961 13.6596 8.19693Z" fill="white"/>
<path fill-rule="evenodd" clip-rule="evenodd" d="M18.257 7.64151C18.2577 7.64151 18.2581 7.64076 18.2578 7.64016C18.0152 7.23017 17.6537 6.79227 17.5554 6.62618C17.2293 6.16807 16.8869 5.72202 16.5287 5.28891C16.2298 4.97052 16.6693 5.23585 16.4724 4.98821C16.3072 4.80778 16.2615 4.74764 16.1173 4.63797C16.047 4.59198 16.0048 4.50354 15.9767 4.65566C15.9655 4.78742 15.9631 4.9198 15.9697 5.05189C15.9697 5.11203 16.033 5.22877 16.0892 5.29953C16.7795 6.1552 17.5331 7.02678 18.155 8.10145C18.2118 8.19964 18.3037 8.20202 18.3103 8.08876C18.3201 7.919 18.2939 7.69141 18.2562 7.64289C18.2557 7.64229 18.2562 7.64151 18.257 7.64151Z" fill="white"/>
<path fill-rule="evenodd" clip-rule="evenodd" d="M7.30961 6.88797C7.30743 6.89192 7.30492 6.89599 7.30223 6.90014C7.26342 6.9601 7.28741 7.04363 7.35884 7.04363C7.43164 7.04363 7.50248 7.00111 7.48873 6.92962C7.48787 6.92519 7.48678 6.92073 7.48541 6.91627C7.44322 6.81014 7.33071 6.85259 7.30961 6.88797Z" fill="#165D31"/>
<path fill-rule="evenodd" clip-rule="evenodd" d="M15.3928 12.5554C15.5389 12.5464 15.6532 12.8321 15.7995 12.8387C15.9435 12.8452 16.0762 12.8532 16.2281 12.8691C16.2571 12.8721 16.2864 12.8723 16.3154 12.8692L16.6093 12.8384C16.9352 12.8075 16.9868 13.2391 16.9947 13.348C16.9959 13.3644 16.9961 13.381 16.9958 13.3975C16.9895 13.7096 16.8618 13.7273 16.7007 13.7618C16.6938 13.7628 16.6871 13.7634 16.6806 13.7636C16.5454 13.7669 16.4177 13.6728 16.284 13.6526C16.2688 13.6503 16.2535 13.6482 16.2382 13.6475C16.1091 13.6415 15.983 13.6409 15.8569 13.6309C15.7917 13.626 15.7401 13.6294 15.6891 13.6331C15.5704 13.6417 15.4565 13.7508 15.34 13.7264C15.2721 13.7162 15.1879 13.5279 15.2043 13.3716C15.2054 13.3605 15.2187 13.3287 15.2233 13.3186C15.2502 13.2604 15.1906 13.2298 15.1265 13.228C13.8423 13.1923 12.5495 13.1361 11.2931 13.1533C10.2805 13.1568 9.282 13.1993 8.27995 13.2417C7.69109 13.2339 7.85206 12.7804 8.44091 12.7892C8.59392 12.7915 8.72518 12.7908 8.81086 12.7854C9.53164 12.7783 10.1926 12.7182 10.9275 12.6969C12.2212 12.7191 13.5066 12.7214 14.7985 12.7948C14.9263 12.802 15.1816 12.5063 15.3008 12.4598C15.317 12.4535 15.342 12.4507 15.3478 12.4671C15.3589 12.4985 15.3707 12.5579 15.3928 12.5554ZM9.78005 5.16418C9.73261 4.86732 9.55519 4.93522 9.56103 5.2358C9.56411 5.39435 9.59415 5.54405 9.63963 5.67066C9.76109 6.00881 10.2053 5.99285 10.2966 5.64536C10.3101 5.59407 10.3226 5.54016 10.3342 5.48502C10.3432 5.44184 10.3679 5.37022 10.4007 5.34074C10.453 5.29375 10.459 5.39643 10.4591 5.46676C10.4596 5.69286 10.4747 5.82294 10.5093 5.91822C10.5567 6.04906 10.6687 6.15664 10.8044 6.18744C10.9894 6.22943 11.1251 6.1196 11.1384 6.10613L11.3494 5.89033C11.3567 5.88246 11.3643 5.87575 11.3722 5.87018C11.4631 5.80596 11.554 5.92906 11.6169 6.02087C11.6393 6.05355 11.6711 6.08577 11.7256 6.11321C11.8451 6.16274 12.0948 6.12736 12.1546 6.02476C12.2319 5.88679 12.253 5.8408 12.2882 5.79127C12.3194 5.75004 12.3625 5.7415 12.3947 5.7463C12.4312 5.75173 12.4325 5.79085 12.415 5.82327C12.412 5.82881 12.4091 5.83453 12.4066 5.84052C12.3822 5.89839 12.4486 5.97793 12.5056 5.9516C12.5283 5.94112 12.5461 5.93496 12.5659 5.91976C12.6229 5.87605 12.6727 5.79793 12.7099 5.72608C12.7636 5.62245 12.7754 5.42201 12.6784 5.48703C12.6067 5.53593 12.5259 5.57924 12.4391 5.58074C12.3879 5.58162 12.3367 5.56822 12.3022 5.51533C12.256 5.43205 12.2417 5.32334 12.221 5.22324C12.2036 5.13895 12.1608 5.05893 12.1462 4.97411C12.1451 4.96746 12.1442 4.96094 12.1438 4.95466C12.1399 4.90162 12.2032 4.90408 12.2563 4.90227C12.3165 4.90023 12.3395 4.81924 12.3222 4.76161C12.2938 4.66728 12.2054 4.53755 12.137 4.46108C12.0561 4.37264 11.9436 4.36203 11.8346 4.45401C11.7572 4.52476 11.7678 4.60259 11.7537 4.67689C11.7404 4.73013 11.7398 4.78579 11.752 4.8393C11.7763 4.94541 11.8521 5.03189 11.9017 5.12877C11.9347 5.19316 11.9662 5.26488 11.9848 5.34558C12.0233 5.51276 11.9415 5.73485 11.7713 5.71344C11.7115 5.70283 11.6166 5.67807 11.5674 5.29599C11.538 5.08102 11.5573 4.79664 11.5159 4.59016C11.4924 4.47292 11.4913 4.31267 11.375 4.28467C11.2854 4.26307 11.2463 4.42924 11.2096 4.51379C11.178 4.58634 11.1575 4.68368 11.2088 4.82193C11.2652 4.96697 11.2946 5.12059 11.2959 5.27513C11.2972 5.41999 11.2458 5.56327 11.149 5.67099C11.0576 5.77712 10.9556 5.74882 10.8783 5.70991C10.8651 5.70128 10.8524 5.6934 10.8402 5.68524C10.704 5.59381 10.7199 5.39706 10.7228 5.23305C10.7267 5.02131 10.7242 4.80056 10.6919 4.74057C10.6251 4.60613 10.5161 4.65566 10.4704 4.69811C10.2612 4.9319 10.1212 5.21986 10.0661 5.52948C10.0089 5.71479 9.83852 5.5074 9.80505 5.31639C9.79644 5.26726 9.78825 5.21548 9.78005 5.16418Z" fill="white"/>
<path fill-rule="evenodd" clip-rule="evenodd" d="M10.23 6.27194C10.2495 6.18806 10.2903 6.10816 10.3747 6.09132C10.4631 6.0737 10.5186 6.2268 10.5585 6.3076C10.7104 6.6152 10.799 6.95098 10.8186 7.29481C10.81 7.40842 10.9123 7.34919 10.99 7.26577C11.1429 7.10143 11.4828 6.93386 11.8193 6.88168C11.8808 6.87214 11.9461 6.86947 11.9549 6.80782C11.9692 6.7083 11.9452 6.59189 11.9636 6.49306C11.9867 6.36934 12.054 6.26137 12.1489 6.1937C12.2671 6.10948 12.4298 6.11744 12.5609 6.17968C12.7379 6.26373 12.8034 6.41697 12.8087 6.62264C12.7718 7.12897 12.2707 7.23271 11.9591 7.27803C11.9301 7.28225 11.895 7.28394 11.8768 7.30693C11.8493 7.34172 11.9383 7.348 11.9827 7.34824L13.1767 7.35481C13.1936 7.3549 13.2103 7.35909 13.2252 7.367C13.2531 7.38176 13.267 7.40672 13.2427 7.42682C13.2312 7.43635 13.2164 7.45222 13.199 7.48231C13.07 7.71025 12.9097 7.9458 12.6534 7.99953C12.4824 8.03536 12.3094 8.06192 12.1354 8.08594C11.9714 8.10859 11.767 8.13141 11.7093 8.28662C11.697 8.31995 11.695 8.35511 11.7047 8.39151C11.7286 8.44838 11.8144 8.5061 11.896 8.55074C11.9972 8.6061 12.1246 8.62316 12.1318 8.7383C12.1383 8.84253 11.9838 8.93512 11.88 8.92291C11.4145 8.86811 11.0415 8.67543 10.8467 8.4061C10.7818 8.31644 10.6858 8.2199 10.6218 8.31014C10.3756 8.62854 10.1365 8.91155 9.71815 9.06721C9.47203 9.13089 9.21536 9.0283 9.09582 8.86556C8.99777 8.74975 8.90462 8.68396 8.76423 8.74159C8.51896 8.84226 8.14694 8.98667 7.95387 9.02219C7.83763 9.04357 7.87948 8.92265 7.96977 8.84637C8.18643 8.66332 8.47546 8.50292 8.7625 8.32585C8.94691 8.21208 9.05329 8.04651 9.12975 7.84376C9.19532 7.66986 9.27096 7.6893 9.27865 7.875C9.27865 7.93626 9.31143 7.93509 9.35947 7.89708C9.47829 7.80307 9.70737 7.61193 9.82032 7.48411C9.86904 7.42899 9.90956 7.34153 9.90831 7.26797C9.90656 7.16478 9.88022 7.07926 9.82379 6.99285C9.73876 6.86263 9.64741 6.82776 9.60915 6.72877C9.58541 6.64239 9.57969 6.54932 9.59299 6.4719C9.6138 6.35077 9.73197 6.2374 9.85041 6.2702C9.8859 6.28002 9.92181 6.30086 9.95723 6.33255C10.0539 6.42006 10.1387 6.58477 10.1739 6.71788C10.18 6.74111 10.1852 6.76676 10.1615 6.77031C10.081 6.78236 10.0543 6.7963 10.0893 6.86975C10.1118 6.9168 10.1277 6.96696 10.1365 7.01887C10.2069 7.30896 10.1858 7.42217 10.1155 7.60967C9.92499 8.01328 9.69189 8.18333 9.47059 8.33304C9.37747 8.39604 9.30025 8.47972 9.36395 8.57236C9.38166 8.59812 9.42357 8.63389 9.45348 8.64296C9.48239 8.65173 9.52235 8.65645 9.56943 8.65452C9.68707 8.64971 9.79602 8.59478 9.89306 8.52811C10.0656 8.40957 10.2174 8.26366 10.3426 8.09642C10.4822 7.91011 10.5512 7.67791 10.5322 7.44589C10.5202 7.29847 10.4901 7.15265 10.4424 7.01179C10.3405 6.77476 10.2209 6.43868 10.2209 6.4316C10.2192 6.36 10.2208 6.3114 10.23 6.27194ZM6.92295 4.79363C7.07062 4.86439 7.3519 4.83255 7.33784 4.59198C7.33318 4.51932 7.30686 4.41127 7.24216 4.44466C7.22328 4.45441 7.2073 4.47348 7.20071 4.5C7.18654 4.54992 7.14614 4.59179 7.13346 4.54147C7.13152 4.53374 7.13039 4.52468 7.13039 4.51415C7.13039 4.50452 7.1275 4.49489 7.12335 4.48593C7.11401 4.46572 7.0964 4.45047 7.07414 4.45047C7.04662 4.45047 7.03734 4.485 7.03321 4.51221C7.03243 4.51737 7.03195 4.52271 7.03195 4.5283C7.03195 4.5472 7.02376 4.5558 7.01362 4.56038C7.00736 4.56322 6.9976 4.56388 6.99073 4.56351C6.97381 4.56261 6.95931 4.55162 6.95337 4.53575C6.95278 4.53418 6.95228 4.53245 6.9519 4.53052C6.9507 4.52443 6.95051 4.51815 6.94937 4.51204L6.94531 4.49025C6.94216 4.47334 6.9365 4.45633 6.92097 4.44894C6.91144 4.4444 6.89992 4.44289 6.88953 4.44473C6.88349 4.4458 6.87796 4.44748 6.8729 4.44968C6.79084 4.48536 6.8082 4.6324 6.84547 4.71375C6.86074 4.74709 6.88504 4.77764 6.92295 4.79363Z" fill="white"/>
<path fill-rule="evenodd" clip-rule="evenodd" d="M11.2669 6.64033C11.2665 6.64033 11.2663 6.64082 11.2667 6.64099C11.4111 6.70891 11.7484 6.67355 11.6865 6.46081C11.6828 6.44838 11.6798 6.43564 11.679 6.42272L11.677 6.39044C11.6744 6.34982 11.6694 6.2995 11.6307 6.28698C11.5957 6.27569 11.5549 6.30004 11.5431 6.35024C11.5273 6.39765 11.4848 6.43802 11.4744 6.38917C11.4729 6.38208 11.4722 6.37386 11.4727 6.36439C11.4727 6.35506 11.47 6.34505 11.4661 6.33556C11.4571 6.3138 11.4365 6.29717 11.413 6.29717C11.4078 6.29717 11.4041 6.29779 11.4013 6.29912C11.384 6.30714 11.3803 6.33061 11.3769 6.34928C11.376 6.35391 11.3754 6.35864 11.3749 6.36354C11.3741 6.3735 11.3744 6.38391 11.3699 6.39285C11.368 6.3968 11.3655 6.4 11.3625 6.40272C11.3513 6.41291 11.3348 6.41897 11.3228 6.40976C11.3183 6.40635 11.3126 6.40127 11.3083 6.39763C11.3046 6.3945 11.3012 6.39174 11.2986 6.38833C11.2913 6.37885 11.2923 6.36554 11.2901 6.35377L11.2877 6.34048C11.2845 6.32357 11.2788 6.30657 11.2633 6.29917C11.2538 6.29464 11.2423 6.29315 11.2319 6.29492C11.1734 6.3049 11.1622 6.37042 11.1626 6.40809C11.1628 6.41655 11.1623 6.42532 11.1622 6.43378C11.1613 6.47506 11.1727 6.60247 11.267 6.63962C11.2673 6.63976 11.2673 6.64033 11.2669 6.64033ZM13.7984 5.87618C13.798 5.87618 13.7979 5.8767 13.7982 5.87687C13.9463 5.94672 14.2222 5.91432 14.2117 5.67807C14.207 5.6032 14.1769 5.49068 14.1123 5.52877C14.0951 5.53892 14.0808 5.55737 14.0746 5.58255C14.0596 5.63535 14.0126 5.67217 14.005 5.61781C14.0041 5.61155 14.0038 5.60453 14.0042 5.5967C14.0042 5.58812 14.0019 5.57954 13.9985 5.57142C13.989 5.54908 13.9687 5.53302 13.9445 5.53302C13.9177 5.53302 13.9137 5.57122 13.9084 5.5975L13.9058 5.61085C13.9023 5.63561 13.8917 5.64623 13.8741 5.64623C13.8545 5.64623 13.8328 5.63597 13.8264 5.6174C13.8255 5.61459 13.8249 5.61132 13.8249 5.60731C13.8249 5.58962 13.8214 5.56132 13.8144 5.54717C13.7996 5.52486 13.7639 5.52581 13.7404 5.53859C13.7022 5.55935 13.6939 5.61086 13.6941 5.64302C13.6942 5.65208 13.6938 5.66155 13.6936 5.67061C13.693 5.7124 13.7051 5.83578 13.7985 5.87544C13.7989 5.8756 13.7988 5.87618 13.7984 5.87618ZM15.1093 8.23829C15.0534 7.92128 14.9593 7.92839 14.9478 8.25007C14.9409 8.44576 14.9906 8.62246 15.0239 8.6816C15.0826 8.79974 15.1328 8.88877 15.2135 8.96061C15.2898 9.0284 15.3788 9.09499 15.4805 9.1029C15.5652 9.10948 15.6322 9.06239 15.6743 9.01061C15.7499 8.93105 15.7886 8.78964 15.8171 8.65836C15.8599 8.46189 16.0013 8.15989 16.1349 8.31014C16.1401 8.31756 16.1455 8.32485 16.151 8.332C16.2578 8.47042 16.414 8.59228 16.5884 8.60479C16.6671 8.61044 16.7491 8.588 16.8311 8.53302C16.9436 8.4658 17.0174 8.38443 17.0842 8.21816C17.148 8.03835 17.125 7.26402 17.107 6.71515C17.1036 6.60881 17.0916 6.50295 17.0713 6.39851L16.9908 5.98364C16.9664 5.85804 16.9517 5.73044 16.9432 5.60278C16.9373 5.51361 16.9297 5.41671 16.9218 5.36792C16.9201 5.3576 16.9187 5.34143 16.9179 5.331C16.9155 5.29936 16.9545 5.32408 16.9811 5.34139C16.9869 5.34518 16.992 5.34766 16.9983 5.35018C17.0086 5.35435 17.02 5.35861 17.0303 5.35428C17.0586 5.34231 17.0804 5.28708 17.0596 5.23939L16.7456 4.65173C16.7207 4.60507 16.7015 4.54613 16.6488 4.55009C16.6109 4.55294 16.5796 4.60013 16.5579 4.63124C16.548 4.64542 16.5395 4.66061 16.5325 4.6766C16.518 4.71015 16.5107 4.74642 16.5111 4.78302C16.5217 4.93868 16.5463 5.09788 16.5568 5.25354L16.6975 6.05307C16.7432 6.6191 16.7537 7.08608 16.7994 7.65566C16.7934 7.86359 16.7374 8.04773 16.6769 8.11443C16.6605 8.13251 16.6595 8.13212 16.6373 8.14225C16.5462 8.18379 16.4315 8.09792 16.3725 8.01715C16.3525 7.98991 16.3319 7.96039 16.3124 7.93172C16.2442 7.83184 16.1636 7.68588 16.0484 7.72249C16.0189 7.73188 15.991 7.75228 15.9626 7.77948C15.7517 7.98467 15.6603 8.35967 15.5161 8.62146C15.4984 8.6517 15.463 8.67835 15.4178 8.68346C15.3029 8.69644 15.2237 8.57297 15.1772 8.46705C15.1439 8.39105 15.1225 8.31315 15.1093 8.23829ZM13.8636 4.48069C13.8636 4.48167 13.8642 4.48254 13.8651 4.48291C13.9979 4.5374 14.0885 4.80828 14.0605 4.94222C14.0324 5.10141 13.962 5.2783 13.9128 5.25708C13.8566 5.23585 13.948 5.09434 13.8952 4.94575C13.8757 4.87705 13.7818 4.77091 13.7331 4.69579C13.7041 4.651 13.6846 4.58759 13.708 4.5396C13.7331 4.48794 13.8048 4.46673 13.8617 4.47838C13.8628 4.4786 13.8636 4.47957 13.8636 4.48069Z" fill="white"/>
<path fill-rule="evenodd" clip-rule="evenodd" d="M15.5257 8.00639C15.5321 7.98207 15.5381 7.94725 15.5396 7.92216C15.5581 7.61889 15.5157 7.42882 15.5089 7.24528C15.5019 7.05424 15.2944 5.5967 15.2522 5.45519C15.2435 5.40926 15.2432 5.37764 15.2486 5.35609C15.289 5.19663 15.3912 5.18056 15.307 5.03921C15.2289 4.90788 15.1394 4.76895 15.0852 4.65892C15.0636 4.61514 15.0456 4.56737 15.0245 4.52332C14.9888 4.44851 14.9233 4.61342 14.9017 4.69343C14.8523 4.87535 14.8375 5.06539 14.8585 5.25354C15.0403 6.20659 15.2245 7.02429 15.2603 7.89957C15.2721 8.18973 15.4523 8.28737 15.5257 8.00639ZM17.7486 4.93863C17.7871 4.93349 17.8208 4.94939 17.8464 4.9785C17.9412 5.08622 17.9929 5.35435 17.9806 5.4375C17.956 5.61438 17.8927 5.80542 17.847 5.78066C17.7943 5.75943 17.8576 5.51887 17.833 5.44457C17.8203 5.39681 17.7799 5.33184 17.7408 5.26968C17.6713 5.15888 17.619 4.956 17.7486 4.93863ZM8.8122 7.34434C8.81195 7.34434 8.81187 7.34469 8.8121 7.34478C8.92747 7.39191 8.99731 7.63819 8.98679 7.70872C8.95866 7.83962 8.89889 7.98113 8.85319 7.9599C8.8311 7.95307 8.83282 7.90825 8.83811 7.85736C8.84814 7.76098 8.84391 7.65591 8.77967 7.58337C8.73242 7.53 8.67576 7.49117 8.67386 7.45756C8.67373 7.4552 8.67353 7.45277 8.67297 7.45047C8.64821 7.34859 8.7429 7.33072 8.81225 7.3439C8.81253 7.34395 8.81248 7.34434 8.8122 7.34434Z" fill="white"/>
<path fill-rule="evenodd" clip-rule="evenodd" d="M11.6099 7.71934C11.7576 7.72641 11.8314 7.8467 11.6943 7.89622C11.6073 7.92467 11.5244 7.95042 11.4729 8.01281C11.3976 8.10414 11.5083 8.36733 11.3901 8.37362C11.2846 8.37922 11.2333 8.30042 11.1541 8.23037C11.0563 8.14377 10.944 8.00753 10.9208 7.79717C10.9135 7.64295 11.1478 7.67747 11.3015 7.69207C11.4015 7.70157 11.5093 7.70788 11.6099 7.71934Z" fill="#165D31"/>
<path fill-rule="evenodd" clip-rule="evenodd" d="M5.72045 4.40094C5.88922 4.45047 5.89977 4.70519 5.88922 4.77948C5.86461 4.91392 5.80484 5.05896 5.76265 5.04127C5.71342 5.02358 5.76265 4.83962 5.73803 4.78302C5.73088 4.76041 5.71365 4.73183 5.69313 4.70161C5.61294 4.58353 5.58247 4.36441 5.72045 4.40094ZM9.09227 5.58962C8.95866 5.66038 8.90944 5.87264 8.9903 6C9.06766 6.10613 9.1872 6.06722 9.20126 6.06722C9.29436 6.07734 9.36045 5.94796 9.39051 5.87356C9.40386 5.8405 9.3996 5.79672 9.36707 5.81133C9.3561 5.81626 9.34223 5.82446 9.3247 5.83727C9.28111 5.86915 9.21272 5.91405 9.18607 5.86709C9.17576 5.84892 9.17018 5.83061 9.16734 5.80991C9.1594 5.75211 9.16739 5.69301 9.19071 5.63915C9.21533 5.57547 9.1661 5.54717 9.09227 5.58962ZM10.0751 4.30189C10.0756 4.30189 10.0758 4.3025 10.0754 4.30276C10.0048 4.34961 9.87631 4.48683 9.87281 4.64151C9.8687 4.74503 9.94862 4.85764 10.0428 4.81442C10.0532 4.80961 10.0645 4.80384 10.0767 4.79717C10.0978 4.78385 10.1158 4.76628 10.1297 4.74558C10.1437 4.72487 10.1531 4.70148 10.1576 4.67689C10.1787 4.57783 10.0521 4.72641 10.0381 4.61321C10.011 4.51108 10.0848 4.46792 10.1594 4.37655C10.1651 4.3695 10.1682 4.36061 10.1681 4.35151C10.1677 4.28942 10.1618 4.2529 10.0749 4.30095C10.0745 4.30119 10.0746 4.30189 10.0751 4.30189ZM10.9503 4.3235C10.877 4.36384 10.8533 4.48402 10.8386 4.56638C10.8321 4.60245 10.8266 4.63867 10.8221 4.67502C10.8087 4.78182 10.8031 4.96511 10.9023 4.92321C10.9263 4.91305 10.9499 4.88986 10.9663 4.85024C11.0006 4.75672 11.021 4.68484 11.0335 4.62606C11.0615 4.49479 11.0679 4.25879 10.9503 4.3235ZM15.855 7.00118C15.8563 7.00118 15.8571 7.00103 15.858 7.00018C15.8844 6.97522 16.3481 6.64327 16.5072 6.52961C16.5425 6.50433 16.5796 6.47562 16.5957 6.516C16.647 6.64448 16.5252 6.80051 16.4186 6.88859C16.2585 7.02076 16.084 7.13434 15.8982 7.22703C15.8686 7.2418 15.8341 7.24798 15.8249 7.21619C15.8083 7.15849 15.8071 7.04482 15.8523 7.00222C15.8531 7.00154 15.854 7.00118 15.855 7.00118ZM16.4806 6.9941C16.4803 6.9941 16.4802 6.99453 16.4805 6.99467C16.5991 7.05462 16.6486 7.39102 16.6386 7.49792C16.638 7.50406 16.6376 7.5102 16.6374 7.51636C16.6338 7.7029 16.5207 7.84635 16.4723 7.82547C16.4231 7.80071 16.4793 7.58844 16.4547 7.51415C16.4281 7.41364 16.3352 7.23382 16.3404 7.16697C16.3409 7.16022 16.3411 7.15337 16.3395 7.14679C16.3128 7.03411 16.4059 6.97461 16.4807 6.99354C16.481 6.99362 16.481 6.9941 16.4806 6.9941ZM12.3832 8.60731C12.3665 8.55128 12.4191 8.50591 12.4611 8.46523C12.503 8.42461 12.5487 8.38807 12.5977 8.35613C12.6377 8.33602 12.7131 8.47525 12.7044 8.51917C12.6997 8.54293 12.6975 8.56843 12.702 8.59701C12.7027 8.60151 12.704 8.6059 12.7057 8.61015C12.7091 8.6192 12.7126 8.62846 12.7171 8.63691C12.7449 8.68994 12.8173 8.64476 12.8706 8.61746C12.9518 8.57587 13.0304 8.5711 13.111 8.5684C13.2475 8.57389 13.077 8.72611 12.9489 8.77357C12.911 8.78765 12.8764 8.80226 12.8418 8.81704C12.7572 8.85313 12.5871 8.94693 12.5871 8.85495C12.5871 8.85198 12.5598 8.82649 12.5657 8.76376C12.5683 8.73699 12.5768 8.7031 12.5718 8.67667C12.5568 8.59831 12.4203 8.68544 12.3859 8.61346C12.385 8.61152 12.3841 8.60947 12.3832 8.60731ZM17.2036 8.71921C17.2036 8.72006 17.2039 8.72088 17.2044 8.72154C17.2285 8.75205 17.247 8.78276 17.2169 8.83182C17.2069 8.84803 17.1929 8.86123 17.1785 8.87371L17.1561 8.89324C17.0991 8.94287 17.0145 9.02708 17.0755 9.07175C17.0831 9.07728 17.0928 9.0818 17.1052 9.08491C17.1985 9.11098 17.3834 9.01213 17.4743 8.95692C17.5083 8.93625 17.5608 8.89141 17.5625 8.85164C17.564 8.81622 17.5396 8.79891 17.5042 8.79794C17.4844 8.79739 17.4627 8.79996 17.4431 8.7999C17.4287 8.79986 17.4143 8.79897 17.4001 8.79638C17.3896 8.79444 17.378 8.79072 17.3695 8.78385C17.3377 8.75809 17.3791 8.71189 17.3986 8.67585C17.4074 8.65948 17.4151 8.64249 17.4216 8.625C17.4567 8.54024 17.3055 8.51623 17.2142 8.52484C17.1996 8.52622 17.1836 8.52785 17.1649 8.52948C17.1306 8.53524 17.1149 8.55036 17.1045 8.58438C17.0993 8.6017 17.0975 8.62022 17.1016 8.63784C17.1139 8.69105 17.1563 8.69223 17.2016 8.71593C17.2028 8.71657 17.2036 8.71784 17.2036 8.71921Z" fill="white"/>
<path fill-rule="evenodd" clip-rule="evenodd" d="M12.4254 6.71108C12.4079 6.74646 12.3446 6.74646 12.2848 6.71108C12.225 6.67571 12.1899 6.6191 12.211 6.58726C12.2321 6.55542 12.2918 6.55542 12.3516 6.58726C12.4114 6.6191 12.443 6.67924 12.4254 6.71108ZM9.29443 4.81667C9.2949 4.8162 9.29442 4.81537 9.29377 4.81553C9.25881 4.82399 9.21136 4.79248 9.19076 4.7441C9.16966 4.69458 9.18021 4.65212 9.21537 4.64151C9.25053 4.6309 9.29623 4.66627 9.32085 4.71226C9.34496 4.75732 9.33195 4.80576 9.29505 4.8177C9.29442 4.8179 9.29396 4.81714 9.29443 4.81667ZM15.4528 13.3085C15.4667 13.2687 15.5097 13.2675 15.5518 13.2689C15.8025 13.2771 16.0422 13.2711 16.2884 13.2776C16.3962 13.2805 16.5258 13.3513 16.4616 13.438C16.4585 13.4422 16.4552 13.4457 16.4517 13.4484C16.4415 13.4564 16.4271 13.4538 16.4141 13.4533L16.324 13.4498C16.2312 13.4462 16.119 13.368 16.0262 13.3708C15.9316 13.3736 15.8215 13.4563 15.7269 13.4529C15.6849 13.4513 15.643 13.4482 15.6003 13.4449C15.52 13.4387 15.4264 13.3847 15.4528 13.3085Z" fill="#165D31"/>
</svg>
