<svg width="18" height="18" viewBox="0 0 18 18" fill="none" xmlns="http://www.w3.org/2000/svg">
<path d="M17 17.1815L12.4286 12.6101M7.85714 14.8958C6.95665 14.8958 6.06498 14.7184 5.23303 14.3738C4.40108 14.0292 3.64516 13.5241 3.00841 12.8874C2.37167 12.2506 1.86657 11.4947 1.52197 10.6628C1.17737 9.83083 1 8.93915 1 8.03866C1 7.13817 1.17737 6.24649 1.52197 5.41455C1.86657 4.5826 2.37167 3.82667 3.00841 3.18993C3.64516 2.55318 4.40108 2.04809 5.23303 1.70349C6.06498 1.35888 6.95665 1.18152 7.85714 1.18152C9.67577 1.18152 11.4199 1.90397 12.7059 3.18993C13.9918 4.47589 14.7143 6.22003 14.7143 8.03866C14.7143 9.85729 13.9918 11.6014 12.7059 12.8874C11.4199 14.1734 9.67577 14.8958 7.85714 14.8958Z" stroke="black" stroke-opacity="0.75" stroke-width="1.2"/>
</svg>
