<svg width="60" height="60" viewBox="0 0 60 60" fill="none" xmlns="http://www.w3.org/2000/svg">
<path d="M0 5C0 2.23858 2.23858 0 5 0H55C57.7614 0 60 2.23858 60 5V55C60 57.7614 57.7614 60 55 60H5C2.23858 60 0 57.7614 0 55V5Z" fill="url(#paint0_linear_3_27)"/>
<path d="M28.1589 25.0645C28.1674 22.3486 28.1677 19.6323 28.1597 16.9158C28.1586 16.5108 28.1162 16.2164 28.0325 16.0325C27.547 14.9678 25.8748 15.1852 25.7313 16.3581C25.6875 16.7199 25.7795 17.2475 25.6188 17.6333C25.3378 18.3122 24.7964 18.3938 24.0858 18.3921C23.7438 18.3912 23.3193 18.4273 23.0203 18.3534C22.3924 18.1976 22.0693 17.7473 22.051 17.0026C21.996 14.7126 23.1792 12.7147 25.3747 11.9405C28.1382 10.9669 31.1277 12.7104 31.7198 15.5289C31.7948 15.8858 31.8323 16.4561 31.8323 17.2398C31.8329 19.8538 31.8329 22.4623 31.8323 25.0654C31.8323 25.0963 31.8481 25.1118 31.8796 25.1118L33.6231 25.1144C33.6331 25.1144 33.6427 25.1104 33.6498 25.1033C33.6569 25.0962 33.6609 25.0866 33.6609 25.0765C33.6603 24.4584 33.6686 23.8369 33.6858 23.2119C33.7001 22.7146 33.878 22.2996 34.2194 21.9668C34.6362 21.5603 35.0693 21.4538 35.688 21.4477C36.3806 21.4414 37.0732 21.4403 37.7658 21.4443C38.711 21.4495 39.48 21.88 39.7146 22.8346C39.8556 23.4052 39.7731 24.3436 39.7825 25.0413C39.7831 25.0877 39.8066 25.1112 39.853 25.1118C41.5813 25.1164 43.2976 25.1172 45.0019 25.1144C45.4427 25.1144 45.7718 25.1247 46.1516 25.3326C47.5772 26.1154 47.3623 28.0463 45.9067 28.6649C45.8809 28.6764 45.8669 28.6962 45.8646 28.7242C45.6154 32.0113 44.2113 34.6141 41.6523 36.5326C40.2059 37.6176 38.5572 38.2684 36.7062 38.485C35.8066 38.5898 34.6998 38.5597 33.7082 38.5554C33.6772 38.5554 33.6618 38.5709 33.6618 38.6018C33.6629 39.1254 33.6623 39.6462 33.66 40.164C33.6578 40.545 33.6171 40.8374 33.538 41.0414C33.3478 41.5294 32.9944 41.8835 32.4777 42.1034C32.4513 42.1149 32.4381 42.135 32.4381 42.1636C32.4404 43.4818 32.4399 44.7973 32.4364 46.1103C32.4358 46.3504 32.3685 46.6107 32.2345 46.8914C31.2626 48.9228 28.3711 48.7802 27.6691 46.6208C27.5957 46.3939 27.5585 46.0931 27.5573 45.7185C27.5539 44.5395 27.5536 43.3586 27.5565 42.1756C27.5571 42.1441 27.5427 42.1215 27.5135 42.1077C26.9848 41.8671 26.6305 41.5039 26.4506 41.0182C26.3709 40.8039 26.3317 40.4567 26.3329 39.9767C26.3334 39.515 26.332 39.0535 26.3286 38.5924C26.3284 38.5871 26.3273 38.5818 26.3252 38.577C26.323 38.5721 26.32 38.5677 26.3161 38.5641C26.3123 38.5604 26.3078 38.5575 26.3028 38.5556C26.2979 38.5537 26.2926 38.5527 26.2873 38.5528C25.3137 38.5606 24.2241 38.5898 23.3425 38.491C18.3028 37.9256 14.417 33.7906 14.1343 28.7234C14.1326 28.6953 14.1189 28.6761 14.0931 28.6658C12.5266 28.0084 12.4389 25.8353 14.081 25.2295C14.285 25.1544 14.5665 25.1169 14.9257 25.1169C16.6747 25.1164 18.4245 25.1155 20.1752 25.1144C20.1863 25.1144 20.197 25.1099 20.2049 25.102C20.2128 25.0941 20.2173 25.0834 20.2173 25.0722C20.2161 24.504 20.2127 23.9337 20.2069 23.3614C20.1992 22.5279 20.7019 21.782 21.4993 21.5285C21.6649 21.4764 21.9121 21.4492 22.2409 21.4469C22.9014 21.4429 23.5619 21.4417 24.2224 21.4435C24.6085 21.4446 24.9084 21.4844 25.1221 21.5629C25.6663 21.7617 26.0321 22.1326 26.2194 22.6757C26.2962 22.8962 26.3337 23.2288 26.332 23.6733C26.3308 24.1454 26.3317 24.616 26.3346 25.0851C26.3346 25.092 26.3373 25.0985 26.3421 25.1034C26.347 25.1082 26.3535 25.1109 26.3603 25.1109L28.1099 25.1135C28.142 25.1135 28.1583 25.0972 28.1589 25.0645ZM30.485 15.6363C29.9393 13.5276 27.6141 12.3057 25.5827 13.1607C23.9243 13.8585 23.2016 15.388 23.2712 17.1289C23.2723 17.1507 23.2838 17.1616 23.3056 17.1616L24.463 17.165C24.4724 17.165 24.4813 17.1613 24.4879 17.1547C24.4945 17.1481 24.4983 17.1391 24.4983 17.1298C24.4854 16.1528 24.5713 15.3777 25.3275 14.7221C26.961 13.3051 29.3859 14.5098 29.3859 16.6159C29.3848 19.4316 29.3845 22.2477 29.3851 25.0645C29.3851 25.0949 29.4005 25.1101 29.4315 25.1101L30.5537 25.1135C30.5608 25.1135 30.5679 25.1121 30.5744 25.1094C30.581 25.1066 30.587 25.1027 30.592 25.0976C30.597 25.0926 30.601 25.0866 30.6037 25.0801C30.6064 25.0735 30.6078 25.0665 30.6078 25.0594C30.6107 22.3881 30.6107 19.7183 30.6078 17.0499C30.6073 16.4215 30.5663 15.9503 30.485 15.6363ZM22.0587 22.6722C21.697 22.6757 21.4564 22.9189 21.4503 23.2763C21.44 23.8824 21.4357 24.4879 21.4375 25.0929C21.4375 25.0993 21.44 25.1054 21.4445 25.1099C21.449 25.1144 21.4551 25.1169 21.4615 25.1169L25.0637 25.1126C25.0753 25.1126 25.0864 25.1081 25.0947 25.1C25.1029 25.092 25.1075 25.0811 25.1075 25.0697C25.1098 24.569 25.1107 24.0677 25.1101 23.5659C25.1092 22.9953 25.007 22.6679 24.378 22.6662C23.6057 22.6639 22.8327 22.6659 22.0587 22.6722ZM34.9842 25.1264H38.4644C38.4776 25.1264 38.4906 25.1238 38.5028 25.1187C38.515 25.1137 38.5261 25.1063 38.5354 25.0969C38.5448 25.0876 38.5522 25.0765 38.5572 25.0643C38.5623 25.0521 38.5649 25.039 38.5649 25.0258V23.3124C38.5649 23.1381 38.4945 22.9709 38.3691 22.8476C38.2437 22.7243 38.0737 22.6551 37.8964 22.6551H35.5522C35.3749 22.6551 35.2049 22.7243 35.0795 22.8476C34.9541 22.9709 34.8837 23.1381 34.8837 23.3124V25.0258C34.8837 25.039 34.8863 25.0521 34.8913 25.0643C34.8964 25.0765 34.9038 25.0876 34.9131 25.0969C34.9225 25.1063 34.9335 25.1137 34.9457 25.1187C34.9579 25.1238 34.971 25.1264 34.9842 25.1264ZM45.8912 26.9404C45.8912 26.7795 45.8273 26.6251 45.7135 26.5114C45.5998 26.3976 45.4455 26.3337 45.2846 26.3337H14.7143C14.5534 26.3337 14.3991 26.3976 14.2854 26.5114C14.1716 26.6251 14.1077 26.7795 14.1077 26.9404V26.9472C14.1077 27.1081 14.1716 27.2624 14.2854 27.3762C14.3991 27.49 14.5534 27.5539 14.7143 27.5539H45.2846C45.4455 27.5539 45.5998 27.49 45.7135 27.3762C45.8273 27.2624 45.8912 27.1081 45.8912 26.9472V26.9404ZM35.3563 37.3464C40.2027 37.3558 44.317 33.7038 44.6427 28.8067C44.6438 28.7878 44.6349 28.7784 44.616 28.7784H15.3769C15.3557 28.7784 15.3459 28.789 15.3476 28.8102C15.6493 32.6495 18.1816 35.8203 21.8912 36.9408C22.7516 37.2003 23.5092 37.3303 24.164 37.3309C27.895 37.3344 31.6258 37.3395 35.3563 37.3464ZM32.372 38.5434H27.6269C27.6069 38.5434 27.5877 38.5514 27.5735 38.5655C27.5593 38.5797 27.5513 38.599 27.5513 38.619V40.3608C27.5513 40.4462 27.5685 40.5308 27.602 40.6097C27.6354 40.6886 27.6844 40.7604 27.7461 40.8208C27.8079 40.8812 27.8812 40.9291 27.9619 40.9618C28.0426 40.9945 28.1291 41.0113 28.2164 41.0113H31.7825C31.9589 41.0113 32.1281 40.9427 32.2528 40.8208C32.3775 40.6988 32.4476 40.5333 32.4476 40.3608V38.619C32.4476 38.599 32.4396 38.5797 32.4254 38.5655C32.4113 38.5514 32.392 38.5434 32.372 38.5434ZM31.187 42.2229H28.8136C28.8088 42.2229 28.804 42.2238 28.7995 42.2257C28.795 42.2276 28.7909 42.2303 28.7875 42.2337C28.7841 42.2371 28.7814 42.2412 28.7795 42.2457C28.7776 42.2502 28.7767 42.255 28.7767 42.2598V45.8697C28.7767 46.2006 28.9043 46.518 29.1316 46.752C29.3588 46.986 29.6669 47.1174 29.9883 47.1174H30.0123C30.3337 47.1174 30.6419 46.986 30.8691 46.752C31.0963 46.518 31.224 46.2006 31.224 45.8697V42.2598C31.224 42.255 31.223 42.2502 31.2211 42.2457C31.2193 42.2412 31.2166 42.2371 31.2131 42.2337C31.2097 42.2303 31.2056 42.2276 31.2011 42.2257C31.1967 42.2238 31.1919 42.2229 31.187 42.2229Z" fill="white"/>
<defs>
<linearGradient id="paint0_linear_3_27" x1="30" y1="0" x2="30" y2="60" gradientUnits="userSpaceOnUse">
<stop stop-color="#30C9CD"/>
<stop offset="1" stop-color="#330D69"/>
</linearGradient>
</defs>
</svg>
