<svg width="240" height="335" viewBox="0 0 240 335" fill="none" xmlns="http://www.w3.org/2000/svg">
<path d="M115.215 111.51C111.642 100.042 127.934 98.8291 134.718 99.1096C145.824 99.5653 157.043 102.296 167.424 106.184C168.616 106.631 170.441 107.553 172.9 108.95C183.449 115.461 190.594 125.806 194.804 137.33C196.83 142.724 198.241 148.264 199.036 153.948C199.039 153.968 199.037 153.988 199.032 154.008C199.026 154.027 199.016 154.045 199.003 154.061C198.989 154.076 198.973 154.088 198.954 154.097C198.936 154.105 198.916 154.109 198.895 154.109C175.993 154.107 153.081 154.112 130.16 154.126C116.575 154.137 102.797 157.517 94.2115 168.823C89.2473 175.361 87.3751 182.881 85.6433 190.724C85.0426 193.447 84.5121 195.339 84.0516 196.4C82.8526 199.173 80.7421 202.405 77.8253 203.573C77.0587 203.881 75.9917 204.038 74.6245 204.042C51.0058 204.119 27.3941 204.256 3.77534 204.417C2.61842 204.427 1.67886 204.225 0.956665 203.811C0.03814 203.29 -0.218958 202.471 0.18538 201.353C7.57098 181.008 15.0875 160.712 22.7348 140.464C31.8126 116.431 41.2012 92.5198 50.9006 68.7316C55.7912 56.7382 60.8115 44.7203 66.6347 33.144C75.1223 16.274 90.4708 3.71617 109.416 0.774789C111.216 0.494323 113.543 0.350581 116.396 0.343569C157.564 0.229046 198.742 0.114524 239.931 3.39196e-07C239.943 -3.64533e-05 239.954 0.00292045 239.964 0.00860762C239.974 0.0142948 239.983 0.0225378 239.989 0.0325999C239.995 0.0426621 239.999 0.0542296 240 0.0662801C240.001 0.0783306 239.999 0.0904862 239.994 0.101667C232.281 17.4204 220.887 33.5928 203.236 41.7999C189.693 48.0999 174.656 48.6643 160.047 49.681C158.311 49.8002 155.886 50.2162 152.773 50.9291C143.395 53.0746 133.512 58.7015 130.378 68.4687C130.317 68.6557 130.381 68.7223 130.57 68.6685C137.143 66.8525 143.769 65.1043 150.448 63.4238C151.753 63.0966 153.133 62.7951 154.589 62.5193C158 61.8777 167.203 59.3325 164.331 67.0629C162.571 71.8097 157.071 71.5748 152.86 71.4732C141.932 71.2067 131.005 71.2465 120.081 71.5924C117.497 71.673 114.044 71.992 111.38 72.6126C101.7 74.8633 90.583 80.3604 96.932 92.6729C100.995 100.561 108.277 107.285 115.345 112.495C115.482 112.595 115.527 112.564 115.478 112.4L115.215 111.51Z" fill="black"/>
<path d="M199.449 108.677C199.351 108.796 199.319 108.967 199.354 109.189C199.37 109.308 199.321 109.383 199.207 109.413C198.945 109.486 198.757 109.405 198.642 109.171C198.561 109.005 198.478 109.005 198.393 109.171L198.313 109.333C198.231 109.494 198.141 109.498 198.043 109.347L197.955 109.21C197.873 109.081 197.788 109.079 197.699 109.203C197.529 109.441 197.287 109.502 196.974 109.385C196.934 109.371 196.913 109.342 196.91 109.297L196.903 109.164C196.902 109.146 196.896 109.128 196.886 109.112C196.876 109.096 196.861 109.084 196.845 109.076C196.828 109.067 196.809 109.064 196.791 109.065C196.772 109.067 196.754 109.073 196.739 109.084C196.435 109.303 196.392 109.516 196.609 109.722C196.616 109.728 196.621 109.737 196.624 109.746C196.627 109.755 196.627 109.765 196.626 109.774C196.624 109.783 196.62 109.791 196.614 109.798C196.608 109.805 196.6 109.81 196.591 109.813C196.538 109.834 196.497 109.82 196.469 109.771C196.42 109.682 196.358 109.719 196.283 109.883C196.178 110.112 195.994 110.187 195.733 110.107C195.644 110.079 195.592 110.111 195.578 110.202C195.569 110.258 195.549 110.307 195.519 110.349C195.472 110.422 195.41 110.451 195.333 110.437C195.298 110.43 195.266 110.415 195.238 110.391C195.194 110.349 195.18 110.299 195.196 110.241C195.231 110.117 195.3 110.056 195.403 110.058C195.553 110.063 195.57 110.017 195.456 109.922C195.355 109.837 195.234 109.795 195.091 109.795C194.967 109.795 194.899 109.857 194.888 109.981C194.853 110.329 194.678 110.582 194.365 110.738C194.26 110.792 194.175 110.868 194.109 110.966L193.899 111.278C193.871 111.32 193.835 111.331 193.79 111.31C193.751 111.291 193.734 111.263 193.741 111.226C193.744 111.212 193.744 111.198 193.74 111.185C193.737 111.172 193.73 111.16 193.721 111.15C193.711 111.14 193.7 111.132 193.687 111.128C193.674 111.123 193.66 111.122 193.647 111.124C193.504 111.14 193.42 111.21 193.394 111.334C193.373 111.423 193.317 111.459 193.226 111.443C192.976 111.399 192.789 111.472 192.665 111.664C192.581 111.788 192.501 111.785 192.427 111.657C192.324 111.475 192.167 111.4 191.957 111.433C191.859 111.449 191.781 111.498 191.725 111.58C191.59 111.771 191.418 111.839 191.21 111.783C191.124 111.762 191.063 111.711 191.028 111.629C190.941 111.435 190.786 111.375 190.561 111.45C190.522 111.463 190.479 111.464 190.44 111.451C190.4 111.438 190.365 111.414 190.341 111.38C190.282 111.293 190.207 111.228 190.116 111.184C190.023 111.139 189.958 111.166 189.923 111.264C189.881 111.381 189.812 111.441 189.717 111.443C189.27 111.448 188.821 111.449 188.37 111.447C188.298 111.444 188.249 111.409 188.223 111.341L188.192 111.25C188.177 111.209 188.148 111.174 188.109 111.153C188.07 111.131 188.025 111.125 187.981 111.135C187.736 111.188 187.581 111.122 187.518 110.935C187.483 110.827 187.41 110.771 187.298 110.766C186.243 110.72 185.574 110.715 185.289 110.752C185.004 110.792 184.804 110.737 184.689 110.588C184.626 110.506 184.545 110.451 184.447 110.423C183.9 110.269 183.357 110.256 182.817 110.384C182.742 110.401 182.683 110.378 182.638 110.318C182.603 110.269 182.546 110.222 182.467 110.177C182.392 110.135 182.312 110.114 182.228 110.114L181.786 110.118C181.651 110.118 181.583 110.051 181.583 109.918C181.583 109.796 181.541 109.696 181.457 109.617C181.373 109.537 181.273 109.504 181.159 109.518C180.881 109.551 180.654 109.468 180.479 109.269C180.371 109.143 180.285 109.067 180.219 109.042C180.126 109.002 180.038 108.985 179.956 108.992C179.844 109.004 179.8 109.065 179.823 109.175C179.865 109.355 179.95 109.479 180.079 109.546C180.252 109.638 180.244 109.708 180.054 109.757C179.723 109.841 179.45 109.788 179.238 109.599C179.196 109.562 179.142 109.542 179.086 109.541C179.03 109.54 178.976 109.56 178.933 109.595C178.69 109.801 178.477 109.782 178.295 109.539C178.231 109.453 178.146 109.417 178.039 109.431C177.866 109.452 177.723 109.387 177.611 109.238C177.538 109.144 177.444 109.107 177.327 109.126C177.131 109.156 176.951 109.102 176.787 108.964C176.737 108.923 176.679 108.894 176.616 108.88C176.553 108.866 176.488 108.868 176.426 108.884C176.19 108.947 175.966 108.948 175.753 108.887C175.666 108.864 175.594 108.82 175.535 108.754C175.44 108.649 175.299 108.623 175.115 108.677C174.972 108.719 174.876 108.664 174.827 108.512C174.788 108.398 174.708 108.349 174.589 108.365C174.348 108.4 174.114 108.384 173.888 108.316C173.785 108.285 173.687 108.295 173.593 108.344C173.453 108.419 173.317 108.426 173.187 108.365C173.105 108.325 173.021 108.321 172.934 108.351C172.873 108.372 172.808 108.384 172.738 108.386C172.616 108.388 172.601 108.429 172.692 108.509C172.746 108.555 172.818 108.564 172.91 108.533C173.015 108.498 173.06 108.536 173.046 108.645C173.037 108.737 172.988 108.838 172.899 108.95C170.44 107.553 168.615 106.631 167.423 106.184C157.042 102.296 145.824 99.5653 134.717 99.1096C127.933 98.8291 111.642 100.042 115.214 111.51C114.934 111.547 114.613 111.361 114.25 110.952C113.306 109.882 112.595 108.597 112.119 107.099C110.001 100.445 117.511 96.5643 122.619 95.0744C130.503 92.7781 139.047 92.2382 147.163 92.5116C156.049 92.8131 164.843 93.8754 173.544 95.6984C182.856 97.6441 192.072 102.686 199.449 108.677Z" fill="url(#paint0_linear_22_249)"/>
<path d="M199.449 108.677C209.17 116.695 217.213 126.441 223.814 137.337C223.823 137.352 223.829 137.368 223.831 137.385C223.833 137.402 223.832 137.42 223.827 137.437C223.822 137.453 223.814 137.469 223.802 137.483C223.791 137.496 223.777 137.508 223.762 137.516L223.653 137.572C223.632 137.583 223.61 137.589 223.587 137.59C223.564 137.591 223.541 137.588 223.519 137.579C223.498 137.57 223.479 137.557 223.463 137.54C223.447 137.523 223.436 137.503 223.429 137.481C223.319 137.135 223.07 136.971 222.682 136.99C222.656 136.991 222.63 136.984 222.608 136.969C222.587 136.955 222.57 136.935 222.56 136.91C222.551 136.886 222.549 136.86 222.555 136.834C222.561 136.809 222.575 136.786 222.594 136.769L222.699 136.681C222.767 136.623 222.771 136.562 222.71 136.499C222.621 136.406 222.505 136.375 222.363 136.408C222.283 136.427 222.234 136.476 222.215 136.555C222.204 136.604 222.177 136.645 222.135 136.678C222.053 136.739 221.97 136.738 221.886 136.674C221.849 136.646 221.824 136.61 221.812 136.566C221.789 136.489 221.739 136.438 221.662 136.415C221.423 136.343 221.248 136.395 221.136 136.573C221.088 136.648 221.016 136.705 220.932 136.734C220.675 136.825 220.495 136.756 220.392 136.527C220.379 136.5 220.358 136.477 220.331 136.462C220.305 136.447 220.274 136.44 220.244 136.443C220.213 136.446 220.185 136.457 220.161 136.477C220.137 136.496 220.12 136.522 220.112 136.552C220.084 136.655 220.012 136.725 219.895 136.762C219.874 136.769 219.852 136.771 219.83 136.767C219.808 136.764 219.788 136.756 219.77 136.743C219.753 136.73 219.739 136.713 219.729 136.694C219.72 136.675 219.715 136.654 219.716 136.632C219.718 136.537 219.683 136.465 219.611 136.418C219.508 136.351 219.446 136.378 219.425 136.499C219.409 136.595 219.361 136.67 219.281 136.724C219.181 136.794 219.109 136.771 219.067 136.657C218.978 136.409 218.79 136.33 218.503 136.418C218.384 136.454 218.337 136.532 218.363 136.653C218.395 136.805 218.359 136.941 218.254 137.06C218.109 137.226 218.013 137.201 217.966 136.986C217.945 136.893 217.942 136.796 217.956 136.695C217.962 136.633 217.947 136.571 217.912 136.52C217.878 136.468 217.826 136.431 217.767 136.415C217.694 136.396 217.619 136.394 217.542 136.408C217.435 136.429 217.354 136.486 217.3 136.58C217.275 136.627 217.242 136.666 217.202 136.699C217.123 136.762 217.053 136.754 216.992 136.674C216.777 136.385 216.468 136.305 216.066 136.436C215.984 136.462 215.926 136.514 215.891 136.594C215.856 136.664 215.802 136.715 215.73 136.748C215.71 136.756 215.689 136.76 215.668 136.759C215.647 136.758 215.626 136.753 215.608 136.743C215.589 136.734 215.573 136.72 215.56 136.703C215.547 136.686 215.538 136.667 215.533 136.646C215.519 136.576 215.49 136.511 215.446 136.45C215.427 136.427 215.401 136.41 215.372 136.403C215.343 136.396 215.312 136.398 215.285 136.41C215.257 136.422 215.234 136.443 215.22 136.469C215.205 136.495 215.2 136.526 215.204 136.555C215.23 136.709 215.213 136.858 215.155 137C215.145 137.024 215.129 137.045 215.109 137.062C215.09 137.078 215.066 137.089 215.041 137.095C215.016 137.1 214.989 137.099 214.965 137.092C214.94 137.084 214.917 137.071 214.899 137.053C214.787 136.936 214.755 136.792 214.804 136.622C214.811 136.597 214.812 136.571 214.808 136.545C214.803 136.52 214.792 136.496 214.777 136.475C214.761 136.454 214.741 136.437 214.718 136.426C214.694 136.414 214.669 136.408 214.643 136.408H213.773C213.629 136.408 213.52 136.469 213.447 136.59C213.34 136.77 213.169 136.809 212.936 136.706C212.844 136.666 212.76 136.615 212.683 136.552C212.314 136.255 211.945 136.296 211.575 136.674C211.498 136.754 211.415 136.76 211.326 136.692C211.273 136.652 211.239 136.597 211.225 136.527C211.199 136.422 211.141 136.397 211.049 136.454C211 136.486 210.986 136.533 211.007 136.594C211.014 136.611 211.016 136.63 211.013 136.648C211.011 136.667 211.004 136.684 210.994 136.7C210.984 136.715 210.97 136.727 210.954 136.735C210.938 136.744 210.92 136.748 210.902 136.748H210.709C210.667 136.748 210.642 136.726 210.632 136.681C210.59 136.476 210.438 136.385 210.177 136.408C210.05 136.417 209.964 136.473 209.917 136.576C209.875 136.665 209.806 136.722 209.71 136.748C209.399 136.828 209.125 136.785 208.886 136.622C208.793 136.556 208.694 136.501 208.588 136.457C208.252 136.312 207.994 136.355 207.814 136.587C207.725 136.701 207.608 136.759 207.463 136.759H206.594C206.575 136.759 206.556 136.755 206.539 136.748C206.521 136.74 206.505 136.73 206.492 136.716C206.447 136.677 206.416 136.637 206.397 136.597C206.332 136.462 206.238 136.438 206.117 136.527C205.719 136.81 205.27 136.866 204.767 136.695C204.688 136.67 204.644 136.615 204.637 136.531C204.63 136.454 204.545 136.415 204.381 136.415C204.351 136.415 204.319 136.415 204.287 136.415C204.004 136.431 203.72 136.422 203.435 136.387C203.403 136.383 203.371 136.392 203.345 136.411C203.319 136.431 203.301 136.46 203.295 136.492C203.288 136.532 203.274 136.57 203.253 136.608C203.203 136.701 203.125 136.748 203.018 136.748H201.759C201.652 136.748 201.567 136.705 201.507 136.618L201.437 136.524C201.408 136.484 201.314 136.443 201.153 136.401C200.959 136.352 200.837 136.428 200.788 136.629C200.781 136.656 200.767 136.68 200.747 136.7C200.728 136.72 200.703 136.734 200.676 136.74C200.649 136.747 200.621 136.747 200.594 136.739C200.568 136.731 200.544 136.716 200.525 136.695C200.476 136.639 200.427 136.582 200.378 136.524C200.23 136.341 200.15 136.332 200.136 136.496C200.131 136.556 200.108 136.609 200.066 136.653C199.989 136.738 199.903 136.746 199.81 136.678C199.754 136.636 199.724 136.579 199.722 136.506C199.723 136.487 199.72 136.468 199.714 136.451C199.708 136.433 199.698 136.416 199.685 136.402C199.672 136.388 199.657 136.377 199.64 136.369C199.623 136.361 199.604 136.356 199.585 136.355C199.567 136.354 199.548 136.357 199.53 136.364C199.512 136.37 199.496 136.38 199.482 136.393C199.468 136.405 199.456 136.421 199.448 136.438C199.44 136.455 199.436 136.473 199.435 136.492C199.428 136.548 199.405 136.602 199.368 136.653C199.3 136.749 199.209 136.781 199.095 136.748C198.87 136.685 198.721 136.748 198.646 136.937C198.636 136.963 198.617 136.985 198.594 137.001C198.57 137.016 198.543 137.023 198.515 137.021C198.487 137.02 198.46 137.01 198.438 136.992C198.416 136.974 198.401 136.95 198.393 136.923C198.354 136.781 198.258 136.718 198.106 136.734C197.994 136.748 197.913 136.705 197.864 136.604C197.803 136.478 197.699 136.424 197.552 136.443C197.454 136.457 197.377 136.504 197.321 136.583C197.199 136.759 197.024 136.812 196.795 136.745C196.739 136.728 196.679 136.686 196.616 136.618C196.583 136.586 196.549 136.555 196.514 136.527C196.456 136.478 196.406 136.485 196.364 136.548L196.255 136.706C196.201 136.785 196.128 136.839 196.034 136.867C195.842 136.923 195.693 136.87 195.585 136.706C195.529 136.62 195.457 136.549 195.368 136.496C195.235 136.419 195.093 136.382 194.944 136.387C194.778 136.394 194.744 136.465 194.842 136.601C195.022 136.846 195.009 137.089 194.803 137.33C190.593 125.806 183.448 115.461 172.899 108.95C172.988 108.838 173.037 108.737 173.046 108.645C173.06 108.536 173.015 108.498 172.91 108.533C172.818 108.564 172.746 108.555 172.692 108.509C172.601 108.429 172.616 108.388 172.738 108.386C172.808 108.384 172.873 108.372 172.934 108.351C173.021 108.321 173.105 108.325 173.187 108.365C173.317 108.426 173.453 108.419 173.593 108.344C173.687 108.295 173.785 108.285 173.888 108.316C174.114 108.384 174.348 108.4 174.589 108.365C174.708 108.349 174.788 108.398 174.827 108.512C174.876 108.664 174.972 108.719 175.115 108.677C175.299 108.623 175.44 108.649 175.535 108.754C175.594 108.82 175.666 108.864 175.753 108.887C175.966 108.948 176.19 108.947 176.426 108.884C176.488 108.868 176.553 108.866 176.616 108.88C176.679 108.894 176.737 108.923 176.787 108.964C176.951 109.102 177.131 109.156 177.327 109.126C177.444 109.107 177.538 109.144 177.611 109.238C177.723 109.387 177.866 109.452 178.039 109.431C178.146 109.417 178.231 109.453 178.295 109.539C178.477 109.782 178.69 109.801 178.933 109.595C178.976 109.56 179.03 109.54 179.086 109.541C179.142 109.542 179.196 109.562 179.238 109.599C179.45 109.788 179.723 109.841 180.054 109.757C180.244 109.708 180.252 109.638 180.079 109.546C179.95 109.479 179.865 109.355 179.823 109.175C179.8 109.065 179.844 109.004 179.956 108.992C180.038 108.985 180.126 109.002 180.219 109.042C180.285 109.067 180.371 109.143 180.479 109.269C180.654 109.468 180.881 109.551 181.159 109.518C181.273 109.504 181.373 109.537 181.457 109.617C181.541 109.696 181.583 109.796 181.583 109.918C181.583 110.051 181.651 110.118 181.786 110.118L182.228 110.114C182.312 110.114 182.392 110.135 182.467 110.177C182.546 110.222 182.603 110.269 182.638 110.318C182.683 110.378 182.742 110.401 182.817 110.384C183.357 110.256 183.9 110.269 184.447 110.423C184.545 110.451 184.626 110.506 184.689 110.588C184.804 110.737 185.004 110.792 185.289 110.752C185.574 110.715 186.243 110.72 187.298 110.766C187.41 110.771 187.483 110.827 187.518 110.935C187.581 111.122 187.736 111.188 187.981 111.135C188.025 111.125 188.07 111.131 188.109 111.153C188.148 111.174 188.177 111.209 188.192 111.25L188.223 111.341C188.249 111.409 188.298 111.444 188.37 111.447C188.821 111.449 189.27 111.448 189.717 111.443C189.812 111.441 189.881 111.381 189.923 111.264C189.958 111.166 190.023 111.139 190.116 111.184C190.207 111.228 190.282 111.293 190.341 111.38C190.365 111.414 190.4 111.438 190.44 111.451C190.479 111.464 190.522 111.463 190.561 111.45C190.786 111.375 190.941 111.435 191.028 111.629C191.063 111.711 191.124 111.762 191.21 111.783C191.418 111.839 191.59 111.771 191.725 111.58C191.781 111.498 191.859 111.449 191.957 111.433C192.167 111.4 192.324 111.475 192.427 111.657C192.501 111.785 192.581 111.788 192.665 111.664C192.789 111.472 192.976 111.399 193.226 111.443C193.317 111.459 193.373 111.423 193.394 111.334C193.42 111.21 193.504 111.14 193.647 111.124C193.66 111.122 193.674 111.123 193.687 111.128C193.7 111.132 193.711 111.14 193.721 111.15C193.73 111.16 193.737 111.172 193.74 111.185C193.744 111.198 193.744 111.212 193.741 111.226C193.734 111.263 193.751 111.291 193.79 111.31C193.835 111.331 193.871 111.32 193.899 111.278L194.109 110.966C194.175 110.868 194.26 110.792 194.365 110.738C194.678 110.582 194.853 110.329 194.888 109.981C194.899 109.857 194.967 109.795 195.091 109.795C195.234 109.795 195.355 109.837 195.456 109.922C195.57 110.017 195.553 110.063 195.403 110.058C195.3 110.056 195.231 110.117 195.196 110.241C195.18 110.299 195.194 110.349 195.238 110.391C195.266 110.415 195.298 110.43 195.333 110.437C195.41 110.451 195.472 110.422 195.519 110.349C195.549 110.307 195.569 110.258 195.578 110.202C195.592 110.111 195.644 110.079 195.733 110.107C195.994 110.187 196.178 110.112 196.283 109.883C196.358 109.719 196.42 109.682 196.469 109.771C196.497 109.82 196.538 109.834 196.591 109.813C196.6 109.81 196.608 109.805 196.614 109.798C196.62 109.791 196.624 109.783 196.626 109.774C196.627 109.765 196.627 109.755 196.624 109.746C196.621 109.737 196.616 109.728 196.609 109.722C196.392 109.516 196.435 109.303 196.739 109.084C196.754 109.073 196.772 109.067 196.791 109.065C196.809 109.064 196.828 109.067 196.845 109.076C196.861 109.084 196.876 109.096 196.886 109.112C196.896 109.128 196.902 109.146 196.903 109.164L196.91 109.297C196.913 109.342 196.934 109.371 196.974 109.385C197.287 109.502 197.529 109.441 197.699 109.203C197.788 109.079 197.873 109.081 197.955 109.21L198.043 109.347C198.141 109.498 198.231 109.494 198.313 109.333L198.393 109.171C198.478 109.005 198.561 109.005 198.642 109.171C198.757 109.405 198.945 109.486 199.207 109.413C199.321 109.383 199.37 109.308 199.354 109.189C199.319 108.967 199.351 108.796 199.449 108.677Z" fill="url(#paint1_linear_22_249)"/>
<path d="M49.3313 277.375C48.2761 276.623 45.9674 274.439 46.5622 272.968C46.8659 272.21 48.4935 271.389 49.1874 271.363C51.3831 271.284 53.6779 271.243 56.0718 271.238C56.5387 271.238 56.8371 271.014 56.9671 270.564L57.0119 270.404C57.0345 270.326 57.037 270.243 57.0191 270.164C57.0012 270.084 56.9636 270.011 56.9097 269.95C56.8557 269.889 56.7873 269.843 56.7107 269.815C56.6341 269.788 56.5518 269.78 56.4715 269.793C55.621 269.924 52.1388 270.784 52.0333 270.743C52.0006 270.729 51.9714 270.709 51.9475 270.683C51.9237 270.657 51.9059 270.627 51.8955 270.593C51.8851 270.56 51.8823 270.525 51.8873 270.49C51.8923 270.456 51.905 270.423 51.9245 270.394C52.4255 269.65 53.0501 269.072 53.7983 268.658C55.1701 267.897 57.3413 267.859 59.0104 267.715C59.9015 267.64 60.6465 267.526 61.2455 267.373C62.2517 267.112 62.9637 266.848 63.3815 266.58C65.6326 265.138 67.2623 263.192 68.2707 260.741C68.2854 260.705 68.2912 260.666 68.2874 260.628C68.2835 260.59 68.2703 260.553 68.2487 260.521C68.2272 260.489 68.1981 260.463 68.1639 260.445C68.1298 260.427 68.0918 260.417 68.0532 260.418C61.8435 260.452 55.6625 260.5 49.5104 260.562C46.2072 260.594 43.4125 262.682 42.0504 265.614C41.219 267.402 40.4334 269.211 39.6937 271.04C37.0077 277.663 34.4507 284.303 32.0227 290.958C32.0016 291.017 31.9951 291.081 32.0037 291.143C32.0123 291.205 32.0359 291.264 32.0723 291.315C32.1087 291.366 32.1569 291.408 32.2129 291.437C32.2688 291.465 32.3308 291.48 32.3936 291.479L43.3614 291.402C43.6733 291.401 43.9762 291.298 44.2246 291.109C44.4731 290.921 44.6538 290.657 44.7395 290.357C45.4334 287.923 45.5901 285.925 48.0842 284.592C48.1183 284.575 48.1546 284.567 48.1929 284.569C48.2292 284.569 48.2654 284.568 48.3017 284.566C48.355 284.564 48.4082 284.549 48.4615 284.521C49.2588 284.091 50.0603 283.873 50.8661 283.869C54.6095 283.843 58.3347 283.837 62.0417 283.85C62.066 283.849 62.09 283.844 62.1121 283.834C62.1341 283.824 62.1537 283.809 62.1695 283.791C62.1852 283.773 62.1968 283.751 62.2035 283.728C62.2101 283.706 62.2117 283.681 62.208 283.658C61.6836 280.099 60.2223 277.349 56.5866 276.236C55.3268 275.853 49.0371 274.41 49.4784 277.282C49.5018 277.429 49.4528 277.46 49.3313 277.375Z" stroke="#808080" stroke-width="2"/>
<path d="M80.1358 260.498C80.1173 260.498 80.099 260.502 80.0828 260.511C80.0666 260.52 80.0529 260.533 80.0431 260.549L65.7274 283.949C65.7171 283.965 65.7114 283.984 65.711 284.004C65.7105 284.023 65.7152 284.042 65.7247 284.059C65.7342 284.076 65.748 284.09 65.7648 284.1C65.7816 284.11 65.8007 284.115 65.8202 284.115L71.902 284.118C71.9214 284.119 71.9405 284.114 71.9573 284.104C71.9742 284.095 71.9882 284.081 71.9979 284.064L82.1791 266.391C82.1906 266.371 82.2079 266.356 82.2286 266.347C82.2494 266.338 82.2724 266.335 82.2946 266.34C82.3168 266.344 82.337 266.356 82.3524 266.372C82.3678 266.389 82.3776 266.41 82.3805 266.432L83.4485 275.29C83.4503 275.305 83.4489 275.32 83.4445 275.335C83.44 275.349 83.4326 275.362 83.4226 275.374C83.4127 275.385 83.4005 275.395 83.3868 275.401C83.373 275.407 83.3581 275.411 83.343 275.411L78.5178 275.434C78.4984 275.433 78.4793 275.438 78.4624 275.448C78.4456 275.457 78.4316 275.471 78.4219 275.488L75.8574 279.926C75.8479 279.943 75.8429 279.961 75.8428 279.98C75.8428 279.999 75.8477 280.018 75.8571 280.034C75.8664 280.051 75.8799 280.065 75.8963 280.074C75.9126 280.084 75.9312 280.089 75.9501 280.089H84.0081C84.0344 280.089 84.0598 280.098 84.0798 280.115C84.0998 280.132 84.1129 280.156 84.1168 280.182L84.6316 284.026C84.6355 284.052 84.6486 284.075 84.6686 284.092C84.6886 284.109 84.7141 284.119 84.7403 284.118L90.4864 284.115C90.5021 284.115 90.5177 284.112 90.5321 284.106C90.5464 284.099 90.5592 284.09 90.5695 284.078C90.5799 284.066 90.5875 284.052 90.5919 284.037C90.5964 284.022 90.5974 284.006 90.5951 283.99L87.0458 260.594C87.042 260.568 87.0293 260.545 87.01 260.528C86.9907 260.511 86.966 260.501 86.9403 260.501L80.1358 260.498Z" stroke="#808080" stroke-width="2"/>
<path d="M103.168 265.412C103.188 265.412 103.208 265.417 103.226 265.426C103.244 265.434 103.26 265.447 103.273 265.463C103.285 265.478 103.294 265.496 103.299 265.516C103.303 265.536 103.304 265.556 103.299 265.575L99.216 283.955C99.2117 283.975 99.2118 283.995 99.2164 284.015C99.221 284.034 99.2299 284.053 99.2425 284.068C99.2551 284.084 99.271 284.096 99.2891 284.105C99.3072 284.114 99.327 284.118 99.3471 284.118L104.943 284.115C104.973 284.115 105.003 284.105 105.027 284.085C105.051 284.066 105.067 284.039 105.074 284.01L109.176 265.518C109.183 265.488 109.2 265.461 109.223 265.442C109.247 265.423 109.277 265.412 109.308 265.412H115.968C115.999 265.412 116.028 265.402 116.052 265.383C116.076 265.364 116.093 265.337 116.099 265.307L117.148 260.661C117.152 260.641 117.152 260.621 117.148 260.601C117.143 260.582 117.134 260.563 117.122 260.548C117.109 260.532 117.093 260.52 117.075 260.511C117.057 260.502 117.037 260.498 117.017 260.498L97.6587 260.501C97.6281 260.501 97.5985 260.511 97.5746 260.531C97.5508 260.55 97.5342 260.576 97.5276 260.606L96.4948 265.249C96.4905 265.269 96.4907 265.289 96.4953 265.309C96.4998 265.328 96.5087 265.347 96.5213 265.362C96.5339 265.378 96.5498 265.39 96.5679 265.399C96.586 265.408 96.6058 265.412 96.6259 265.412H103.168Z" stroke="#808080" stroke-width="2"/>
<path d="M125.147 268.594L126.89 260.859C126.939 260.642 126.853 260.528 126.631 260.517C123.389 260.344 121.016 261.55 120.213 264.898C119.606 267.428 119.236 269.094 119.104 269.895C118.679 272.46 120.044 273.346 122.493 273.828C124.081 274.144 125.664 274.484 127.242 274.848C127.514 274.909 127.811 274.845 128.083 274.938C128.729 275.165 129.378 275.283 129.992 275.434C130.237 275.491 130.332 275.643 130.276 275.888L128.482 283.965C128.481 283.972 128.481 283.979 128.482 283.987C128.483 283.994 128.486 284.001 128.49 284.007C128.494 284.013 128.499 284.018 128.505 284.021C128.511 284.025 128.517 284.028 128.524 284.029C130.881 284.441 133.445 283.632 134.583 281.458C134.831 280.983 134.996 280.592 135.079 280.288C135.277 279.563 135.652 277.882 136.205 275.245C136.403 274.292 136.471 273.627 136.409 273.25C136.077 271.293 134.762 271.053 133.17 270.605C132.697 270.473 132.285 270.377 131.936 270.318C130.774 270.113 129.619 269.876 128.47 269.608C127.536 269.39 126.55 269.223 125.512 269.106C125.453 269.099 125.396 269.08 125.345 269.05C125.294 269.02 125.25 268.979 125.215 268.931C125.181 268.883 125.157 268.828 125.145 268.77C125.134 268.712 125.134 268.652 125.147 268.594Z" stroke="#808080" stroke-width="2"/>
<path d="M132.655 265.579L132.275 267.309C132.269 267.336 132.27 267.365 132.276 267.393C132.283 267.421 132.296 267.446 132.314 267.469C132.332 267.491 132.355 267.508 132.381 267.52C132.407 267.533 132.435 267.539 132.463 267.539L137.698 267.523C137.802 267.523 137.871 267.473 137.902 267.372C138.919 264.085 139.498 260.507 134.804 260.504C132.691 260.504 130.594 260.501 128.511 260.494C128.471 260.494 128.433 260.508 128.402 260.533C128.371 260.558 128.35 260.593 128.342 260.632L127.293 265.259C127.29 265.27 127.29 265.282 127.292 265.293C127.295 265.305 127.3 265.315 127.307 265.324C127.315 265.334 127.324 265.341 127.335 265.346C127.346 265.352 127.358 265.355 127.37 265.355L132.486 265.364C132.512 265.364 132.538 265.37 132.561 265.381C132.585 265.392 132.605 265.409 132.622 265.43C132.638 265.45 132.649 265.474 132.655 265.5C132.661 265.526 132.661 265.553 132.655 265.579Z" stroke="#808080" stroke-width="2"/>
<path d="M149.379 260.715C149.386 260.688 149.386 260.659 149.379 260.632C149.373 260.605 149.361 260.579 149.343 260.557C149.326 260.536 149.303 260.518 149.278 260.506C149.253 260.494 149.225 260.488 149.197 260.488L143.694 260.517C143.652 260.517 143.612 260.532 143.58 260.558C143.547 260.584 143.524 260.62 143.515 260.661L138.364 283.888C138.357 283.915 138.357 283.943 138.363 283.97C138.369 283.997 138.382 284.023 138.399 284.045C138.416 284.066 138.438 284.084 138.463 284.096C138.488 284.108 138.515 284.115 138.543 284.115H144.023C144.066 284.115 144.107 284.101 144.14 284.075C144.173 284.049 144.196 284.012 144.206 283.971L149.379 260.715Z" stroke="#808080" stroke-width="2"/>
<path d="M157.759 284.118C157.795 284.118 157.831 284.106 157.859 284.084C157.888 284.061 157.908 284.029 157.916 283.994L163.086 260.699C163.091 260.676 163.091 260.652 163.086 260.629C163.081 260.605 163.071 260.584 163.056 260.565C163.041 260.546 163.022 260.531 163.001 260.521C162.98 260.51 162.956 260.504 162.933 260.504L157.391 260.501C157.355 260.501 157.319 260.513 157.291 260.536C157.262 260.558 157.243 260.59 157.235 260.626L155.258 269.531C155.25 269.566 155.231 269.598 155.202 269.621C155.174 269.643 155.138 269.656 155.102 269.656L148.895 269.659C148.859 269.659 148.825 269.672 148.797 269.695C148.769 269.717 148.75 269.749 148.742 269.783L147.75 274.398C147.745 274.421 147.745 274.445 147.751 274.469C147.756 274.492 147.767 274.514 147.782 274.533C147.797 274.552 147.816 274.567 147.838 274.577C147.859 274.587 147.883 274.593 147.907 274.593L153.951 274.58C153.975 274.58 153.998 274.585 154.02 274.595C154.042 274.606 154.061 274.621 154.076 274.64C154.091 274.658 154.102 274.68 154.107 274.704C154.113 274.727 154.113 274.751 154.107 274.775L152.064 283.917C152.059 283.94 152.059 283.964 152.064 283.987C152.069 284.011 152.08 284.032 152.094 284.051C152.109 284.07 152.128 284.085 152.149 284.095C152.17 284.106 152.194 284.112 152.218 284.112L157.759 284.118Z" stroke="#808080" stroke-width="2"/>
<path d="M170.036 279.197C170.012 279.197 169.988 279.192 169.966 279.182C169.945 279.171 169.926 279.156 169.911 279.137C169.895 279.119 169.885 279.097 169.879 279.073C169.874 279.05 169.874 279.026 169.879 279.002L173.943 260.686C173.949 260.663 173.949 260.639 173.943 260.616C173.938 260.593 173.928 260.571 173.913 260.552C173.898 260.534 173.88 260.518 173.858 260.508C173.837 260.497 173.814 260.492 173.79 260.491L168.242 260.504C168.206 260.504 168.17 260.516 168.142 260.539C168.113 260.562 168.093 260.593 168.085 260.629L162.912 283.92C162.906 283.943 162.906 283.967 162.912 283.991C162.917 284.014 162.927 284.035 162.942 284.054C162.957 284.073 162.975 284.088 162.997 284.099C163.018 284.109 163.041 284.115 163.065 284.115H179.609C179.646 284.115 179.681 284.103 179.71 284.08C179.738 284.058 179.758 284.026 179.766 283.99L180.783 279.392C180.788 279.369 180.788 279.344 180.783 279.321C180.777 279.298 180.767 279.276 180.752 279.257C180.737 279.238 180.718 279.223 180.696 279.213C180.674 279.202 180.65 279.197 180.626 279.197H170.036Z" stroke="#808080" stroke-width="2"/>
<path d="M190.192 274.804C190.199 274.826 190.212 274.846 190.229 274.862C190.246 274.877 190.268 274.888 190.291 274.892C190.314 274.896 190.337 274.893 190.359 274.884C190.381 274.876 190.399 274.861 190.413 274.842L194.336 269.397C194.347 269.382 194.355 269.364 194.358 269.346C194.361 269.328 194.36 269.309 194.356 269.291L192.05 260.6C192.043 260.573 192.027 260.55 192.005 260.533C191.983 260.516 191.956 260.507 191.929 260.507L186.208 260.488C186.189 260.488 186.169 260.492 186.152 260.501C186.134 260.509 186.119 260.522 186.107 260.537C186.095 260.553 186.087 260.571 186.084 260.59C186.08 260.609 186.081 260.629 186.087 260.648L190.192 274.804Z" stroke="#808080" stroke-width="2"/>
<path d="M196.227 277.624C196.384 276.901 196.368 276.38 196.838 275.747C200.511 270.795 204.222 265.784 207.972 260.715C207.988 260.695 207.997 260.67 207.999 260.644C208.002 260.619 207.997 260.593 207.985 260.57C207.973 260.547 207.956 260.527 207.933 260.514C207.911 260.501 207.886 260.494 207.86 260.494L202.341 260.504C202.196 260.504 202.081 260.564 201.996 260.683C198.325 265.874 194.64 271.077 190.942 276.294C190.605 276.767 190.37 277.285 190.238 277.848C189.758 279.894 189.305 281.932 188.879 283.962C188.875 283.98 188.876 283.999 188.88 284.018C188.884 284.036 188.893 284.053 188.904 284.068C188.916 284.083 188.931 284.095 188.947 284.103C188.964 284.111 188.982 284.115 189.001 284.115L194.577 284.118C194.66 284.118 194.713 284.077 194.734 283.994C195.267 281.87 195.765 279.747 196.227 277.624Z" stroke="#808080" stroke-width="2"/>
<path d="M127.054 284.022L128.081 279.427C128.086 279.406 128.086 279.384 128.081 279.362C128.077 279.34 128.067 279.32 128.053 279.303C128.039 279.285 128.022 279.271 128.002 279.261C127.981 279.251 127.959 279.246 127.937 279.245H122.798C122.767 279.245 122.737 279.239 122.709 279.225C122.681 279.212 122.656 279.193 122.637 279.169C122.617 279.144 122.603 279.116 122.596 279.086C122.588 279.055 122.587 279.023 122.594 278.993L122.936 277.272C122.941 277.245 122.94 277.217 122.933 277.19C122.926 277.163 122.913 277.138 122.896 277.117C122.878 277.095 122.856 277.078 122.831 277.066C122.805 277.055 122.778 277.048 122.75 277.048L117.375 277.036C117.277 277.036 117.217 277.085 117.196 277.183C116.745 279.395 115.46 282.763 118.334 283.827C118.823 284.009 119.738 284.103 121.081 284.112C123.04 284.123 124.996 284.122 126.949 284.109C126.974 284.109 126.998 284.1 127.017 284.084C127.036 284.068 127.049 284.047 127.054 284.022Z" stroke="#808080" stroke-width="2"/>
<path d="M49.4784 277.282C49.0371 274.41 55.3268 275.853 56.5866 276.236C60.2223 277.349 61.6836 280.099 62.208 283.658C62.2117 283.681 62.2101 283.706 62.2035 283.729C62.1968 283.751 62.1852 283.773 62.1695 283.791C62.1537 283.809 62.1341 283.824 62.1121 283.834C62.09 283.844 62.066 283.85 62.0417 283.85C58.3347 283.837 54.6095 283.843 50.8661 283.869C50.0603 283.873 49.2588 284.091 48.4615 284.521C48.4082 284.549 48.355 284.564 48.3017 284.566C48.2654 284.568 48.2292 284.569 48.1929 284.569C48.1546 284.567 48.1183 284.575 48.0842 284.592C45.5901 285.925 45.4334 287.923 44.7395 290.357C44.6538 290.657 44.4731 290.921 44.2246 291.109C43.9762 291.298 43.6733 291.401 43.3614 291.402L32.3936 291.479C32.3308 291.48 32.2688 291.465 32.2129 291.437C32.1569 291.408 32.1087 291.366 32.0723 291.315C32.0359 291.264 32.0123 291.205 32.0037 291.143C31.9951 291.081 32.0016 291.017 32.0227 290.958C34.4507 284.303 37.0077 277.663 39.6937 271.04C40.4334 269.211 41.219 267.402 42.0504 265.614C43.4125 262.682 46.2072 260.594 49.5104 260.562C55.6625 260.5 61.8435 260.452 68.0532 260.418C68.0918 260.417 68.1298 260.427 68.1639 260.445C68.1981 260.463 68.2272 260.489 68.2487 260.521C68.2703 260.553 68.2835 260.59 68.2874 260.628C68.2912 260.666 68.2854 260.705 68.2707 260.741C67.2623 263.192 65.6326 265.138 63.3815 266.58C62.9637 266.848 62.2517 267.112 61.2455 267.373C60.6465 267.526 59.9015 267.64 59.0104 267.715C57.3413 267.859 55.1701 267.897 53.7983 268.658C53.0501 269.072 52.4255 269.65 51.9245 270.394C51.905 270.423 51.8923 270.456 51.8873 270.49C51.8823 270.525 51.8851 270.56 51.8955 270.593C51.9059 270.627 51.9237 270.657 51.9475 270.683C51.9714 270.709 52.0006 270.73 52.0333 270.743C52.1388 270.784 55.621 269.924 56.4715 269.793C56.5518 269.78 56.6341 269.788 56.7107 269.815C56.7873 269.843 56.8557 269.889 56.9097 269.95C56.9636 270.011 57.0012 270.084 57.0191 270.164C57.037 270.243 57.0345 270.326 57.0119 270.404L56.9671 270.564C56.8371 271.014 56.5387 271.238 56.0718 271.238C53.6779 271.243 51.3831 271.284 49.1874 271.363C48.4935 271.389 46.8659 272.21 46.5622 272.968C45.9674 274.439 48.2761 276.623 49.3313 277.375C49.4528 277.46 49.5018 277.429 49.4784 277.282Z" fill="black"/>
<path d="M80.1358 260.498L86.9403 260.501C86.966 260.501 86.9907 260.511 87.01 260.528C87.0293 260.545 87.042 260.568 87.0458 260.594L90.5951 283.99C90.5974 284.006 90.5964 284.022 90.5919 284.037C90.5875 284.052 90.5799 284.066 90.5695 284.078C90.5592 284.09 90.5464 284.099 90.5321 284.106C90.5177 284.112 90.5021 284.115 90.4864 284.115L84.7403 284.118C84.7141 284.119 84.6886 284.109 84.6686 284.092C84.6486 284.075 84.6355 284.052 84.6316 284.026L84.1168 280.182C84.1129 280.156 84.0998 280.132 84.0798 280.115C84.0598 280.098 84.0344 280.089 84.0081 280.089H75.9501C75.9312 280.089 75.9126 280.084 75.8963 280.074C75.8799 280.065 75.8664 280.051 75.8571 280.034C75.8477 280.018 75.8428 279.999 75.8428 279.98C75.8429 279.961 75.8479 279.943 75.8574 279.926L78.4219 275.488C78.4316 275.471 78.4456 275.457 78.4624 275.448C78.4793 275.438 78.4984 275.433 78.5178 275.434L83.343 275.411C83.3581 275.411 83.373 275.407 83.3868 275.401C83.4005 275.395 83.4127 275.385 83.4226 275.374C83.4326 275.362 83.44 275.349 83.4445 275.335C83.4489 275.32 83.4503 275.305 83.4485 275.29L82.3805 266.432C82.3776 266.41 82.3678 266.389 82.3524 266.372C82.337 266.356 82.3168 266.344 82.2946 266.34C82.2724 266.335 82.2494 266.338 82.2286 266.347C82.2079 266.356 82.1906 266.371 82.1791 266.391L71.9979 284.064C71.9882 284.081 71.9742 284.095 71.9573 284.104C71.9405 284.114 71.9214 284.119 71.902 284.118L65.8202 284.115C65.8007 284.115 65.7816 284.11 65.7648 284.1C65.748 284.09 65.7342 284.076 65.7247 284.059C65.7152 284.042 65.7105 284.023 65.711 284.004C65.7114 283.984 65.7171 283.965 65.7274 283.949L80.0431 260.549C80.0529 260.533 80.0666 260.52 80.0828 260.511C80.099 260.502 80.1173 260.498 80.1358 260.498Z" fill="black"/>
<path d="M103.168 265.412H96.6259C96.6058 265.412 96.586 265.408 96.5679 265.399C96.5498 265.391 96.5339 265.378 96.5213 265.362C96.5087 265.347 96.4998 265.328 96.4953 265.309C96.4907 265.289 96.4905 265.269 96.4948 265.249L97.5276 260.606C97.5342 260.577 97.5508 260.55 97.5746 260.531C97.5985 260.511 97.6281 260.501 97.6587 260.501L117.017 260.498C117.037 260.498 117.057 260.502 117.075 260.511C117.093 260.52 117.109 260.532 117.122 260.548C117.134 260.563 117.143 260.582 117.148 260.601C117.152 260.621 117.152 260.641 117.148 260.661L116.099 265.307C116.093 265.337 116.076 265.364 116.052 265.383C116.028 265.402 115.999 265.412 115.968 265.412H109.308C109.277 265.412 109.247 265.423 109.223 265.442C109.2 265.461 109.183 265.488 109.176 265.518L105.074 284.01C105.067 284.04 105.051 284.066 105.027 284.085C105.003 284.105 104.973 284.115 104.943 284.115L99.3471 284.118C99.327 284.118 99.3072 284.114 99.2891 284.105C99.271 284.096 99.2551 284.084 99.2425 284.068C99.2299 284.053 99.221 284.034 99.2164 284.015C99.2118 283.995 99.2117 283.975 99.216 283.955L103.299 265.575C103.304 265.556 103.303 265.536 103.299 265.516C103.294 265.496 103.285 265.478 103.273 265.463C103.26 265.447 103.244 265.434 103.226 265.426C103.208 265.417 103.188 265.412 103.168 265.412Z" fill="black"/>
<path d="M126.89 260.859L125.147 268.594C125.134 268.652 125.134 268.712 125.145 268.77C125.157 268.828 125.181 268.883 125.215 268.931C125.25 268.979 125.294 269.02 125.345 269.05C125.396 269.08 125.453 269.099 125.512 269.106C126.55 269.223 127.536 269.39 128.47 269.608C129.619 269.876 130.774 270.113 131.936 270.318C132.285 270.377 132.697 270.473 133.17 270.605C134.762 271.053 136.077 271.293 136.409 273.25C136.471 273.627 136.403 274.292 136.205 275.245C135.652 277.882 135.277 279.563 135.079 280.288C134.996 280.592 134.831 280.983 134.583 281.458C133.445 283.632 130.881 284.441 128.524 284.029C128.517 284.028 128.511 284.025 128.505 284.021C128.499 284.018 128.494 284.013 128.49 284.007C128.486 284.001 128.483 283.994 128.482 283.987C128.481 283.979 128.481 283.972 128.482 283.965L130.276 275.888C130.332 275.643 130.237 275.491 129.992 275.434C129.378 275.283 128.729 275.165 128.083 274.938C127.811 274.845 127.514 274.909 127.242 274.848C125.664 274.484 124.081 274.144 122.493 273.828C120.044 273.346 118.679 272.46 119.104 269.895C119.236 269.094 119.606 267.428 120.213 264.898C121.016 261.55 123.389 260.344 126.631 260.517C126.853 260.528 126.939 260.642 126.89 260.859Z" fill="black"/>
<path d="M132.655 265.579C132.661 265.553 132.661 265.526 132.655 265.5C132.649 265.474 132.638 265.45 132.622 265.43C132.605 265.409 132.585 265.392 132.561 265.381C132.538 265.37 132.512 265.364 132.486 265.364L127.37 265.355C127.358 265.355 127.346 265.352 127.335 265.347C127.324 265.341 127.315 265.334 127.307 265.325C127.3 265.315 127.295 265.305 127.292 265.293C127.29 265.282 127.29 265.27 127.293 265.259L128.342 260.632C128.35 260.593 128.371 260.558 128.402 260.533C128.433 260.508 128.471 260.494 128.511 260.494C130.594 260.501 132.691 260.504 134.804 260.504C139.498 260.507 138.919 264.085 137.902 267.373C137.871 267.473 137.802 267.523 137.698 267.523L132.463 267.539C132.435 267.539 132.407 267.533 132.381 267.52C132.355 267.508 132.332 267.491 132.314 267.469C132.296 267.446 132.283 267.421 132.276 267.393C132.27 267.365 132.269 267.336 132.275 267.309L132.655 265.579Z" fill="black"/>
<path d="M149.379 260.715L144.206 283.971C144.196 284.012 144.173 284.049 144.14 284.075C144.107 284.101 144.066 284.115 144.023 284.115H138.543C138.515 284.115 138.488 284.108 138.463 284.096C138.438 284.084 138.416 284.066 138.399 284.045C138.382 284.023 138.369 283.997 138.363 283.97C138.357 283.943 138.357 283.915 138.364 283.888L143.515 260.661C143.524 260.62 143.547 260.584 143.58 260.558C143.612 260.532 143.652 260.517 143.694 260.517L149.197 260.488C149.225 260.488 149.253 260.494 149.278 260.506C149.303 260.518 149.326 260.536 149.343 260.557C149.361 260.579 149.373 260.605 149.379 260.632C149.386 260.659 149.386 260.688 149.379 260.715Z" fill="black"/>
<path d="M157.759 284.118L152.218 284.112C152.194 284.112 152.17 284.106 152.149 284.095C152.128 284.085 152.109 284.07 152.094 284.051C152.08 284.032 152.069 284.011 152.064 283.987C152.059 283.964 152.059 283.94 152.064 283.917L154.107 274.775C154.113 274.752 154.113 274.727 154.107 274.704C154.102 274.68 154.091 274.658 154.076 274.64C154.061 274.621 154.042 274.606 154.02 274.595C153.998 274.585 153.975 274.58 153.951 274.58L147.907 274.593C147.883 274.593 147.859 274.587 147.838 274.577C147.816 274.567 147.797 274.552 147.782 274.533C147.767 274.514 147.756 274.492 147.751 274.469C147.745 274.445 147.745 274.421 147.75 274.398L148.742 269.784C148.75 269.749 148.769 269.717 148.797 269.695C148.825 269.672 148.859 269.659 148.895 269.659L155.102 269.656C155.138 269.656 155.174 269.644 155.202 269.621C155.231 269.598 155.25 269.566 155.258 269.531L157.235 260.626C157.243 260.59 157.262 260.558 157.291 260.536C157.319 260.513 157.355 260.501 157.391 260.501L162.933 260.504C162.956 260.504 162.98 260.51 163.001 260.521C163.022 260.531 163.041 260.546 163.056 260.565C163.071 260.584 163.081 260.605 163.086 260.629C163.091 260.652 163.091 260.676 163.086 260.699L157.916 283.994C157.908 284.029 157.888 284.061 157.859 284.084C157.831 284.106 157.795 284.118 157.759 284.118Z" fill="black"/>
<path d="M170.036 279.197H180.626C180.65 279.197 180.674 279.202 180.696 279.213C180.718 279.223 180.737 279.238 180.752 279.257C180.767 279.276 180.777 279.298 180.783 279.321C180.788 279.344 180.788 279.369 180.783 279.392L179.766 283.99C179.758 284.026 179.738 284.058 179.71 284.08C179.681 284.103 179.646 284.115 179.609 284.115H163.065C163.041 284.115 163.018 284.109 162.997 284.099C162.975 284.088 162.957 284.073 162.942 284.054C162.927 284.035 162.917 284.014 162.912 283.991C162.906 283.967 162.906 283.943 162.912 283.92L168.085 260.629C168.093 260.593 168.113 260.562 168.142 260.539C168.17 260.516 168.206 260.504 168.242 260.504L173.79 260.491C173.814 260.492 173.837 260.497 173.858 260.508C173.88 260.518 173.898 260.534 173.913 260.552C173.928 260.571 173.938 260.593 173.943 260.616C173.949 260.639 173.949 260.663 173.943 260.686L169.879 279.002C169.874 279.026 169.874 279.05 169.879 279.073C169.885 279.097 169.895 279.119 169.911 279.137C169.926 279.156 169.945 279.171 169.966 279.182C169.988 279.192 170.012 279.197 170.036 279.197Z" fill="black"/>
<path d="M190.192 274.804L186.087 260.648C186.081 260.629 186.08 260.609 186.084 260.59C186.087 260.571 186.095 260.553 186.107 260.537C186.119 260.522 186.134 260.509 186.152 260.501C186.169 260.492 186.189 260.488 186.208 260.488L191.929 260.507C191.956 260.507 191.983 260.516 192.005 260.533C192.027 260.55 192.043 260.573 192.05 260.6L194.356 269.291C194.36 269.309 194.361 269.328 194.358 269.346C194.355 269.364 194.347 269.382 194.336 269.397L190.413 274.842C190.399 274.861 190.381 274.876 190.359 274.884C190.337 274.893 190.314 274.896 190.291 274.892C190.268 274.888 190.246 274.877 190.229 274.862C190.212 274.846 190.199 274.826 190.192 274.804Z" fill="black"/>
<path d="M196.227 277.624C195.765 279.747 195.267 281.87 194.734 283.994C194.713 284.077 194.66 284.118 194.577 284.118L189.001 284.115C188.982 284.115 188.964 284.111 188.947 284.103C188.931 284.095 188.916 284.083 188.904 284.068C188.893 284.053 188.884 284.036 188.88 284.018C188.876 283.999 188.875 283.98 188.879 283.962C189.305 281.932 189.758 279.894 190.238 277.848C190.37 277.285 190.605 276.767 190.942 276.294C194.64 271.077 198.325 265.874 201.996 260.683C202.081 260.564 202.196 260.504 202.341 260.504L207.86 260.494C207.886 260.494 207.911 260.501 207.933 260.514C207.956 260.527 207.973 260.547 207.985 260.57C207.997 260.593 208.002 260.619 207.999 260.644C207.997 260.67 207.988 260.695 207.972 260.715C204.222 265.784 200.511 270.795 196.838 275.747C196.368 276.38 196.384 276.901 196.227 277.624Z" fill="black"/>
<path d="M128.081 279.427L127.054 284.022C127.049 284.047 127.036 284.068 127.017 284.084C126.998 284.1 126.974 284.109 126.949 284.109C124.996 284.122 123.04 284.123 121.081 284.112C119.738 284.103 118.823 284.009 118.334 283.827C115.46 282.763 116.745 279.395 117.196 277.183C117.217 277.085 117.277 277.036 117.375 277.036L122.75 277.048C122.778 277.048 122.805 277.055 122.831 277.066C122.856 277.078 122.878 277.095 122.896 277.117C122.913 277.138 122.926 277.163 122.933 277.19C122.94 277.217 122.941 277.245 122.936 277.272L122.594 278.993C122.587 279.023 122.588 279.055 122.596 279.086C122.603 279.116 122.617 279.144 122.637 279.169C122.656 279.193 122.681 279.212 122.709 279.225C122.737 279.239 122.767 279.245 122.798 279.245H127.937C127.959 279.246 127.981 279.251 128.002 279.261C128.022 279.271 128.039 279.285 128.053 279.303C128.067 279.32 128.077 279.34 128.081 279.362C128.086 279.384 128.086 279.406 128.081 279.427Z" fill="black"/>
<path d="M101.612 319.595C102.023 319.595 102.368 319.735 102.648 320.015C102.947 320.277 103.096 320.603 103.096 320.995C103.096 321.406 102.947 321.761 102.648 322.059C102.368 322.339 102.023 322.479 101.612 322.479C100.753 322.479 99.8947 322.386 99.036 322.199C99.4653 322.685 99.68 323.282 99.68 323.991C99.68 324.962 99.4373 325.849 98.952 326.651C98.4667 327.473 97.8133 328.117 96.992 328.583C96.1707 329.069 95.284 329.311 94.332 329.311H85.708C84.364 329.311 83.1133 328.975 81.956 328.303C80.8173 327.631 79.912 326.717 79.24 325.559C78.568 324.421 78.232 323.179 78.232 321.835V316.935H81.116V321.835C81.116 322.657 81.3213 323.422 81.732 324.131C82.1427 324.841 82.7027 325.401 83.412 325.811C84.1213 326.222 84.8867 326.427 85.708 326.427H94.332C94.9853 326.427 95.5547 326.185 96.04 325.699C96.5253 325.214 96.768 324.645 96.768 323.991C96.768 323.413 96.5907 322.89 96.236 322.423C95.9 321.957 95.452 321.63 94.892 321.443L90.72 319.763L91.98 317.103C92.4653 317.309 92.9227 317.505 93.352 317.691C94.64 318.233 95.312 318.513 95.368 318.531C97.384 319.241 99.4653 319.595 101.612 319.595ZM87.248 331.159C87.7333 331.159 88.1533 331.327 88.508 331.663C88.8627 332.018 89.04 332.429 89.04 332.895C89.04 333.381 88.8627 333.791 88.508 334.127C88.1533 334.482 87.7333 334.659 87.248 334.659C86.7627 334.659 86.352 334.482 86.016 334.127C85.68 333.791 85.512 333.381 85.512 332.895C85.512 332.429 85.68 332.018 86.016 331.663C86.3707 331.327 86.7813 331.159 87.248 331.159ZM92.064 331.159C92.5493 331.159 92.96 331.327 93.296 331.663C93.6507 332.018 93.828 332.429 93.828 332.895C93.828 333.381 93.6507 333.791 93.296 334.127C92.96 334.482 92.5493 334.659 92.064 334.659C91.5787 334.659 91.1587 334.482 90.804 334.127C90.468 333.791 90.3 333.381 90.3 332.895C90.3 332.41 90.468 331.999 90.804 331.663C91.1587 331.327 91.5787 331.159 92.064 331.159ZM110.317 319.595C110.709 319.595 111.045 319.735 111.325 320.015C111.605 320.277 111.745 320.613 111.745 321.023C111.745 321.434 111.596 321.779 111.297 322.059C111.017 322.339 110.681 322.479 110.289 322.479H109.533C108.843 322.479 108.189 322.339 107.573 322.059C106.957 321.761 106.435 321.359 106.005 320.855C105.595 321.359 105.1 321.761 104.521 322.059C103.943 322.339 103.317 322.479 102.645 322.479H101.609C101.18 322.479 100.825 322.339 100.545 322.059C100.247 321.779 100.097 321.434 100.097 321.023C100.097 320.613 100.247 320.277 100.545 320.015C100.825 319.735 101.18 319.595 101.609 319.595H102.337C102.897 319.595 103.373 319.39 103.765 318.979C104.176 318.569 104.381 318.074 104.381 317.495V302.963H107.293V317.523C107.349 318.102 107.592 318.597 108.021 319.007C108.451 319.399 108.955 319.595 109.533 319.595H110.317ZM122.57 301.143C123.055 301.143 123.466 301.311 123.802 301.647C124.157 301.983 124.334 302.394 124.334 302.879C124.334 303.365 124.157 303.785 123.802 304.139C123.466 304.475 123.055 304.643 122.57 304.643C122.085 304.643 121.665 304.475 121.31 304.139C120.974 303.785 120.806 303.365 120.806 302.879C120.806 302.413 120.974 302.011 121.31 301.675C121.665 301.321 122.085 301.143 122.57 301.143ZM120.134 305.623C120.619 305.623 121.03 305.801 121.366 306.155C121.721 306.491 121.898 306.893 121.898 307.359C121.898 307.845 121.721 308.265 121.366 308.619C121.03 308.955 120.619 309.123 120.134 309.123C119.649 309.123 119.229 308.955 118.874 308.619C118.538 308.265 118.37 307.845 118.37 307.359C118.37 306.874 118.538 306.463 118.874 306.127C119.229 305.791 119.649 305.623 120.134 305.623ZM125.09 305.623C125.575 305.623 125.995 305.801 126.35 306.155C126.705 306.491 126.882 306.893 126.882 307.359C126.882 307.845 126.705 308.265 126.35 308.619C125.995 308.955 125.575 309.123 125.09 309.123C124.605 309.123 124.194 308.955 123.858 308.619C123.522 308.265 123.354 307.845 123.354 307.359C123.354 306.874 123.522 306.463 123.858 306.127C124.213 305.791 124.623 305.623 125.09 305.623ZM136.122 319.595C136.495 319.595 136.831 319.745 137.13 320.043C137.429 320.323 137.578 320.65 137.578 321.023C137.578 321.415 137.429 321.761 137.13 322.059C136.85 322.339 136.514 322.479 136.122 322.479H134.582C133.91 322.479 133.285 322.321 132.706 322.003C132.127 321.667 131.67 321.229 131.334 320.687C130.867 321.247 130.279 321.686 129.57 322.003C128.879 322.321 128.133 322.479 127.33 322.479C126.397 322.479 125.566 322.293 124.838 321.919C124.11 321.527 123.522 321.005 123.074 320.351C121.991 321.77 120.498 322.479 118.594 322.479C117.903 322.479 117.213 322.339 116.522 322.059C115.831 321.779 115.253 321.341 114.786 320.743C114.45 321.266 113.993 321.686 113.414 322.003C112.854 322.321 112.238 322.479 111.566 322.479H110.194C109.802 322.479 109.466 322.339 109.186 322.059C108.887 321.779 108.738 321.434 108.738 321.023C108.738 320.65 108.887 320.323 109.186 320.043C109.466 319.745 109.802 319.595 110.194 319.595H111.566C111.977 319.595 112.322 319.455 112.602 319.175C112.901 318.895 113.05 318.55 113.05 318.139V311.867H115.906V316.935C115.906 317.701 116.167 318.335 116.69 318.839C117.231 319.343 117.913 319.595 118.734 319.595C119.593 319.595 120.293 319.334 120.834 318.811C121.375 318.289 121.646 317.635 121.646 316.851V311.867H124.53V316.935C124.53 317.719 124.782 318.363 125.286 318.867C125.809 319.353 126.49 319.595 127.33 319.595C128.189 319.595 128.889 319.334 129.43 318.811C129.971 318.289 130.242 317.635 130.242 316.851V309.179H133.098L133.126 318.139C133.126 318.55 133.266 318.895 133.546 319.175C133.826 319.455 134.171 319.595 134.582 319.595H136.122ZM138.863 305.399C139.348 305.399 139.759 305.567 140.095 305.903C140.449 306.239 140.627 306.65 140.627 307.135C140.627 307.621 140.449 308.041 140.095 308.395C139.759 308.731 139.348 308.899 138.863 308.899C138.396 308.899 137.985 308.722 137.631 308.367C137.276 308.013 137.099 307.602 137.099 307.135C137.099 306.669 137.267 306.267 137.603 305.931C137.957 305.577 138.377 305.399 138.863 305.399ZM143.595 305.399C144.08 305.399 144.491 305.577 144.827 305.931C145.181 306.267 145.359 306.669 145.359 307.135C145.359 307.602 145.181 308.013 144.827 308.367C144.491 308.722 144.08 308.899 143.595 308.899C143.109 308.899 142.689 308.731 142.335 308.395C141.999 308.041 141.831 307.621 141.831 307.135C141.831 306.65 141.999 306.239 142.335 305.903C142.689 305.567 143.109 305.399 143.595 305.399ZM146.367 319.595C146.777 319.595 147.123 319.735 147.403 320.015C147.683 320.277 147.823 320.613 147.823 321.023C147.823 321.434 147.673 321.779 147.375 322.059C147.095 322.339 146.759 322.479 146.367 322.479H145.023C144.332 322.479 143.679 322.339 143.062 322.059C142.447 321.761 141.924 321.359 141.495 320.855C141.084 321.359 140.589 321.761 140.011 322.059C139.432 322.339 138.807 322.479 138.135 322.479H136.062C135.633 322.479 135.278 322.349 134.998 322.087C134.7 321.807 134.55 321.462 134.55 321.051C134.55 320.641 134.7 320.295 134.998 320.015C135.278 319.735 135.633 319.595 136.062 319.595H137.827C138.387 319.595 138.863 319.39 139.255 318.979C139.665 318.569 139.871 318.074 139.871 317.495V311.811H142.783V317.523C142.839 318.102 143.081 318.597 143.511 319.007C143.94 319.399 144.444 319.595 145.023 319.595H146.367ZM154.548 303.131C155.034 303.131 155.454 303.309 155.808 303.663C156.163 303.999 156.34 304.401 156.34 304.867C156.34 305.353 156.163 305.773 155.808 306.127C155.454 306.463 155.034 306.631 154.548 306.631C154.082 306.631 153.671 306.463 153.316 306.127C152.98 305.773 152.812 305.353 152.812 304.867C152.812 304.382 152.98 303.971 153.316 303.635C153.671 303.299 154.082 303.131 154.548 303.131ZM160.568 320.351C160.568 320.949 160.363 321.453 159.952 321.863C159.542 322.274 159.047 322.479 158.468 322.479H146.036V319.595H149.48C148.995 319.166 148.622 318.643 148.36 318.027C148.099 317.393 147.968 316.73 147.968 316.039V315.199C147.968 314.061 148.258 313.034 148.836 312.119C149.415 311.186 150.19 310.449 151.16 309.907C152.131 309.366 153.186 309.095 154.324 309.095H160.568V320.351ZM154.352 311.839C153.718 311.839 153.12 311.998 152.56 312.315C152.019 312.633 151.59 313.071 151.272 313.631C150.955 314.173 150.796 314.761 150.796 315.395V316.151C150.815 317.103 151.17 317.915 151.86 318.587C152.57 319.259 153.4 319.595 154.352 319.595H157.264C157.395 319.595 157.498 319.549 157.572 319.455C157.666 319.362 157.712 319.25 157.712 319.119V311.839H154.352Z" fill="black"/>
<defs>
<linearGradient id="paint0_linear_22_249" x1="167.792" y1="92.4466" x2="167.792" y2="137.59" gradientUnits="userSpaceOnUse">
<stop stop-color="#B6B6B6"/>
<stop offset="1" stop-opacity="0"/>
</linearGradient>
<linearGradient id="paint1_linear_22_249" x1="167.792" y1="92.4466" x2="167.792" y2="137.59" gradientUnits="userSpaceOnUse">
<stop stop-color="#B6B6B6"/>
<stop offset="1" stop-opacity="0"/>
</linearGradient>
</defs>
</svg>
