<svg width="177" height="76" viewBox="0 0 177 76" fill="none" xmlns="http://www.w3.org/2000/svg">
<g filter="url(#filter0_di_43_132)">
<rect x="10" y="10" width="157" height="56" rx="28" fill="url(#paint0_linear_43_132)" fill-opacity="0.85" shape-rendering="crispEdges"/>
<path d="M49.375 31.25L42.625 38L49.375 44.75" stroke="white" stroke-width="2" stroke-linecap="round" stroke-linejoin="round"/>
<path d="M73.4495 45C72.7162 45 72.0229 44.8133 71.3695 44.44L71.3495 44.8C71.2029 45.9867 70.7429 46.96 69.9695 47.72C69.1962 48.48 68.1895 48.98 66.9495 49.22L66.4295 46.54C67.9095 46.2467 68.6495 45.38 68.6495 43.94V35.14H73.4495C74.3295 35.14 75.1362 35.36 75.8695 35.8C76.6162 36.24 77.2029 36.8333 77.6295 37.58C78.0695 38.3267 78.2895 39.14 78.2895 40.02V40.26C78.2762 41.1267 78.0495 41.9267 77.6095 42.66C77.1695 43.38 76.5829 43.9533 75.8495 44.38C75.1162 44.7933 74.3162 45 73.4495 45ZM73.4495 42.24C74.0229 42.24 74.5095 42.0533 74.9095 41.68C75.3095 41.2933 75.5229 40.8267 75.5495 40.28V40.02C75.5495 39.4467 75.3495 38.96 74.9495 38.56C74.5495 38.16 74.0629 37.96 73.4895 37.96H71.3895V40.3C71.4162 40.86 71.6295 41.3267 72.0295 41.7C72.4295 42.06 72.9029 42.24 73.4495 42.24ZM91.9872 42.24C92.3872 42.24 92.7139 42.38 92.9672 42.66C93.2339 42.9267 93.3672 43.2533 93.3672 43.64C93.3672 44.0133 93.2339 44.3333 92.9672 44.6C92.7139 44.8667 92.3872 45 91.9872 45H91.4472C90.8605 45 90.3005 44.9067 89.7672 44.72C89.2339 44.52 88.7539 44.2467 88.3272 43.9C87.9539 44.2467 87.5339 44.52 87.0672 44.72C86.6005 44.9067 86.1205 45 85.6272 45H79.9672V42.24H85.6272C85.8272 42.24 85.9872 42.2 86.1072 42.12C86.2405 42.04 86.3339 41.9533 86.3872 41.86C86.5739 41.7 86.6672 41.4933 86.6672 41.24C86.6672 41.1867 86.6539 41.1067 86.6272 41L85.0072 35.16L87.6272 34.42L89.3072 40.34C89.3339 40.42 89.3472 40.4867 89.3472 40.54L89.3672 40.6C89.5005 41.0933 89.7539 41.4933 90.1272 41.8C90.5005 42.0933 90.9405 42.24 91.4472 42.24H91.9872ZM95.3453 31.82C95.3453 31.3933 95.4986 31.0267 95.8053 30.72C96.112 30.4133 96.4853 30.26 96.9253 30.26C97.352 30.26 97.7186 30.4133 98.0253 30.72C98.3453 31.0267 98.5053 31.3933 98.5053 31.82C98.5053 32.26 98.3453 32.6333 98.0253 32.94C97.7186 33.2467 97.352 33.4 96.9253 33.4C96.4853 33.4 96.112 33.2467 95.8053 32.94C95.4986 32.6333 95.3453 32.26 95.3453 31.82ZM91.9253 45C91.5386 45 91.212 44.8667 90.9453 44.6C90.6653 44.32 90.5253 43.9933 90.5253 43.62C90.5253 43.2467 90.6653 42.9267 90.9453 42.66C91.212 42.38 91.5386 42.24 91.9253 42.24H100.145C100.025 42.16 99.9253 42.0533 99.8453 41.92C99.7653 41.7867 99.7253 41.64 99.7253 41.48V41.16C99.7253 39.96 99.3653 39.0933 98.6453 38.56C98.0586 38.1067 97.3053 37.88 96.3853 37.88C95.5986 37.88 94.7053 38.0467 93.7053 38.38L92.7053 35.9C93.892 35.38 95.092 35.12 96.3053 35.12C97.8253 35.12 99.1653 35.54 100.325 36.38C100.912 36.8067 101.405 37.4067 101.805 38.18C102.219 38.94 102.425 39.88 102.425 41V41.46C102.425 41.7 102.485 41.8933 102.605 42.04C102.725 42.1733 102.892 42.24 103.105 42.24H104.625V45H91.9253ZM106.271 31.96C106.711 31.96 107.084 32.1133 107.391 32.42C107.698 32.7267 107.851 33.0933 107.851 33.52C107.851 33.9467 107.698 34.32 107.391 34.64C107.084 34.9467 106.711 35.1 106.271 35.1C105.844 35.1 105.471 34.9467 105.151 34.64C104.844 34.32 104.691 33.9467 104.691 33.52C104.691 33.0933 104.844 32.7267 105.151 32.42C105.471 32.1133 105.844 31.96 106.271 31.96ZM110.291 31.96C110.718 31.96 111.084 32.1133 111.391 32.42C111.711 32.7267 111.871 33.0933 111.871 33.52C111.871 33.9467 111.711 34.32 111.391 34.64C111.084 34.9467 110.718 35.1 110.291 35.1C109.851 35.1 109.478 34.9467 109.171 34.64C108.864 34.32 108.711 33.9467 108.711 33.52C108.711 33.0933 108.864 32.7267 109.171 32.42C109.478 32.1133 109.851 31.96 110.291 31.96ZM112.191 42.24C112.578 42.24 112.904 42.3733 113.171 42.64C113.451 42.9067 113.591 43.2267 113.591 43.6C113.591 44 113.451 44.3333 113.171 44.6C112.904 44.8667 112.578 45 112.191 45H111.211C110.211 45 109.324 44.66 108.551 43.98C108.204 44.3 107.818 44.5533 107.391 44.74C106.964 44.9133 106.511 45 106.031 45H104.231C103.818 45 103.478 44.8733 103.211 44.62C102.931 44.3533 102.791 44.02 102.791 43.62C102.791 43.22 102.931 42.8933 103.211 42.64C103.478 42.3733 103.818 42.24 104.231 42.24H105.731C106.078 42.24 106.371 42.1133 106.611 41.86C106.864 41.6067 106.991 41.3067 106.991 40.96V37.12H109.771V40.98C109.824 41.3267 109.984 41.6267 110.251 41.88C110.531 42.12 110.851 42.24 111.211 42.24H112.191ZM130.74 42.24C131.1 42.24 131.42 42.38 131.7 42.66C131.98 42.9267 132.12 43.2467 132.12 43.62C132.12 43.9933 131.98 44.32 131.7 44.6C131.42 44.8667 131.1 45 130.74 45H129.68C129.227 45 128.793 44.9133 128.38 44.74C127.967 44.5533 127.613 44.3 127.32 43.98C126.947 44.3 126.513 44.5533 126.02 44.74C125.54 44.9133 125.033 45 124.5 45C123.22 45 122.207 44.58 121.46 43.74C121.007 44.18 120.513 44.5 119.98 44.7C119.46 44.9 118.853 45 118.16 45C117.667 45 117.187 44.92 116.72 44.76C116.267 44.5867 115.86 44.34 115.5 44.02C115.207 44.3267 114.86 44.5667 114.46 44.74C114.06 44.9133 113.64 45 113.2 45H112.12C111.733 45 111.407 44.8667 111.14 44.6C110.873 44.32 110.74 43.9933 110.74 43.62C110.74 43.2467 110.88 42.9267 111.16 42.66C111.427 42.38 111.747 42.24 112.12 42.24H113.2C113.387 42.24 113.547 42.1733 113.68 42.04C113.813 41.9067 113.88 41.7467 113.88 41.56V37.14H116.6V40.72C116.6 41.1733 116.76 41.54 117.08 41.82C117.4 42.1 117.813 42.24 118.32 42.24C118.867 42.24 119.293 42.0933 119.6 41.8C119.907 41.5067 120.06 41.12 120.06 40.64V37.14H122.84V40.72C122.84 41.1733 122.987 41.54 123.28 41.82C123.573 42.1 123.98 42.24 124.5 42.24C125.047 42.24 125.473 42.0933 125.78 41.8C126.087 41.5067 126.24 41.12 126.24 40.64V35.16H128.98V41.56C128.98 41.7467 129.047 41.9067 129.18 42.04C129.313 42.1733 129.48 42.24 129.68 42.24H130.74ZM129.555 42.64C129.822 42.3733 130.149 42.24 130.535 42.24H131.135C131.429 42.24 131.635 42.1733 131.755 42.04C131.875 41.9067 131.935 41.7 131.935 41.42V35.14H136.935C137.855 35.14 138.689 35.36 139.435 35.8C140.182 36.24 140.769 36.84 141.195 37.6C141.622 38.36 141.835 39.2067 141.835 40.14V40.38C141.822 41.22 141.589 41.9933 141.135 42.7C140.682 43.4067 140.082 43.9667 139.335 44.38C138.589 44.7933 137.789 45 136.935 45C136.335 45 135.762 44.8933 135.215 44.68C134.669 44.4533 134.182 44.1467 133.755 43.76C133.422 44.1467 133.022 44.4533 132.555 44.68C132.102 44.8933 131.629 45 131.135 45H130.515C130.129 44.9867 129.802 44.8467 129.535 44.58C129.269 44.3 129.135 43.9733 129.135 43.6C129.149 43.2133 129.289 42.8933 129.555 42.64ZM135.395 41.72C135.822 42.0667 136.335 42.24 136.935 42.24C137.509 42.2267 138.009 42.0267 138.435 41.64C138.862 41.2533 139.082 40.7867 139.095 40.24V40.02C139.095 39.4067 138.875 38.9 138.435 38.5C138.009 38.1 137.475 37.9 136.835 37.9H134.735V40.32C134.749 40.8933 134.969 41.36 135.395 41.72Z" fill="white"/>
</g>
<defs>
<filter id="filter0_di_43_132" x="0" y="0" width="177" height="76" filterUnits="userSpaceOnUse" color-interpolation-filters="sRGB">
<feFlood flood-opacity="0" result="BackgroundImageFix"/>
<feColorMatrix in="SourceAlpha" type="matrix" values="0 0 0 0 0 0 0 0 0 0 0 0 0 0 0 0 0 0 127 0" result="hardAlpha"/>
<feOffset/>
<feGaussianBlur stdDeviation="5"/>
<feComposite in2="hardAlpha" operator="out"/>
<feColorMatrix type="matrix" values="0 0 0 0 0 0 0 0 0 0 0 0 0 0 0 0 0 0 0.35 0"/>
<feBlend mode="normal" in2="BackgroundImageFix" result="effect1_dropShadow_43_132"/>
<feBlend mode="normal" in="SourceGraphic" in2="effect1_dropShadow_43_132" result="shape"/>
<feColorMatrix in="SourceAlpha" type="matrix" values="0 0 0 0 0 0 0 0 0 0 0 0 0 0 0 0 0 0 127 0" result="hardAlpha"/>
<feOffset dx="4" dy="4"/>
<feGaussianBlur stdDeviation="6.5"/>
<feComposite in2="hardAlpha" operator="arithmetic" k2="-1" k3="1"/>
<feColorMatrix type="matrix" values="0 0 0 0 0.188235 0 0 0 0 0.788235 0 0 0 0 0.803922 0 0 0 0.2 0"/>
<feBlend mode="normal" in2="shape" result="effect2_innerShadow_43_132"/>
</filter>
<linearGradient id="paint0_linear_43_132" x1="88.5" y1="10" x2="88.5" y2="66" gradientUnits="userSpaceOnUse">
<stop stop-color="#30C9CD"/>
<stop offset="1" stop-color="#330D69"/>
</linearGradient>
</defs>
</svg>
