<svg width="142" height="142" viewBox="0 0 142 142" fill="none" xmlns="http://www.w3.org/2000/svg">
<g filter="url(#filter0_bd_22_275)">
<circle cx="67" cy="67" r="57" fill="url(#paint0_linear_22_275)" fill-opacity="0.75" shape-rendering="crispEdges"/>
</g>
<path d="M72.7951 56.7055C73.0701 57.3172 73.3785 57.9113 73.7203 58.4876C77.2694 64.495 81.1144 71 85.2551 78.0025C85.9078 79.1073 86.6418 79.0506 87.287 77.9608C90.9055 71.8349 94.526 65.7109 98.1483 59.5887C99.0287 58.0992 99.6177 56.9867 99.9153 56.2514C104.013 46.1071 95.967 35.1228 85.0527 36.0555C77.5494 36.695 71.8341 42.7415 71.5446 50.2125C71.455 52.4954 71.8719 54.6597 72.7951 56.7055Z" stroke="white" stroke-width="2"/>
<path d="M64.4879 53.3909L67.1479 53.3834C67.2433 53.3832 67.3376 53.3632 67.4248 53.3246C67.512 53.2861 67.5903 53.2297 67.6545 53.1593C67.7188 53.0888 67.7676 53.0057 67.798 52.9153C67.8284 52.8249 67.8396 52.7291 67.8309 52.6342L67.8101 52.392C67.7571 51.8106 67.4387 51.5198 66.8547 51.5198C61.2963 51.5211 55.75 51.5205 50.2156 51.518C48.4359 51.5167 47.0479 52.0849 46.0515 53.2225C45.6555 53.6753 45.185 54.5658 44.6402 55.8939C43.534 58.5892 42.4279 61.2845 41.3218 63.9798C41.0494 64.6439 40.9396 65.1093 41.0323 65.7714C41.564 69.6309 46.358 71.0441 48.7777 67.9755C48.7853 67.966 48.7948 67.9583 48.8056 67.9527C48.8164 67.9472 48.8283 67.9439 48.8404 67.9432C48.8525 67.9425 48.8646 67.9443 48.876 67.9486C48.8874 67.9528 48.8977 67.9594 48.9064 67.9679C49.1321 68.1912 49.3699 68.4094 49.6196 68.6225C51.5228 70.2457 54.2358 69.8863 55.7701 67.9755C55.7773 67.9664 55.7865 67.9591 55.7969 67.954C55.8073 67.9489 55.8188 67.9461 55.8305 67.946C55.8422 67.9458 55.8539 67.9482 55.8647 67.9529C55.8755 67.9577 55.8852 67.9648 55.8931 67.9736C57.8512 70.1757 60.7193 70.2401 62.7417 68.019C62.7537 68.0058 62.7684 67.9953 62.7848 67.9883C62.8012 67.9813 62.8189 67.978 62.8367 67.9785C62.8545 67.9791 62.872 67.9835 62.8879 67.9914C62.9039 67.9994 62.9179 68.0107 62.929 68.0247C64.5636 70.0225 67.3882 70.2022 69.2782 68.422C69.4233 68.2857 69.5784 68.1357 69.7436 67.9717C69.7915 67.925 69.8363 67.9276 69.8779 67.9793C70.6624 68.9391 71.6733 69.5041 72.9106 69.6744C73.593 69.7677 74.0199 69.542 74.1914 68.9971C74.315 68.6023 74.2381 68.2845 73.9606 68.0436C73.8181 67.92 73.5438 67.8292 73.1377 67.7712C72.0795 67.6198 71.3675 67.109 71.0017 66.2387C70.8441 65.8629 70.7356 65.0695 70.6763 63.8587C70.5969 62.2141 70.496 60.5549 70.3736 58.8812C70.3671 58.7885 70.3418 58.698 70.2994 58.6153C70.2569 58.5326 70.1982 58.4592 70.1266 58.3997C70.0551 58.3401 69.9722 58.2956 69.883 58.2688C69.7938 58.242 69.7 58.2334 69.6074 58.2436L69.3955 58.2682C68.8002 58.3338 68.5177 58.6661 68.5479 59.2652C68.6375 60.9768 68.7277 62.5855 68.8185 64.0914C68.8689 64.9049 68.8551 65.4725 68.7769 65.7941C68.2093 68.1476 65.0423 68.4939 64.0433 66.2406C63.8441 65.7904 63.7627 65.2095 63.7993 64.4982C63.9885 60.8317 64.1802 57.1652 64.3744 53.4988C64.3782 53.4269 64.416 53.3909 64.4879 53.3909Z" stroke="white" stroke-width="1.5"/>
<path d="M47.287 94.0022V71.2598C47.287 71.1608 47.2675 71.0629 47.2296 70.9715C47.1917 70.8801 47.1362 70.7971 47.0662 70.7273C46.9962 70.6575 46.9132 70.6023 46.8219 70.5648C46.7305 70.5273 46.6327 70.5082 46.534 70.5087H46.3316C45.7173 70.5112 45.4108 70.819 45.4121 71.4319C45.4159 79.4182 45.4134 87.2601 45.4045 94.9576C45.4045 95.8032 45.9172 96 46.6891 96C59.8617 96 73.0349 95.9968 86.2088 95.9905C86.9598 95.9905 87.2039 95.5384 87.2039 94.827C87.2077 90.4328 87.2071 85.9307 87.202 81.3208C87.202 80.7142 86.8987 80.4102 86.292 80.4089H86.0782C85.9812 80.4087 85.885 80.4276 85.7953 80.4646C85.7056 80.5015 85.624 80.5559 85.5553 80.6244C85.4866 80.6929 85.4321 80.7744 85.3949 80.864C85.3577 80.9536 85.3385 81.0497 85.3385 81.1468L85.3404 94.0513C85.3404 94.1018 85.3152 94.127 85.2647 94.127L47.4156 94.1289C47.3299 94.1289 47.287 94.0867 47.287 94.0022Z" stroke="white" stroke-width="2"/>
<path d="M64.7715 77.3252C61.8485 72.5595 54.5856 73.4336 53.0323 78.8368C52.8532 79.4611 52.7637 80.4096 52.7637 81.6822C52.7649 85.3587 52.7687 89.0688 52.775 92.8122C52.7753 92.9074 52.7944 93.0016 52.8315 93.0892C52.8685 93.1769 52.9226 93.2563 52.9906 93.3227C53.0586 93.3891 53.1392 93.4413 53.2276 93.4761C53.3159 93.5109 53.4104 93.5277 53.5053 93.5254L53.7248 93.5197C54.3327 93.5059 54.6373 93.1943 54.6385 92.5851C54.6474 88.7698 54.6511 84.998 54.6499 81.2698C54.6499 80.4285 54.7022 79.8155 54.8069 79.4309C55.9648 75.1703 62.0434 74.9092 63.5436 79.0733C63.7366 79.6068 63.8331 80.5275 63.8331 81.8354C63.8331 85.4212 63.8363 89.0776 63.8426 92.8046C63.8426 92.8998 63.8615 92.9941 63.8982 93.0819C63.9349 93.1698 63.9887 93.2494 64.0565 93.3163C64.1242 93.3832 64.2046 93.436 64.2929 93.4715C64.3812 93.5071 64.4757 93.5248 64.5709 93.5235L64.7885 93.5216C65.3952 93.5141 65.6991 93.2076 65.7004 92.6022C65.7105 88.5422 65.7149 84.5976 65.7137 80.7684C65.7137 79.4983 65.3996 78.3506 64.7715 77.3252Z" stroke="white" stroke-width="1.5"/>
<path d="M81.9104 78.6562C81.9104 78.4343 81.815 78.2215 81.6452 78.0646C81.4754 77.9077 81.2451 77.8196 81.005 77.8196H70.9972C70.757 77.8196 70.5268 77.9077 70.357 78.0646C70.1872 78.2215 70.0918 78.4343 70.0918 78.6562V86.0741C70.0918 86.296 70.1872 86.5088 70.357 86.6657C70.5268 86.8226 70.757 86.9108 70.9972 86.9108H81.005C81.2451 86.9108 81.4754 86.8226 81.6452 86.6657C81.815 86.5088 81.9104 86.296 81.9104 86.0741V78.6562Z" stroke="white" stroke-width="1.5"/>
<path d="M61.7259 86.6579C61.7259 86.411 61.6278 86.1742 61.4532 85.9997C61.2787 85.8251 61.0419 85.727 60.7951 85.727C60.6728 85.727 60.5518 85.7511 60.4389 85.7979C60.3259 85.8447 60.2233 85.9132 60.1369 85.9997C60.0505 86.0861 59.9819 86.1887 59.9351 86.3017C59.8883 86.4146 59.8643 86.5356 59.8643 86.6579C59.8643 86.9047 59.9623 87.1415 60.1369 87.316C60.3114 87.4906 60.5482 87.5887 60.7951 87.5887C61.0419 87.5887 61.2787 87.4906 61.4532 87.316C61.6278 87.1415 61.7259 86.9047 61.7259 86.6579Z" stroke="white" stroke-width="2"/>
<path d="M95.2086 50.7385C95.2086 48.3657 94.2661 46.09 92.5882 44.4122C90.9104 42.7344 88.6347 41.7918 86.2619 41.7918C83.8891 41.7918 81.6135 42.7344 79.9356 44.4122C78.2578 46.09 77.3152 48.3657 77.3152 50.7385C77.3152 53.1113 78.2578 55.387 79.9356 57.0648C81.6135 58.7426 83.8891 59.6852 86.2619 59.6852C88.6347 59.6852 90.9104 58.7426 92.5882 57.0648C94.2661 55.387 95.2086 53.1113 95.2086 50.7385Z" stroke="white" stroke-width="2"/>
<path d="M90.543 50.7385C90.543 50.176 90.4322 49.619 90.217 49.0994C90.0017 48.5797 89.6862 48.1075 89.2885 47.7098C88.8908 47.312 88.4186 46.9966 87.8989 46.7813C87.3793 46.566 86.8223 46.4553 86.2598 46.4553C85.1238 46.4553 84.0344 46.9065 83.2311 47.7098C82.4278 48.513 81.9766 49.6025 81.9766 50.7385C81.9766 51.8745 82.4278 52.9639 83.2311 53.7672C84.0344 54.5704 85.1238 55.0217 86.2598 55.0217C86.8223 55.0217 87.3793 54.9109 87.8989 54.6957C88.4186 54.4804 88.8908 54.1649 89.2885 53.7672C89.6862 53.3694 90.0017 52.8973 90.217 52.3776C90.4322 51.8579 90.543 51.301 90.543 50.7385Z" stroke="white" stroke-width="2"/>
<path d="M43.3613 63.9798C43.0832 64.6779 42.7181 65.1357 42.9603 65.9379C43.7038 68.4125 47.1167 68.3425 47.8111 65.849C47.9 65.5311 47.8697 65.0979 47.9605 64.782C48.4221 63.1587 49.5213 59.4014 51.2581 53.5101C51.277 53.4458 51.2537 53.4117 51.1881 53.4079C49.5157 53.3039 47.7524 53.4268 46.9881 55.1333C46.4344 56.3668 45.2255 59.3157 43.3613 63.9798Z" stroke="white" stroke-width="2"/>
<path d="M55.0454 64.0801C55.7341 60.5536 56.3849 57.0189 56.9978 53.476C57.0079 53.418 56.9833 53.389 56.924 53.389H53.337C53.2601 53.389 53.2115 53.425 53.1914 53.4968C52.1609 57.0889 51.1172 60.6797 50.0603 64.2692C49.8951 64.8318 49.8427 65.294 49.9033 65.656C50.3497 68.3274 53.8535 68.4901 54.7616 65.9303C54.9603 65.3722 54.9319 64.6609 55.0454 64.0801Z" stroke="white" stroke-width="2"/>
<path d="M61.9037 64.6287C62.1383 60.9168 62.3123 57.2012 62.5091 53.4855C62.5116 53.4212 62.4807 53.389 62.4164 53.389H59.0129C58.9473 53.389 58.9088 53.4212 58.8975 53.4855C58.2467 57.075 57.5952 60.6658 56.9432 64.2579C56.8145 64.9592 56.8038 65.4996 56.911 65.8792C57.5258 68.0719 60.3958 68.4692 61.5064 66.479C61.717 66.1031 61.8494 65.4864 61.9037 64.6287Z" stroke="white" stroke-width="2"/>
<mask id="path-13-inside-1_22_275" fill="white">
<path d="M72.7951 56.7055C71.8719 54.6597 71.455 52.4954 71.5446 50.2125C71.8341 42.7415 77.5494 36.695 85.0527 36.0555C95.967 35.1228 104.013 46.1071 99.9153 56.2514C99.6177 56.9867 99.0287 58.0992 98.1483 59.5887C94.526 65.7109 90.9055 71.8349 87.287 77.9608C86.6418 79.0506 85.9078 79.1073 85.2551 78.0025C81.1144 71 77.2694 64.495 73.7203 58.4876C73.3785 57.9113 73.0701 57.3172 72.7951 56.7055ZM99.0451 49.6185C98.8559 45.4317 96.1694 41.6688 92.6694 39.5915C89.3983 37.6485 85.3081 37.3742 81.7476 38.6909C75.2281 41.1031 71.8151 48.419 74.1176 54.999C74.3875 55.7696 74.9569 56.8915 75.8259 58.3647C79.2793 64.2131 82.732 70.0521 86.184 75.8817C86.193 75.897 86.2059 75.9096 86.2213 75.9184C86.2368 75.9273 86.2542 75.9319 86.272 75.9319C86.2897 75.9319 86.3072 75.9273 86.3226 75.9184C86.3381 75.9096 86.3509 75.897 86.36 75.8817C90.0719 69.5842 93.7585 63.3076 97.4199 57.0517C98.7783 54.7304 99.1548 52.5131 99.1245 49.8833C99.1245 49.8594 99.1138 49.8279 99.0924 49.7888C99.0634 49.7358 99.0476 49.679 99.0451 49.6185Z"/>
</mask>
<path d="M72.7951 56.7055C71.8719 54.6597 71.455 52.4954 71.5446 50.2125C71.8341 42.7415 77.5494 36.695 85.0527 36.0555C95.967 35.1228 104.013 46.1071 99.9153 56.2514C99.6177 56.9867 99.0287 58.0992 98.1483 59.5887C94.526 65.7109 90.9055 71.8349 87.287 77.9608C86.6418 79.0506 85.9078 79.1073 85.2551 78.0025C81.1144 71 77.2694 64.495 73.7203 58.4876C73.3785 57.9113 73.0701 57.3172 72.7951 56.7055ZM99.0451 49.6185C98.8559 45.4317 96.1694 41.6688 92.6694 39.5915C89.3983 37.6485 85.3081 37.3742 81.7476 38.6909C75.2281 41.1031 71.8151 48.419 74.1176 54.999C74.3875 55.7696 74.9569 56.8915 75.8259 58.3647C79.2793 64.2131 82.732 70.0521 86.184 75.8817C86.193 75.897 86.2059 75.9096 86.2213 75.9184C86.2368 75.9273 86.2542 75.9319 86.272 75.9319C86.2897 75.9319 86.3072 75.9273 86.3226 75.9184C86.3381 75.9096 86.3509 75.897 86.36 75.8817C90.0719 69.5842 93.7585 63.3076 97.4199 57.0517C98.7783 54.7304 99.1548 52.5131 99.1245 49.8833C99.1245 49.8594 99.1138 49.8279 99.0924 49.7888C99.0634 49.7358 99.0476 49.679 99.0451 49.6185Z" fill="white"/>
<path d="M72.7951 56.7055L74.6193 55.8855L74.6181 55.8828L72.7951 56.7055ZM71.5446 50.2125L73.5431 50.2909L73.5431 50.29L71.5446 50.2125ZM85.0527 36.0555L85.2225 38.0483L85.223 38.0483L85.0527 36.0555ZM99.9153 56.2514L101.769 57.0019L101.77 57.0005L99.9153 56.2514ZM98.1483 59.5887L99.8696 60.6072L99.8701 60.6063L98.1483 59.5887ZM87.287 77.9608L89.008 78.9797L89.009 78.978L87.287 77.9608ZM85.2551 78.0025L86.9771 76.9852L86.9766 76.9845L85.2551 78.0025ZM73.7203 58.4876L75.4422 57.4703L75.4405 57.4675L73.7203 58.4876ZM99.0451 49.6185L101.043 49.5352L101.043 49.5282L99.0451 49.6185ZM92.6694 39.5915L91.648 41.311L91.6486 41.3114L92.6694 39.5915ZM81.7476 38.6909L81.0538 36.8151L81.0535 36.8152L81.7476 38.6909ZM74.1176 54.999L72.2298 55.6596L72.23 55.6601L74.1176 54.999ZM75.8259 58.3647L74.1033 59.3808L74.1037 59.3816L75.8259 58.3647ZM86.184 75.8817L87.9062 74.8648L87.9049 74.8626L86.184 75.8817ZM86.272 75.9319V73.9319V75.9319ZM86.36 75.8817L88.0822 76.8985L88.0829 76.8972L86.36 75.8817ZM97.4199 57.0517L99.146 58.062L99.1461 58.0618L97.4199 57.0517ZM99.1245 49.8833H97.1245V49.8949L97.1247 49.9064L99.1245 49.8833ZM99.0924 49.7888L97.3382 50.7494L97.3387 50.7504L99.0924 49.7888ZM74.6181 55.8828C73.8248 54.1249 73.4654 52.2697 73.5431 50.2909L69.5461 50.1341C69.4446 52.7212 69.919 55.1945 70.9722 57.5282L74.6181 55.8828ZM73.5431 50.29C73.7937 43.8212 78.7308 38.6016 85.2225 38.0483L84.8828 34.0628C76.3681 34.7884 69.8744 41.6617 69.5461 50.1351L73.5431 50.29ZM85.223 38.0483C94.6388 37.2436 101.605 46.7296 98.0609 55.5023L101.77 57.0005C106.422 45.4846 97.2951 33.0021 84.8824 34.0628L85.223 38.0483ZM98.0615 55.501C97.8238 56.0881 97.301 57.0915 96.4265 58.5711L99.8701 60.6063C100.756 59.1068 101.412 57.8854 101.769 57.0019L98.0615 55.501ZM96.427 58.5703C92.8045 64.6929 89.1838 70.8173 85.565 76.9437L89.009 78.978C92.6273 72.8525 96.2475 66.7289 99.8696 60.6072L96.427 58.5703ZM85.566 76.942C85.4762 77.0936 85.4467 77.0977 85.5095 77.0453C85.5824 76.9847 85.8204 76.8195 86.2028 76.8059C86.5982 76.7918 86.873 76.9493 86.9866 77.0378C87.0796 77.1103 87.0633 77.1312 86.9771 76.9852L83.5331 79.0197C83.9445 79.7161 84.8369 80.857 86.345 80.8034C87.7811 80.7523 88.6178 79.6388 89.008 78.9797L85.566 76.942ZM86.9766 76.9845C82.836 69.9822 78.9912 63.4774 75.4422 57.4703L71.9983 59.505C75.5477 65.5126 79.3927 72.0178 83.5335 79.0205L86.9766 76.9845ZM75.4405 57.4675C75.1371 56.9559 74.8635 56.4287 74.6193 55.8855L70.9709 57.5254C71.2767 58.2057 71.6198 58.8666 72 59.5078L75.4405 57.4675ZM101.043 49.5282C100.818 44.5483 97.6581 40.2266 93.6902 37.8716L91.6486 41.3114C94.6807 43.1109 96.8938 46.3152 97.0471 49.7088L101.043 49.5282ZM93.6908 37.8719C89.8688 35.6018 85.1445 35.3023 81.0538 36.8151L82.4413 40.5668C85.4717 39.4461 88.9278 39.6953 91.648 41.311L93.6908 37.8719ZM81.0535 36.8152C73.5019 39.6093 69.5704 48.0594 72.2298 55.6596L76.0053 54.3385C74.0599 48.7786 76.9543 42.5969 82.4416 40.5667L81.0535 36.8152ZM72.23 55.6601C72.5685 56.6266 73.2235 57.8895 74.1033 59.3808L77.5485 57.3485C76.6903 55.8936 76.2064 54.9127 76.0051 54.3379L72.23 55.6601ZM74.1037 59.3816C77.5575 65.2308 81.0106 71.0705 84.4631 76.9007L87.9049 74.8626C84.4533 69.0338 81.001 63.1955 77.5481 57.3478L74.1037 59.3816ZM84.4618 76.8985C84.6473 77.2128 84.9118 77.4738 85.2298 77.6553L87.2129 74.1815C87.5 74.3454 87.7388 74.5812 87.9062 74.8648L84.4618 76.8985ZM85.2298 77.6553C85.5478 77.8369 85.9071 77.9319 86.272 77.9319V73.9319C86.6013 73.9319 86.9257 74.0176 87.2129 74.1815L85.2298 77.6553ZM86.272 77.9319C86.6368 77.9319 86.9961 77.8369 87.3142 77.6553L85.3311 74.1815C85.6183 74.0176 85.9427 73.9319 86.272 73.9319V77.9319ZM87.3142 77.6553C87.631 77.4745 87.896 77.2138 88.0822 76.8985L84.6377 74.8648C84.8059 74.5801 85.0451 74.3448 85.3311 74.1815L87.3142 77.6553ZM88.0829 76.8972C91.7959 70.598 95.4836 64.3196 99.146 58.062L95.6938 56.0415C92.0335 62.2955 88.3478 68.5704 84.637 74.8661L88.0829 76.8972ZM99.1461 58.0618C100.741 55.3371 101.157 52.7318 101.124 49.8603L97.1247 49.9064C97.1521 52.2943 96.8161 54.1236 95.6938 56.0416L99.1461 58.0618ZM101.125 49.8833C101.125 49.3432 100.912 48.9472 100.846 48.8271L97.3387 50.7504C97.3112 50.7002 97.2651 50.6094 97.223 50.4858C97.1833 50.3689 97.1245 50.1575 97.1245 49.8833H101.125ZM100.847 48.8281C100.966 49.0459 101.033 49.2895 101.043 49.5352L97.0468 49.7017C97.0621 50.0685 97.1609 50.4257 97.3382 50.7494L100.847 48.8281Z" fill="white" mask="url(#path-13-inside-1_22_275)"/>
<path d="M64.3744 53.4988C64.1802 57.1652 63.9885 60.8317 63.7993 64.4982C63.7627 65.2095 63.8441 65.7904 64.0433 66.2406C65.0423 68.4939 68.2093 68.1476 68.7769 65.7941C68.8551 65.4725 68.8689 64.9049 68.8185 64.0914C68.7277 62.5855 68.6375 60.9768 68.5479 59.2652C68.5177 58.6661 68.8002 58.3338 69.3955 58.2682L69.6074 58.2436C69.7 58.2334 69.7938 58.242 69.883 58.2688C69.9722 58.2956 70.0551 58.3401 70.1266 58.3997C70.1982 58.4592 70.2569 58.5326 70.2994 58.6153C70.3418 58.698 70.3671 58.7885 70.3736 58.8812C70.496 60.5549 70.5969 62.2141 70.6763 63.8587C70.7356 65.0695 70.8441 65.8629 71.0017 66.2387C71.3675 67.109 72.0795 67.6198 73.1377 67.7712C73.5438 67.8292 73.8181 67.92 73.9606 68.0436C74.2381 68.2845 74.315 68.6023 74.1914 68.9971C74.0199 69.542 73.593 69.7677 72.9106 69.6744C71.6733 69.5041 70.6624 68.9391 69.8779 67.9793C69.8363 67.9276 69.7915 67.925 69.7436 67.9717C69.5784 68.1357 69.4233 68.2857 69.2782 68.422C67.3882 70.2022 64.5636 70.0225 62.929 68.0247C62.9179 68.0107 62.9039 67.9994 62.8879 67.9914C62.872 67.9835 62.8545 67.9791 62.8367 67.9785C62.8189 67.978 62.8012 67.9813 62.7848 67.9883C62.7684 67.9953 62.7537 68.0058 62.7417 68.019C60.7193 70.2401 57.8512 70.1757 55.8931 67.9736C55.8852 67.9648 55.8755 67.9577 55.8647 67.9529C55.8539 67.9482 55.8422 67.9458 55.8305 67.946C55.8188 67.9461 55.8073 67.9489 55.7969 67.954C55.7865 67.9591 55.7773 67.9664 55.7701 67.9755C54.2358 69.8863 51.5228 70.2457 49.6196 68.6225C49.3699 68.4094 49.1321 68.1912 48.9064 67.9679C48.8977 67.9594 48.8874 67.9528 48.876 67.9486C48.8646 67.9443 48.8525 67.9425 48.8404 67.9432C48.8283 67.9439 48.8164 67.9472 48.8056 67.9527C48.7948 67.9583 48.7853 67.966 48.7777 67.9755C46.358 71.0441 41.564 69.6309 41.0323 65.7714C40.9396 65.1093 41.0494 64.6439 41.3218 63.9798C42.4279 61.2845 43.534 58.5892 44.6402 55.8939C45.185 54.5658 45.6555 53.6753 46.0515 53.2225C47.0479 52.0849 48.4359 51.5167 50.2156 51.518C55.75 51.5205 61.2963 51.5211 66.8547 51.5198C67.4387 51.5198 67.7571 51.8106 67.8101 52.392L67.8309 52.6342C67.8396 52.7291 67.8284 52.8249 67.798 52.9153C67.7676 53.0057 67.7188 53.0888 67.6545 53.1593C67.5903 53.2297 67.512 53.2861 67.4248 53.3246C67.3376 53.3632 67.2433 53.3832 67.1479 53.3834L64.4879 53.3909C64.416 53.3909 64.3782 53.4269 64.3744 53.4988ZM43.3612 63.9798C43.0831 64.6779 42.718 65.1358 42.9602 65.9379C43.7037 68.4125 47.1166 68.3425 47.811 65.849C47.8999 65.5312 47.8696 65.0979 47.9604 64.782C48.422 63.1587 49.5212 59.4014 51.258 53.5101C51.2769 53.4458 51.2536 53.4117 51.188 53.4079C49.5156 53.3039 47.7523 53.4269 46.988 55.1333C46.4343 56.3669 45.2254 59.3157 43.3612 63.9798ZM55.0455 64.0801C55.7342 60.5536 56.385 57.0189 56.998 53.4761C57.0081 53.418 56.9835 53.389 56.9242 53.389H53.3372C53.2602 53.389 53.2117 53.425 53.1915 53.4969C52.161 57.0889 51.1174 60.6797 50.0604 64.2693C49.8952 64.8318 49.8428 65.294 49.9034 65.656C50.3499 68.3274 53.8537 68.4901 54.7618 65.9304C54.9604 65.3722 54.932 64.6609 55.0455 64.0801ZM61.9036 64.6287C62.1382 60.9168 62.3123 57.2012 62.509 53.4855C62.5116 53.4212 62.4807 53.389 62.4163 53.389H59.0128C58.9472 53.389 58.9088 53.4212 58.8974 53.4855C58.2466 57.0751 57.5952 60.6659 56.9431 64.2579C56.8145 64.9592 56.8037 65.4996 56.9109 65.8793C57.5258 68.072 60.3958 68.4693 61.5063 66.479C61.717 66.1031 61.8494 65.4864 61.9036 64.6287Z" fill="white"/>
<mask id="path-16-inside-2_22_275" fill="white">
<path d="M47.287 94.0022C47.287 94.0867 47.3299 94.1289 47.4156 94.1289L85.2647 94.127C85.3152 94.127 85.3404 94.1018 85.3404 94.0513L85.3385 81.1468C85.3385 81.0497 85.3577 80.9536 85.3949 80.864C85.4321 80.7744 85.4866 80.6929 85.5553 80.6244C85.624 80.5559 85.7056 80.5015 85.7953 80.4646C85.885 80.4276 85.9812 80.4087 86.0782 80.4089H86.292C86.8987 80.4102 87.202 80.7142 87.202 81.3208C87.2071 85.9307 87.2077 90.4328 87.2039 94.827C87.2039 95.5384 86.9598 95.9905 86.2088 95.9905C73.0349 95.9968 59.8617 96 46.6891 96C45.9172 96 45.4045 95.8032 45.4045 94.9576C45.4134 87.2601 45.4159 79.4182 45.4121 71.4319C45.4108 70.819 45.7173 70.5112 46.3316 70.5087H46.534C46.6327 70.5082 46.7305 70.5273 46.8219 70.5648C46.9132 70.6023 46.9962 70.6575 47.0662 70.7273C47.1362 70.7971 47.1917 70.8801 47.2296 70.9715C47.2675 71.0629 47.287 71.1608 47.287 71.2598V94.0022Z"/>
</mask>
<path d="M47.287 94.0022C47.287 94.0867 47.3299 94.1289 47.4156 94.1289L85.2647 94.127C85.3152 94.127 85.3404 94.1018 85.3404 94.0513L85.3385 81.1468C85.3385 81.0497 85.3577 80.9536 85.3949 80.864C85.4321 80.7744 85.4866 80.6929 85.5553 80.6244C85.624 80.5559 85.7056 80.5015 85.7953 80.4646C85.885 80.4276 85.9812 80.4087 86.0782 80.4089H86.292C86.8987 80.4102 87.202 80.7142 87.202 81.3208C87.2071 85.9307 87.2077 90.4328 87.2039 94.827C87.2039 95.5384 86.9598 95.9905 86.2088 95.9905C73.0349 95.9968 59.8617 96 46.6891 96C45.9172 96 45.4045 95.8032 45.4045 94.9576C45.4134 87.2601 45.4159 79.4182 45.4121 71.4319C45.4108 70.819 45.7173 70.5112 46.3316 70.5087H46.534C46.6327 70.5082 46.7305 70.5273 46.8219 70.5648C46.9132 70.6023 46.9962 70.6575 47.0662 70.7273C47.1362 70.7971 47.1917 70.8801 47.2296 70.9715C47.2675 71.0629 47.287 71.1608 47.287 71.2598V94.0022Z" fill="white"/>
<path d="M47.4156 94.1289V96.1289H47.4157L47.4156 94.1289ZM85.2647 94.127V92.127H85.2646L85.2647 94.127ZM85.3404 94.0513H87.3404V94.051L85.3404 94.0513ZM85.3385 81.1468L83.3385 81.1468V81.1471L85.3385 81.1468ZM86.0782 80.4089L86.0731 82.4089H86.0782V80.4089ZM86.292 80.4089L86.2962 78.4089H86.292V80.4089ZM87.202 81.3208H85.202L85.202 81.323L87.202 81.3208ZM87.2039 94.827L85.2039 94.8253V94.827H87.2039ZM86.2088 95.9905V93.9905H86.2078L86.2088 95.9905ZM45.4045 94.9576L43.4045 94.9553V94.9576H45.4045ZM45.4121 71.4319L47.4121 71.431L47.4121 71.4278L45.4121 71.4319ZM46.3316 70.5087V68.5087L46.3233 68.5087L46.3316 70.5087ZM46.534 70.5087V72.5087L46.5441 72.5087L46.534 70.5087ZM47.287 71.2598L45.287 71.2598V71.2598H47.287ZM45.287 94.0022C45.287 94.3602 45.3802 94.9944 45.9154 95.5218C46.4451 96.0438 47.0717 96.1289 47.4156 96.1289V92.1289C47.6737 92.1289 48.2361 92.1929 48.7229 92.6727C49.2152 93.1577 49.287 93.7286 49.287 94.0022H45.287ZM47.4157 96.1289L85.2648 96.127L85.2646 92.127L47.4155 92.1289L47.4157 96.1289ZM85.2647 96.127C85.5983 96.127 86.2158 96.0422 86.7357 95.5223C87.2556 95.0024 87.3404 94.385 87.3404 94.0513H83.3404C83.3404 93.7682 83.4126 93.1886 83.9073 92.6939C84.402 92.1992 84.9816 92.127 85.2647 92.127V96.127ZM87.3404 94.051L87.3385 81.1465L83.3385 81.1471L83.3404 94.0516L87.3404 94.051ZM87.3385 81.1468C87.3385 81.3129 87.3057 81.4773 87.2421 81.6305L83.5476 80.0974C83.4096 80.43 83.3385 80.7866 83.3385 81.1468L87.3385 81.1468ZM87.2421 81.6305C87.1786 81.7837 87.0854 81.923 86.9677 82.0404L84.1429 79.2084C83.8877 79.4628 83.6855 79.765 83.5476 80.0974L87.2421 81.6305ZM86.9677 82.0404C86.8501 82.1577 86.7105 82.2506 86.5571 82.3138L85.0335 78.6154C84.7006 78.7525 84.3979 78.954 84.1429 79.2084L86.9677 82.0404ZM86.5571 82.3138C86.4037 82.377 86.2393 82.4094 86.0731 82.4089L86.0834 78.409C85.7231 78.408 85.3663 78.4782 85.0335 78.6154L86.5571 82.3138ZM86.0782 82.4089H86.292V78.4089H86.0782V82.4089ZM86.2878 82.4089C86.2825 82.4089 85.9129 82.4054 85.5588 82.0506C85.2048 81.6958 85.202 81.3262 85.202 81.3208H89.202C89.202 80.7089 89.0476 79.8839 88.3902 79.2251C87.7328 78.5663 86.9082 78.4102 86.2962 78.4089L86.2878 82.4089ZM85.202 81.323C85.2071 85.9317 85.2077 90.4325 85.2039 94.8253L89.2039 94.8288C89.2077 90.4332 89.2071 85.9298 89.202 81.3187L85.202 81.323ZM85.2039 94.827C85.2039 94.8988 85.1969 94.893 85.2106 94.8366C85.2253 94.7763 85.2713 94.6274 85.401 94.4583C85.5407 94.2763 85.7241 94.1408 85.9124 94.0624C86.084 93.991 86.2017 93.9905 86.2088 93.9905V97.9905C87.0047 97.9905 87.9338 97.7287 88.5749 96.8927C89.1297 96.1695 89.2039 95.3407 89.2039 94.827H85.2039ZM86.2078 93.9905C73.0343 93.9968 59.8614 94 46.6891 94V98C59.862 98 73.0356 97.9968 86.2097 97.9905L86.2078 93.9905ZM46.6891 94C46.5706 94 46.5382 93.9915 46.5591 93.9957C46.5817 94.0003 46.7202 94.0304 46.8926 94.1493C47.086 94.2827 47.2395 94.471 47.3289 94.6753C47.4083 94.8566 47.4045 94.9753 47.4045 94.9576H43.4045C43.4045 95.8099 43.692 96.8012 44.6221 97.4425C45.3769 97.9629 46.23 98 46.6891 98V94ZM47.4045 94.9599C47.4134 87.2613 47.4159 79.4183 47.4121 71.431L43.4121 71.4329C43.4159 79.4181 43.4134 87.2589 43.4045 94.9553L47.4045 94.9599ZM47.4121 71.4278C47.4121 71.431 47.4105 71.7989 47.0581 72.1527C46.7065 72.5058 46.3403 72.5087 46.3398 72.5087L46.3233 68.5087C45.7086 68.5112 44.882 68.6693 44.2239 69.3301C43.565 69.9917 43.4108 70.8199 43.4121 71.4361L47.4121 71.4278ZM46.3316 72.5087H46.534V68.5087H46.3316V72.5087ZM46.5441 72.5087C46.3788 72.5095 46.2148 72.4776 46.0618 72.4147L47.5819 68.7148C47.2462 68.5769 46.8866 68.5069 46.5239 68.5087L46.5441 72.5087ZM46.0618 72.4147C45.909 72.3519 45.7704 72.2596 45.6538 72.1433L48.4786 69.3113C48.2221 69.0555 47.9174 68.8527 47.5819 68.7148L46.0618 72.4147ZM45.6538 72.1433C45.5372 72.027 45.4449 71.889 45.3821 71.7375L49.0771 70.2054C48.9385 69.8712 48.7352 69.5673 48.4786 69.3113L45.6538 72.1433ZM45.3821 71.7375C45.3193 71.586 45.287 71.4236 45.287 71.2598L49.287 71.2598C49.287 70.898 49.2157 70.5397 49.0771 70.2054L45.3821 71.7375ZM45.287 71.2598V94.0022H49.287V71.2598H45.287Z" fill="white" mask="url(#path-16-inside-2_22_275)"/>
<path d="M53.0323 78.8368C54.5856 73.4336 61.8485 72.5595 64.7715 77.3252C65.3996 78.3506 65.7137 79.4983 65.7137 80.7684C65.7149 84.5976 65.7105 88.5422 65.7004 92.6022C65.6991 93.2076 65.3952 93.5141 64.7885 93.5216L64.5709 93.5235C64.4757 93.5248 64.3812 93.5071 64.2929 93.4715C64.2046 93.436 64.1242 93.3832 64.0565 93.3163C63.9887 93.2495 63.9349 93.1698 63.8982 93.0819C63.8615 92.9941 63.8426 92.8998 63.8426 92.8046C63.8363 89.0776 63.8331 85.4212 63.8331 81.8354C63.8331 80.5275 63.7366 79.6068 63.5436 79.0733C62.0434 74.9093 55.9648 75.1703 54.8069 79.4309C54.7022 79.8156 54.6499 80.4285 54.6499 81.2698C54.6511 84.9981 54.6474 88.7698 54.6385 92.5851C54.6373 93.1943 54.3327 93.5059 53.7248 93.5197L53.5053 93.5254C53.4104 93.5277 53.3159 93.5109 53.2276 93.4761C53.1392 93.4413 53.0586 93.3892 52.9906 93.3227C52.9226 93.2563 52.8685 93.1769 52.8315 93.0892C52.7944 93.0016 52.7753 92.9074 52.775 92.8122C52.7687 89.0688 52.7649 85.3588 52.7637 81.6822C52.7637 80.4096 52.8532 79.4611 53.0323 78.8368Z" fill="white"/>
<path d="M60.7259 86.6579C60.7259 86.6197 60.7568 86.5887 60.7951 86.5887C60.8333 86.5887 60.8643 86.6196 60.8643 86.6579C60.8643 86.6961 60.8333 86.727 60.7951 86.727C60.7568 86.727 60.7259 86.696 60.7259 86.6579Z" fill="white" stroke="white" stroke-width="2"/>
<path d="M81.9912 88.729H70.0113C69.5538 88.729 69.1829 89.0294 69.1829 89.3998V89.4219C69.1829 89.7924 69.5538 90.0927 70.0113 90.0927H81.9912C82.4488 90.0927 82.8197 89.7924 82.8197 89.4219V89.3998C82.8197 89.0294 82.4488 88.729 81.9912 88.729Z" fill="white"/>
<defs>
<filter id="filter0_bd_22_275" x="-40" y="-40" width="214" height="214" filterUnits="userSpaceOnUse" color-interpolation-filters="sRGB">
<feFlood flood-opacity="0" result="BackgroundImageFix"/>
<feGaussianBlur in="BackgroundImageFix" stdDeviation="25"/>
<feComposite in2="SourceAlpha" operator="in" result="effect1_backgroundBlur_22_275"/>
<feColorMatrix in="SourceAlpha" type="matrix" values="0 0 0 0 0 0 0 0 0 0 0 0 0 0 0 0 0 0 127 0" result="hardAlpha"/>
<feOffset dx="4" dy="4"/>
<feGaussianBlur stdDeviation="7"/>
<feComposite in2="hardAlpha" operator="out"/>
<feColorMatrix type="matrix" values="0 0 0 0 0 0 0 0 0 0 0 0 0 0 0 0 0 0 0.25 0"/>
<feBlend mode="normal" in2="effect1_backgroundBlur_22_275" result="effect2_dropShadow_22_275"/>
<feBlend mode="normal" in="SourceGraphic" in2="effect2_dropShadow_22_275" result="shape"/>
</filter>
<linearGradient id="paint0_linear_22_275" x1="67" y1="10" x2="67" y2="124" gradientUnits="userSpaceOnUse">
<stop stop-color="#30C9CD"/>
<stop offset="1" stop-color="#330D69"/>
</linearGradient>
</defs>
</svg>
