<svg width="139" height="76" viewBox="0 0 139 76" fill="none" xmlns="http://www.w3.org/2000/svg">
<g filter="url(#filter0_di_43_135)">
<rect x="10" y="10" width="119" height="56" rx="28" fill="url(#paint0_linear_43_135)" fill-opacity="0.85" shape-rendering="crispEdges"/>
<path d="M49.375 31.25L42.625 38L49.375 44.75" stroke="white" stroke-width="2" stroke-linecap="round" stroke-linejoin="round"/>
<path d="M72.8728 46.5C72.2968 46.5 71.8008 46.7 71.3848 47.1C70.9848 47.516 70.7848 48.012 70.7848 48.588C70.7848 49.148 70.9848 49.628 71.3848 50.028C71.8008 50.428 72.2968 50.628 72.8728 50.628H78.7768V53.556H72.8728C71.9608 53.556 71.1208 53.332 70.3528 52.884C69.6008 52.436 69.0008 51.828 68.5528 51.06C68.1208 50.308 67.9048 49.484 67.9048 48.588C67.9048 47.596 68.0888 46.74 68.4568 46.02C68.8408 45.284 69.3368 44.716 69.9448 44.316C70.5528 43.916 71.1928 43.692 71.8648 43.644H72.4408L70.2088 38.484L70.9768 36.324C72.8168 35.268 74.6168 34.74 76.3768 34.74C76.9368 34.74 77.4088 34.78 77.7928 34.86C78.5608 35.004 79.2488 35.308 79.8568 35.772C80.4648 36.236 80.9368 36.804 81.2728 37.476C81.6248 38.148 81.8008 38.86 81.8008 39.612C81.8008 40.3 81.6568 41.02 81.3688 41.772C81.0808 42.508 80.6488 43.116 80.0728 43.596H83.4088V46.5H72.8728ZM75.6328 43.428C76.4168 43.268 77.0488 42.964 77.5288 42.516C78.0088 42.052 78.3448 41.572 78.5368 41.076C78.7448 40.58 78.8568 40.156 78.8728 39.804C78.9368 39.308 78.8088 38.86 78.4888 38.46C78.1848 38.06 77.7768 37.812 77.2648 37.716C77.0088 37.668 76.7368 37.644 76.4488 37.644C75.6168 37.644 74.6408 37.86 73.5208 38.292L73.4008 38.748L75.6328 43.428ZM85.3894 33.18V31.692H86.1814C86.0054 31.292 85.9334 30.948 85.9654 30.66C86.0454 30.068 86.2934 29.572 86.7094 29.172C87.1414 28.756 87.6614 28.548 88.2694 28.548C88.7974 28.548 89.2614 28.692 89.6614 28.98C90.0614 29.252 90.3494 29.628 90.5254 30.108L89.3494 30.948C89.2214 30.644 89.0774 30.42 88.9174 30.276C88.7574 30.132 88.5414 30.06 88.2694 30.06C88.0454 30.06 87.8534 30.132 87.6934 30.276C87.5494 30.42 87.4774 30.604 87.4774 30.828C87.4774 31.036 87.5414 31.236 87.6694 31.428C87.7974 31.604 87.9974 31.692 88.2694 31.692H90.4774V33.18H85.3894ZM83.0854 46.5C82.6854 46.5 82.3414 46.356 82.0534 46.068C81.7494 45.78 81.5974 45.436 81.5974 45.036C81.5974 44.62 81.7414 44.276 82.0294 44.004C82.3174 43.732 82.6694 43.596 83.0854 43.596H85.3654C85.6854 43.596 85.9494 43.492 86.1574 43.284C86.3654 43.076 86.4694 42.82 86.4694 42.516V34.908H89.3734V42.516C89.3734 43.236 89.1894 43.9 88.8214 44.508C88.4694 45.116 87.9814 45.604 87.3574 45.972C86.7494 46.324 86.0774 46.5 85.3414 46.5H83.0854ZM96.7729 46.5C96.0689 46.5 95.4129 46.324 94.8049 45.972C94.1969 45.62 93.7169 45.14 93.3649 44.532C93.0129 43.924 92.8369 43.268 92.8369 42.564V29.724H95.7409V42.564C95.7409 42.852 95.8369 43.1 96.0289 43.308C96.2369 43.5 96.4849 43.596 96.7729 43.596H97.8529V46.5H96.7729ZM97.5932 46.5C97.1932 46.5 96.8492 46.356 96.5612 46.068C96.2572 45.78 96.1052 45.436 96.1052 45.036C96.1052 44.62 96.2492 44.276 96.5372 44.004C96.8252 43.732 97.1772 43.596 97.5932 43.596H99.8732C100.193 43.596 100.457 43.492 100.665 43.284C100.873 43.076 100.977 42.82 100.977 42.516V34.86H103.881V42.516C103.881 43.236 103.697 43.9 103.329 44.508C102.977 45.116 102.489 45.604 101.865 45.972C101.257 46.324 100.585 46.5 99.8492 46.5H97.5932ZM98.8172 50.172C98.8172 49.724 98.9852 49.332 99.3212 48.996C99.6572 48.66 100.049 48.492 100.497 48.492C100.977 48.492 101.385 48.652 101.721 48.972C102.057 49.308 102.225 49.708 102.225 50.172C102.225 50.652 102.057 51.052 101.721 51.372C101.385 51.708 100.977 51.876 100.497 51.876C100.033 51.876 99.6332 51.708 99.2972 51.372C98.9772 51.052 98.8172 50.652 98.8172 50.172Z" fill="white"/>
</g>
<defs>
<filter id="filter0_di_43_135" x="0" y="0" width="139" height="76" filterUnits="userSpaceOnUse" color-interpolation-filters="sRGB">
<feFlood flood-opacity="0" result="BackgroundImageFix"/>
<feColorMatrix in="SourceAlpha" type="matrix" values="0 0 0 0 0 0 0 0 0 0 0 0 0 0 0 0 0 0 127 0" result="hardAlpha"/>
<feOffset/>
<feGaussianBlur stdDeviation="5"/>
<feComposite in2="hardAlpha" operator="out"/>
<feColorMatrix type="matrix" values="0 0 0 0 0 0 0 0 0 0 0 0 0 0 0 0 0 0 0.35 0"/>
<feBlend mode="normal" in2="BackgroundImageFix" result="effect1_dropShadow_43_135"/>
<feBlend mode="normal" in="SourceGraphic" in2="effect1_dropShadow_43_135" result="shape"/>
<feColorMatrix in="SourceAlpha" type="matrix" values="0 0 0 0 0 0 0 0 0 0 0 0 0 0 0 0 0 0 127 0" result="hardAlpha"/>
<feOffset dx="4" dy="4"/>
<feGaussianBlur stdDeviation="6.5"/>
<feComposite in2="hardAlpha" operator="arithmetic" k2="-1" k3="1"/>
<feColorMatrix type="matrix" values="0 0 0 0 0.188235 0 0 0 0 0.788235 0 0 0 0 0.803922 0 0 0 0.2 0"/>
<feBlend mode="normal" in2="shape" result="effect2_innerShadow_43_135"/>
</filter>
<linearGradient id="paint0_linear_43_135" x1="69.5" y1="10" x2="69.5" y2="66" gradientUnits="userSpaceOnUse">
<stop stop-color="#30C9CD"/>
<stop offset="1" stop-color="#330D69"/>
</linearGradient>
</defs>
</svg>
